<?xml version="1.0" encoding="UTF-8" standalone="no"?>
<!DOCTYPE svg PUBLIC "-//W3C//DTD SVG 1.1//EN" "http://www.w3.org/Graphics/SVG/1.1/DTD/svg11.dtd">
<svg width="100%" height="100%" viewBox="0 0 33 33" version="1.1" xmlns="http://www.w3.org/2000/svg" xmlns:xlink="http://www.w3.org/1999/xlink" xml:space="preserve" xmlns:serif="http://www.serif.com/" style="fill-rule:evenodd;clip-rule:evenodd;stroke-linejoin:round;stroke-miterlimit:2;">
    <g id="Tracé_1445" transform="matrix(1,0,0,1,-988.8,-8192.02)">
        <path d="M1005.3,8192.02C1014.35,8192.02 1021.8,8199.47 1021.8,8208.52C1021.8,8217.57 1014.35,8225.02 1005.3,8225.02C996.248,8225.02 988.8,8217.57 988.8,8208.52C988.805,8199.47 996.25,8192.02 1005.3,8192.02ZM1012.98,8201.69C1013.03,8200.86 1012.38,8200.13 1011.54,8200.08L999.052,8200.08C998.216,8200.13 997.571,8200.86 997.617,8201.69L997.617,8215.34C997.569,8216.18 998.216,8216.91 999.052,8216.96L1005.2,8211.2L1011.54,8216.96C1012.38,8216.91 1013.03,8216.18 1012.98,8215.34L1012.98,8201.69Z" style="fill:white;"/>
    </g>
</svg>
