<?xml version="1.0" encoding="UTF-8" standalone="no"?>
<!DOCTYPE svg PUBLIC "-//W3C//DTD SVG 1.1//EN" "http://www.w3.org/Graphics/SVG/1.1/DTD/svg11.dtd">
<svg width="100%" height="100%" viewBox="0 0 289 289" version="1.1" xmlns="http://www.w3.org/2000/svg" xmlns:xlink="http://www.w3.org/1999/xlink" xml:space="preserve" xmlns:serif="http://www.serif.com/" style="fill-rule:evenodd;clip-rule:evenodd;stroke-linejoin:round;stroke-miterlimit:2;">
    <g transform="matrix(1,0,0,1,-1080.8,-8192)">
        <g transform="matrix(1,0,0,1.76979,-6649,302.635)">
            <g transform="matrix(1,0,0,0.565038,6741,-171)">
                <g id="Groupe_131">
                    <g id="Groupe_130">
                        <path d="M1133.3,8192C1213.05,8192 1277.8,8256.75 1277.8,8336.5C1277.8,8416.25 1213.05,8481 1133.3,8481C1053.55,8481 988.797,8416.25 988.797,8336.5C988.797,8256.75 1053.55,8192 1133.3,8192ZM1200.57,8276.74C1200.57,8268.94 1194.93,8262.58 1187.99,8262.58L1078.6,8262.58C1071.64,8262.58 1066.03,8268.94 1066.03,8276.74L1066.03,8396.26C1066.03,8404.09 1071.64,8410.42 1078.6,8410.42L1132.4,8360.03L1187.99,8410.42C1194.93,8410.42 1200.57,8404.09 1200.57,8396.26L1200.57,8276.74Z" style="fill:rgb(251,149,5);"/>
                    </g>
                </g>
            </g>
        </g>
    </g>
</svg>
