<?xml version="1.0" encoding="UTF-8" standalone="no"?>
<!DOCTYPE svg PUBLIC "-//W3C//DTD SVG 1.1//EN" "http://www.w3.org/Graphics/SVG/1.1/DTD/svg11.dtd">
<svg width="100%" height="100%" viewBox="0 0 124 124" version="1.1" xmlns="http://www.w3.org/2000/svg" xmlns:xlink="http://www.w3.org/1999/xlink" xml:space="preserve" xmlns:serif="http://www.serif.com/" style="fill-rule:evenodd;clip-rule:evenodd;stroke-linejoin:round;stroke-miterlimit:2;">
    <g transform="matrix(0.75,0,0,0.75,0,0)">
        <g transform="matrix(2.66667,0,0,2.66667,0,0)">
            <g>
                <g id="Groupe_75">
                    <g id="Tracé_221" transform="matrix(1,0,0,1,0.324,0.325)">
                        <path d="M30.763,54.863L30.795,60.657L30.095,60.657L30.125,54.863L30.763,54.863ZM27.6,54.706C27.8,54.723 28,54.738 28.188,54.768C28.111,55.668 28.019,56.568 27.941,57.468C27.724,57.436 27.508,57.421 27.306,57.391C27.398,56.491 27.506,55.608 27.6,54.708M33.3,54.693C33.392,55.593 33.5,56.493 33.609,57.393C33.392,57.423 33.176,57.438 32.959,57.455C32.882,56.555 32.787,55.655 32.71,54.755C32.897,54.74 33.099,54.725 33.3,54.693M25.085,54.275C25.272,54.322 25.474,54.352 25.658,54.4C25.474,55.284 25.302,56.166 25.115,57.05C24.915,57.003 24.715,56.973 24.497,56.925C24.697,56.041 24.883,55.159 25.085,54.275M35.811,54.275C36.011,55.159 36.197,56.026 36.399,56.91C36.199,56.957 35.981,57.002 35.779,57.049C35.592,56.165 35.423,55.283 35.236,54.399C35.423,54.352 35.625,54.322 35.811,54.274M17.941,51.439C18.128,51.546 18.312,51.656 18.499,51.748L18.081,52.475C17.772,53.018 17.476,53.561 17.167,54.104L17.152,54.104L15.633,56.784C15.433,56.674 15.233,56.552 15.028,56.443L17.941,51.439ZM42.922,51.439L45.851,56.428C45.651,56.553 45.451,56.66 45.251,56.784L42.37,51.747C42.557,51.637 42.744,51.547 42.928,51.438M22.628,53.59C22.815,53.652 22.999,53.715 23.186,53.762C22.922,54.629 22.643,55.481 22.379,56.35C22.179,56.288 21.979,56.225 21.779,56.15C22.058,55.298 22.352,54.45 22.631,53.592M38.284,53.577C38.563,54.429 38.857,55.283 39.136,56.15L38.531,56.337C38.267,55.483 37.99,54.616 37.711,53.764C37.911,53.702 38.097,53.639 38.284,53.577M20.26,52.648C20.429,52.725 20.616,52.802 20.803,52.88C20.429,53.717 20.073,54.539 19.717,55.38C19.517,55.288 19.331,55.193 19.129,55.116C19.518,54.294 19.889,53.475 20.26,52.653M40.66,52.638C41.031,53.458 41.402,54.279 41.791,55.101C41.591,55.193 41.402,55.27 41.201,55.365C40.845,54.528 40.489,53.706 40.117,52.865C40.301,52.803 40.473,52.711 40.66,52.633M15.87,50.043C16.027,50.15 16.181,50.275 16.336,50.384C15.825,51.111 15.297,51.856 14.772,52.598C14.6,52.473 14.431,52.334 14.259,52.212C14.787,51.5 15.33,50.77 15.871,50.042M45.037,50.01C45.58,50.74 46.108,51.467 46.649,52.194C46.48,52.319 46.31,52.443 46.138,52.568C45.612,51.838 45.084,51.096 44.556,50.368C44.723,50.259 44.884,50.14 45.037,50.012M13.9,48.4C14.039,48.539 14.194,48.664 14.333,48.8C13.733,49.465 13.14,50.148 12.533,50.83C12.376,50.691 12.222,50.551 12.067,50.397C12.672,49.729 13.275,49.079 13.895,48.397M46.995,48.382C47.595,49.047 48.218,49.715 48.823,50.382C48.666,50.519 48.512,50.661 48.342,50.815C47.754,50.132 47.149,49.45 46.542,48.785C46.696,48.646 46.836,48.521 46.993,48.385M12.1,46.571C12.239,46.725 12.364,46.88 12.5,47.019C11.835,47.624 11.167,48.245 10.5,48.85C10.361,48.693 10.221,48.539 10.064,48.369C10.747,47.779 11.429,47.176 12.094,46.569M48.777,46.554C49.445,47.154 50.125,47.747 50.807,48.354C50.668,48.508 50.528,48.663 50.374,48.832C49.706,48.212 49.041,47.609 48.374,46.989C48.515,46.852 48.648,46.707 48.774,46.556M10.524,44.571C10.634,44.738 10.752,44.898 10.88,45.052C10.135,45.595 9.423,46.123 8.695,46.664L8.321,46.153C9.051,45.627 9.796,45.099 10.521,44.571M50.365,44.556C51.107,45.084 51.837,45.595 52.565,46.123C52.44,46.292 52.318,46.462 52.194,46.634C51.464,46.106 50.752,45.565 50.024,45.034C50.131,44.865 50.256,44.708 50.365,44.553M9.129,42.371C9.236,42.571 9.346,42.742 9.455,42.929C8.663,43.395 7.888,43.843 7.114,44.309L7.114,44.292L4.449,45.858C4.324,45.658 4.217,45.458 4.093,45.253L9.129,42.371ZM51.745,42.371L56.782,45.238C56.675,45.438 56.55,45.638 56.441,45.843L51.441,42.914C51.554,42.739 51.657,42.557 51.75,42.371M8.013,40.124C8.09,40.311 8.167,40.495 8.26,40.667C7.441,41.038 6.619,41.409 5.797,41.798C5.72,41.598 5.628,41.409 5.535,41.208C6.372,40.852 7.191,40.496 8.013,40.124M52.879,40.109L55.342,41.178C55.265,41.378 55.17,41.564 55.093,41.766C54.271,41.395 53.452,41.006 52.63,40.65C52.722,40.466 52.802,40.279 52.879,40.109M7.114,37.738C7.176,37.922 7.239,38.109 7.301,38.296C6.449,38.575 5.601,38.869 4.76,39.148C4.68,38.948 4.618,38.748 4.56,38.543C5.414,38.279 6.266,38 7.118,37.743M53.765,37.711C54.617,37.99 55.486,38.254 56.338,38.518C56.276,38.718 56.213,38.918 56.138,39.118C55.286,38.839 54.438,38.56 53.582,38.266C53.644,38.079 53.704,37.895 53.766,37.708M6.494,35.257C6.526,35.457 6.571,35.646 6.619,35.83C5.735,36.03 4.853,36.219 3.984,36.42C3.939,36.22 3.892,36.002 3.845,35.8C4.729,35.613 5.614,35.444 6.495,35.257M54.395,35.227C55.264,35.411 56.146,35.583 57.03,35.768C56.983,35.968 56.953,36.186 56.905,36.388C56.021,36.188 55.139,36.002 54.27,35.815C54.317,35.615 54.35,35.429 54.395,35.227M6.122,32.727C6.137,32.914 6.152,33.116 6.184,33.317C5.284,33.409 4.401,33.517 3.504,33.611C3.472,33.411 3.457,33.193 3.442,32.976C4.324,32.899 5.223,32.804 6.122,32.727M54.751,32.697C55.651,32.774 56.551,32.866 57.451,32.944C57.421,33.161 57.404,33.377 57.374,33.579C56.49,33.487 55.591,33.379 54.691,33.285C54.723,33.085 54.738,32.899 54.753,32.697M6.013,30.129L6.013,30.764C5.113,30.779 4.213,30.779 3.313,30.794L3.313,30.779L0.213,30.794L0.213,30.094L6.013,30.129ZM54.862,30.114L60.662,30.082L60.662,30.782L54.862,30.752L54.862,30.114ZM6.108,28.206C5.224,28.129 4.325,28.037 3.425,27.959C3.457,27.742 3.472,27.526 3.505,27.324C4.387,27.416 5.286,27.524 6.168,27.618C6.153,27.818 6.138,28.004 6.108,28.206M54.69,27.586C55.59,27.494 56.49,27.386 57.373,27.292C57.403,27.492 57.42,27.71 57.435,27.927C56.551,28.004 55.652,28.099 54.752,28.176C54.737,27.989 54.722,27.787 54.69,27.586M6.479,25.68C5.597,25.496 4.728,25.324 3.844,25.154C3.891,24.937 3.924,24.736 3.969,24.519C4.853,24.719 5.72,24.905 6.604,25.092C6.557,25.292 6.509,25.478 6.479,25.68M54.272,25.08C55.141,24.88 56.023,24.691 56.892,24.49C56.939,24.69 56.984,24.908 57.031,25.11C56.147,25.297 55.265,25.466 54.396,25.653C54.351,25.453 54.319,25.264 54.271,25.08M7.1,23.2C6.248,22.921 5.394,22.657 4.542,22.393C4.604,22.193 4.667,21.993 4.742,21.793C5.596,22.072 6.431,22.351 7.285,22.645L7.1,23.2M53.577,22.61C54.429,22.331 55.277,22.037 56.118,21.758C56.195,21.958 56.257,22.158 56.318,22.363C55.464,22.627 54.612,22.906 53.76,23.163C53.698,22.979 53.638,22.792 53.576,22.605M8,20.8L5.535,19.729C5.612,19.542 5.704,19.343 5.782,19.141C6.604,19.512 7.409,19.883 8.231,20.257C8.154,20.441 8.077,20.613 7.999,20.798M52.631,20.225C53.453,19.869 54.258,19.498 55.08,19.125C55.157,19.312 55.249,19.514 55.344,19.7L52.881,20.769C52.804,20.597 52.724,20.413 52.632,20.226M9.438,17.963C9.326,18.139 9.223,18.32 9.129,18.506C8.339,18.07 7.565,17.622 6.79,17.188L6.79,17.173L4.09,15.639C4.197,15.439 4.322,15.239 4.431,15.034L9.438,17.963ZM51.438,17.948L56.427,15.019C56.552,15.219 56.661,15.419 56.783,15.619L51.746,18.503C51.639,18.316 51.529,18.129 51.437,17.945M10.492,16.345C9.765,15.817 9.037,15.306 8.307,14.778C8.432,14.609 8.556,14.439 8.678,14.267C9.393,14.795 10.12,15.336 10.833,15.867C10.726,16.021 10.601,16.176 10.492,16.348M50.027,15.837C50.739,15.309 51.467,14.766 52.179,14.237L52.553,14.748C51.823,15.276 51.096,15.787 50.368,16.312C50.258,16.158 50.134,15.988 50.027,15.834M12.073,14.334C11.408,13.746 10.725,13.141 10.058,12.553C10.197,12.396 10.337,12.242 10.491,12.087C11.144,12.692 11.809,13.295 12.476,13.9C12.337,14.039 12.197,14.194 12.076,14.333M48.386,13.867C49.054,13.267 49.704,12.659 50.371,12.054C50.51,12.211 50.65,12.365 50.804,12.535C50.121,13.125 49.456,13.713 48.789,14.318C48.65,14.164 48.525,14.024 48.389,13.867M13.855,12.508C13.255,11.84 12.647,11.19 12.042,10.523C12.199,10.386 12.353,10.244 12.523,10.105C13.113,10.773 13.701,11.44 14.306,12.105C14.152,12.244 14.012,12.369 13.855,12.505M46.555,12.087C47.143,11.419 47.748,10.754 48.336,10.072C48.493,10.211 48.647,10.351 48.817,10.505C48.199,11.158 47.594,11.823 46.989,12.49C46.85,12.351 46.695,12.211 46.556,12.09M15.826,10.864C15.298,10.152 14.755,9.424 14.226,8.712L14.737,8.338C15.265,9.068 15.776,9.795 16.301,10.523C16.132,10.633 15.977,10.757 15.823,10.864M44.553,10.508C45.066,9.781 45.592,9.051 46.105,8.323C46.274,8.448 46.446,8.572 46.616,8.694C46.09,9.406 45.562,10.136 45.016,10.849C44.862,10.742 44.707,10.617 44.55,10.508M18.505,9.13C18.318,9.237 18.134,9.347 17.947,9.439L17.576,8.819C17.25,8.246 16.923,7.688 16.585,7.145L16.6,7.13L15.018,4.45C15.218,4.325 15.418,4.216 15.623,4.094L18.505,9.13ZM42.37,9.13L45.237,4.093C45.437,4.2 45.637,4.325 45.842,4.432L42.928,9.439C42.744,9.329 42.557,9.222 42.37,9.13M20.209,8.246C19.838,7.439 19.482,6.634 19.096,5.812C19.296,5.72 19.496,5.643 19.684,5.565C20.04,6.365 20.396,7.192 20.753,8.014C20.566,8.091 20.397,8.168 20.21,8.246M40.094,8C40.45,7.181 40.806,6.373 41.163,5.551C41.363,5.628 41.549,5.723 41.751,5.8C41.38,6.622 41.009,7.427 40.638,8.249C40.466,8.157 40.279,8.08 40.095,8M22.6,7.3C22.306,6.463 22.027,5.611 21.748,4.759L22.353,4.572C22.617,5.426 22.881,6.278 23.153,7.115C22.969,7.177 22.782,7.24 22.595,7.299M37.69,7.115C37.969,6.261 38.233,5.409 38.497,4.557C38.697,4.619 38.897,4.696 39.097,4.757C38.821,5.594 38.542,6.446 38.26,7.298C38.076,7.238 37.889,7.176 37.687,7.114M25.046,6.6C24.859,5.733 24.672,4.866 24.471,4C24.671,3.953 24.889,3.908 25.091,3.861C25.278,4.745 25.447,5.612 25.634,6.481C25.434,6.526 25.245,6.573 25.046,6.603M35.211,6.48C35.398,5.611 35.567,4.729 35.754,3.86C35.954,3.907 36.154,3.952 36.374,3.985C36.174,4.869 35.985,5.736 35.799,6.603C35.599,6.558 35.413,6.526 35.211,6.481M27.571,6.181C27.476,5.281 27.371,4.4 27.26,3.516C27.477,3.486 27.693,3.471 27.913,3.454C27.99,4.338 28.082,5.223 28.16,6.122C27.96,6.137 27.771,6.152 27.572,6.182M32.686,6.105C32.778,5.223 32.855,4.339 32.933,3.455C33.15,3.472 33.369,3.487 33.568,3.517C33.476,4.401 33.368,5.286 33.274,6.167C33.074,6.152 32.888,6.137 32.686,6.105M30.113,6.013L30.083,0.213L30.783,0.213L30.751,6.013L30.113,6.013Z" style="fill:white;stroke:white;stroke-width:0.37px;"/>
                    </g>
                    <path id="Tracé_222" d="M31.629,55.188C31.629,55.041 31.568,54.9 31.46,54.799C31.355,54.699 31.216,54.644 31.071,54.645L30.451,54.645C30.308,54.649 30.172,54.704 30.065,54.799C29.966,54.905 29.911,55.044 29.911,55.188L29.879,60.982L29.879,60.987C29.879,61.282 30.122,61.525 30.417,61.525L31.122,61.525C31.419,61.522 31.662,61.279 31.665,60.982L31.629,55.188ZM31.086,55.188L31.118,60.982L30.418,60.982L30.448,55.188L31.086,55.188ZM27.986,54.488C27.844,54.477 27.703,54.515 27.586,54.595C27.482,54.696 27.412,54.826 27.386,54.969C27.294,55.869 27.202,56.769 27.092,57.649C27.089,57.672 27.088,57.694 27.088,57.717C27.088,57.992 27.3,58.224 27.573,58.249C27.773,58.281 28.006,58.296 28.208,58.311C28.231,58.314 28.255,58.316 28.278,58.316C28.55,58.316 28.779,58.102 28.796,57.83C28.891,56.93 28.968,56.03 29.06,55.13C29.072,54.985 29.027,54.842 28.935,54.73C28.845,54.625 28.717,54.559 28.579,54.546C28.379,54.529 28.193,54.499 27.991,54.484M34.158,54.965C34.15,54.817 34.077,54.68 33.958,54.591C33.851,54.502 33.71,54.463 33.572,54.484C33.372,54.499 33.183,54.514 32.982,54.546C32.839,54.555 32.705,54.622 32.611,54.73C32.529,54.846 32.491,54.988 32.504,55.13C32.596,56.03 32.673,56.93 32.766,57.83C32.788,58.102 33.019,58.315 33.292,58.315C33.314,58.315 33.335,58.314 33.356,58.311C33.573,58.296 33.789,58.281 34.006,58.249C34.297,58.21 34.507,57.941 34.472,57.649C34.362,56.749 34.272,55.849 34.161,54.969M25.53,54.069C25.392,54.04 25.248,54.068 25.13,54.146C25.009,54.226 24.921,54.347 24.883,54.487C24.696,55.369 24.509,56.238 24.308,57.12C24.239,57.409 24.419,57.703 24.708,57.773C24.925,57.818 25.141,57.865 25.358,57.895C25.647,57.954 25.933,57.765 25.993,57.477C26.165,56.595 26.349,55.711 26.521,54.827C26.557,54.689 26.528,54.542 26.444,54.427C26.366,54.306 26.243,54.222 26.103,54.193C25.916,54.148 25.717,54.116 25.53,54.071M36.672,54.471C36.645,54.331 36.561,54.208 36.44,54.132C36.324,54.051 36.176,54.028 36.04,54.07C35.84,54.1 35.651,54.147 35.467,54.177C35.33,54.212 35.209,54.294 35.126,54.409C35.04,54.53 35.012,54.683 35.049,54.827C35.218,55.711 35.405,56.596 35.575,57.477C35.63,57.728 35.854,57.908 36.11,57.908C36.15,57.908 36.189,57.903 36.228,57.895C36.428,57.85 36.646,57.803 36.863,57.756C37.104,57.702 37.277,57.487 37.277,57.24C37.277,57.2 37.272,57.16 37.263,57.121C37.063,56.239 36.877,55.355 36.675,54.471M27.934,55.029C28.134,55.046 28.334,55.061 28.522,55.091C28.445,55.991 28.353,56.891 28.275,57.791C28.058,57.759 27.842,57.744 27.64,57.714C27.732,56.814 27.84,55.931 27.934,55.031M33.634,55.016C33.726,55.916 33.834,56.816 33.943,57.716C33.726,57.746 33.51,57.761 33.293,57.778C33.216,56.878 33.121,55.978 33.044,55.078C33.231,55.063 33.433,55.048 33.634,55.016M17.9,54.784C17.93,54.752 17.945,54.722 17.962,54.707C18.271,54.149 18.582,53.607 18.891,53.063L19.291,52.351C19.344,52.267 19.372,52.17 19.372,52.07C19.372,51.876 19.264,51.696 19.091,51.606C18.904,51.499 18.735,51.406 18.548,51.297C18.431,51.217 18.284,51.194 18.148,51.235C18.006,51.269 17.883,51.359 17.807,51.484L14.895,56.484C14.745,56.74 14.828,57.073 15.079,57.229C15.279,57.354 15.479,57.461 15.684,57.57C15.767,57.619 15.862,57.645 15.959,57.645C16.153,57.645 16.333,57.54 16.429,57.37L17.9,54.784ZM43.718,51.484C43.648,51.36 43.53,51.27 43.392,51.235C43.252,51.195 43.102,51.212 42.974,51.282C42.805,51.389 42.618,51.499 42.431,51.606C42.305,51.673 42.214,51.792 42.184,51.932C42.145,52.066 42.162,52.211 42.231,52.332L45.1,57.372C45.195,57.541 45.375,57.646 45.569,57.646C45.665,57.646 45.759,57.621 45.842,57.572C46.042,57.462 46.242,57.338 46.447,57.216C46.616,57.125 46.722,56.948 46.722,56.756C46.722,56.661 46.696,56.567 46.647,56.486L43.718,51.484ZM25.414,54.6C25.601,54.647 25.803,54.677 25.987,54.725C25.803,55.609 25.631,56.491 25.444,57.375C25.244,57.328 25.044,57.298 24.826,57.25C25.026,56.366 25.212,55.484 25.414,54.6M36.14,54.6C36.34,55.484 36.526,56.351 36.728,57.235C36.528,57.282 36.31,57.327 36.108,57.374C35.921,56.49 35.752,55.608 35.565,54.724C35.752,54.677 35.954,54.647 36.14,54.599M23.12,53.4C23.058,53.374 22.992,53.361 22.925,53.361C22.696,53.361 22.495,53.518 22.44,53.741C22.14,54.593 21.865,55.441 21.571,56.299C21.554,56.352 21.546,56.407 21.546,56.463C21.546,56.699 21.701,56.91 21.927,56.979C22.127,57.056 22.327,57.118 22.532,57.179C22.588,57.199 22.647,57.209 22.707,57.209C22.943,57.209 23.151,57.05 23.215,56.823C23.494,55.971 23.756,55.102 24.037,54.25C24.082,54.11 24.065,53.958 23.99,53.832C23.926,53.707 23.813,53.612 23.679,53.57C23.495,53.508 23.308,53.445 23.121,53.398M39.115,53.724C39.072,53.589 38.977,53.477 38.851,53.413C38.721,53.349 38.571,53.339 38.433,53.383L37.875,53.57C37.735,53.601 37.619,53.699 37.566,53.832C37.49,53.958 37.472,54.111 37.519,54.25C37.798,55.102 38.062,55.956 38.341,56.823C38.41,57.05 38.62,57.206 38.857,57.206C38.914,57.206 38.97,57.197 39.024,57.179C39.224,57.117 39.424,57.04 39.644,56.979C39.86,56.906 40.005,56.703 40.005,56.475C40.005,56.408 39.993,56.341 39.968,56.279C39.689,55.427 39.395,54.579 39.116,53.723M17.216,54.884L17.48,54.421L17.5,54.421C17.809,53.878 18.105,53.335 18.414,52.792L18.832,52.065C18.645,51.973 18.461,51.865 18.274,51.756L15.36,56.756C15.56,56.866 15.76,56.988 15.965,57.097L17.22,54.88L17.216,54.884ZM43.251,51.755L46.18,56.744C45.98,56.869 45.78,56.976 45.58,57.1L42.696,52.063C42.883,51.953 43.07,51.863 43.254,51.754M22.954,53.906C23.141,53.968 23.325,54.031 23.512,54.078C23.248,54.945 22.969,55.797 22.705,56.666C22.505,56.604 22.305,56.541 22.105,56.466C22.384,55.614 22.678,54.766 22.957,53.908M38.6,53.9C38.879,54.752 39.173,55.606 39.452,56.473L38.847,56.66C38.583,55.806 38.306,54.939 38.027,54.087C38.227,54.025 38.413,53.962 38.6,53.9M20.8,52.475C20.668,52.415 20.518,52.41 20.382,52.46C20.253,52.513 20.148,52.613 20.088,52.739C19.717,53.558 19.345,54.379 18.972,55.202C18.846,55.474 18.965,55.802 19.236,55.929C19.436,56.006 19.622,56.101 19.824,56.193C20.1,56.307 20.421,56.174 20.536,55.899C20.892,55.077 21.248,54.255 21.622,53.418C21.675,53.29 21.675,53.146 21.622,53.018C21.572,52.878 21.465,52.765 21.328,52.707C21.156,52.63 20.987,52.553 20.8,52.475M41.474,52.739C41.417,52.6 41.304,52.491 41.163,52.439C41.027,52.391 40.877,52.397 40.745,52.456C40.574,52.543 40.398,52.62 40.219,52.688C40.088,52.754 39.984,52.863 39.925,52.997C39.875,53.133 39.881,53.283 39.94,53.415C40.296,54.237 40.667,55.059 41.024,55.896C41.15,56.162 41.466,56.286 41.739,56.175C41.939,56.08 42.125,55.988 42.327,55.911C42.598,55.783 42.716,55.456 42.591,55.184C42.217,54.362 41.846,53.54 41.475,52.735M20.584,52.967C20.753,53.044 20.94,53.121 21.127,53.199C20.753,54.036 20.397,54.858 20.041,55.699C19.841,55.607 19.655,55.512 19.453,55.435C19.842,54.613 20.213,53.794 20.584,52.972M40.984,52.957C41.355,53.776 41.726,54.598 42.115,55.42C41.915,55.512 41.726,55.589 41.525,55.684C41.169,54.847 40.813,54.025 40.441,53.184C40.625,53.122 40.797,53.03 40.984,52.952M16.52,49.935C16.401,49.845 16.25,49.805 16.102,49.825C15.958,49.844 15.828,49.922 15.746,50.042C15.218,50.769 14.677,51.499 14.134,52.212C14.067,52.304 14.031,52.416 14.031,52.53C14.031,52.706 14.116,52.87 14.259,52.972C14.427,53.11 14.603,53.239 14.785,53.358C15.027,53.532 15.369,53.477 15.545,53.236C16.056,52.491 16.584,51.764 17.109,51.036C17.195,50.915 17.229,50.764 17.204,50.618C17.175,50.482 17.098,50.361 16.987,50.277C16.83,50.155 16.661,50.045 16.521,49.938M45.796,50.03C45.716,49.908 45.585,49.828 45.44,49.813C45.3,49.788 45.155,49.821 45.04,49.905C44.883,50.03 44.729,50.137 44.574,50.246C44.454,50.328 44.376,50.458 44.357,50.602C44.326,50.742 44.36,50.889 44.449,51.002C44.977,51.744 45.503,52.474 46.016,53.216C46.193,53.454 46.532,53.509 46.776,53.341C46.945,53.216 47.132,53.077 47.302,52.955C47.539,52.776 47.589,52.434 47.412,52.195C46.869,51.465 46.341,50.753 45.8,50.025M16.2,50.366C16.357,50.473 16.511,50.598 16.666,50.707C16.155,51.434 15.627,52.179 15.102,52.921C14.93,52.796 14.761,52.657 14.589,52.535C15.117,51.823 15.66,51.093 16.201,50.365M45.367,50.333C45.91,51.063 46.438,51.79 46.979,52.517C46.81,52.642 46.64,52.766 46.468,52.891C45.942,52.161 45.414,51.419 44.886,50.691C45.053,50.582 45.214,50.463 45.367,50.335M14.59,48.335C14.488,48.232 14.349,48.175 14.204,48.178C14.061,48.193 13.928,48.26 13.83,48.365C13.23,49.033 12.607,49.698 12.002,50.365C11.803,50.581 11.818,50.923 12.034,51.122C12.188,51.279 12.358,51.422 12.515,51.558C12.615,51.648 12.745,51.698 12.879,51.698C13.037,51.698 13.187,51.63 13.29,51.511C13.878,50.828 14.466,50.163 15.071,49.481C15.163,49.376 15.21,49.239 15.2,49.1C15.191,48.955 15.124,48.82 15.013,48.726C14.874,48.587 14.719,48.462 14.58,48.34M47.729,48.34C47.626,48.236 47.489,48.175 47.343,48.168C47.201,48.167 47.063,48.216 46.954,48.307C46.817,48.444 46.672,48.574 46.521,48.696C46.415,48.799 46.349,48.935 46.334,49.082C46.333,49.224 46.382,49.362 46.473,49.471C47.078,50.136 47.684,50.819 48.273,51.501C48.475,51.722 48.821,51.742 49.048,51.546C49.202,51.409 49.359,51.252 49.529,51.113C49.745,50.906 49.759,50.561 49.559,50.338C48.941,49.673 48.336,49.02 47.731,48.338M14.231,48.724C14.37,48.863 14.525,48.988 14.664,49.124C14.064,49.789 13.471,50.472 12.864,51.154C12.707,51.015 12.553,50.875 12.398,50.721C13.003,50.053 13.606,49.403 14.226,48.721M47.326,48.706C47.926,49.371 48.549,50.039 49.154,50.706C48.997,50.843 48.843,50.985 48.673,51.139C48.085,50.456 47.48,49.774 46.873,49.109C47.027,48.97 47.167,48.845 47.324,48.709M12.845,46.54C12.746,46.432 12.606,46.37 12.459,46.371C12.318,46.356 12.177,46.4 12.07,46.493C11.405,47.098 10.722,47.701 10.04,48.293C9.82,48.49 9.8,48.832 9.995,49.053C10.134,49.222 10.289,49.377 10.428,49.553C10.635,49.769 10.98,49.783 11.203,49.583C11.868,48.963 12.536,48.36 13.203,47.755C13.307,47.652 13.368,47.515 13.375,47.369C13.376,47.227 13.327,47.089 13.236,46.98C13.099,46.843 12.969,46.698 12.847,46.547M49.468,46.485C49.359,46.394 49.221,46.345 49.079,46.346C48.936,46.36 48.804,46.427 48.708,46.533C48.569,46.672 48.446,46.827 48.322,46.966C48.219,47.068 48.162,47.207 48.165,47.352C48.179,47.495 48.246,47.629 48.352,47.726C49.02,48.346 49.685,48.949 50.352,49.554C50.569,49.754 50.911,49.74 51.112,49.524C51.266,49.367 51.406,49.198 51.545,49.043C51.632,48.945 51.68,48.818 51.68,48.686C51.68,48.532 51.614,48.385 51.498,48.283L49.468,46.483M12.427,46.9C12.566,47.054 12.691,47.209 12.827,47.348C12.162,47.953 11.494,48.574 10.827,49.179C10.688,49.022 10.548,48.868 10.391,48.698C11.074,48.108 11.756,47.505 12.421,46.898M49.104,46.883C49.772,47.483 50.452,48.076 51.134,48.683C50.995,48.837 50.855,48.992 50.701,49.161C50.033,48.541 49.368,47.938 48.701,47.318C48.842,47.181 48.975,47.036 49.101,46.885M11.281,44.587C11.207,44.466 11.081,44.385 10.94,44.37C10.794,44.336 10.64,44.37 10.522,44.462C9.795,44.99 9.065,45.516 8.322,46.029C8.086,46.206 8.03,46.542 8.197,46.786C8.322,46.958 8.461,47.145 8.583,47.314C8.683,47.454 8.844,47.537 9.016,47.537C9.134,47.537 9.25,47.497 9.343,47.424C10.073,46.881 10.785,46.353 11.513,45.81C11.638,45.733 11.72,45.601 11.732,45.454C11.749,45.312 11.709,45.168 11.622,45.054C11.512,44.897 11.405,44.743 11.281,44.588M51.016,44.434C50.891,44.356 50.744,44.322 50.598,44.339C50.462,44.368 50.341,44.445 50.257,44.556L49.916,45.037C49.829,45.151 49.79,45.295 49.809,45.437C49.834,45.579 49.911,45.706 50.026,45.793C50.753,46.321 51.483,46.862 52.196,47.405C52.288,47.472 52.4,47.508 52.514,47.508C52.69,47.508 52.854,47.423 52.956,47.28C53.094,47.112 53.223,46.936 53.342,46.754C53.51,46.515 53.455,46.182 53.22,46.009C52.475,45.483 51.748,44.955 51.02,44.43M10.848,44.9C10.958,45.067 11.076,45.227 11.204,45.381C10.459,45.924 9.747,46.452 9.019,46.993L8.645,46.482C9.375,45.956 10.12,45.428 10.845,44.9M50.689,44.885C51.431,45.413 52.161,45.924 52.889,46.452C52.764,46.621 52.642,46.791 52.518,46.963C51.788,46.435 51.076,45.894 50.348,45.363C50.455,45.194 50.58,45.037 50.689,44.882M7.61,45.145C7.648,45.137 7.685,45.121 7.717,45.098C8.492,44.635 9.266,44.184 10.041,43.721C10.168,43.651 10.262,43.534 10.305,43.395C10.338,43.253 10.316,43.103 10.243,42.977C10.136,42.805 10.026,42.621 9.934,42.434C9.858,42.309 9.735,42.22 9.593,42.187C9.459,42.147 9.315,42.164 9.193,42.232L4.152,45.1C3.982,45.196 3.877,45.376 3.877,45.57C3.877,45.667 3.903,45.762 3.952,45.845C4.062,46.045 4.186,46.245 4.308,46.45C4.399,46.619 4.576,46.725 4.768,46.725C4.863,46.725 4.957,46.699 5.038,46.65L7.61,45.145ZM52.348,42.23C52.222,42.157 52.072,42.134 51.93,42.168C51.792,42.211 51.676,42.305 51.606,42.432C51.496,42.619 51.406,42.788 51.295,42.975C51.223,43.095 51.2,43.239 51.233,43.375C51.269,43.517 51.358,43.639 51.482,43.716L56.489,46.628C56.744,46.777 57.075,46.695 57.231,46.444C57.341,46.244 57.463,46.044 57.587,45.824C57.724,45.564 57.627,45.237 57.37,45.094L52.348,42.23ZM6.972,44.9L7.438,44.621L7.438,44.638C8.213,44.172 8.987,43.724 9.779,43.258C9.669,43.071 9.56,42.902 9.453,42.7L4.416,45.578C4.541,45.778 4.648,45.978 4.772,46.183L6.972,44.9ZM52.072,42.7L57.109,45.567C57.002,45.767 56.877,45.967 56.768,46.172L51.768,43.243C51.881,43.068 51.984,42.886 52.077,42.7M8.833,40.248C8.778,40.115 8.672,40.009 8.539,39.954C8.405,39.899 8.255,39.899 8.121,39.954C7.299,40.325 6.477,40.681 5.655,41.038C5.382,41.155 5.25,41.474 5.361,41.75C5.456,41.95 5.548,42.15 5.625,42.34C5.715,42.533 5.909,42.657 6.121,42.657C6.202,42.657 6.282,42.639 6.355,42.604C7.155,42.23 7.982,41.859 8.804,41.488C8.938,41.426 9.043,41.314 9.098,41.177C9.14,41.045 9.128,40.901 9.066,40.777C8.989,40.593 8.912,40.421 8.834,40.251M53.421,39.94C53.288,39.881 53.138,39.874 53,39.921C52.862,39.972 52.754,40.082 52.706,40.221C52.626,40.39 52.549,40.577 52.457,40.747C52.405,40.881 52.399,41.028 52.442,41.165C52.495,41.303 52.601,41.414 52.736,41.474C53.558,41.83 54.363,42.204 55.185,42.574C55.457,42.7 55.785,42.581 55.912,42.31C55.989,42.126 56.084,41.924 56.176,41.722C56.29,41.446 56.157,41.125 55.882,41.01C55.06,40.654 54.239,40.297 53.419,39.939M8.337,40.452C8.414,40.639 8.491,40.823 8.584,40.995C7.765,41.366 6.943,41.737 6.121,42.126C6.044,41.926 5.952,41.737 5.859,41.536C6.696,41.18 7.515,40.824 8.337,40.452M53.2,40.434L55.666,41.5C55.589,41.7 55.494,41.886 55.417,42.088C54.595,41.717 53.776,41.328 52.954,40.972C53.046,40.788 53.126,40.601 53.203,40.431M7.966,37.891C7.923,37.757 7.828,37.645 7.702,37.582C7.574,37.514 7.424,37.497 7.284,37.535C6.432,37.814 5.563,38.078 4.711,38.357C4.485,38.426 4.329,38.637 4.329,38.873C4.329,38.93 4.338,38.985 4.355,39.039C4.432,39.239 4.494,39.439 4.555,39.657C4.655,39.942 4.97,40.095 5.255,39.998C6.107,39.704 6.944,39.425 7.796,39.131C7.937,39.094 8.056,38.998 8.122,38.867C8.189,38.737 8.194,38.584 8.137,38.449C8.075,38.265 8.03,38.078 7.968,37.891M54.259,37.52C54.121,37.476 53.971,37.487 53.841,37.55C53.71,37.615 53.613,37.734 53.577,37.876C53.515,38.045 53.452,38.232 53.39,38.419C53.299,38.704 53.45,39.015 53.731,39.119C54.583,39.398 55.431,39.677 56.289,39.971C56.569,40.062 56.874,39.909 56.969,39.63C57.046,39.413 57.108,39.212 57.169,39.01C57.189,38.954 57.199,38.895 57.199,38.835C57.199,38.599 57.04,38.391 56.813,38.327C55.961,38.048 55.113,37.786 54.257,37.527M7.438,38.07C7.5,38.254 7.563,38.441 7.625,38.628C6.773,38.907 5.925,39.201 5.084,39.48C5.004,39.28 4.942,39.08 4.884,38.875C5.738,38.611 6.59,38.332 7.442,38.075M54.089,38.043C54.941,38.322 55.81,38.586 56.662,38.85C56.6,39.05 56.537,39.25 56.462,39.45C55.61,39.171 54.762,38.892 53.906,38.598C53.968,38.411 54.028,38.227 54.09,38.04M7.346,35.475C7.317,35.335 7.233,35.212 7.114,35.134C6.996,35.056 6.852,35.028 6.714,35.057C5.83,35.226 4.945,35.413 4.064,35.583C3.771,35.648 3.583,35.942 3.646,36.236C3.691,36.436 3.738,36.654 3.785,36.871C3.841,37.113 4.059,37.286 4.308,37.286C4.351,37.286 4.393,37.281 4.435,37.271C5.302,37.087 6.186,36.885 7.055,36.698C7.196,36.664 7.318,36.575 7.394,36.451C7.473,36.334 7.502,36.19 7.474,36.051C7.427,35.851 7.379,35.662 7.349,35.478M54.833,35.027C54.689,34.999 54.539,35.026 54.415,35.104C54.299,35.186 54.216,35.307 54.181,35.445C54.151,35.632 54.104,35.834 54.074,36.018C54.04,36.154 54.062,36.298 54.136,36.418C54.212,36.543 54.335,36.632 54.477,36.667C55.359,36.851 56.243,37.038 57.11,37.24C57.152,37.25 57.195,37.255 57.238,37.255C57.487,37.255 57.705,37.083 57.763,36.84C57.808,36.623 57.855,36.407 57.902,36.205C57.951,35.909 57.758,35.622 57.466,35.555C56.584,35.383 55.715,35.214 54.833,35.027M6.821,35.585C6.853,35.785 6.898,35.974 6.946,36.158C6.062,36.358 5.18,36.547 4.311,36.748C4.266,36.548 4.219,36.33 4.172,36.128C5.056,35.941 5.941,35.772 6.822,35.585M54.722,35.555C55.591,35.739 56.473,35.911 57.357,36.096C57.31,36.296 57.28,36.514 57.232,36.716C56.348,36.516 55.466,36.33 54.597,36.143C54.644,35.943 54.677,35.757 54.722,35.555M6.989,33.009C6.972,32.864 6.901,32.731 6.789,32.638C6.677,32.546 6.533,32.501 6.389,32.513C5.507,32.608 4.608,32.685 3.709,32.777C3.416,32.807 3.199,33.072 3.228,33.365C3.243,33.584 3.273,33.801 3.29,34.018C3.324,34.284 3.553,34.486 3.821,34.486C3.844,34.486 3.867,34.484 3.89,34.481C4.79,34.389 5.673,34.281 6.573,34.187C6.713,34.168 6.84,34.097 6.929,33.987C7.023,33.877 7.062,33.73 7.036,33.587C7.021,33.387 7.006,33.198 6.991,33.012M55.14,32.486C55.122,32.484 55.103,32.483 55.085,32.483C54.804,32.483 54.568,32.705 54.552,32.986C54.535,33.173 54.505,33.372 54.49,33.559C54.473,33.701 54.512,33.844 54.597,33.959C54.691,34.071 54.825,34.143 54.971,34.159C55.853,34.251 56.752,34.359 57.636,34.453C57.929,34.489 58.201,34.28 58.241,33.987C58.271,33.755 58.286,33.554 58.301,33.337C58.304,33.314 58.306,33.29 58.306,33.267C58.306,32.996 58.093,32.768 57.823,32.749C56.923,32.654 56.04,32.577 55.14,32.485M6.448,33.058C6.463,33.245 6.478,33.447 6.51,33.648C5.61,33.74 4.727,33.848 3.83,33.942C3.798,33.742 3.783,33.524 3.768,33.307C4.65,33.23 5.549,33.135 6.448,33.058M55.077,33.028C55.977,33.105 56.877,33.197 57.777,33.275C57.747,33.492 57.73,33.708 57.7,33.91C56.816,33.818 55.917,33.71 55.017,33.616C55.049,33.416 55.064,33.23 55.079,33.028M3.5,31.647C3.545,31.647 3.592,31.662 3.639,31.662L6.339,31.632C6.484,31.633 6.624,31.577 6.728,31.475C6.829,31.372 6.884,31.233 6.882,31.089L6.882,30.454C6.884,30.309 6.829,30.169 6.728,30.065C6.622,29.968 6.483,29.913 6.339,29.911L0.539,29.881L0.537,29.881C0.242,29.881 -0,30.123 -0,30.418L0,31.121C0.002,31.417 0.245,31.661 0.541,31.664L3.5,31.647ZM55.185,29.9C55.038,29.901 54.897,29.962 54.796,30.069C54.69,30.17 54.634,30.312 54.642,30.458L54.642,31.078C54.64,31.222 54.695,31.361 54.796,31.464C54.901,31.563 55.04,31.619 55.185,31.621L60.985,31.651L60.989,31.651C61.285,31.651 61.528,31.408 61.528,31.112L61.528,30.408C61.524,30.112 61.281,29.869 60.985,29.865L55.185,29.9ZM3.1,31.1L0.542,31.115L0.542,30.415L6.342,30.447L6.342,31.082C5.442,31.097 4.542,31.097 3.642,31.112L3.642,31.1L3.1,31.1ZM55.187,30.435L60.987,30.403L60.987,31.103L55.187,31.073L55.187,30.435ZM6.387,29.07C6.531,29.081 6.675,29.036 6.787,28.945C6.895,28.851 6.961,28.717 6.971,28.574C6.988,28.387 7.018,28.203 7.033,28.001C7.044,27.859 7.006,27.718 6.926,27.601C6.831,27.49 6.697,27.419 6.552,27.401C5.67,27.309 4.771,27.217 3.887,27.107C3.866,27.105 3.845,27.103 3.824,27.103C3.549,27.103 3.315,27.314 3.287,27.588C3.255,27.805 3.24,28.006 3.225,28.238C3.196,28.532 3.413,28.797 3.706,28.828C4.606,28.905 5.487,28.982 6.386,29.075M54.971,27.386C54.823,27.394 54.686,27.467 54.597,27.586C54.509,27.694 54.47,27.834 54.49,27.972C54.505,28.172 54.535,28.361 54.552,28.562C54.565,28.701 54.632,28.829 54.739,28.918C54.85,29.011 54.994,29.056 55.139,29.043C56.039,28.948 56.922,28.871 57.822,28.779C58.092,28.76 58.305,28.532 58.305,28.261C58.305,28.238 58.303,28.214 58.3,28.191C58.285,27.972 58.255,27.755 58.24,27.553C58.203,27.257 57.931,27.043 57.635,27.075C56.751,27.182 55.852,27.275 54.97,27.384M6.431,28.531C5.547,28.454 4.648,28.362 3.748,28.284C3.78,28.067 3.795,27.851 3.828,27.649C4.71,27.741 5.609,27.849 6.491,27.943C6.476,28.143 6.461,28.329 6.431,28.531M55.013,27.911C55.913,27.819 56.813,27.711 57.696,27.617C57.726,27.817 57.743,28.035 57.758,28.252C56.874,28.329 55.975,28.424 55.075,28.501C55.06,28.314 55.045,28.112 55.013,27.911M6.7,26.533C6.838,26.561 6.982,26.533 7.1,26.456C7.221,26.379 7.305,26.256 7.332,26.115C7.379,25.928 7.412,25.726 7.457,25.542C7.486,25.404 7.458,25.26 7.38,25.142C7.304,25.017 7.181,24.928 7.039,24.893C6.172,24.709 5.288,24.522 4.421,24.32C4.134,24.258 3.845,24.436 3.771,24.72C3.724,24.937 3.676,25.153 3.632,25.37C3.586,25.659 3.775,25.937 4.06,26C4.942,26.172 5.811,26.356 6.695,26.528M54.473,24.854C54.331,24.888 54.209,24.977 54.132,25.101C54.06,25.221 54.037,25.365 54.07,25.501C54.1,25.688 54.147,25.89 54.177,26.074C54.212,26.216 54.301,26.339 54.426,26.415C54.543,26.494 54.688,26.522 54.826,26.492C55.693,26.323 56.577,26.136 57.459,25.966C57.71,25.911 57.89,25.687 57.89,25.431C57.89,25.391 57.885,25.352 57.877,25.313C57.832,25.113 57.785,24.895 57.74,24.678C57.682,24.435 57.464,24.263 57.215,24.263C57.172,24.263 57.129,24.268 57.087,24.278C56.22,24.478 55.351,24.664 54.469,24.851M6.8,26C5.918,25.816 5.049,25.644 4.165,25.474C4.212,25.257 4.245,25.056 4.29,24.839C5.174,25.039 6.041,25.225 6.925,25.412C6.878,25.612 6.83,25.798 6.8,26M54.6,25.4C55.469,25.2 56.351,25.011 57.22,24.81C57.267,25.01 57.312,25.228 57.359,25.43C56.475,25.617 55.593,25.786 54.724,25.973C54.679,25.773 54.647,25.584 54.599,25.4M7.268,24.037C7.406,24.081 7.556,24.07 7.686,24.007C7.812,23.937 7.906,23.82 7.948,23.681C8.01,23.494 8.058,23.325 8.12,23.138C8.171,23.001 8.159,22.848 8.088,22.72C8.026,22.59 7.915,22.489 7.779,22.441C6.927,22.162 6.09,21.883 5.236,21.604C5.177,21.582 5.115,21.571 5.053,21.571C4.828,21.571 4.627,21.716 4.556,21.93C4.479,22.147 4.417,22.348 4.356,22.55C4.337,22.606 4.327,22.664 4.327,22.723C4.327,22.959 4.485,23.168 4.712,23.232C5.564,23.511 6.412,23.773 7.27,24.032M53.73,22.42C53.593,22.457 53.479,22.554 53.421,22.684C53.356,22.814 53.345,22.964 53.389,23.102C53.451,23.286 53.514,23.473 53.576,23.66C53.613,23.797 53.71,23.911 53.84,23.969C53.97,24.033 54.12,24.044 54.258,24.001C55.11,23.737 55.958,23.473 56.814,23.194C57.041,23.126 57.197,22.916 57.197,22.679C57.197,22.622 57.188,22.565 57.17,22.511C57.093,22.311 57.031,22.111 56.97,21.893C56.897,21.677 56.693,21.53 56.465,21.53C56.398,21.53 56.332,21.543 56.27,21.567C55.433,21.846 54.581,22.125 53.729,22.419M7.424,23.519C6.572,23.24 5.718,22.976 4.866,22.712C4.928,22.512 4.991,22.312 5.066,22.112C5.92,22.391 6.755,22.67 7.609,22.964L7.422,23.522M53.899,22.932C54.751,22.653 55.599,22.359 56.44,22.08C56.517,22.28 56.579,22.48 56.64,22.685C55.786,22.949 54.934,23.228 54.082,23.485C54.02,23.301 53.96,23.114 53.898,22.927M8.088,21.621C8.159,21.654 8.237,21.671 8.316,21.671C8.534,21.671 8.732,21.54 8.818,21.34C8.895,21.156 8.972,20.984 9.05,20.814C9.109,20.682 9.115,20.532 9.065,20.396C9.016,20.255 8.909,20.143 8.771,20.087C7.971,19.728 7.144,19.357 6.337,18.987C6.065,18.861 5.737,18.98 5.61,19.251C5.533,19.451 5.441,19.637 5.346,19.839C5.232,20.115 5.365,20.436 5.64,20.551C6.462,20.907 7.284,21.266 8.089,21.622M52.738,20.07C52.601,20.122 52.493,20.232 52.444,20.37C52.402,20.507 52.407,20.654 52.459,20.788C52.551,20.957 52.628,21.144 52.708,21.314C52.76,21.447 52.866,21.551 53,21.6C53.136,21.65 53.286,21.644 53.418,21.585C54.238,21.229 55.059,20.873 55.867,20.516C56.141,20.4 56.273,20.08 56.161,19.804C56.069,19.604 55.974,19.415 55.897,19.214C55.808,19.022 55.614,18.898 55.402,18.898C55.322,18.898 55.243,18.916 55.17,18.95C54.363,19.324 53.543,19.695 52.736,20.066M8.322,21.123L5.859,20.054C5.936,19.867 6.028,19.668 6.106,19.466C6.928,19.837 7.733,20.208 8.555,20.582C8.478,20.766 8.401,20.938 8.323,21.123M52.955,20.55C53.777,20.194 54.582,19.823 55.404,19.45C55.481,19.637 55.573,19.839 55.668,20.025L53.2,21.093C53.123,20.921 53.043,20.737 52.951,20.55M7.1,18.039L7.117,18.056C7.023,18.054 6.932,18.026 6.853,17.976C7.628,18.427 8.402,18.86 9.177,19.311C9.307,19.372 9.455,19.388 9.595,19.356C9.734,19.315 9.851,19.22 9.919,19.092C10.029,18.923 10.119,18.736 10.23,18.551C10.309,18.434 10.332,18.287 10.292,18.151C10.257,18.009 10.168,17.886 10.043,17.81L5.043,14.896C4.787,14.746 4.453,14.83 4.298,15.083C4.191,15.283 4.066,15.483 3.942,15.703C3.803,15.962 3.901,16.29 4.159,16.43L6.859,17.964C6.933,18.011 7.018,18.037 7.106,18.041M51.491,17.809C51.367,17.88 51.278,17.997 51.242,18.135C51.204,18.275 51.22,18.425 51.289,18.553C51.402,18.728 51.505,18.908 51.598,19.094C51.674,19.219 51.797,19.308 51.939,19.343C52.073,19.382 52.218,19.365 52.339,19.296L57.376,16.429C57.545,16.334 57.65,16.154 57.65,15.96C57.65,15.864 57.625,15.77 57.576,15.687C57.466,15.487 57.344,15.287 57.22,15.082C57.125,14.915 56.948,14.812 56.757,14.812C56.664,14.812 56.573,14.836 56.493,14.882L51.491,17.809ZM9.771,18.29C9.659,18.466 9.556,18.647 9.462,18.833C8.672,18.397 7.898,17.949 7.123,17.515L7.123,17.5L4.423,15.966C4.53,15.766 4.655,15.566 4.764,15.361L9.771,18.29ZM51.771,18.275L56.76,15.346C56.885,15.546 56.994,15.746 57.116,15.946L52.079,18.83C51.972,18.643 51.862,18.456 51.77,18.272M10.492,17.11C10.61,17.202 10.764,17.236 10.91,17.202C11.049,17.18 11.172,17.101 11.251,16.985C11.376,16.831 11.483,16.676 11.59,16.522C11.677,16.408 11.717,16.265 11.7,16.122C11.689,15.976 11.608,15.843 11.483,15.766C10.771,15.223 10.041,14.695 9.328,14.166C9.235,14.092 9.119,14.051 9,14.051C8.828,14.051 8.667,14.135 8.568,14.276C8.43,14.444 8.301,14.62 8.182,14.802C8.014,15.046 8.069,15.383 8.304,15.562C9.034,16.073 9.761,16.601 10.491,17.111M50.024,15.731C49.905,15.814 49.826,15.943 49.807,16.087C49.788,16.229 49.827,16.373 49.914,16.487C50.024,16.641 50.133,16.798 50.255,16.953C50.332,17.074 50.455,17.158 50.596,17.185C50.742,17.202 50.889,17.17 51.014,17.093C51.726,16.565 52.456,16.039 53.201,15.526C53.437,15.348 53.491,15.012 53.323,14.769C53.201,14.597 53.061,14.41 52.937,14.241C52.837,14.101 52.676,14.018 52.504,14.018C52.386,14.018 52.27,14.058 52.177,14.131C51.465,14.659 50.735,15.202 50.022,15.731M10.813,16.678C10.086,16.15 9.358,15.639 8.628,15.111C8.753,14.942 8.877,14.772 8.999,14.6C9.714,15.128 10.441,15.669 11.154,16.2C11.047,16.354 10.922,16.509 10.813,16.681M50.348,16.17C51.06,15.642 51.788,15.099 52.5,14.57L52.874,15.081C52.144,15.609 51.417,16.12 50.689,16.645C50.579,16.491 50.455,16.321 50.348,16.167M12.038,15.067C12.143,15.164 12.282,15.214 12.424,15.206C12.569,15.197 12.704,15.129 12.798,15.019C12.935,14.882 13.064,14.738 13.184,14.586C13.288,14.484 13.345,14.343 13.338,14.197C13.325,14.055 13.259,13.922 13.154,13.826C12.504,13.221 11.836,12.618 11.169,12.013C11.07,11.922 10.941,11.871 10.806,11.871C10.656,11.871 10.513,11.934 10.412,12.045C10.255,12.199 10.118,12.369 9.976,12.523C9.782,12.751 9.803,13.097 10.023,13.3C10.691,13.888 11.373,14.476 12.038,15.066M48.348,13.796C48.235,13.893 48.167,14.033 48.161,14.182C48.16,14.324 48.209,14.462 48.3,14.571C48.442,14.71 48.564,14.865 48.689,15.004C48.792,15.109 48.929,15.175 49.075,15.191C49.217,15.192 49.355,15.143 49.464,15.052C50.132,14.447 50.797,13.859 51.479,13.269C51.699,13.072 51.72,12.731 51.526,12.509C51.387,12.34 51.226,12.185 51.09,12.009C50.883,11.793 50.538,11.779 50.315,11.979C49.665,12.599 48.997,13.187 48.347,13.792M12.4,14.661C11.735,14.073 11.052,13.468 10.385,12.88C10.524,12.723 10.664,12.569 10.818,12.414C11.471,13.019 12.136,13.622 12.803,14.227C12.664,14.366 12.524,14.521 12.403,14.66M48.713,14.194C49.381,13.594 50.031,12.986 50.698,12.381C50.837,12.538 50.977,12.692 51.131,12.862C50.448,13.452 49.783,14.04 49.116,14.645C48.977,14.491 48.852,14.351 48.716,14.194M13.786,13.188C13.883,13.301 14.023,13.369 14.172,13.375C14.314,13.376 14.452,13.327 14.561,13.236C14.698,13.099 14.843,12.969 14.994,12.847C15.113,12.744 15.182,12.594 15.182,12.437C15.182,12.302 15.131,12.172 15.041,12.072C14.436,11.404 13.848,10.739 13.258,10.057C13.052,9.843 12.712,9.824 12.483,10.012C12.329,10.149 12.174,10.306 12.002,10.445C11.786,10.652 11.772,10.997 11.972,11.22C12.572,11.87 13.18,12.538 13.785,13.188M46.485,12.057C46.388,12.161 46.338,12.301 46.346,12.443C46.357,12.587 46.425,12.721 46.533,12.817C46.672,12.956 46.827,13.079 46.966,13.203C47.069,13.305 47.21,13.36 47.355,13.357C47.497,13.344 47.63,13.278 47.726,13.173C48.331,12.505 48.937,11.855 49.539,11.188C49.63,11.089 49.681,10.959 49.681,10.824C49.681,10.673 49.618,10.53 49.507,10.428C49.353,10.274 49.183,10.134 49.029,9.995C48.801,9.8 48.455,9.821 48.252,10.042C47.664,10.71 47.076,11.39 46.486,12.057M14.186,12.832C13.586,12.164 12.978,11.514 12.373,10.847C12.53,10.71 12.684,10.568 12.854,10.429C13.444,11.097 14.032,11.764 14.637,12.429C14.483,12.568 14.343,12.693 14.186,12.829M46.886,12.411C47.474,11.743 48.079,11.078 48.667,10.396C48.824,10.535 48.978,10.675 49.148,10.829C48.53,11.482 47.925,12.147 47.32,12.814C47.181,12.675 47.026,12.535 46.887,12.414M15.721,11.514C15.802,11.637 15.934,11.716 16.08,11.731C16.222,11.748 16.366,11.71 16.48,11.624C16.634,11.514 16.791,11.405 16.946,11.283C17.071,11.203 17.155,11.073 17.178,10.927C17.196,10.785 17.157,10.641 17.071,10.527C16.558,9.797 16.032,9.085 15.522,8.357C15.42,8.209 15.252,8.121 15.073,8.121C14.962,8.121 14.853,8.155 14.762,8.218C14.59,8.343 14.406,8.482 14.234,8.604C13.998,8.784 13.948,9.125 14.124,9.364C14.652,10.076 15.195,10.806 15.724,11.519M44.43,10.509C44.347,10.625 44.314,10.769 44.338,10.909C44.355,11.054 44.434,11.184 44.555,11.265C44.709,11.375 44.879,11.499 45.021,11.606C45.14,11.697 45.291,11.736 45.439,11.716C45.577,11.683 45.702,11.607 45.795,11.499C46.321,10.769 46.849,10.057 47.389,9.344C47.456,9.251 47.492,9.14 47.492,9.025C47.492,8.85 47.408,8.686 47.267,8.584C47.098,8.446 46.922,8.317 46.739,8.198C46.495,8.031 46.159,8.085 45.979,8.32C45.468,9.05 44.958,9.777 44.43,10.507M16.149,11.187C15.621,10.475 15.078,9.747 14.549,9.035L15.06,8.661C15.588,9.391 16.099,10.118 16.624,10.846C16.455,10.956 16.3,11.08 16.146,11.187M44.876,10.831C45.389,10.104 45.915,9.374 46.428,8.646C46.597,8.771 46.769,8.895 46.939,9.017C46.413,9.729 45.885,10.459 45.339,11.172C45.185,11.065 45.03,10.94 44.873,10.831M16.908,8L16.908,8.015C16.714,8.012 16.536,7.905 16.442,7.736C16.783,8.294 17.107,8.852 17.433,9.41L17.804,10.045C17.841,10.1 17.883,10.151 17.929,10.199C18.023,10.281 18.146,10.32 18.27,10.309C18.367,10.313 18.463,10.291 18.549,10.247C18.718,10.137 18.905,10.03 19.092,9.921C19.218,9.854 19.308,9.736 19.339,9.597C19.386,9.464 19.369,9.316 19.294,9.197L16.427,4.155C16.331,3.985 16.151,3.88 15.957,3.88C15.86,3.88 15.765,3.906 15.682,3.955C15.482,4.062 15.282,4.187 15.077,4.311C14.909,4.402 14.804,4.579 14.804,4.771C14.804,4.865 14.829,4.957 14.877,5.038L16.459,7.738C16.553,7.897 16.723,7.996 16.908,8M42.23,9.176C42.157,9.302 42.134,9.452 42.168,9.594C42.21,9.732 42.304,9.848 42.43,9.918C42.617,10.028 42.786,10.118 42.973,10.229C43.09,10.308 43.237,10.331 43.373,10.291C43.515,10.256 43.638,10.167 43.714,10.042L46.628,5.035C46.776,4.779 46.693,4.448 46.441,4.293C46.241,4.183 46.041,4.059 45.836,3.952C45.753,3.903 45.659,3.878 45.563,3.878C45.369,3.878 45.189,3.983 45.094,4.152L42.23,9.176ZM16.784,7.224L16.923,7.456L16.908,7.471C17.247,8.014 17.573,8.571 17.899,9.145L18.27,9.765C18.457,9.673 18.641,9.565 18.828,9.456L15.947,4.419C15.747,4.541 15.547,4.651 15.342,4.775L16.642,6.989C16.099,7.315 16.811,7.921 16.906,7.998C16.891,7.8 16.864,7.603 16.826,7.408L16.781,7.224M42.691,9.456L45.558,4.419C45.758,4.526 45.958,4.651 46.163,4.758L43.252,9.764C43.068,9.654 42.881,9.547 42.694,9.455M20.037,8.8C20.1,8.931 20.211,9.031 20.348,9.079C20.483,9.136 20.636,9.131 20.766,9.064C20.935,8.987 21.107,8.91 21.292,8.832C21.423,8.771 21.527,8.664 21.586,8.532C21.636,8.396 21.631,8.246 21.571,8.114C21.215,7.295 20.859,6.473 20.502,5.668C20.388,5.391 20.068,5.256 19.79,5.368C19.59,5.463 19.401,5.555 19.2,5.647C19.009,5.73 18.885,5.92 18.885,6.128C18.885,6.208 18.903,6.287 18.938,6.359C19.309,7.166 19.68,7.973 20.038,8.793M39.923,8.093C39.861,8.225 39.861,8.379 39.923,8.511C39.971,8.644 40.07,8.753 40.199,8.811C40.386,8.888 40.558,8.965 40.742,9.043C40.866,9.109 41.013,9.114 41.142,9.058C41.281,9.014 41.393,8.912 41.451,8.779C41.825,7.979 42.196,7.152 42.551,6.345C42.586,6.273 42.604,6.194 42.604,6.115C42.604,5.905 42.479,5.715 42.287,5.633C42.103,5.541 41.901,5.446 41.699,5.369C41.629,5.337 41.553,5.32 41.476,5.32C41.262,5.32 41.068,5.45 40.987,5.648C40.631,6.47 40.275,7.277 39.918,8.097M20.529,8.563C20.158,7.756 19.802,6.951 19.416,6.129C19.616,6.037 19.816,5.96 20.004,5.882C20.36,6.682 20.716,7.509 21.073,8.331C20.886,8.408 20.717,8.485 20.53,8.563M40.415,8.314C40.771,7.495 41.127,6.687 41.484,5.865C41.684,5.942 41.87,6.037 42.072,6.114C41.701,6.936 41.33,7.741 40.959,8.563C40.787,8.471 40.6,8.394 40.416,8.314M22.393,7.8C22.441,7.94 22.541,8.056 22.672,8.124C22.804,8.183 22.954,8.189 23.09,8.141C23.277,8.079 23.446,8.016 23.633,7.969C23.776,7.927 23.894,7.825 23.957,7.69C24.021,7.567 24.033,7.422 23.989,7.29C23.725,6.436 23.446,5.584 23.182,4.732C23.089,4.449 22.784,4.29 22.499,4.376C22.299,4.438 22.099,4.515 21.881,4.576C21.6,4.679 21.453,4.995 21.555,5.276C21.834,6.113 22.113,6.965 22.392,7.802M37.5,7.268C37.455,7.406 37.467,7.556 37.532,7.686C37.605,7.81 37.72,7.903 37.856,7.95L38.414,8.137C38.546,8.179 38.69,8.167 38.814,8.105C38.946,8.045 39.049,7.936 39.1,7.8C39.379,6.948 39.658,6.111 39.952,5.259C39.97,5.205 39.979,5.149 39.979,5.092C39.979,4.855 39.823,4.645 39.596,4.576C39.396,4.499 39.196,4.437 38.991,4.376C38.935,4.356 38.876,4.346 38.817,4.346C38.582,4.346 38.374,4.505 38.311,4.732C38.047,5.584 37.768,6.421 37.504,7.273M22.92,7.629C22.626,6.792 22.347,5.94 22.068,5.088L22.673,4.901C22.937,5.755 23.201,6.607 23.473,7.444C23.289,7.506 23.102,7.569 22.915,7.628M38.013,7.44C38.292,6.586 38.556,5.734 38.82,4.882C39.02,4.944 39.22,5.021 39.42,5.082C39.144,5.919 38.865,6.771 38.583,7.623C38.399,7.563 38.212,7.501 38.01,7.439M24.842,7.052C24.877,7.193 24.966,7.316 25.089,7.393C25.206,7.472 25.351,7.5 25.489,7.47C25.676,7.423 25.86,7.378 26.064,7.345C26.204,7.317 26.326,7.233 26.403,7.113C26.484,6.99 26.513,6.839 26.483,6.695C26.296,5.828 26.124,4.959 25.955,4.077C25.885,3.789 25.597,3.603 25.305,3.659L24.67,3.8C24.428,3.856 24.255,4.074 24.255,4.322C24.255,4.365 24.26,4.408 24.27,4.45C24.47,5.317 24.656,6.186 24.843,7.05M35.007,6.7C34.978,6.838 35.006,6.982 35.084,7.1C35.156,7.225 35.282,7.311 35.425,7.332C35.625,7.379 35.814,7.409 35.998,7.457C36.142,7.493 36.295,7.465 36.416,7.38C36.535,7.301 36.619,7.179 36.65,7.039C36.834,6.17 37.036,5.303 37.223,4.439C37.289,4.151 37.11,3.858 36.823,3.786C36.606,3.741 36.39,3.694 36.173,3.664C35.884,3.605 35.598,3.794 35.538,4.082C35.369,4.949 35.197,5.833 35.01,6.7M27.356,6.575C27.39,6.842 27.619,7.045 27.889,7.045C27.911,7.045 27.934,7.044 27.956,7.041C28.156,7.026 28.345,7.009 28.546,6.994C28.838,6.952 29.049,6.688 29.027,6.394C28.932,5.51 28.855,4.625 28.763,3.729C28.741,3.457 28.511,3.244 28.238,3.244C28.217,3.244 28.196,3.246 28.175,3.248C27.956,3.263 27.739,3.293 27.522,3.31C27.231,3.349 27.023,3.619 27.059,3.91C27.166,4.794 27.259,5.679 27.353,6.575M32.467,6.391C32.454,6.536 32.499,6.68 32.592,6.791C32.685,6.901 32.819,6.969 32.963,6.978C33.15,6.993 33.352,7.025 33.536,7.04C33.679,7.059 33.823,7.019 33.936,6.93C34.047,6.836 34.118,6.703 34.136,6.559C34.228,5.677 34.336,4.793 34.43,3.909C34.433,3.888 34.434,3.866 34.434,3.844C34.434,3.569 34.223,3.336 33.949,3.309C33.749,3.277 33.516,3.262 33.314,3.247C33.291,3.244 33.267,3.242 33.244,3.242C32.972,3.242 32.743,3.456 32.726,3.728C32.631,4.61 32.554,5.509 32.462,6.393M25.362,6.934C25.175,6.067 24.988,5.2 24.787,4.334C24.987,4.287 25.205,4.242 25.407,4.195C25.594,5.079 25.763,5.946 25.95,6.815C25.75,6.86 25.561,6.907 25.362,6.937M35.527,6.815C35.714,5.946 35.883,5.064 36.07,4.195C36.27,4.242 36.47,4.287 36.69,4.32C36.49,5.204 36.301,6.071 36.115,6.938C35.915,6.893 35.729,6.861 35.527,6.816M29.885,6.35C29.886,6.498 29.948,6.639 30.057,6.739C30.161,6.839 30.299,6.894 30.443,6.893L31.063,6.893C31.207,6.888 31.344,6.834 31.452,6.739C31.549,6.633 31.604,6.494 31.606,6.35L31.636,0.55L31.636,0.539C31.636,0.244 31.395,0.002 31.1,0L30.4,0C30.103,0.003 29.86,0.246 29.857,0.543L29.885,6.35ZM27.885,6.519C27.79,5.619 27.685,4.738 27.574,3.854C27.791,3.824 28.007,3.809 28.227,3.792C28.304,4.676 28.396,5.561 28.474,6.46C28.274,6.475 28.085,6.49 27.886,6.52M33,6.443C33.092,5.561 33.169,4.677 33.247,3.793C33.464,3.81 33.683,3.825 33.882,3.855C33.79,4.739 33.682,5.624 33.588,6.505C33.388,6.49 33.202,6.475 33,6.443M30.427,6.351L30.397,0.551L31.097,0.551L31.065,6.351L30.427,6.351Z" style="fill:white;"/>
                </g>
            </g>
        </g>
    </g>
</svg>
