<?xml version="1.0" encoding="UTF-8" standalone="no"?>
<!DOCTYPE svg PUBLIC "-//W3C//DTD SVG 1.1//EN" "http://www.w3.org/Graphics/SVG/1.1/DTD/svg11.dtd">
<svg width="100%" height="100%" viewBox="0 0 556 287" version="1.1" xmlns="http://www.w3.org/2000/svg" xmlns:xlink="http://www.w3.org/1999/xlink" xml:space="preserve" xmlns:serif="http://www.serif.com/" style="fill-rule:evenodd;clip-rule:evenodd;stroke-linejoin:round;stroke-miterlimit:2;">
    <g transform="matrix(1,0,0,1,-40654.8,-1463.44)">
        <g transform="matrix(1,0,0,1,40654.8,1463.47)">
            <g id="Groupe_307">
                <g id="Tracé_1536" transform="matrix(1,0,0,1,-51.382,-206.351)">
                    <path d="M498.423,491.248C498.423,491.248 555.47,496.795 572.555,462.716C597.391,413.176 548.066,374.249 511.474,381.357C431.737,396.846 450.938,225.974 322.974,260.847C286.991,270.653 189.774,212.402 162.657,305.803C156.209,328.013 133.365,330.459 100.203,344.552C35.303,372.133 64.978,491.714 111.352,492.184C157.726,492.654 498.427,491.249 498.427,491.249" style="fill:rgb(235,242,249);fill-rule:nonzero;"/>
                </g>
                <g id="Tracé_1537" transform="matrix(1,0,0,1,-412.507,-49.186)">
                    <path d="M682.95,148.826L677.227,148.695C679.066,151.078 679.479,153.273 678.334,155.131C677.189,157.031 674.45,158.584 670.359,159.766C680.472,132.699 673.807,102.081 653.359,81.666C632.119,60.451 599.987,54.165 572.318,65.811C571.23,66.28 570.141,66.768 569.091,67.275L569.081,67.275C565.902,66.305 562.806,65.51 559.818,64.905C544.738,61.845 534.036,63.96 529.689,70.861C525.552,77.424 527.804,87.304 536.013,98.826L536.013,98.831C534.906,100.876 533.913,102.978 532.992,105.154C532.298,106.786 531.679,108.419 531.116,110.089C515.692,111.008 507.436,113.723 504.434,118.639C500.944,124.362 505.71,132.039 520.965,139.511C523.065,140.543 525.318,141.556 527.682,142.569C528.473,149.495 530.261,156.27 532.992,162.684C544.534,189.999 571.44,207.839 601.094,207.839C630.475,207.839 657.186,190.324 668.898,163.378C676.422,161.821 681.376,159.378 683.346,156.154C684.716,153.921 684.546,151.444 682.952,148.817M665.295,160.917C659.161,161.922 652.954,162.424 646.738,162.417C634.013,162.454 621.301,161.598 608.696,159.854C609.849,157.343 610.978,154.766 612.083,152.124C616.117,153.49 620.231,154.608 624.402,155.473C628.447,156.335 632.567,156.794 636.702,156.841C645.314,156.841 651.484,154.355 654.531,149.518C655.031,148.727 655.441,147.882 655.755,147L651.365,147C651.293,147.134 651.215,147.266 651.134,147.395C648.871,150.988 643.812,152.844 636.71,152.842C632.839,152.795 628.982,152.363 625.196,151.555C621.272,150.742 617.401,149.695 613.602,148.419C614.659,145.774 615.684,143.082 616.679,140.343C619.355,132.965 621.646,125.65 623.499,118.627C632.489,119.91 641.561,120.535 650.642,120.497C656.642,120.497 662.855,120.255 669.28,119.77C670.239,124.43 670.72,129.175 670.716,133.932C670.736,143.204 668.892,152.387 665.293,160.932M573.832,197.57C571.697,196.796 570.613,193.731 570.08,191.297C569.237,187.45 569.08,182.046 569.64,175.67C569.92,172.445 570.371,169.017 570.978,165.431C579.801,167.789 588.442,170.779 596.835,174.378C594.935,177.656 593.012,180.695 591.09,183.45C587.428,188.699 583.847,192.75 580.734,195.161C578.764,196.688 575.968,198.344 573.834,197.57M598.769,170.946C589.984,167.156 580.93,164.021 571.682,161.566C572.005,159.899 572.36,158.207 572.745,156.489C575.296,157.069 577.881,157.63 580.501,158.171C588.165,159.739 595.812,161.071 603.301,162.146C601.818,165.213 600.309,168.146 598.774,170.946M582.195,155.393C579.234,154.784 576.318,154.148 573.447,153.486C574.797,147.868 576.456,142.01 578.392,136.042C587.885,141.94 597.933,146.895 608.392,150.835C607.176,153.738 605.929,156.562 604.651,159.308C597.289,158.252 589.757,156.942 582.199,155.393M557.6,79.553C558.41,81.202 559.319,82.801 560.321,84.341C564.753,90.961 570.365,96.71 576.876,101.3C579.662,103.289 582.57,105.1 585.585,106.722C582.774,112.848 580.096,119.385 577.634,126.174C577.175,127.441 576.728,128.704 576.292,129.964C561.587,120.392 549.137,109.408 540.97,98.779C543.018,95.288 545.365,91.981 547.985,88.896C549.073,87.62 550.199,86.382 551.385,85.181L551.873,84.693C553.69,82.877 555.606,81.161 557.611,79.555M620.489,68.948C622.624,69.722 623.708,72.787 624.241,75.221C625.084,79.068 625.241,84.472 624.681,90.848C623.914,98.722 622.548,106.527 620.596,114.194C618.084,113.762 615.632,113.272 613.241,112.724C605.473,110.993 597.925,108.391 590.741,104.967C594.317,97.348 598.494,90.024 603.231,83.067C606.893,77.818 610.474,73.767 613.587,71.356C615.211,70.097 617.397,68.75 619.312,68.75C619.713,68.747 620.111,68.815 620.489,68.95M612.097,116.48C614.543,117.048 617.052,117.555 619.624,118C617.819,124.792 615.596,131.865 613.005,139.008C612.005,141.761 610.972,144.468 609.905,147.127C599.355,143.157 589.233,138.133 579.692,132.132C580.217,130.599 580.759,129.06 581.318,127.516C583.725,120.88 586.337,114.494 589.076,108.516C596.428,112.019 604.148,114.692 612.093,116.483M650.322,84.698C658.984,93.329 665.212,104.099 668.371,115.912C653.741,117.123 639.022,116.755 624.471,114.812C626.431,107.052 627.804,99.155 628.577,91.189C629.257,83.369 629.177,74.105 626.004,68.889C626.737,69.172 627.469,69.467 628.199,69.774C636.472,73.262 643.986,78.329 650.321,84.691M601.1,64.3C605.87,64.296 610.629,64.781 615.3,65.748C609.831,68.129 604.247,74.755 600.008,80.831C595.171,87.932 590.904,95.405 587.247,103.18C584.545,101.717 581.932,100.094 579.423,98.32C567.787,90.064 562.659,81.164 560.795,77.143C563.652,75.111 566.658,73.297 569.788,71.718C571.066,71.073 572.366,70.468 573.688,69.903C573.788,69.862 573.88,69.819 573.976,69.779L574.043,69.75C574.325,69.631 574.608,69.515 574.892,69.4L575.12,69.309C583.377,65.983 592.199,64.282 601.1,64.3M533.082,73.013C535.345,69.42 540.404,67.565 547.506,67.565C551.377,67.613 555.234,68.044 559.02,68.852C560.633,69.179 562.279,69.563 563.958,70.005C558.423,73.21 553.335,77.133 548.826,81.67C547.869,82.608 546.95,83.584 546.049,84.597C544.923,85.836 543.849,87.13 542.822,88.444C541.18,90.543 539.652,92.729 538.244,94.992L538.244,94.998C531.968,85.68 530.081,77.779 533.089,73.008M536.934,106.833C537.553,105.407 538.191,103.999 538.885,102.633C547.485,113.382 560.161,124.371 574.971,133.901C572.871,140.292 571.079,146.574 569.633,152.594C559.647,150.22 549.796,147.312 540.122,143.88C538.283,143.223 536.501,142.548 534.793,141.872C533.78,141.478 532.785,141.065 531.81,140.653C531.66,139.153 531.547,137.632 531.51,136.112C531.491,135.38 531.472,134.667 531.472,133.936C531.472,133.092 531.491,132.228 531.51,131.384C531.746,125.115 532.819,118.905 534.7,112.92C535.019,111.907 535.357,110.912 535.732,109.92C536.107,108.888 536.501,107.856 536.932,106.843M524.379,137.315C511.079,130.823 504.996,124.556 507.717,120.109C509.917,116.509 517.906,114.067 530.14,113.166C528.641,118.251 527.71,123.487 527.363,128.777C527.25,130.353 527.194,131.929 527.175,133.524L527.175,133.937C527.175,135.532 527.231,137.127 527.325,138.703C526.312,138.253 525.336,137.784 524.379,137.314M534.474,145.289C536.274,145.964 538.114,146.64 540.009,147.297C548.721,150.316 558.487,153.122 568.933,155.611C568.554,157.303 568.204,158.97 567.883,160.611C567.029,160.404 566.175,160.204 565.32,160.011C555.378,157.664 545.229,156.301 535.02,155.942C533.775,152.195 532.859,148.348 532.281,144.442L534.481,145.286M536.939,161.029C536.782,160.657 536.629,160.284 536.48,159.909C545.905,160.369 555.269,161.68 564.458,163.824C565.366,164.031 566.273,164.247 567.18,164.468C566.527,168.277 566.045,171.916 565.748,175.337C565.184,181.816 565.148,189.287 566.948,194.623C553.518,187.039 542.964,175.226 536.937,161.029M628.2,198.081C612.908,204.522 595.809,205.309 579.99,200.3C585.141,197.6 590.315,191.4 594.301,185.688C596.356,182.741 598.411,179.481 600.439,175.961C612.213,181.304 623.431,187.795 633.931,195.339C632.068,196.334 630.157,197.248 628.198,198.079M650.32,183.162C646.504,186.992 642.252,190.361 637.65,193.2C626.621,185.129 614.796,178.205 602.361,172.535C604.061,169.424 605.732,166.135 607.361,162.708C618.003,164.157 628.716,165.034 639.452,165.337C642.042,165.412 644.552,165.412 646.995,165.393C652.605,165.369 658.207,164.992 663.77,164.267C660.381,171.279 655.833,177.669 650.316,183.167" style="fill:rgb(173,203,249);fill-rule:nonzero;"/>
                </g>
                <g id="Tracé_1538" transform="matrix(1,0,0,1,-601.009,-680.984)">
                    <path d="M1020.73,946.76C1019.16,940.645 1008.5,945.381 999.72,950.513C999.311,949.866 998.887,949.225 998.45,948.591C1004.73,944.691 1013.56,938.21 1010.2,934.264C1006.88,930.364 1000.4,939.192 996.341,945.7C985.475,931.6 969.362,921.56 969.362,921.56C969.362,921.56 1036.61,865.688 986.362,836.213C936.119,806.738 897.94,910.451 897.94,910.451C897.94,910.451 863.604,878.651 830.82,890.398C797.152,902.457 818.192,924.806 788.954,930.85C785.511,917.669 779.148,899.082 770.447,897.992C758.956,896.553 763.791,910.935 781.252,931.945C777.867,932.245 774.012,932.404 769.605,932.391C722.71,932.251 734.744,966.016 734.744,966.016L1005.88,966.642C1005.47,963.271 1004.55,959.983 1003.15,956.889C1012.44,955.43 1022.22,952.519 1020.74,946.76" style="fill:rgb(172,210,154);fill-rule:nonzero;"/>
                </g>
                <g id="Tracé_1539" transform="matrix(1,0,0,1,-1214.86,-611.681)">
                    <path d="M1494.3,747.708L1482.48,888.3C1482.48,888.3 1481.24,896.822 1487.58,896.837C1498,896.862 1539.45,896.837 1539.45,896.837C1539.45,896.837 1531.61,895.063 1531.71,891.072C1531.82,886.367 1545.53,746.381 1545.53,746.381L1494.3,747.708Z" style="fill:rgb(216,103,19);fill-rule:nonzero;"/>
                </g>
                <g id="Tracé_1540" transform="matrix(1,0,0,1,-1230.33,-600.097)">
                    <path d="M1558.29,882.7C1556.24,882.706 1516.65,882.83 1506.5,882.7C1502.07,882.645 1501.3,878.767 1501.26,876.257C1501.25,875.557 1501.29,874.857 1501.4,874.164L1501.7,870.51L1502.49,861.197L1503.18,852.969L1504.07,842.395L1504.82,833.471L1513.22,733.571L1564.44,732.242C1564.44,732.242 1558.67,790.825 1554.59,833.469C1554.13,838.22 1553.7,842.776 1553.3,847.029C1553.16,848.386 1553.04,849.712 1552.92,851.007C1552.54,855.042 1552.19,858.747 1551.89,862.018C1551.73,863.742 1551.59,865.344 1551.45,866.812C1550.93,872.563 1550.63,876.235 1550.62,876.934C1550.62,877.316 1550.65,877.697 1550.72,878.072C1551.57,882.553 1557.52,882.699 1558.29,882.699" style="fill:rgb(238,152,73);fill-rule:nonzero;"/>
                </g>
                <g id="Tracé_1541" transform="matrix(1,0,0,1,-704.074,-270.309)">
                    <path d="M859.116,329.833L887.916,445.52L891.859,461.364L905.273,515.248L1154.48,515.248L1105.04,329.834L859.116,329.833Z" style="fill:rgb(241,163,79);fill-rule:nonzero;"/>
                </g>
                <g id="Tracé_1542" transform="matrix(1,0,0,1,-685.945,-270.309)">
                    <path d="M840.987,329.832L837,331.162L881.844,519.271L887.151,515.247L840.987,329.832Z" style="fill:rgb(238,152,73);fill-rule:nonzero;"/>
                </g>
                <g id="Tracé_1543" transform="matrix(1,0,0,1,-889.589,-1112.31)">
                    <path d="M1085.48,1361.28L1333.16,1361.28L1340,1357.25L1090.79,1357.25L1085.48,1361.28Z" style="fill:rgb(216,103,19);fill-rule:nonzero;"/>
                </g>
                <g id="Rectangle_278" transform="matrix(1,0,0,1,282.87,282.658)">
                    <rect x="0" y="0" width="53.625" height="2.548" style="fill:rgb(241,163,79);"/>
                </g>
                <g id="Tracé_1544" transform="matrix(1,0,0,1,-1235.9,-1130.58)">
                    <path d="M1558.77,1379.54L1558.49,1381.49L1508.06,1391.68L1508.75,1383.45L1509.08,1379.54L1558.77,1379.54Z" style="fill:rgb(216,103,19);fill-rule:nonzero;"/>
                </g>
                <g id="Groupe_303" transform="matrix(1,0,0,1,270.929,266.715)">
                    <g opacity="0.4">
                        <g transform="matrix(1,0,0,1,-1501.27,-1477.92)">
                            <g id="Groupe_302">
                                <g id="Groupe_301">
                                    <path id="Tracé_1545" d="M1558.3,1493.8C1556.25,1493.81 1516.66,1493.93 1506.51,1493.8C1502.08,1493.75 1501.31,1489.87 1501.27,1487.36L1551.46,1477.91C1550.94,1483.66 1550.64,1487.34 1550.63,1488.03C1550.63,1488.42 1550.66,1488.8 1550.73,1489.17C1551.57,1493.65 1557.53,1493.8 1558.3,1493.8" style="fill:rgb(216,103,19);fill-rule:nonzero;"/>
                                </g>
                            </g>
                        </g>
                    </g>
                </g>
                <g id="Groupe_306" transform="matrix(1,0,0,1,187.786,191.054)">
                    <g opacity="0.4">
                        <g transform="matrix(1,0,0,1,-1040.56,-1058.67)">
                            <g id="Groupe_305">
                                <g id="Groupe_304">
                                    <path id="Tracé_1546" d="M1163.44,1075.02L1053.97,1112.55L1040.56,1058.67L1163.44,1075.02Z" style="fill:rgb(216,103,19);fill-rule:nonzero;"/>
                                </g>
                            </g>
                        </g>
                    </g>
                </g>
                <g id="Tracé_1547" transform="matrix(1,0,0,1,-704.072,-270.309)">
                    <path d="M859.113,329.832L1105.04,329.832L1144.94,478.847L896.21,478.847L859.113,329.832Z" style="fill:rgb(105,157,238);fill-rule:nonzero;"/>
                </g>
                <g id="Tracé_1548" transform="matrix(1,0,0,1,-1448.88,-1002.51)">
                    <path d="M1781.29,1229.88C1780.47,1226.15 1777.21,1223.42 1773.39,1223.27C1773.33,1223.26 1773.26,1223.26 1773.19,1223.26C1770.29,1223.26 1767.89,1225.65 1767.89,1228.56C1767.89,1229.01 1767.95,1229.45 1768.06,1229.88C1768.88,1233.62 1772.14,1236.35 1775.96,1236.5C1776.03,1236.5 1776.09,1236.5 1776.16,1236.5C1779.07,1236.5 1781.46,1234.11 1781.46,1231.2C1781.46,1230.76 1781.4,1230.31 1781.29,1229.88" style="fill:rgb(216,103,19);fill-rule:nonzero;"/>
                </g>
                <g id="Tracé_1549" transform="matrix(1,0,0,1,-750.334,-306.557)">
                    <path d="M1179.61,508.637L949.343,508.637L923.266,404.757L921.266,396.79L919.561,390L915.561,374.067L1142.51,374.067L1146.9,390L1148.77,396.795L1150.97,404.762L1179.61,508.637Z" style="fill:rgb(233,243,254);fill-rule:nonzero;"/>
                </g>
                <g id="Tracé_1550" transform="matrix(1,0,0,1,-750.334,-306.557)">
                    <path d="M1146.9,390L919.561,390L915.561,374.067L1142.5,374.067L1146.9,390Z" style="fill:rgb(175,205,251);fill-rule:nonzero;"/>
                </g>
                <g id="Tracé_1551" transform="matrix(1,0,0,1,-792.689,-330.211)">
                    <path d="M968.8,402.925C968.772,402.923 968.744,402.923 968.716,402.923C967.893,402.923 967.216,403.6 967.216,404.423C967.216,404.591 967.245,404.758 967.3,404.917C967.612,406.045 968.619,406.851 969.788,406.909C969.816,406.911 969.844,406.911 969.872,406.911C970.695,406.911 971.372,406.234 971.372,405.411C971.372,405.243 971.343,405.076 971.288,404.917C970.976,403.789 969.969,402.983 968.8,402.925" style="fill:rgb(233,243,254);fill-rule:nonzero;"/>
                </g>
                <g id="Tracé_1552" transform="matrix(1,0,0,1,-822.742,-330.211)">
                    <path d="M1005.47,402.925C1005.44,402.923 1005.42,402.923 1005.39,402.923C1004.57,402.923 1003.89,403.6 1003.89,404.423C1003.89,404.591 1003.92,404.758 1003.97,404.917C1004.28,406.045 1005.29,406.851 1006.46,406.909C1006.49,406.911 1006.52,406.911 1006.54,406.911C1007.37,406.911 1008.04,406.234 1008.04,405.411C1008.04,405.243 1008.01,405.076 1007.96,404.917C1007.65,403.789 1006.64,402.983 1005.47,402.925" style="fill:rgb(233,243,254);fill-rule:nonzero;"/>
                </g>
                <g id="Tracé_1553" transform="matrix(1,0,0,1,-855.103,-330.211)">
                    <path d="M1047.45,404.917C1047.13,403.789 1046.13,402.983 1044.96,402.925C1044.93,402.923 1044.9,402.923 1044.88,402.923C1044.05,402.923 1043.38,403.6 1043.38,404.423C1043.38,404.591 1043.4,404.758 1043.46,404.917C1043.77,406.045 1044.78,406.851 1045.95,406.909C1045.97,406.911 1046,406.911 1046.03,406.911C1046.85,406.911 1047.53,406.234 1047.53,405.411C1047.53,405.243 1047.5,405.076 1047.45,404.917" style="fill:rgb(233,243,254);fill-rule:nonzero;"/>
                </g>
                <g id="Tracé_1554" transform="matrix(1,0,0,1,-331.591,-409.765)">
                    <path d="M409.494,508.5C409.889,507.095 409.746,505.592 409.094,504.287C407.988,502.287 409.775,500.908 409.324,500.305C408.873,499.702 405.932,499.764 404.924,502.661C403.916,505.558 405.616,508.826 405.616,508.826L409.494,508.5Z" style="fill:rgb(252,165,107);fill-rule:nonzero;"/>
                </g>
                <g id="Tracé_1555" transform="matrix(1,0,0,1,-287.025,-445.728)">
                    <path d="M352.587,560.4C352.918,560.499 353.262,560.55 353.607,560.55C355.357,560.55 356.858,559.255 357.115,557.524L360.044,544.784C360.044,544.784 360.655,543.797 362.766,543.884C365.066,543.978 365.687,545.118 365.687,545.118C365.687,545.118 367.109,567.547 360.469,570.712C353.829,573.877 346.311,558.53 352.588,560.402" style="fill:rgb(229,134,56);fill-rule:nonzero;"/>
                </g>
                <g id="Tracé_1556" transform="matrix(1,0,0,1,-267.279,-1244.49)">
                    <path d="M346.606,1529.5L327.9,1529.5C326.57,1528.3 326.131,1521.21 326.131,1521.21C326.131,1521.21 331.931,1515.99 333.824,1520.12C335.624,1524.05 340.602,1526.14 343.575,1526.66C345.118,1526.78 346.381,1527.97 346.601,1529.5" style="fill:rgb(22,53,96);fill-rule:nonzero;"/>
                </g>
                <g id="Tracé_1557" transform="matrix(1,0,0,1,-164.396,-1244.49)">
                    <path d="M221.069,1529.5L202.369,1529.5C201.039,1528.3 200.599,1521.21 200.599,1521.21C200.599,1521.21 206.399,1515.99 208.292,1520.12C210.092,1524.05 215.07,1526.14 218.043,1526.66C219.586,1526.78 220.85,1527.97 221.071,1529.5" style="fill:rgb(22,53,96);fill-rule:nonzero;"/>
                </g>
                <g id="Tracé_1558" transform="matrix(1,0,0,1,-161.733,-791.788)">
                    <path d="M231.854,978.895C231.854,978.895 229.194,995.909 219.27,1026.11C209.346,1056.32 207.994,1069.39 207.994,1069.39L197.348,1069.09C197.348,1069.09 197.257,1036.09 201.831,1020.89C206.405,1005.7 202.818,966.14 202.818,966.14L231.854,978.895Z" style="fill:rgb(22,53,96);fill-rule:nonzero;"/>
                </g>
                <g id="Tracé_1559" transform="matrix(1,0,0,1,-201.909,-796.021)">
                    <path d="M277.211,971.309C277.181,990.42 275.825,1009.51 273.152,1028.43C268.716,1059.91 270.22,1073.27 270.22,1073.27L259.595,1073.62C259.595,1073.62 253.246,1042.13 255.066,1026.38C256.886,1010.62 246.371,972.308 246.371,972.308L277.211,971.309Z" style="fill:rgb(28,70,138);fill-rule:nonzero;"/>
                </g>
                <g id="Tracé_1560" transform="matrix(1,0,0,1,-248.558,-465.991)">
                    <path d="M303.292,581.281L308.303,584.992L315.545,583.467C315.445,582.807 314.967,580.067 314.531,577.59C314.505,577.444 314.478,577.298 314.454,577.155C314.081,575.045 313.754,573.233 313.754,573.233L307,569.862L304.478,568.605C304.485,568.649 304.678,570.946 304.7,571.281C305.028,574.678 304.548,578.105 303.3,581.281" style="fill:rgb(255,178,125);fill-rule:nonzero;"/>
                </g>
                <g id="Tracé_1561" transform="matrix(1,0,0,1,-244.767,-503.202)">
                    <path d="M311.247,616.619C311.088,616.552 301.395,613.692 300.347,614.039C299.299,614.386 298.67,616.424 298.67,616.424L314.525,620.008C313.806,618.571 312.663,617.387 311.252,616.618" style="fill:rgb(238,152,73);fill-rule:nonzero;"/>
                </g>
                <g id="Tracé_1562" transform="matrix(1,0,0,1,-181.528,-513.785)">
                    <path d="M221.907,692.239C223.55,699.739 250.894,700.623 257.942,693.82C258.742,693.044 258.783,689.436 258.481,684.571C257.89,675.071 255.99,660.771 255.916,653.464C255.843,649.965 255.453,646.48 254.75,643.052C253.914,638.816 252.754,634.649 251.281,630.59C249.808,626.531 237.925,626.272 235.426,627.007C223.386,630.544 220.263,684.743 221.906,692.238" style="fill:rgb(238,152,73);fill-rule:nonzero;"/>
                </g>
                <g id="Tracé_1563" transform="matrix(1,0,0,1,-288.979,-580.593)">
                    <path d="M365.933,751.379C365.342,741.879 363.442,727.579 363.368,720.272C363.295,716.773 362.904,713.288 362.201,709.86L354.167,708.442C354.167,708.442 346.312,740.526 365.932,751.378" style="fill:rgb(229,134,56);fill-rule:nonzero;"/>
                </g>
                <g id="Tracé_1564" transform="matrix(1,0,0,1,-256.356,-471.694)">
                    <path d="M313,577.089C314.485,579.931 320.02,582.389 322.329,583.289C322.303,583.143 322.276,582.996 322.252,582.854C321.879,580.744 321.557,578.932 321.557,578.932L314.793,575.56C313.293,575.537 312.388,575.915 313,577.085" style="fill:rgb(252,165,107);fill-rule:nonzero;"/>
                </g>
                <g id="Tracé_1565" transform="matrix(1,0,0,1,-233.735,-394.001)">
                    <path d="M302.224,500.847C302.224,500.847 290.024,504.654 287.767,497.018C285.51,489.382 282.42,484.731 290.117,481.977C297.814,479.223 300.194,481.689 301.566,484.055C302.938,486.421 305.34,499.661 302.224,500.848" style="fill:rgb(255,178,125);fill-rule:nonzero;"/>
                </g>
                <g id="Tracé_1566" transform="matrix(1,0,0,1,-207.086,-378.653)">
                    <path d="M273.828,468.76C273.828,468.76 273.05,477.646 271.212,477.26C269.374,476.874 267.712,476.588 267.977,479.267C268.242,481.946 270.794,485.039 265.131,485.513C259.468,485.987 251.331,471.381 252.882,468.613C257.371,460.634 280.316,459.024 273.828,468.758" style="fill:rgb(22,53,96);fill-rule:nonzero;"/>
                </g>
                <g id="Tracé_1567" transform="matrix(1,0,0,1,-327.335,-400.524)">
                    <path d="M411.24,488.723L399.416,491.882L399.782,496.756L411.837,496.672C412.791,496.6 413.431,494.763 413.266,492.572C413.101,490.381 412.194,488.656 411.239,488.728" style="fill:rgb(173,203,249);fill-rule:nonzero;"/>
                </g>
                <g id="Tracé_1568" transform="matrix(1,0,0,1,-323.282,-414.872)">
                    <path d="M396.606,508.588C396.506,507.242 395.948,506.188 395.363,506.23C394.778,506.272 394.385,507.401 394.486,508.747C394.587,510.093 395.144,511.147 395.729,511.105C396.314,511.063 396.707,509.934 396.606,508.588" style="fill:rgb(105,157,238);fill-rule:nonzero;"/>
                </g>
                <g id="Tracé_1569" transform="matrix(1,0,0,1,-336.116,-424.858)">
                    <path d="M413.823,518.414L410.166,518.481C410.077,518.847 410.106,519.232 410.249,519.581L413.894,519.825L413.823,518.414Z" style="fill:rgb(105,157,238);fill-rule:nonzero;"/>
                </g>
                <g id="Tracé_1570" transform="matrix(1,0,0,1,-350.654,-399.742)">
                    <path d="M441.445,487.77L427.87,491.4L428.29,497L442.13,496.9C443.23,496.818 443.96,494.708 443.771,492.188C443.582,489.668 442.54,487.688 441.444,487.774" style="fill:rgb(173,203,249);fill-rule:nonzero;"/>
                </g>
                <g id="Tracé_1571" transform="matrix(1,0,0,1,-346.001,-416.215)">
                    <path d="M424.644,510.576C424.528,509.031 423.889,507.819 423.217,507.869C422.545,507.919 422.095,509.213 422.211,510.758C422.327,512.303 422.966,513.515 423.638,513.465C424.31,513.415 424.76,512.121 424.644,510.576" style="fill:rgb(105,157,238);fill-rule:nonzero;"/>
                </g>
                <g id="Tracé_1572" transform="matrix(1,0,0,1,-357.23,-409.189)">
                    <path d="M437.981,507.9C437.219,506.655 436.949,505.17 437.222,503.736C437.744,501.514 435.649,500.669 435.922,499.967C436.195,499.265 439.039,498.524 440.793,501.039C442.547,503.554 441.803,507.16 441.803,507.16L437.981,507.9Z" style="fill:rgb(255,178,125);fill-rule:nonzero;"/>
                </g>
                <g id="Tracé_1573" transform="matrix(1,0,0,1,-279.789,-442.055)">
                    <path d="M343.846,559.392C348.351,558.612 352.912,558.21 357.484,558.192C357.504,558.192 357.523,558.192 357.543,558.192C359.489,558.192 361.089,556.592 361.089,554.646C361.089,554.495 361.079,554.343 361.06,554.192L359.916,541.38C360.607,540.424 361.634,539.762 362.791,539.529C365.029,538.995 365.747,540.201 365.747,540.201C365.747,540.201 373.4,561.12 367.87,565.971C362.34,570.822 341.401,573.864 341.401,573.864L343.846,559.392Z" style="fill:rgb(238,152,73);fill-rule:nonzero;"/>
                </g>
                <g id="Tracé_1574" transform="matrix(1,0,0,1,-1945.41,-0.004)">
                    <path d="M2460,30.423C2459.27,47.269 2455.35,67.891 2442.89,84.481C2442.43,85.09 2441.97,85.693 2441.51,86.291C2440.11,88.097 2438.69,89.852 2437.25,91.556C2435.64,93.44 2432.81,93.752 2430.84,92.263L2375.53,50.73C2373.72,49.375 2373.28,46.811 2374.52,44.922C2375.82,42.953 2377.18,40.992 2378.6,39.041C2379.04,38.43 2379.49,37.82 2379.95,37.211C2392.41,20.621 2411.12,11.111 2427.1,5.711C2434.18,3.328 2441.43,1.473 2448.79,0.162C2449.67,0.001 2450.58,-0.037 2451.48,0.049C2452.74,0.167 2453.97,0.562 2455.06,1.205C2457.48,2.677 2459.05,5.222 2459.28,8.043C2460.07,15.475 2460.31,22.955 2460,30.423" style="fill:rgb(238,152,73);fill-rule:nonzero;"/>
                </g>
                <g id="Tracé_1575" transform="matrix(1,0,0,1,-1943.66,-177.506)">
                    <path d="M2376.8,216.593C2375.19,218.808 2373.65,221.037 2372.2,223.278C2371.26,224.729 2371.61,226.685 2372.99,227.722L2429.69,270.305C2431.31,271.516 2433.61,271.262 2434.93,269.728C2436.55,267.831 2438.15,265.87 2439.72,263.843L2376.8,216.593Z" style="fill:rgb(88,143,224);fill-rule:nonzero;"/>
                </g>
                <g id="Tracé_1576" transform="matrix(1,0,0,1,-2114.14,-101.436)">
                    <path d="M2596.43,157.324C2587.21,157.316 2579.63,149.726 2579.63,140.504C2579.63,131.277 2587.22,123.684 2596.45,123.684C2605.67,123.684 2613.27,131.277 2613.27,140.504C2613.27,148.834 2607.08,155.973 2598.83,157.154C2598.04,157.267 2597.23,157.324 2596.43,157.324M2596.49,127.671C2595.88,127.671 2595.26,127.715 2594.65,127.802C2588.37,128.707 2583.66,134.148 2583.66,140.496C2583.66,147.532 2589.45,153.321 2596.48,153.321C2603.52,153.321 2609.31,147.532 2609.31,140.496C2609.31,133.465 2603.52,127.677 2596.49,127.671" style="fill:rgb(183,75,66);fill-rule:nonzero;"/>
                </g>
                <g id="Tracé_1577" transform="matrix(1,0,0,1,-2213.35,-0.209)">
                    <path d="M2724.27,5.3C2724.13,3.927 2723.7,2.599 2723,1.41C2721.91,0.767 2720.68,0.372 2719.42,0.254C2719.43,0.327 2719.44,0.401 2719.45,0.474C2720.24,7.906 2720.48,15.386 2720.17,22.853C2719.44,39.699 2715.52,60.321 2703.06,76.911C2702.6,77.521 2702.14,78.125 2701.68,78.722C2701.37,79.122 2701.06,79.517 2700.75,79.908L2706.16,83.979C2706.27,83.834 2706.39,83.69 2706.5,83.544C2706.96,82.944 2707.42,82.34 2707.88,81.733C2720.34,65.143 2724.26,44.521 2724.99,27.675C2725.3,20.207 2725.06,12.727 2724.27,5.295" style="fill:rgb(255,192,141);fill-rule:nonzero;"/>
                </g>
                <g id="Tracé_1578" transform="matrix(1,0,0,1,-2187.39,-0.003)">
                    <path d="M2701.26,8.043C2700.93,3.518 2697.11,-0.029 2692.58,-0.029C2691.97,-0.029 2691.36,0.035 2690.76,0.162C2683.41,1.472 2676.16,3.326 2669.07,5.709L2701.98,30.423C2702.29,22.955 2702.05,15.475 2701.26,8.043" style="fill:rgb(88,143,224);fill-rule:nonzero;"/>
                </g>
                <g id="Tracé_1579" transform="matrix(1,0,0,1,-1892.17,-274.077)">
                    <path d="M2329.92,335.877C2324.52,332.295 2316.04,335.59 2310.96,343.235C2305.88,350.88 2311.53,363.563 2311.53,363.563C2311.53,363.563 2325.41,363.85 2330.49,356.205C2335.56,348.56 2335.31,339.459 2329.92,335.877" style="fill:rgb(183,75,66);fill-rule:nonzero;"/>
                </g>
                <g id="Tracé_1580" transform="matrix(1,0,0,1,-2029.83,-375.19)">
                    <path d="M2497.89,459.256C2492.49,455.674 2484.01,458.969 2478.93,466.614C2473.85,474.259 2479.5,486.942 2479.5,486.942C2479.5,486.942 2493.38,487.229 2498.45,479.584C2503.53,471.939 2503.28,462.838 2497.89,459.256" style="fill:rgb(183,75,66);fill-rule:nonzero;"/>
                </g>
                <g id="Tracé_1581" transform="matrix(1,0,0,1,-1895.79,-315.039)">
                    <path d="M2327.81,385.411C2324.09,382.939 2318.23,385.211 2314.72,390.49C2311.22,395.769 2315.12,404.52 2315.12,404.52C2315.12,404.52 2324.7,404.72 2328.2,399.442C2331.71,394.164 2331.53,387.883 2327.81,385.411" style="fill:rgb(238,152,73);fill-rule:nonzero;"/>
                </g>
                <g id="Tracé_1582" transform="matrix(1,0,0,1,-2033.74,-416.039)">
                    <path d="M2496.13,508.652C2492.41,506.18 2486.55,508.452 2483.04,513.73C2479.54,519.008 2483.44,527.76 2483.44,527.76C2483.44,527.76 2493.02,527.96 2496.52,522.682C2500.03,517.404 2499.85,511.123 2496.13,508.651" style="fill:rgb(238,152,73);fill-rule:nonzero;"/>
                </g>
                <g id="Tracé_1583" transform="matrix(1,0,0,1,-2156.16,-201.558)">
                    <path d="M2630.96,249.015L2648.35,245.942C2646.36,249.557 2642.55,251.81 2638.42,251.81C2635.68,251.81 2633.03,250.816 2630.96,249.015" style="fill:rgb(255,230,210);fill-rule:nonzero;"/>
                </g>
                <g id="Tracé_1584" transform="matrix(1,0,0,1,-2138.52,-125.205)">
                    <path d="M2632.11,163.737L2610.09,167.908C2609.65,166.69 2609.43,165.406 2609.43,164.113C2609.43,157.891 2614.55,152.771 2620.77,152.771C2626.85,152.771 2631.91,157.66 2632.11,163.737" style="fill:rgb(255,230,210);fill-rule:nonzero;"/>
                </g>
                <g id="Tracé_1585" transform="matrix(1,0,0,1,-639.906,-895.237)">
                    <path d="M782.692,1092.37C782.692,1092.37 786.38,1093.32 788.724,1092.61C791.068,1091.91 795.103,1093.07 795.753,1093.92C796.403,1094.78 796.164,1095.12 795.005,1095.41C793.846,1095.71 789.738,1097.46 787.039,1096.44C785.029,1095.79 782.933,1095.44 780.819,1095.39L782.692,1092.37Z" style="fill:rgb(255,178,125);fill-rule:nonzero;"/>
                </g>
                <g id="Tracé_1586" transform="matrix(1,0,0,1,-503.691,-731.101)">
                    <path d="M614.607,896.2C614.607,896.2 618.749,925.643 625.607,928.28C628.992,929.58 643.95,932.531 648.375,932.827C648.375,932.827 649.459,931.948 649.195,928.368C649.195,928.368 633.523,922.615 631.295,919.485C627.981,914.828 633.352,900.461 629.195,896.085C625.038,891.709 618.034,889.832 614.604,896.197" style="fill:rgb(74,117,203);fill-rule:nonzero;"/>
                </g>
                <g id="Tracé_1587" transform="matrix(1,0,0,1,-438.818,-1051.64)">
                    <path d="M555.992,1330.06L555.992,1323.64L566.1,1323.64C566.374,1323.64 566.6,1323.42 566.6,1323.14L566.6,1322.11C566.6,1321.84 566.374,1321.61 566.1,1321.61L555.992,1321.61L555.992,1285.07C555.989,1284.05 555.149,1283.21 554.128,1283.21L552.128,1283.21C551.107,1283.21 550.267,1284.05 550.264,1285.07L550.264,1321.61L540.157,1321.61C539.883,1321.61 539.657,1321.84 539.657,1322.11L539.657,1323.14C539.657,1323.42 539.883,1323.64 540.157,1323.64L550.264,1323.64L550.264,1330.06C542.952,1330.61 537.093,1333.25 535.45,1336.65L570.808,1336.65C569.165,1333.25 563.308,1330.61 555.994,1330.06" style="fill:rgb(43,71,139);fill-rule:nonzero;"/>
                </g>
                <g id="Tracé_1588" transform="matrix(1,0,0,1,-486.012,-952.95)">
                    <path d="M598.324,1180.08C599.539,1182.1 600.891,1184.04 602.371,1185.87C606.824,1191.49 611.671,1196.13 612.514,1200.51C612.706,1201.46 612.968,1202.4 613.297,1203.31C613.65,1204.31 614.085,1205.37 614.589,1206.46C616.766,1210.94 619.286,1215.25 622.125,1219.34C627.002,1226.57 631.587,1232.6 631.587,1232.6L639.997,1232.24C639.66,1231.4 635.997,1221.42 631.086,1209.23L624.931,1193.93C624.658,1193.26 624.387,1192.58 624.117,1191.91C623.492,1190.36 622.877,1188.83 622.276,1187.34C617.669,1175.89 613.999,1166.77 613.999,1166.77C613.999,1166.77 595.585,1159.8 593.672,1164.32C592.095,1168.04 593.38,1171.69 598.325,1180.08" style="fill:rgb(22,53,96);fill-rule:nonzero;"/>
                </g>
                <g id="Tracé_1589" transform="matrix(1,0,0,1,-662.274,-1252.12)">
                    <path d="M808.111,1530.08C808.111,1530.08 808.541,1537.02 809.884,1537.12C810.063,1537.13 816.694,1537.13 816.694,1537.13L825.159,1537.13C825.039,1535.8 823.967,1534.73 822.629,1534.61C820.155,1534.18 816.013,1532.44 814.514,1529.17C812.937,1525.73 808.114,1530.08 808.114,1530.08" style="fill:rgb(22,53,96);fill-rule:nonzero;"/>
                </g>
                <g id="Tracé_1590" transform="matrix(1,0,0,1,-549.68,-1172.97)">
                    <path d="M676.044,1431.27C676.044,1431.27 670.195,1435.03 670.762,1436.25C670.838,1436.41 674.07,1442.2 674.07,1442.2L678.239,1449.57C679.331,1448.81 679.723,1447.36 679.163,1446.15C678.333,1443.79 677.833,1439.32 679.957,1436.42C682.192,1433.36 676.043,1431.27 676.043,1431.27" style="fill:rgb(22,53,96);fill-rule:nonzero;"/>
                </g>
                <g id="Tracé_1591" transform="matrix(1,0,0,1,-485.852,-955.913)">
                    <path d="M620.1,1166.41C620.1,1166.41 643.24,1180.82 645.82,1190.5C648.4,1200.18 615.074,1220.82 615.074,1220.82C615.074,1220.82 611.419,1217.59 610.774,1215.23C610.774,1215.23 625.838,1197.18 629.106,1193.13C631.113,1190.65 599.433,1184.53 595.563,1178.51C591.693,1172.49 593.078,1167.43 593.078,1167.43L620.1,1166.41Z" style="fill:rgb(28,70,138);fill-rule:nonzero;"/>
                </g>
                <g id="Tracé_1592" transform="matrix(1,0,0,1,-403.879,-1039.94)">
                    <path d="M541.841,1268.94L494.541,1268.94C493.598,1268.95 492.824,1269.72 492.821,1270.66L492.821,1280.12C492.824,1281.07 493.598,1281.84 494.541,1281.84L541.841,1281.84C542.784,1281.84 543.558,1281.07 543.561,1280.12L543.561,1270.66C543.558,1269.72 542.784,1268.95 541.841,1268.94" style="fill:rgb(238,152,73);fill-rule:nonzero;"/>
                </g>
                <g id="Tracé_1593" transform="matrix(1,0,0,1,-510.403,-683.328)">
                    <path d="M637.514,846.574C631.977,848.007 622.797,842.874 622.797,842.874C625.255,840.958 626.981,838.254 627.682,835.217C627.749,834.952 627.81,834.679 627.862,834.402C628.443,834.277 629.537,834.046 630.706,833.802L634.936,837.59C634.813,839.027 634.604,840.455 634.31,841.867C634.218,842.34 634.11,842.845 633.992,843.385C635.351,844.224 636.545,845.306 637.513,846.576" style="fill:rgb(255,178,125);fill-rule:nonzero;"/>
                </g>
                <g id="Tracé_1594" transform="matrix(1,0,0,1,-483.103,-714.588)">
                    <path d="M618.079,924.332C618.066,924.391 618.05,924.448 618.03,924.505C617.496,926.005 612.53,928.019 607.965,929.43C606.33,929.937 604.745,930.365 603.439,930.664C599.907,931.472 591.059,932.914 590.283,930.489C589.383,927.681 590.427,911.455 589.633,900.789C588.696,887.748 592.307,875.879 597.333,872.005C597.712,871.727 598.463,872.467 600.633,873.499C602.526,874.424 604.67,874.709 606.74,874.311L608.424,875.755C611.331,878.185 613.438,881.438 614.468,885.085C615.316,888.942 615.865,892.859 616.11,896.8C616.263,898.651 616.397,900.584 616.51,902.535C616.69,905.641 616.847,908.774 616.923,911.753L616.923,912.032C616.955,912.332 616.961,912.66 616.965,912.961C617.044,915.632 617.03,918.117 617.12,920.227C617.12,920.287 617.125,920.344 617.129,920.4C617.269,921.542 617.584,922.655 618.064,923.7C618.115,923.906 618.118,924.121 618.073,924.328" style="fill:rgb(115,154,240);fill-rule:nonzero;"/>
                </g>
                <g id="Tracé_1595" transform="matrix(1,0,0,1,-529.325,-859.872)">
                    <path d="M664.3,1069.62C664.287,1069.67 664.271,1069.73 664.251,1069.79C663.717,1071.29 658.751,1073.3 654.186,1074.71C644.923,1063.11 645.915,1049.22 645.915,1049.22L663.144,1057.03L663.144,1057.31C663.176,1057.61 663.182,1057.94 663.185,1058.24C663.264,1060.91 663.25,1063.4 663.34,1065.51C663.34,1065.57 663.345,1065.63 663.349,1065.68C663.489,1066.82 663.804,1067.94 664.284,1068.98C664.335,1069.19 664.338,1069.4 664.293,1069.61" style="fill:rgb(74,117,203);fill-rule:nonzero;"/>
                </g>
                <g id="Tracé_1596" transform="matrix(1,0,0,1,-532.587,-683.328)">
                    <path d="M657.121,837.589C656.998,839.026 656.789,840.454 656.495,841.866C652.366,840.532 650.495,836.802 649.866,835.219C649.933,834.954 649.994,834.681 650.046,834.404C650.627,834.279 651.721,834.048 652.89,833.804L657.121,837.589Z" style="fill:rgb(226,145,90);fill-rule:nonzero;"/>
                </g>
                <g id="Tracé_1597" transform="matrix(1,0,0,1,-526.671,-631.833)">
                    <path d="M652.877,786.053C652.877,786.053 643.803,787.077 643.252,781.416C642.701,775.755 641.16,772.075 646.93,771.182C652.7,770.289 654.038,772.339 654.681,774.182C655.324,776.025 655.223,785.639 652.881,786.051" style="fill:rgb(255,178,125);fill-rule:nonzero;"/>
                </g>
                <g id="Tracé_1598" transform="matrix(1,0,0,1,-515.858,-615.344)">
                    <path d="M632.478,765.317C632.978,760.775 636.748,757.237 641.313,757.025C646.971,756.492 643.813,751.625 643.213,750.846C643.213,750.846 638.878,751.44 634.435,752.174C625.109,753.715 631.561,764.147 632.477,765.317" style="fill:rgb(43,71,139);fill-rule:nonzero;"/>
                </g>
                <g id="Tracé_1599" transform="matrix(1,0,0,1,-628.475,-834.294)">
                    <path d="M795.776,1018.01L789.383,1037.68L766.898,1037.2L766.869,1038.58L789.812,1039.07L796.57,1018.27L795.776,1018.01Z" style="fill:rgb(74,117,203);fill-rule:nonzero;"/>
                </g>
                <g id="Tracé_1600" transform="matrix(1,0,0,1,-629.827,-915.792)">
                    <path d="M770.716,1117.45C770.716,1117.45 774.277,1118.8 776.684,1118.36C779.091,1117.91 782.974,1119.51 783.525,1120.43C784.076,1121.35 783.802,1121.66 782.617,1121.83C781.432,1122 777.156,1123.28 774.585,1121.98C772.659,1121.11 770.614,1120.52 768.518,1120.25L770.716,1117.45Z" style="fill:rgb(255,178,125);fill-rule:nonzero;"/>
                </g>
                <g id="Tracé_1601" transform="matrix(1,0,0,1,-511.993,-739.684)">
                    <path d="M624.737,906C624.737,906 625.608,935.72 632.137,939.1C635.358,940.766 649.9,945.347 654.265,946.129C654.265,946.129 655.439,945.374 655.571,941.788C655.571,941.788 640.629,934.342 638.761,930.988C635.981,925.994 642.903,912.307 639.253,907.501C635.603,902.695 628.853,900.055 624.739,906.001" style="fill:rgb(115,154,240);fill-rule:nonzero;"/>
                </g>
                <g id="Tracé_1602" transform="matrix(1,0,0,1,-2348.9,-859.178)">
                    <path d="M2867.46,1048.37L2868.55,1050.14C2869.12,1050.8 2869.28,1051.16 2869.72,1051.38C2871.61,1052.25 2872.86,1054.1 2872.97,1056.17C2873.07,1058.24 2872.93,1057.8 2871.84,1057.27C2870.75,1056.74 2871.22,1056.79 2869.67,1056.08C2868.12,1055.37 2867.54,1053.1 2867.41,1052.33L2866.14,1050.67L2867.46,1048.37Z" style="fill:rgb(255,178,125);fill-rule:nonzero;"/>
                </g>
                <g id="Tracé_1603" transform="matrix(1,0,0,1,-2129.4,-1219.98)">
                    <path d="M2615.84,1503.62C2615.79,1504.2 2615.41,1504.71 2614.86,1504.91C2614.86,1504.91 2614.86,1504.91 2614.85,1504.91C2613.81,1505.37 2612.07,1505.27 2610.19,1505.01C2609.95,1504.98 2609.73,1504.95 2609.54,1504.94L2609.39,1504.92L2609.27,1504.92C2607.4,1504.79 2607.55,1505.37 2603.97,1505.35C2599.89,1505.33 2598.51,1503.95 2598.32,1503.37C2598.16,1502.87 2599.95,1502.49 2601.95,1502.04L2602.24,1501.98C2602.5,1501.92 2602.77,1501.86 2603.04,1501.8C2605.42,1501.24 2607.78,1500.53 2608.55,1498.25C2609.38,1495.82 2609.19,1488.62 2609.19,1488.62L2616.41,1488.62C2616.41,1488.62 2614.51,1496.58 2614.71,1498.87C2614.82,1500.09 2615.41,1500.44 2615.63,1501.5C2615.65,1501.57 2615.66,1501.65 2615.68,1501.72C2615.81,1502.35 2615.87,1502.98 2615.83,1503.62" style="fill:rgb(255,178,125);fill-rule:nonzero;"/>
                </g>
                <g id="Tracé_1604" transform="matrix(1,0,0,1,-2160.06,-816.672)">
                    <path d="M2654.9,1022.5C2654.29,1025.92 2653.42,1029.46 2652.66,1033.14C2651.45,1039.06 2650.53,1045.34 2651.47,1052.11C2651.6,1053.06 2651.66,1054.02 2651.67,1054.98C2651.85,1066.94 2646.51,1088.62 2646.51,1088.62C2645.26,1089.05 2643.94,1089.23 2642.62,1089.12C2641.53,1088.97 2640.46,1088.68 2639.45,1088.25C2638.43,1087.82 2638.94,1074.81 2638.91,1056.74C2638.89,1043.64 2636.32,1026.38 2635.8,1016.25C2635.66,1011.48 2635.78,1006.7 2636.17,1001.94C2636.55,997.181 2646.82,993.373 2650.65,997.756C2654.43,1002.09 2657.18,1009.69 2654.9,1022.5" style="fill:rgb(128,189,204);fill-rule:nonzero;"/>
                </g>
                <g id="Tracé_1605" transform="matrix(1,0,0,1,-2188.27,-915.218)">
                    <path d="M2679.68,1150.66C2679.81,1151.61 2679.87,1152.56 2679.88,1153.52C2671.9,1141.96 2670.14,1116.75 2670.14,1116.75L2678.9,1121.01C2678.9,1121.01 2679.86,1125.73 2680.87,1131.69C2679.66,1137.6 2678.74,1143.89 2679.68,1150.66" style="fill:rgb(95,154,168);fill-rule:nonzero;"/>
                </g>
                <g id="Tracé_1606" transform="matrix(1,0,0,1,-2234.08,-1217.94)">
                    <path d="M2743.56,1501.58C2743.52,1502.17 2743.14,1502.67 2742.59,1502.88C2742.59,1502.88 2742.58,1502.88 2742.58,1502.88C2741.54,1503.33 2739.8,1503.23 2737.92,1502.98C2737.68,1502.94 2737.46,1502.92 2737.27,1502.9L2737.12,1502.89L2737,1502.88C2735.13,1502.76 2735.27,1503.33 2731.69,1503.32C2727.61,1503.3 2726.23,1501.92 2726.05,1501.34C2725.89,1500.84 2727.68,1500.45 2729.67,1500.01L2729.96,1499.94C2730.23,1499.88 2730.5,1499.82 2730.76,1499.76C2733.14,1499.2 2735.5,1498.5 2736.28,1496.21C2737.11,1493.78 2735.93,1486.7 2735.93,1486.7L2742.62,1486.14C2742.62,1486.14 2742.21,1494.21 2742.41,1496.51C2742.51,1497.73 2743.13,1498.41 2743.36,1499.46C2743.38,1499.54 2743.39,1499.61 2743.41,1499.69C2743.54,1500.31 2743.6,1500.95 2743.56,1501.59" style="fill:rgb(255,178,125);fill-rule:nonzero;"/>
                </g>
                <g id="Tracé_1607" transform="matrix(1,0,0,1,-2180.17,-856.85)">
                    <path d="M2688.71,1129.4C2687.76,1129.85 2686.77,1130.21 2685.75,1130.47C2684.47,1130.56 2683.19,1130.48 2681.93,1130.23C2681.21,1122.65 2680,1115.12 2678.3,1107.7C2675.66,1095.91 2672.02,1084.36 2667.41,1073.19C2666.35,1070.69 2661.99,1058.86 2661.25,1055.88C2659.01,1046.86 2661.26,1047.83 2661.26,1047.83L2680.82,1045.53C2680.82,1045.53 2683.23,1046.77 2684.34,1059.5C2684.67,1063.32 2684.71,1079.79 2685.21,1082.9C2685.53,1085.29 2686.09,1087.64 2686.89,1089.92C2690.53,1098.84 2688.71,1129.4 2688.71,1129.4" style="fill:rgb(128,189,204);fill-rule:nonzero;"/>
                </g>
                <g id="Tracé_1608" transform="matrix(1,0,0,1,-2234.08,-1278.46)">
                    <path d="M2743.56,1562.1C2743.52,1562.68 2743.14,1563.19 2742.59,1563.39C2742.59,1563.4 2742.58,1563.4 2742.58,1563.39C2741.05,1563.74 2739.47,1563.77 2737.92,1563.48C2737.68,1563.45 2737.47,1563.43 2737.27,1563.42C2737.22,1563.42 2737.17,1563.41 2737.12,1563.4L2737,1563.4C2735.13,1563.27 2735.27,1563.85 2731.69,1563.83C2727.61,1563.81 2726.23,1562.43 2726.05,1561.85C2725.89,1561.35 2727.68,1560.97 2729.67,1560.52C2731.6,1561.42 2733.72,1561.8 2735.84,1561.62C2738.59,1561.35 2741.39,1560.25 2743.36,1559.98C2743.38,1560.05 2743.39,1560.13 2743.41,1560.2C2743.54,1560.83 2743.6,1561.46 2743.56,1562.1" style="fill:rgb(184,76,66);fill-rule:nonzero;"/>
                </g>
                <g id="Tracé_1609" transform="matrix(1,0,0,1,-2129.4,-1278.46)">
                    <path d="M2615.84,1562.1C2615.79,1562.68 2615.41,1563.19 2614.86,1563.39C2614.86,1563.4 2614.86,1563.4 2614.85,1563.39C2613.32,1563.74 2611.74,1563.77 2610.2,1563.48C2609.96,1563.45 2609.74,1563.43 2609.54,1563.42C2609.49,1563.42 2609.44,1563.41 2609.39,1563.4L2609.27,1563.4C2607.4,1563.27 2607.55,1563.85 2603.97,1563.83C2599.89,1563.81 2598.51,1562.43 2598.32,1561.85C2598.16,1561.35 2599.95,1560.97 2601.95,1560.52C2603.87,1561.42 2605.99,1561.8 2608.11,1561.62C2610.86,1561.35 2613.66,1560.25 2615.63,1559.98C2615.65,1560.05 2615.66,1560.13 2615.68,1560.2C2615.81,1560.83 2615.87,1561.46 2615.84,1562.1" style="fill:rgb(184,76,66);fill-rule:nonzero;"/>
                </g>
                <g id="Tracé_1610" transform="matrix(1,0,0,1,-2164.21,-532.732)">
                    <path d="M2642.82,662.841C2642.16,657.441 2643.84,648.81 2654.61,650.19C2665.38,651.57 2668.78,662.154 2666.61,666.861C2664.43,671.568 2669.73,672.702 2671.4,677.761C2672.83,682.109 2673.32,687.507 2675.64,689.93C2683.09,697.741 2668.48,709.752 2659.67,707.22C2643.62,702.606 2641.55,701.92 2642.12,689.31C2642.42,682.85 2647.44,680.347 2644.25,678.478C2636.54,673.963 2644.31,675.051 2642.82,662.84" style="fill:rgb(183,75,66);fill-rule:nonzero;"/>
                </g>
                <g id="Tracé_1611" transform="matrix(1,0,0,1,-2188.28,-610.826)">
                    <path d="M2682.72,755.06L2679.75,762.727L2673.35,763.039L2670.16,758.268C2671.95,756.796 2673.09,754.679 2673.34,752.376C2673.53,751.069 2673.57,749.745 2673.45,748.429C2673.41,748.017 2673.37,747.776 2673.37,747.776L2681.35,745.348L2681.38,745.334C2681.48,747.45 2681.59,749.111 2681.72,750.403C2682.17,754.961 2682.72,755.06 2682.72,755.06" style="fill:rgb(255,178,125);fill-rule:nonzero;"/>
                </g>
                <g id="Tracé_1612" transform="matrix(1,0,0,1,-2157.58,-652.247)">
                    <path d="M2639.43,796.211C2639.84,796.211 2646.83,794.788 2658.64,797.811C2658.64,797.811 2652.18,827.449 2654.37,833.035C2655.71,836.448 2656.72,839.978 2657.41,843.579L2633.57,843.879C2633.57,843.879 2633.9,824.705 2632.8,817.92C2631.7,811.135 2639.43,796.22 2639.43,796.22" style="fill:rgb(255,178,125);fill-rule:nonzero;"/>
                </g>
                <g id="Tracé_1613" transform="matrix(1,0,0,1,-2031.57,-653.769)">
                    <path d="M2543.84,828.747C2542.64,820.508 2538.22,803.59 2535.24,800.823C2532.61,798.376 2526.94,798.152 2526.94,798.152C2525.76,799.997 2521.73,804.581 2516.73,803.752C2514.03,803.307 2513.48,798.452 2513.42,797.803L2513.44,797.73L2513.41,797.73L2513.36,797.742C2512.57,797.859 2506.29,798.879 2504.43,802.083C2501.68,806.813 2498.69,821.007 2495.75,820.798C2494.4,820.698 2480.82,815.598 2480.82,815.598C2480.82,815.598 2478.55,817.718 2478.99,820.319C2482.99,822.979 2487.12,825.435 2491.37,827.676C2492.15,828.076 2492.92,828.439 2493.64,828.757C2495.69,829.657 2497.41,830.175 2498.35,829.957C2498.65,829.88 2498.94,829.759 2499.2,829.598C2500.78,828.491 2502.14,827.12 2503.25,825.547C2504.16,824.364 2505.05,823.085 2505.84,821.894L2505.88,821.819C2506.33,826.228 2506.44,830.664 2506.21,835.09C2505.94,838.017 2505.75,844.358 2506.25,845.997C2507.3,849.411 2514.99,850.314 2522.18,849.957C2524.7,849.906 2527.22,849.651 2529.7,849.194C2532.22,848.614 2533.38,847.594 2534.21,845.594C2535,843.685 2531.34,834.72 2530.99,830.794C2530.72,827.65 2531.1,824.483 2532.11,821.494C2534.65,827.351 2537.23,831.54 2537.57,832.447C2538.28,834.358 2549.1,846.441 2549.1,846.441C2549.66,846.317 2550.19,846.103 2550.67,845.808C2551.1,845.526 2551.47,845.155 2551.75,844.721C2549.84,840.184 2543.83,828.746 2543.83,828.746" style="fill:rgb(255,185,62);fill-rule:nonzero;"/>
                </g>
                <g id="Tracé_1614" transform="matrix(1,0,0,1,-2230.7,-744.877)">
                    <path d="M2733.35,936.7C2732.51,938.705 2731.36,939.721 2728.83,940.3C2725.46,939.651 2723.23,933.438 2722.08,930.38C2720.76,926.857 2727.65,908.741 2729.55,908.906C2730.96,909.028 2731.2,911.425 2731.24,912.606C2730.22,915.593 2729.84,918.761 2730.12,921.906C2730.47,925.829 2734.13,934.794 2733.34,936.706" style="fill:rgb(229,134,56);fill-rule:nonzero;"/>
                </g>
                <g id="Tracé_1615" transform="matrix(1,0,0,1,-2003.48,-726.064)">
                    <path d="M2452.83,889.318C2452.83,889.318 2451.67,886.478 2450.4,886.362C2449.12,886.246 2445.06,885.609 2444.77,886.188C2444.52,887.4 2444.84,888.664 2445.64,889.608C2446.51,890.361 2451.9,891.579 2451.9,891.579L2452.83,889.318Z" style="fill:rgb(255,178,125);fill-rule:nonzero;"/>
                </g>
                <g id="Tracé_1616" transform="matrix(1,0,0,1,-2098.38,-761.346)">
                    <path d="M2572.65,929.468C2571.86,930.659 2570.97,931.938 2570.06,933.121C2568.9,934.644 2567.54,936.006 2566.01,937.172C2565.75,937.333 2565.46,937.454 2565.16,937.531C2564.22,937.753 2562.5,937.231 2560.45,936.331C2561.65,936.408 2562.85,936.391 2564.04,936.278C2566.1,936.103 2566.7,933.878 2569.95,930.534C2571.89,928.534 2572.49,928.844 2572.65,929.465" style="fill:rgb(229,134,56);fill-rule:nonzero;"/>
                </g>
                <g id="Tracé_1617" transform="matrix(1,0,0,1,-2202.72,-610.891)">
                    <path d="M2695.79,745.413C2694.58,747.386 2691.67,751.447 2687.78,752.441C2687.97,751.134 2688.01,749.81 2687.89,748.494C2687.85,748.082 2687.81,747.841 2687.81,747.841L2695.79,745.413Z" style="fill:rgb(226,145,90);fill-rule:nonzero;"/>
                </g>
                <g id="Tracé_1618" transform="matrix(1,0,0,1,-2185.78,-552.469)">
                    <path d="M2668.77,689.961C2668.77,689.961 2678.36,691.888 2679.47,685.895C2680.58,679.902 2682.56,676.115 2676.48,674.632C2670.4,673.149 2668.79,675.215 2667.93,677.125C2667.08,679.035 2666.3,689.306 2668.77,689.961" style="fill:rgb(255,178,125);fill-rule:nonzero;"/>
                </g>
                <g id="Tracé_1619" transform="matrix(1,0,0,1,-2214.62,-546.787)">
                    <path d="M2702.3,667.454C2702.3,667.454 2702.13,669.486 2705.29,672.935C2708.44,676.384 2707.83,683.359 2707.83,683.359C2707.83,683.359 2713.01,672.538 2710.17,669.347C2707.33,666.156 2702.3,667.454 2702.3,667.454" style="fill:rgb(183,75,66);fill-rule:nonzero;"/>
                </g>
                <g id="Tracé_1620" transform="matrix(1,0,0,1,-2182.2,-534.766)">
                    <path d="M2673.73,652.788C2673.73,652.788 2668.96,651.188 2664.23,655.856C2662.19,657.865 2662.5,661.815 2663.59,664.106C2663.59,664.106 2665.27,659.195 2668.32,658.124C2671.38,657.053 2673.74,652.788 2673.74,652.788" style="fill:rgb(183,75,66);fill-rule:nonzero;"/>
                </g>
                <g id="Tracé_1621" transform="matrix(1,0,0,1,-2191.25,-607.57)">
                    <path d="M2677.23,742.114C2677.23,742.114 2676.97,742.825 2675.17,742.502C2675.17,742.502 2673.65,742.231 2673.79,741.433C2674.98,741.233 2676.2,741.475 2677.23,742.114" style="fill:white;fill-rule:nonzero;"/>
                </g>
                <g id="Tracé_1622" transform="matrix(1,0,0,1,-1392.04,-500.096)">
                    <path d="M1729.75,636.933C1732.35,651.688 1723.74,663.648 1710.51,663.648C1709.65,663.648 1708.77,663.048 1707.91,662.948C1719.69,661.53 1727.08,650.722 1724.65,636.929C1722.22,623.136 1710.85,611.786 1698.57,610.367C1699.41,610.265 1700.25,610.215 1701.09,610.216C1714.32,610.216 1727.15,622.176 1729.75,636.929" style="fill:rgb(105,157,238);fill-rule:nonzero;"/>
                </g>
                <g id="Tracé_1623" transform="matrix(1,0,0,1,-1220.2,-413.72)">
                    <path d="M1568.49,558.267C1572.26,558.267 1574.69,554.786 1573.94,550.493C1573.19,546.2 1569.51,542.719 1565.75,542.719C1565.56,542.719 1565.38,542.735 1565.2,542.752C1564.63,541.173 1563.98,539.624 1563.26,538.112C1565.16,536.797 1566.15,534.226 1565.63,531.27C1564.89,527.103 1561.42,523.703 1557.78,523.505L1553.34,523.56C1553.12,523.56 1552.91,523.572 1552.69,523.597C1552.24,523.175 1551.79,522.763 1551.33,522.361C1551.98,520.915 1552.16,519.302 1551.85,517.747C1551.1,513.454 1547.43,509.973 1543.66,509.973L1543.58,509.973L1539.88,510.044C1539.77,510.039 1539.67,510.035 1539.56,510.035C1539.38,510.035 1539.19,510.044 1539.01,510.061C1538.02,510.147 1537.08,510.513 1536.29,511.117C1535.51,511.728 1534.9,512.534 1534.53,513.452C1534.44,513.432 1534.35,513.408 1534.26,513.388C1534.24,513.128 1534.21,512.864 1534.16,512.596C1533.41,508.303 1529.74,504.822 1525.98,504.822L1521.93,504.888L1521.88,504.888C1521.81,504.888 1521.75,504.888 1521.69,504.893L1521.61,504.893C1521.32,504.903 1521.04,504.937 1520.75,504.993C1520.58,505.055 1514.63,507.214 1516.66,514.705L1516.25,514.887C1515.47,513.406 1514.34,512.141 1512.95,511.205C1510.33,509.605 1508.63,509.98 1508.4,510.005L1504.87,510.021L1504.87,510.027C1501.2,510.12 1498.84,513.561 1499.58,517.795C1499.94,519.755 1500.87,521.565 1502.26,522.995C1502.13,523.16 1502.01,523.327 1501.89,523.495L1500.66,523.508C1500.48,523.491 1500.3,523.482 1500.12,523.482C1499.89,523.482 1499.67,523.495 1499.44,523.521L1496.33,523.554C1496.31,523.555 1496.29,523.555 1496.27,523.554L1496.02,523.554C1495.87,523.554 1495.73,523.56 1495.58,523.571L1495.58,523.571C1495.45,523.58 1495.33,523.591 1495.21,523.608C1491.91,524.066 1489.87,527.347 1490.57,531.329C1491.13,534.553 1493.28,537.288 1496.28,538.6C1496.12,539.982 1496.04,541.371 1496.03,542.761L1494.67,542.783C1494.61,542.783 1494.55,542.777 1494.49,542.777C1494.35,542.777 1494.21,542.784 1494.07,542.794L1493.81,542.794C1493.81,542.8 1493.82,542.806 1493.82,542.812C1490.44,543.201 1488.33,546.512 1489.04,550.547C1489.8,554.84 1493.46,558.321 1497.23,558.321L1498.76,558.297C1499.12,559.297 1499.51,560.284 1499.94,561.259C1497.3,562.222 1495.78,565.187 1496.4,568.703C1497.12,572.831 1500.54,576.203 1504.15,576.459L1504.16,576.459C1504.3,576.468 1504.44,576.476 1504.58,576.476C1504.77,576.476 1504.95,576.465 1505.13,576.449L1508.6,576.412L1508.69,576.412C1509.14,576.413 1509.6,576.358 1510.05,576.249C1510.61,576.815 1511.18,577.369 1511.76,577.905C1510.96,579.433 1510.71,581.19 1511.06,582.88C1511.81,587.175 1515.48,590.654 1519.25,590.654L1523.26,590.592L1523.35,590.592C1525.52,590.616 1527.49,589.313 1528.33,587.309C1528.78,587.432 1529.24,587.547 1529.69,587.652C1529.72,587.911 1529.75,588.174 1529.8,588.442C1530.55,592.735 1534.22,596.216 1537.98,596.216L1542.08,596.152L1542.36,596.152C1545.96,595.987 1548.27,592.574 1547.53,588.385C1547.48,588.119 1547.43,587.855 1547.36,587.595C1547.49,587.562 1547.62,587.525 1547.75,587.495C1549.19,589.391 1551.41,590.553 1553.79,590.666L1557.73,590.596C1557.79,590.596 1557.83,590.603 1557.89,590.603C1561.65,590.603 1564.09,587.122 1563.34,582.829C1563.05,581.237 1562.38,579.739 1561.39,578.461C1561.9,577.808 1562.38,577.128 1562.83,576.424L1567.55,576.424C1571.31,576.424 1573.75,572.943 1572.99,568.65C1572.46,565.61 1570.52,562.992 1567.77,561.589C1567.87,560.49 1567.92,559.373 1567.93,558.236C1568.12,558.253 1568.31,558.267 1568.5,558.267M1538.52,576.707C1525.26,576.707 1512.42,564.871 1509.85,550.269C1507.27,535.667 1515.93,523.83 1529.2,523.83C1542.46,523.83 1555.3,535.668 1557.87,550.269C1560.45,564.87 1551.78,576.707 1538.52,576.707" style="fill:rgb(105,157,238);fill-rule:nonzero;"/>
                </g>
                <g id="Tracé_1624" transform="matrix(1,0,0,1,-1238.42,-413.724)">
                    <path d="M1586.62,558.271C1590.38,558.271 1592.82,554.79 1592.07,550.497C1591.31,546.204 1587.64,542.723 1583.88,542.723C1583.69,542.723 1583.51,542.738 1583.32,542.755C1582.76,541.176 1582.11,539.627 1581.38,538.115C1583.29,536.801 1584.28,534.23 1583.76,531.273C1583,526.98 1579.34,523.499 1575.57,523.499C1574.27,523.482 1573.02,523.942 1572.04,524.792C1571.2,523.946 1570.34,523.136 1569.45,522.363C1570.1,520.917 1570.29,519.304 1569.98,517.749C1569.22,513.456 1565.56,509.975 1561.79,509.975C1559.12,509.978 1556.83,511.928 1556.39,514.56C1555.08,514.09 1553.75,513.7 1552.39,513.391C1552.37,513.131 1552.34,512.867 1552.29,512.6C1551.54,508.306 1547.87,504.826 1544.11,504.826C1540.34,504.826 1537.9,508.306 1538.66,512.6C1538.7,512.867 1538.76,513.13 1538.83,513.391C1537.33,513.76 1535.87,514.264 1534.46,514.898C1532.95,512.016 1530.13,509.975 1527.25,509.975C1523.49,509.975 1521.05,513.455 1521.81,517.749C1522.16,519.709 1523.09,521.519 1524.48,522.949C1523.92,523.695 1523.39,524.473 1522.9,525.284C1521.6,524.175 1519.95,523.545 1518.24,523.5C1514.48,523.5 1512.04,526.98 1512.8,531.274C1513.36,534.499 1515.51,537.234 1518.51,538.546C1518.34,539.998 1518.26,541.458 1518.25,542.92C1517.75,542.792 1517.24,542.725 1516.72,542.72C1512.95,542.72 1510.52,546.2 1511.27,550.494C1512.02,554.788 1515.69,558.268 1519.46,558.268C1519.95,558.267 1520.45,558.199 1520.93,558.068C1521.3,559.13 1521.71,560.175 1522.16,561.202C1519.53,562.164 1518,565.131 1518.62,568.645C1519.38,572.938 1523.05,576.419 1526.81,576.419C1528.34,576.442 1529.81,575.799 1530.82,574.657C1531.83,575.776 1532.89,576.84 1533.99,577.848C1533.19,579.377 1532.94,581.135 1533.29,582.825C1534.04,587.118 1537.71,590.599 1541.48,590.599C1544.14,590.599 1546.43,588.657 1546.88,586.031C1548.52,586.679 1550.2,587.202 1551.92,587.595C1551.95,587.855 1551.98,588.119 1552.02,588.386C1552.78,592.679 1556.45,596.16 1560.21,596.16C1563.98,596.16 1566.41,592.68 1565.66,588.386C1565.61,588.119 1565.55,587.856 1565.48,587.595C1566.75,587.282 1568,586.872 1569.21,586.369C1570.62,588.833 1573.18,590.426 1576.02,590.599C1579.78,590.599 1582.22,587.119 1581.46,582.825C1581.17,581.233 1580.51,579.735 1579.51,578.457C1580.33,577.411 1581.07,576.308 1581.74,575.157C1582.9,575.953 1584.27,576.393 1585.67,576.42C1589.44,576.42 1591.88,572.939 1591.12,568.646C1590.58,565.606 1588.65,562.989 1585.9,561.585C1586,560.488 1586.05,559.37 1586.06,558.233C1586.25,558.25 1586.44,558.265 1586.63,558.265M1556.74,576.705C1543.48,576.705 1530.64,564.868 1528.06,550.266C1525.49,535.664 1534.15,523.827 1547.41,523.827C1560.67,523.827 1573.51,535.664 1576.09,550.266C1578.66,564.868 1570,576.705 1556.74,576.705" style="fill:rgb(175,205,251);fill-rule:nonzero;"/>
                </g>
                <g id="Tracé_1625" transform="matrix(1,0,0,1,-1627.84,-533.478)">
                    <path d="M2010.13,671.375C2012.12,682.655 2005.53,691.798 1995.42,691.798C1994.75,691.657 1994.09,691.48 1993.44,691.266C2002.44,690.182 2008.09,681.919 2006.24,671.374C2004.38,660.829 1995.68,652.152 1986.3,651.068C1986.94,650.99 1987.58,650.952 1988.23,650.953C1998.34,650.953 2008.14,660.096 2010.13,671.375" style="fill:rgb(216,103,19);fill-rule:nonzero;"/>
                </g>
                <g id="Tracé_1626" transform="matrix(1,0,0,1,-1496.47,-467.443)">
                    <path d="M1886.85,611.235C1889.73,611.235 1891.59,608.574 1891.01,605.292C1890.43,602.01 1887.63,599.349 1884.75,599.349C1884.61,599.349 1884.47,599.362 1884.33,599.374C1883.9,598.167 1883.4,596.983 1882.85,595.827C1884.42,594.592 1885.13,592.541 1884.66,590.596C1884.1,587.411 1881.44,584.811 1878.66,584.66L1875.27,584.702C1875.1,584.702 1874.94,584.711 1874.77,584.73C1874.43,584.407 1874.08,584.092 1873.73,583.785C1874.22,582.679 1874.36,581.447 1874.13,580.258C1873.55,576.976 1870.75,574.315 1867.87,574.315L1867.8,574.315L1864.98,574.37C1864.89,574.37 1864.82,574.363 1864.74,574.363C1864.59,574.363 1864.45,574.37 1864.32,574.383C1863.56,574.449 1862.84,574.729 1862.23,575.191C1861.63,575.659 1861.17,576.274 1860.89,576.976C1860.82,576.96 1860.75,576.942 1860.69,576.927C1860.67,576.727 1860.64,576.525 1860.61,576.321C1860.03,573.039 1857.23,570.378 1854.35,570.378L1851.26,570.429L1851,570.429C1850.78,570.438 1850.56,570.465 1850.35,570.509C1850.21,570.557 1845.66,572.209 1847.22,577.934L1846.9,578.073C1846.31,576.941 1845.44,575.974 1844.38,575.258C1843.38,574.525 1842.13,574.198 1840.9,574.344L1838.2,574.357C1835.39,574.429 1833.58,577.057 1834.15,580.296C1834.43,581.794 1835.14,583.178 1836.2,584.271C1836.11,584.397 1836.01,584.525 1835.92,584.654L1834.98,584.664C1834.85,584.651 1834.7,584.644 1834.57,584.644C1834.39,584.644 1834.22,584.654 1834.05,584.674L1831.67,584.699L1831.43,584.699C1831.32,584.699 1831.21,584.699 1831.1,584.712L1831.09,584.712C1831,584.719 1830.91,584.728 1830.82,584.74C1828.29,585.091 1826.73,587.599 1827.27,590.64C1827.7,593.105 1829.34,595.196 1831.63,596.199C1831.51,597.255 1831.45,598.317 1831.44,599.38L1830.4,599.397L1830.26,599.397C1830.15,599.397 1830.05,599.403 1829.94,599.409L1829.74,599.409C1829.74,599.414 1829.74,599.418 1829.74,599.423C1827.16,599.723 1825.55,602.254 1826.09,605.337C1826.67,608.619 1829.47,611.28 1832.35,611.28L1833.52,611.262C1833.8,612.027 1834.1,612.782 1834.42,613.526C1832.41,614.262 1831.24,616.526 1831.72,619.217C1832.27,622.373 1834.89,624.953 1837.65,625.146L1837.65,625.146C1837.76,625.153 1837.87,625.159 1837.98,625.159C1838.12,625.159 1838.26,625.151 1838.4,625.138L1841.04,625.11L1841.11,625.11C1841.46,625.111 1841.81,625.069 1842.15,624.985C1842.58,625.418 1843.02,625.842 1843.47,626.251C1842.86,627.418 1842.66,628.76 1842.93,630.051C1843.51,633.335 1846.31,635.994 1849.19,635.994L1852.25,635.946L1852.32,635.946C1853.98,635.964 1855.49,634.968 1856.13,633.436C1856.48,633.53 1856.83,633.618 1857.17,633.698C1857.19,633.898 1857.22,634.098 1857.26,634.298C1857.83,637.58 1860.64,640.241 1863.52,640.241L1866.65,640.192L1866.86,640.192C1869.62,640.066 1871.38,637.457 1870.81,634.254C1870.78,634.054 1870.73,633.849 1870.68,633.654C1870.78,633.629 1870.88,633.601 1870.98,633.574C1872.09,635.025 1873.78,635.914 1875.6,636L1878.62,635.947C1878.66,635.947 1878.69,635.953 1878.73,635.953C1881.61,635.953 1883.48,633.292 1882.9,630.01C1882.68,628.793 1882.17,627.647 1881.41,626.67C1881.8,626.171 1882.17,625.651 1882.51,625.112L1886.11,625.112C1888.99,625.112 1890.85,622.451 1890.27,619.169C1889.86,616.844 1888.38,614.842 1886.28,613.769C1886.36,612.929 1886.4,612.075 1886.4,611.206C1886.55,611.219 1886.69,611.23 1886.84,611.23M1863.92,625.33C1853.78,625.33 1843.97,616.281 1842,605.118C1840.03,593.955 1846.65,584.905 1856.79,584.905C1866.93,584.905 1876.75,593.955 1878.71,605.118C1880.68,616.281 1874.06,625.33 1863.92,625.33" style="fill:rgb(216,103,19);fill-rule:nonzero;"/>
                </g>
                <g id="Tracé_1627" transform="matrix(1,0,0,1,-1510.39,-467.446)">
                    <path d="M1900.71,611.238C1903.59,611.238 1905.45,608.577 1904.87,605.295C1904.29,602.013 1901.49,599.352 1898.61,599.352C1898.47,599.352 1898.33,599.363 1898.19,599.377C1897.75,598.17 1897.26,596.986 1896.7,595.83C1898.28,594.596 1898.99,592.544 1898.52,590.599C1897.94,587.317 1895.14,584.656 1892.26,584.656C1891.27,584.643 1890.31,584.996 1889.56,585.645C1888.92,584.998 1888.26,584.379 1887.59,583.788C1888.08,582.682 1888.22,581.45 1887.99,580.261C1887.41,576.979 1884.6,574.318 1881.73,574.318C1879.68,574.319 1877.93,575.811 1877.59,577.824C1876.59,577.465 1875.57,577.167 1874.54,576.931C1874.52,576.731 1874.49,576.531 1874.46,576.331C1873.88,573.049 1871.08,570.388 1868.2,570.388C1865.32,570.388 1863.46,573.049 1864.03,576.331C1864.07,576.535 1864.11,576.735 1864.17,576.931C1863.02,577.213 1861.9,577.599 1860.82,578.083C1859.81,575.926 1857.69,574.483 1855.31,574.319C1852.43,574.319 1850.57,576.98 1851.15,580.262C1851.42,581.76 1852.14,583.143 1853.2,584.236C1852.77,584.806 1852.37,585.401 1851.99,586.021C1850.99,585.173 1849.74,584.692 1848.43,584.657C1845.55,584.657 1843.69,587.318 1844.26,590.6C1844.69,593.066 1846.34,595.157 1848.63,596.16C1848.5,597.27 1848.44,598.387 1848.43,599.504C1848.05,599.407 1847.66,599.356 1847.26,599.354C1844.38,599.354 1842.52,602.015 1843.1,605.297C1843.67,608.579 1846.48,611.24 1849.36,611.24C1849.73,611.24 1850.11,611.189 1850.48,611.09C1850.77,611.902 1851.08,612.702 1851.42,613.49C1849.41,614.226 1848.24,616.49 1848.72,619.18C1849.3,622.462 1852.1,625.123 1854.98,625.123C1856.14,625.141 1857.27,624.649 1858.04,623.776C1858.82,624.632 1859.62,625.445 1860.46,626.215C1859.85,627.382 1859.66,628.724 1859.92,630.015C1860.5,633.297 1863.31,635.958 1866.18,635.958C1868.22,635.958 1869.98,634.473 1870.31,632.466C1871.57,632.963 1872.86,633.364 1874.17,633.666C1874.19,633.866 1874.22,634.066 1874.25,634.266C1874.83,637.548 1877.63,640.209 1880.51,640.209C1883.39,640.209 1885.25,637.548 1884.67,634.266C1884.64,634.062 1884.6,633.862 1884.54,633.666C1885.51,633.427 1886.47,633.114 1887.39,632.729C1888.47,634.612 1890.42,635.829 1892.59,635.963C1895.47,635.963 1897.33,633.302 1896.75,630.02C1896.53,628.803 1896.02,627.657 1895.26,626.68C1895.89,625.88 1896.46,625.037 1896.96,624.157C1897.85,624.766 1898.9,625.101 1899.98,625.122C1902.85,625.122 1904.72,622.461 1904.14,619.179C1903.73,616.854 1902.25,614.853 1900.15,613.779C1900.22,612.94 1900.27,612.086 1900.27,611.216C1900.41,611.229 1900.56,611.241 1900.7,611.241M1877.85,625.341C1867.71,625.341 1857.9,616.292 1855.93,605.129C1853.96,593.966 1860.59,584.917 1870.73,584.917C1880.86,584.917 1890.68,593.966 1892.65,605.129C1894.62,616.292 1887.99,625.341 1877.85,625.341" style="fill:rgb(241,163,79);fill-rule:nonzero;"/>
                </g>
                <g id="Tracé_1628" transform="matrix(1,0,0,1,-886.224,-665.541)">
                    <path d="M1081.38,812.1L1093.87,858.727L1104.97,858.727L1092.47,812.1L1081.38,812.1Z" style="fill:rgb(175,205,251);fill-rule:nonzero;"/>
                </g>
                <g id="Tracé_1629" transform="matrix(1,0,0,1,-953.707,-643.923)">
                    <path d="M1163.72,785.719L1177.49,837.106L1188.59,837.106L1174.82,785.719L1163.72,785.719Z" style="fill:rgb(175,205,251);fill-rule:nonzero;"/>
                </g>
                <g id="Tracé_1630" transform="matrix(1,0,0,1,-1016.24,-606.691)">
                    <path d="M1240.02,740.288L1255.98,799.874L1267.08,799.874L1251.12,740.288L1240.02,740.288Z" style="fill:rgb(175,205,251);fill-rule:nonzero;"/>
                </g>
                <g id="Tracé_1631" transform="matrix(1,0,0,1,-1085.21,-579.267)">
                    <path d="M1335.28,706.825L1324.18,706.825L1340.14,766.411L1351.24,766.411L1335.28,706.825Z" style="fill:rgb(175,205,251);fill-rule:nonzero;"/>
                </g>
                <g id="Tracé_1632" transform="matrix(1,0,0,1,-881.778,-549.915)">
                    <path d="M1078.57,691.914L1090.46,682.773L1091.36,686.128C1091.54,686.712 1091.96,687.191 1092.52,687.434C1093,687.691 1093.59,687.634 1094.02,687.289L1106.71,675.149L1108.49,676.749C1108.71,676.942 1109,676.849 1108.97,676.604L1108.4,671.52C1108.37,671.335 1108.21,671.194 1108.03,671.18L1102.75,671.011C1102.49,671.003 1102.43,671.301 1102.65,671.496L1104.24,672.922L1093.49,683.19L1092.67,680.118C1092.5,679.556 1092.1,679.091 1091.57,678.84C1091.11,678.582 1090.54,678.601 1090.1,678.888L1076.35,689.456C1076.1,689.713 1075.95,690.059 1075.95,690.42C1075.95,690.824 1076.13,691.209 1076.44,691.469C1076.8,691.879 1077.31,692.124 1077.86,692.144C1078.12,692.15 1078.37,692.069 1078.58,691.916" style="fill:rgb(175,205,251);fill-rule:nonzero;"/>
                </g>
                <g id="Tracé_1633" transform="matrix(1,0,0,1,-878.03,-819.371)">
                    <path d="M1071.38,999.8L1071.85,1001.62C1071.58,1001.05 1071.42,1000.43 1071.38,999.8" style="fill:rgb(202,224,255);fill-rule:nonzero;"/>
                </g>
                <g id="Tracé_1634" transform="matrix(1,0,0,1,-880.158,-392.688)">
                    <path d="M1309.44,594.756L1079.16,594.756L1073.97,574.934C1078.75,585.182 1117.54,573.968 1126.24,567.734C1142.14,556.256 1142.26,544.954 1158.71,537.283C1180.99,526.888 1203.27,543.168 1221.19,538.718C1276.15,525.103 1321.71,480.568 1323.12,479.163C1307.69,514.884 1270.09,533.682 1298.99,545.394C1328.97,557.545 1309.44,594.759 1309.44,594.759" style="fill:rgb(202,224,255);fill-rule:nonzero;"/>
                </g>
                <g id="Tracé_1635" transform="matrix(1,0,0,1,-853.595,-422.86)">
                    <path d="M1051.86,524.113C1050.56,523.439 1049.2,522.882 1047.8,522.446C1047.11,522.223 1046.43,521.952 1045.77,521.635C1045.3,521.397 1044.94,520.973 1044.78,520.463C1044.57,519.987 1044.65,519.43 1044.99,519.033C1045.37,518.674 1045.88,518.49 1046.4,518.526C1047,518.564 1047.58,518.697 1048.14,518.921C1048.62,519.123 1049.12,519.256 1049.64,519.316C1049.96,519.341 1050.27,519.221 1050.48,518.991C1050.67,518.735 1050.71,518.398 1050.58,518.106C1050.39,517.596 1050.02,517.173 1049.54,516.918C1048.39,516.253 1047.08,515.927 1045.76,515.977C1044.52,515.89 1043.3,516.313 1042.39,517.148C1041.54,518.06 1041.3,519.396 1041.78,520.548C1042.25,522.081 1043.35,523.344 1044.81,524.018L1048.92,525.505C1050.11,525.793 1051.09,526.63 1051.57,527.758C1051.78,528.325 1051.7,528.962 1051.36,529.458C1051.01,529.934 1050.44,530.202 1049.85,530.168C1049.22,530.166 1048.59,530.075 1047.98,529.897C1047.95,529.882 1047.53,529.739 1046.72,529.468C1046.36,529.316 1045.98,529.21 1045.59,529.152C1045.26,529.125 1044.94,529.25 1044.72,529.49C1044.53,529.759 1044.49,530.111 1044.62,530.415C1044.87,531.215 1045.71,531.832 1047.15,532.265C1048.15,532.588 1049.2,532.756 1050.26,532.765C1051.63,532.877 1052.99,532.383 1053.97,531.413C1054.86,530.316 1055.07,528.812 1054.52,527.513C1054.1,526.083 1053.14,524.867 1051.86,524.113" style="fill:rgb(175,205,251);fill-rule:nonzero;"/>
                </g>
                <g id="Tracé_1636" transform="matrix(1,0,0,1,-899.041,-423.475)">
                    <path d="M1104.44,519.367L1106.75,519.367C1107.95,519.367 1108.41,518.931 1108.14,518.058C1107.87,517.171 1107.13,516.727 1105.91,516.727L1098.51,516.727C1097.29,516.727 1096.82,517.171 1097.09,518.058C1097.36,518.931 1098.09,519.367 1099.29,519.367L1101.57,519.367L1105.29,531.529C1105.67,532.762 1106.33,533.379 1107.27,533.379C1108.24,533.379 1108.53,532.762 1108.16,531.529L1104.44,519.367Z" style="fill:rgb(175,205,251);fill-rule:nonzero;"/>
                </g>
                <g id="Tracé_1637" transform="matrix(1,0,0,1,-960.96,-422.552)">
                    <path d="M1186.38,530.334L1177.65,517.292C1177.13,516.306 1176.12,515.663 1175.01,515.6C1174.03,515.6 1173.51,516.209 1173.43,517.428L1172.57,530.357C1172.56,530.633 1172.6,530.908 1172.69,531.17C1172.8,531.551 1173.04,531.882 1173.37,532.106C1173.69,532.334 1174.07,532.456 1174.46,532.456C1175.09,532.456 1175.43,532.058 1175.47,531.263L1175.58,528.553L1182.23,528.553L1183.94,531.187C1184.29,531.905 1185,532.388 1185.79,532.456C1186.12,532.478 1186.45,532.349 1186.68,532.106C1186.89,531.85 1186.94,531.498 1186.82,531.192C1186.71,530.887 1186.56,530.598 1186.38,530.335M1175.67,526.025L1175.94,519.076C1175.95,519 1175.96,518.924 1175.98,518.85L1180.61,526.024L1175.67,526.025Z" style="fill:rgb(175,205,251);fill-rule:nonzero;"/>
                </g>
                <g id="Tracé_1638" transform="matrix(1,0,0,1,-1013.44,-423.475)">
                    <path d="M1250.72,530.649L1245.23,526.113C1248.13,525.902 1249.15,524.406 1248.3,521.623C1247.87,520.089 1246.87,518.769 1245.52,517.923C1244.22,517.111 1242.72,516.694 1241.18,516.723L1237.96,516.723C1236.77,516.723 1236.37,517.349 1236.75,518.601L1240.71,531.566C1241.09,532.803 1241.75,533.421 1242.69,533.421C1243.66,533.421 1243.96,532.808 1243.59,531.582L1241.93,526.182L1242.08,526.295L1249.22,532.545C1249.68,533.03 1250.3,533.341 1250.96,533.425C1251.28,533.449 1251.59,533.319 1251.8,533.075C1251.99,532.809 1252.03,532.463 1251.91,532.161C1251.67,531.554 1251.25,531.029 1250.72,530.649M1243.24,524.308C1242.6,524.327 1241.95,524.281 1241.32,524.172L1239.84,519.322L1241.95,519.322C1243.52,519.178 1244.98,520.213 1245.36,521.747C1245.88,523.455 1245.18,524.309 1243.24,524.308" style="fill:rgb(175,205,251);fill-rule:nonzero;"/>
                </g>
                <g id="Tracé_1639" transform="matrix(1,0,0,1,-1064.22,-423.475)">
                    <path d="M1305.99,519.367L1308.3,519.367C1309.5,519.367 1309.96,518.931 1309.69,518.058C1309.42,517.171 1308.68,516.727 1307.46,516.727L1300.06,516.727C1298.84,516.727 1298.37,517.171 1298.64,518.058C1298.9,518.931 1299.64,519.367 1300.84,519.367L1303.12,519.367L1306.84,531.529C1307.22,532.762 1307.88,533.379 1308.82,533.379C1309.79,533.379 1310.08,532.762 1309.7,531.529L1305.99,519.367Z" style="fill:rgb(175,205,251);fill-rule:nonzero;"/>
                </g>
                <g id="Tracé_1640" transform="matrix(1,0,0,1,-1162.64,-483.042)">
                    <path d="M1421.87,590.978C1421.73,590.536 1421.44,590.15 1421.07,589.878C1420.72,589.588 1420.28,589.424 1419.82,589.414C1419.44,589.391 1419.08,589.567 1418.86,589.878C1418.64,590.203 1418.6,590.613 1418.74,590.978C1418.88,591.42 1419.16,591.806 1419.54,592.078C1419.89,592.368 1420.33,592.532 1420.78,592.542C1421.16,592.565 1421.52,592.389 1421.74,592.078C1421.96,591.753 1422.01,591.343 1421.87,590.978" style="fill:rgb(175,205,251);fill-rule:nonzero;"/>
                </g>
                <g id="Tracé_1641" transform="matrix(1,0,0,1,-1144.56,-421.496)">
                    <path d="M1402.03,524.333L1399.51,516.1C1399.15,514.908 1398.5,514.312 1397.58,514.312C1396.66,514.312 1396.39,514.908 1396.76,516.1L1399.27,524.333C1399.65,525.569 1400.3,526.187 1401.23,526.187C1402.14,526.187 1402.41,525.569 1402.03,524.333" style="fill:rgb(175,205,251);fill-rule:nonzero;"/>
                </g>
                <g id="Tracé_1642" transform="matrix(1,0,0,1,-1293.15,-608.842)">
                    <path d="M1689.7,810.91L1577.91,810.91C1584.58,805.54 1589.68,798.468 1592.67,790.444C1598.52,773.989 1618.52,780.782 1636.18,777.944C1653.86,775.104 1689.53,739.1 1690.75,743.244C1691.41,745.465 1683.43,774.72 1695.15,778.028C1706.71,781.278 1711.13,799.548 1689.7,810.909" style="fill:rgb(175,205,251);fill-rule:nonzero;"/>
                </g>
                <g id="Tracé_1643" transform="matrix(1,0,0,1,0,-1294.29)">
                    <path d="M554.916,1580.29L0.495,1580.29C0.232,1580.28 0.022,1580.06 0.022,1579.79C0.022,1579.53 0.232,1579.31 0.495,1579.3L554.916,1579.3C554.923,1579.3 554.931,1579.3 554.938,1579.3C555.21,1579.3 555.433,1579.52 555.433,1579.79C555.433,1580.06 555.21,1580.29 554.938,1580.29C554.931,1580.29 554.923,1580.29 554.916,1580.29" style="fill:rgb(40,50,80);fill-rule:nonzero;"/>
                </g>
            </g>
        </g>
    </g>
</svg>
