<?xml version="1.0" encoding="UTF-8" standalone="no"?>
<!DOCTYPE svg PUBLIC "-//W3C//DTD SVG 1.1//EN" "http://www.w3.org/Graphics/SVG/1.1/DTD/svg11.dtd">
<svg width="100%" height="100%" viewBox="0 0 565 307" version="1.1" xmlns="http://www.w3.org/2000/svg" xmlns:xlink="http://www.w3.org/1999/xlink" xml:space="preserve" xmlns:serif="http://www.serif.com/" style="fill-rule:evenodd;clip-rule:evenodd;stroke-linejoin:round;stroke-miterlimit:2;">
    <g transform="matrix(1,0,0,1,-41888.1,-1443.46)">
        <g transform="matrix(1,0,0,1,41888.1,1443.46)">
            <g id="Groupe_311" transform="matrix(1,0,0,1,0,0.004)">
                <g id="Tracé_1644" transform="matrix(1,0,0,1,-4.167,-7.434)">
                    <path d="M30.95,313.434C30.95,313.434 -9.078,268.524 10.707,181.781C23.151,127.22 75.978,93.612 145.5,102.771C209.864,111.25 208.781,77.222 265.094,44.748C385.549,-24.714 559.788,4.787 518.087,161.031C497.906,236.642 581.563,237.853 539.987,313.431L30.95,313.434Z" style="fill:rgb(235,243,250);fill-rule:nonzero;"/>
                </g>
                <g id="Tracé_1645" transform="matrix(1,0,0,1,-1315.13,-91.103)">
                    <path d="M1683.21,114.253L1677.59,113.997L1677.46,113.992C1676.78,113.963 1676.18,114.453 1676.07,115.124L1675.35,119.768C1675.34,119.843 1675.32,119.917 1675.3,119.989C1675.13,120.487 1674.68,120.839 1674.16,120.881C1671.05,121.135 1668.02,122.008 1665.25,123.448C1665.13,123.504 1665.02,123.546 1664.89,123.571C1664.42,123.659 1663.94,123.495 1663.62,123.14L1661.04,120.186C1660.7,119.808 1660.18,119.649 1659.69,119.775C1659.54,119.818 1659.39,119.886 1659.26,119.975L1654.55,123.275C1653.97,123.681 1653.8,124.474 1654.15,125.087L1656.77,129.599C1657.03,130.043 1657.01,130.598 1656.71,131.019C1656.3,131.635 1655.91,132.264 1655.54,132.919C1654.88,134.134 1654.32,135.405 1653.87,136.719L1653.87,136.725C1653.7,137.26 1653.2,137.631 1652.64,137.652L1647.35,137.865L1647.08,137.878C1646.4,137.903 1645.84,138.456 1645.81,139.14L1645.55,144.887C1645.52,145.585 1646.02,146.2 1646.71,146.31L1651.88,147.11C1652.45,147.196 1652.9,147.641 1653,148.21C1653.42,150.605 1654.21,152.92 1655.34,155.073C1655.63,155.622 1655.5,156.298 1655.03,156.704L1651.54,159.769C1651.01,160.228 1650.92,161.018 1651.32,161.588L1654.62,166.318C1655.01,166.872 1655.77,167.038 1656.36,166.699L1661.66,163.627C1662.11,163.366 1662.67,163.383 1663.11,163.669C1663.64,164.024 1664.19,164.357 1664.77,164.669C1665.83,165.252 1666.93,165.754 1668.07,166.169C1668.58,166.345 1668.92,166.819 1668.94,167.357L1669.19,173.72C1669.22,174.414 1669.78,174.978 1670.47,175.011L1676.24,175.279C1676.85,175.301 1677.4,174.913 1677.58,174.335C1677.6,174.274 1677.62,174.21 1677.62,174.146L1678.52,168.412C1678.6,167.881 1678.99,167.446 1679.51,167.312C1679.55,167.297 1679.6,167.287 1679.65,167.282C1679.79,167.264 1679.92,167.238 1680.06,167.206C1681.71,166.921 1683.33,166.461 1684.88,165.832C1685.4,165.617 1686,165.764 1686.36,166.194L1689.6,169.884C1690.06,170.406 1690.85,170.498 1691.42,170.098L1692.47,169.367L1696.12,166.806C1696.69,166.407 1696.86,165.627 1696.51,165.024L1693.93,160.579C1693.66,160.107 1693.71,159.509 1694.06,159.09C1694.99,157.954 1695.82,156.734 1696.53,155.445C1697.06,154.479 1697.52,153.476 1697.91,152.445L1699.02,152.402L1703.58,152.217C1704.13,152.199 1704.61,151.828 1704.78,151.298C1704.81,151.188 1704.83,151.073 1704.83,150.957L1705.11,145.172C1705.13,144.493 1704.64,143.895 1703.97,143.786L1700.44,143.242C1699.84,143.147 1699.38,142.657 1699.31,142.053C1699.08,139.57 1698.46,137.14 1697.47,134.853C1697.23,134.328 1697.37,133.704 1697.8,133.328L1702.22,129.455C1702.71,129.019 1702.8,128.28 1702.42,127.743L1699.07,122.967C1698.68,122.405 1697.92,122.235 1697.33,122.58L1691.81,125.78C1691.34,126.058 1690.74,126.018 1690.31,125.68C1689.36,124.945 1688.35,124.286 1687.3,123.71C1686.72,123.393 1686.13,123.101 1685.54,122.836C1685.08,122.627 1684.77,122.176 1684.75,121.669L1684.51,115.569C1684.48,114.867 1683.91,114.294 1683.21,114.257M1665.75,136.883C1666.71,135.537 1667.89,134.366 1669.25,133.419C1669.59,133.182 1669.94,132.971 1670.31,132.787C1672.08,131.914 1674.02,131.459 1675.99,131.459C1688.66,132.114 1693.19,147.166 1683.19,154.699C1683.02,154.821 1682.86,154.942 1682.69,155.061C1680.75,156.27 1678.52,156.919 1676.24,156.934C1675.26,156.894 1674.29,156.763 1673.34,156.543C1667.56,155.266 1663.42,150.105 1663.42,144.195C1663.42,141.576 1664.23,139.021 1665.75,136.884" style="fill:rgb(223,237,251);fill-rule:nonzero;"/>
                </g>
                <g id="Tracé_1646" transform="matrix(1,0,0,1,-1515.37,-245.321)">
                    <path d="M1959.7,308.486L1951.14,307.016L1950.94,306.982C1949.9,306.807 1948.89,307.444 1948.6,308.452L1946.6,315.428C1946.57,315.541 1946.53,315.651 1946.48,315.757C1946.12,316.487 1945.36,316.939 1944.55,316.903C1939.74,316.696 1934.93,317.453 1930.41,319.128C1930.23,319.193 1930.04,319.234 1929.84,319.249C1929.11,319.295 1928.4,318.953 1927.98,318.349L1924.6,313.328C1924.15,312.682 1923.38,312.338 1922.6,312.438C1922.36,312.474 1922.12,312.549 1921.9,312.659L1914.06,316.804C1913.09,317.317 1912.67,318.498 1913.1,319.504L1916.25,326.919C1916.56,327.648 1916.42,328.494 1915.89,329.083C1915.14,329.947 1914.42,330.835 1913.74,331.776C1912.48,333.508 1911.38,335.349 1910.45,337.276L1910.44,337.284C1910.07,338.069 1909.25,338.543 1908.38,338.468L1900.23,337.779L1899.82,337.749C1898.76,337.656 1897.8,338.396 1897.63,339.438L1896.12,348.192C1895.94,349.254 1896.6,350.292 1897.63,350.592L1905.39,352.816C1906.25,353.058 1906.86,353.827 1906.89,354.716C1907.08,358.466 1907.85,362.165 1909.17,365.68C1909.5,366.575 1909.17,367.586 1908.38,368.118L1902.44,372.144C1901.55,372.747 1901.25,373.939 1901.76,374.889L1905.91,382.769C1906.4,383.691 1907.53,384.091 1908.49,383.684L1917.21,379.996C1917.95,379.685 1918.8,379.817 1919.41,380.337C1920.16,380.983 1920.95,381.602 1921.76,382.194C1923.27,383.29 1924.86,384.27 1926.52,385.125C1927.27,385.493 1927.71,386.286 1927.63,387.113L1926.8,396.913C1926.71,397.981 1927.46,398.953 1928.51,399.136L1937.3,400.652C1938.22,400.802 1939.14,400.314 1939.53,399.464C1939.57,399.374 1939.61,399.28 1939.63,399.183L1942.1,390.57C1942.32,389.77 1943,389.176 1943.82,389.07C1943.89,389.056 1943.97,389.049 1944.04,389.05C1944.26,389.049 1944.47,389.037 1944.69,389.013C1947.27,388.893 1949.83,388.498 1952.33,387.832C1953.17,387.602 1954.07,387.943 1954.54,388.672L1958.8,394.946C1959.4,395.833 1960.59,396.126 1961.53,395.621L1963.28,394.702L1969.37,391.478C1970.32,390.976 1970.73,389.814 1970.31,388.823L1967.21,381.523C1966.88,380.746 1967.07,379.841 1967.69,379.266C1969.34,377.705 1970.84,375.994 1972.17,374.155C1973.17,372.779 1974.07,371.333 1974.86,369.83L1976.57,369.977L1983.59,370.567C1984.44,370.647 1985.26,370.172 1985.61,369.39C1985.69,369.228 1985.74,369.056 1985.77,368.879L1987.3,360.069C1987.46,359.033 1986.83,358.025 1985.82,357.727L1980.51,356.217C1979.61,355.957 1979,355.118 1979.01,354.18C1979.14,350.33 1978.65,346.486 1977.57,342.789C1977.3,341.939 1977.63,341.009 1978.38,340.517L1985.89,335.431C1986.72,334.86 1987,333.742 1986.53,332.847L1982.31,324.888C1981.83,323.953 1980.69,323.546 1979.72,323.961L1970.65,327.801C1969.87,328.135 1968.96,327.957 1968.37,327.354C1967.05,326.044 1965.63,324.84 1964.13,323.754C1963.3,323.154 1962.46,322.596 1961.61,322.079C1960.94,321.671 1960.55,320.92 1960.61,320.139L1961.41,310.746C1961.51,309.665 1960.75,308.679 1959.68,308.488M1928.61,339.8C1930.34,337.922 1932.38,336.354 1934.64,335.164C1935.21,334.866 1935.79,334.61 1936.39,334.399C1939.26,333.399 1942.32,333.074 1945.34,333.451C1964.64,336.884 1968.67,360.81 1951.91,370.434C1951.63,370.589 1951.36,370.743 1951.07,370.892C1947.87,372.374 1944.33,372.939 1940.83,372.525C1939.34,372.277 1937.88,371.89 1936.47,371.371C1928.71,368.606 1923.5,361.215 1923.5,352.977C1923.5,348.101 1925.32,343.397 1928.61,339.799" style="fill:rgb(205,227,253);fill-rule:nonzero;"/>
                </g>
                <g id="Tracé_1647" transform="matrix(1,0,0,1,-635.769,-430.489)">
                    <path d="M795.517,555.9C795.034,543.953 805.047,538.646 815.286,538.646C825.525,538.646 836.666,541.299 837.632,557.184C838.253,567.403 832.805,573.692 817.118,573.692C811.827,573.692 807.718,572.858 804.566,571.369L796.724,578.337L800.578,568.706C797.164,565.532 795.726,561.055 795.518,555.9" style="fill:rgb(223,237,251);fill-rule:nonzero;"/>
                </g>
                <g id="Tracé_1648" transform="matrix(1,0,0,1,-207.598,-1190.27)">
                    <path d="M269.935,1495.71C269.702,1493.89 269.228,1492.12 268.525,1490.43C267.541,1488.46 261.276,1489.71 261.276,1489.71C261.276,1489.71 260.023,1490.79 259.755,1495.8L269.935,1495.71Z" style="fill:rgb(35,56,98);fill-rule:nonzero;"/>
                </g>
                <g id="Tracé_1649" transform="matrix(1,0,0,1,-329.599,-1173.85)">
                    <path d="M413.279,1479.24C411.807,1478.34 412.644,1471.64 412.644,1471.64C412.644,1471.64 419.503,1466.15 420.444,1470.35C421.385,1474.55 426.96,1476.44 430.133,1476.95C432.323,1477.31 433.001,1478.52 433.211,1479.24L413.279,1479.24Z" style="fill:rgb(35,56,98);fill-rule:nonzero;"/>
                </g>
                <g id="Tracé_1650" transform="matrix(1,0,0,1,-236.388,-817.863)">
                    <path d="M305.861,1074.5C306.101,1075.72 306.268,1076.96 306.361,1078.2C306.999,1090.64 316.83,1119.08 318.589,1119.74C321.31,1120.77 325.595,1118.59 327.837,1117.87C328.773,1117.6 329.358,1116.65 329.186,1115.69C324.317,1093.31 322.528,1061.08 321.876,1041.99C321.731,1036.52 321.069,1031.08 319.897,1025.74C318.725,1020.4 295.918,1019.34 295.775,1027.44C295.649,1034.6 303.718,1062.69 305.856,1074.5" style="fill:rgb(33,63,122);fill-rule:nonzero;"/>
                </g>
                <g id="Tracé_1651" transform="matrix(1,0,0,1,-236.388,-817.863)">
                    <path d="M305.861,1074.5L321.88,1041.99C321.735,1036.53 321.073,1031.08 319.901,1025.74C318.729,1020.4 295.922,1019.34 295.779,1027.44C295.653,1034.6 303.722,1062.69 305.86,1074.51" style="fill:rgb(35,56,98);fill-rule:nonzero;"/>
                </g>
                <g id="Tracé_1652" transform="matrix(1,0,0,1,-190.692,-822.646)">
                    <path d="M265.5,1032.25L252.824,1124.13C252.824,1124.13 247.257,1125.47 242.924,1124.39C242.924,1124.39 239.213,1075.53 239.524,1063.72C239.835,1051.9 236.86,1032.11 240.202,1029.92C243.544,1027.74 265.502,1032.25 265.502,1032.25" style="fill:rgb(33,63,122);fill-rule:nonzero;"/>
                </g>
                <g id="Tracé_1653" transform="matrix(1,0,0,1,-187.217,-604.375)">
                    <path d="M235.838,790.391L234.258,812.449C234.199,813.276 234.731,814.038 235.528,814.266C237.296,814.779 239.335,815.136 243.267,815.951C248.128,816.932 253.075,817.429 258.034,817.435C267.744,817.497 271.42,814.15 271.42,814.15C271.838,814.158 271.199,812.125 270.62,802.463C270.425,799.19 270.236,795.041 270.101,789.797C269.978,785.079 269.896,779.474 269.888,772.824C269.878,764.824 257.496,756.219 257.267,756.219C257.267,757.371 255.451,759.496 252.656,759.679C249.338,759.896 245.266,758.244 245.266,756.333C245.266,756.314 239.266,765.933 237.136,776.175C236.865,777.475 236.656,778.844 236.489,780.286C236.489,780.308 236.484,780.33 236.481,780.352C236.45,780.616 236.422,780.88 236.395,781.152C236.39,781.199 236.386,781.246 236.381,781.293C236.357,781.536 236.332,781.781 236.31,782.028C236.303,782.098 236.298,782.17 236.292,782.24C236.271,782.466 236.252,782.691 236.234,782.919C236.234,782.94 236.234,782.96 236.229,782.981C236.215,783.15 236.203,783.321 236.19,783.491C236.181,783.611 236.172,783.734 236.163,783.855C236.149,784.055 236.136,784.255 236.122,784.455L236.103,784.755C236.091,784.946 236.08,785.138 236.068,785.333C236.063,785.418 236.058,785.504 236.053,785.591C236.038,785.87 236.023,786.152 236.008,786.436L236.008,786.504C235.994,786.776 235.981,787.052 235.968,787.328C235.968,787.396 235.962,787.464 235.959,787.528C235.946,787.787 235.934,788.049 235.924,788.312C235.924,788.351 235.924,788.39 235.919,788.428C235.892,789.069 235.866,789.72 235.843,790.382L235.843,790.432L235.838,790.391Z" style="fill:rgb(249,151,70);fill-rule:nonzero;"/>
                </g>
                <g id="Tracé_1654" transform="matrix(1,0,0,1,-278.828,-604.377)">
                    <path d="M348.881,756.22C348.881,756.22 360.395,756.12 363.165,760.008C365.935,763.896 372.012,784.8 368.841,791.756C365.67,798.712 359.741,788.878 356.441,784.618C353.141,780.358 348.876,756.218 348.876,756.218" style="fill:rgb(249,151,70);fill-rule:nonzero;"/>
                </g>
                <g id="Tracé_1655" transform="matrix(1,0,0,1,-231.039,-570.056)">
                    <path d="M301.21,720.141L301.204,721.331C301.204,721.331 301.528,725.053 296.945,725.597C292.362,726.141 288.966,724.889 289.09,722.017C289.527,719.93 289.801,717.812 289.91,715.682C289.92,714.936 289.865,714.19 289.747,713.453L298.629,713.276L301.245,713.704L301.21,720.141Z" style="fill:rgb(255,178,125);fill-rule:nonzero;"/>
                </g>
                <g id="Tracé_1656" transform="matrix(1,0,0,1,-233.669,-570.057)">
                    <path d="M303.873,713.7L303.839,720.138C302.837,720.606 301.745,720.847 300.639,720.844C296.557,720.844 293.919,717.851 292.539,715.678C292.549,714.932 292.495,714.186 292.376,713.449L301.258,713.272L303.873,713.7Z" style="fill:rgb(226,145,90);fill-rule:nonzero;"/>
                </g>
                <g id="Tracé_1657" transform="matrix(1,0,0,1,-225.185,-509.48)">
                    <path d="M283.212,651.449C284.242,656.995 291.399,656.813 294.491,656.464C295.361,656.364 295.909,656.256 295.909,656.256C296.89,655.994 297.438,654.448 297.692,652.424C298.192,648.417 297.559,642.536 296.882,641.031C295.863,638.768 293.944,636.319 286.738,638.086C279.532,639.853 281.889,644.343 283.212,651.449" style="fill:rgb(255,178,125);fill-rule:nonzero;"/>
                </g>
                <g id="Tracé_1658" transform="matrix(1,0,0,1,-319.532,-666.389)">
                    <path d="M401.359,833.812C401.359,833.812 405.812,843.646 405.682,846.594C404.222,846.573 402.766,846.76 401.359,847.15C397.878,848.188 401.359,833.812 401.359,833.812" style="fill:rgb(237,125,43);fill-rule:nonzero;"/>
                </g>
                <g id="Tracé_1659" transform="matrix(1,0,0,1,-212.688,-493.019)">
                    <path d="M286.6,619.29C284.214,619.018 281.883,618.387 279.686,617.419C276.649,616.099 272.818,617.553 271.575,618.208C271.619,617.94 271.721,617.684 271.875,617.46C271.556,617.691 271.329,618.027 271.234,618.409C271.177,618.451 271.151,618.481 271.166,618.49C270.819,618.426 270.462,618.449 270.126,618.557C269.79,618.665 270.411,618.516 270.512,618.699C270.524,618.719 270.539,618.736 270.558,618.75C265.821,621.039 265.384,628.525 266.908,630.257C268.484,632.37 269.835,634.641 270.941,637.034C271.468,636.149 271.636,635.095 271.409,634.091C271.076,632.257 272.66,632.257 274.66,631.423C276.66,630.589 274.993,628.255 276.744,626.838C278.495,625.421 284.913,626.254 284.83,625.171C287.213,624.303 286.595,619.532 286.595,619.288" style="fill:rgb(35,56,98);fill-rule:nonzero;"/>
                </g>
                <g id="Tracé_1660" transform="matrix(1,0,0,1,-225.184,-738.027)">
                    <path d="M281.759,923.871C283.639,931.42 303.968,935.32 308.59,936.113C308.395,932.84 308.206,928.691 308.071,923.447L281.759,923.871Z" style="fill:rgb(237,125,43);fill-rule:nonzero;"/>
                </g>
                <g id="Tracé_1661" transform="matrix(1,0,0,1,-210.83,-717.815)">
                    <path d="M271.868,906.113C270.08,905.902 268.31,905.557 266.574,905.08C265.799,904.693 262.256,899.657 264.574,898.366C266.892,897.075 273.124,902.24 273.124,902.24L271.868,906.113Z" style="fill:rgb(255,178,125);fill-rule:nonzero;"/>
                </g>
                <g id="Tracé_1662" transform="matrix(1,0,0,1,-236.366,-719.459)">
                    <path d="M323.714,909.254C323.714,909.254 306.984,910.162 295.757,907.754C295.704,905.66 297.021,903.76 299,903.074C300.979,902.388 316.5,899.365 320.7,900.398C324.9,901.431 323.71,909.254 323.71,909.254" style="fill:rgb(249,151,70);fill-rule:nonzero;"/>
                </g>
                <g id="Tracé_1663" transform="matrix(1,0,0,1,-167.465,-604.848)">
                    <path d="M216.392,781.513C219.864,785.699 224.403,789.113 229.406,789.913C230.393,788.227 230.827,786.272 230.644,784.326C230.468,782.492 229.842,780.73 228.822,779.197C228.43,778.57 228.101,777.905 227.838,777.214C225.106,770.242 225.513,756.806 225.513,756.806C225.513,756.806 213.913,758.021 210.294,763.186C208.079,766.35 210.903,774.891 216.394,781.51" style="fill:rgb(249,151,70);fill-rule:nonzero;"/>
                </g>
                <g id="Tracé_1664" transform="matrix(1,0,0,1,-275.824,-568.954)">
                    <path d="M345.13,715.937C346,715.837 346.548,715.729 346.548,715.729C347.529,715.467 348.077,713.921 348.331,711.897C347.016,712.26 345.914,713.161 345.297,714.377C345.126,714.878 345.069,715.411 345.13,715.937" style="fill:rgb(226,145,90);fill-rule:nonzero;"/>
                </g>
                <g id="Tracé_1665" transform="matrix(1,0,0,1,-278.138,-569.949)">
                    <path d="M352.118,720.07C352.118,720.07 356.125,713.458 353.009,713.17C351.018,712.92 349.075,713.968 348.191,715.77C347.741,716.545 348.309,720.039 348.309,720.039L352.118,720.07Z" style="fill:rgb(255,178,125);fill-rule:nonzero;"/>
                </g>
                <g id="Tracé_1666" transform="matrix(1,0,0,1,-233.598,-592.834)">
                    <path d="M292.305,772.094C292.424,772.889 292.654,773.663 292.988,774.394C293.596,775.724 294.463,776.919 295.539,777.909C305.946,773.209 308.052,757.08 308.405,748.217C308.547,744.654 308.405,742.265 308.405,742.265C303.71,740.71 302.39,743.412 302.39,743.412C302.39,743.412 296.847,756.594 293.971,765.212C292.871,768.512 292.162,771.137 292.303,772.102" style="fill:rgb(249,151,70);fill-rule:nonzero;"/>
                </g>
                <g id="Tracé_1667" transform="matrix(1,0,0,1,-194.743,-618.442)">
                    <path d="M243.67,795.107C247.142,799.293 251.681,802.707 256.684,803.507C267.091,798.807 269.197,782.678 269.55,773.815C269.55,773.815 264.625,791.677 257.922,797.915C256.898,798.976 255.577,799.703 254.133,800C252.689,800.297 245.681,797.611 243.908,795.362C243.845,795.264 243.764,795.179 243.67,795.11" style="fill:rgb(237,125,43);fill-rule:nonzero;"/>
                </g>
                <g id="Tracé_1668" transform="matrix(1,0,0,1,-1371.15,-868.572)">
                    <path d="M1752.35,1102.8C1752.35,1102.8 1758.96,1095.04 1752.72,1090.14C1752.72,1090.14 1748.16,1087.4 1744.46,1087.64C1744.46,1087.64 1749.74,1096.44 1748.04,1097.31C1746.34,1098.19 1742.86,1087.09 1742.86,1087.09C1742.86,1087.09 1732.51,1086.11 1729.19,1087.72C1729.19,1087.72 1738.06,1094.94 1736.19,1095.37C1734.32,1095.81 1724.75,1088.73 1724.75,1088.73C1724.75,1088.73 1715.13,1090.4 1715.65,1096.27C1716.18,1102.14 1719.51,1103.95 1720.97,1103.79C1722.42,1103.63 1730.94,1100.35 1731.13,1101.54C1731.33,1102.74 1726.2,1106.66 1722.6,1106.85C1722.6,1106.85 1729.41,1114.32 1733.92,1112.15C1738.43,1109.98 1738.8,1106.55 1741.61,1105.26C1744.42,1103.96 1746.82,1103.96 1745.67,1105.27C1744.51,1106.59 1739.42,1107.87 1737.82,1110.73C1736.22,1113.58 1734.78,1115.5 1739.45,1114.78C1744.12,1114.07 1751.69,1110.63 1752.02,1106.72L1752.35,1102.8Z" style="fill:rgb(200,219,244);fill-rule:nonzero;"/>
                </g>
                <g id="Tracé_1669" transform="matrix(1,0,0,1,-1390.07,-906.643)">
                    <path d="M1739.31,1134.48C1739.31,1134.48 1765.47,1133.4 1771.27,1140.87C1772.4,1143.68 1774.19,1146.19 1776.49,1148.17L1777.11,1149.84C1777.11,1149.84 1772.57,1145.07 1770.94,1144.79C1770.94,1144.79 1773.45,1135.51 1739.31,1134.49" style="fill:rgb(200,219,244);fill-rule:nonzero;"/>
                </g>
                <g id="Tracé_1670" transform="matrix(1,0,0,1,-1532.17,-958.706)">
                    <path d="M1918.6,1200.23C1922.12,1203.08 1924.3,1207.26 1924.64,1211.78L1923.62,1211.87C1923.62,1211.87 1921.8,1204.21 1918.55,1201.22C1915.31,1198.23 1918.6,1200.23 1918.6,1200.23" style="fill:rgb(200,219,244);fill-rule:nonzero;"/>
                </g>
                <g id="Tracé_1671" transform="matrix(1,0,0,1,-1629.15,-741.764)">
                    <path d="M2045.42,955.531C2045.42,955.531 2034.86,949.65 2039.76,941.616C2039.76,941.616 2043.68,936.68 2047.9,935.402C2047.9,935.402 2045.68,947.368 2047.93,947.644C2050.19,947.92 2049.45,934.132 2049.45,934.132C2049.45,934.132 2060.55,928.755 2064.91,929.165C2064.91,929.165 2058.05,940.865 2060.3,940.575C2062.55,940.285 2070.25,928.446 2070.25,928.446C2070.25,928.446 2081.64,926.304 2083.49,933.053C2085.34,939.802 2082.39,943.187 2080.71,943.614C2079.02,944.041 2068.19,943.93 2068.47,945.336C2068.76,946.742 2076.08,948.973 2080.16,947.696C2080.16,947.696 2075.68,958.824 2069.77,958.278C2063.86,957.732 2062.02,954.078 2058.36,953.807C2054.7,953.536 2052.03,954.528 2053.86,955.507C2055.69,956.486 2061.88,955.807 2064.85,958.307C2067.81,960.807 2070.2,962.352 2064.72,963.493C2059.24,964.634 2049.38,963.957 2047.4,959.742L2045.42,955.531Z" style="fill:rgb(200,219,244);fill-rule:nonzero;"/>
                </g>
                <g id="Tracé_1672" transform="matrix(1,0,0,1,-1645.78,-769.844)">
                    <path d="M2094.93,963.259C2094.93,963.259 2065.4,972.909 2062.06,983.612C2061.97,987.212 2061.01,990.739 2059.27,993.892L2059.28,996.002C2059.28,996.002 2062.35,988.817 2064.04,987.828C2064.04,987.828 2057.4,978.56 2094.93,963.26" style="fill:rgb(200,219,244);fill-rule:nonzero;"/>
                </g>
                <g id="Tracé_1673" transform="matrix(1,0,0,1,-1634.91,-886.524)">
                    <path d="M2048.4,1110.57C2045.67,1115.2 2044.98,1120.76 2046.48,1125.92L2047.65,1125.6C2047.65,1125.6 2046.49,1116.33 2048.86,1111.65C2051.23,1106.98 2048.4,1110.57 2048.4,1110.57" style="fill:rgb(200,219,244);fill-rule:nonzero;"/>
                </g>
                <g id="Tracé_1674" transform="matrix(1,0,0,1,-1386.6,-675.63)">
                    <path d="M1786.06,881.294C1786.06,881.294 1799.95,873.466 1793.43,862.911C1793.43,862.911 1788.22,856.433 1782.65,854.78C1782.65,854.78 1785.66,870.537 1782.69,870.917C1779.72,871.297 1780.6,853.117 1780.6,853.117C1780.6,853.117 1765.93,846.109 1760.18,846.682C1760.18,846.682 1769.31,862.052 1766.34,861.689C1763.37,861.326 1753.13,845.774 1753.13,845.774C1753.13,845.774 1738.1,843.033 1735.71,851.943C1733.33,860.853 1737.23,865.293 1739.46,865.843C1741.69,866.393 1755.97,866.168 1755.6,868.024C1755.24,869.88 1745.6,872.874 1740.22,871.224C1740.22,871.224 1746.19,885.861 1753.98,885.097C1761.77,884.333 1764.17,879.504 1768.99,879.12C1773.81,878.736 1777.34,880.02 1774.93,881.329C1772.52,882.638 1764.36,881.784 1760.47,885.106C1756.59,888.428 1753.44,890.477 1760.67,891.941C1767.9,893.405 1780.89,892.441 1783.47,886.87L1786.06,881.294Z" style="fill:rgb(212,228,248);fill-rule:nonzero;"/>
                </g>
                <g id="Tracé_1675" transform="matrix(1,0,0,1,-1416.91,-712.765)">
                    <path d="M1772.9,891.839C1772.9,891.839 1811.88,904.344 1816.38,918.428C1816.52,923.173 1817.81,927.814 1820.12,931.958L1820.13,934.74C1820.13,934.74 1816.02,925.292 1813.8,924C1813.8,924 1822.48,911.734 1772.9,891.839" style="fill:rgb(212,228,248);fill-rule:nonzero;"/>
                </g>
                <g id="Tracé_1676" transform="matrix(1,0,0,1,-1597.45,-865.576)">
                    <path d="M2000.65,1084.77C2004.28,1090.85 2005.24,1098.17 2003.29,1104.99L2001.75,1104.58C2001.75,1104.58 2003.21,1092.34 2000.05,1086.2C1996.89,1080.06 2000.65,1084.77 2000.65,1084.77" style="fill:rgb(212,228,248);fill-rule:nonzero;"/>
                </g>
                <g id="Tracé_1677" transform="matrix(1,0,0,1,-1444.89,-802.851)">
                    <path d="M1935.04,1106.67L1820.83,1106.95C1803.84,1087.5 1802.11,1061.2 1824.68,1039.06C1827.52,1036.28 1832.96,1034.31 1838.83,1032.91C1846.46,1031.27 1854.21,1030.2 1862,1029.71C1865.73,1026.7 1869.19,1023.38 1872.37,1019.78C1884.42,1005.2 1894.66,1006.46 1894.66,1006.46C1906.95,1004.07 1917.42,1003.38 1925.19,1007.7C1932.38,1011.72 1937.25,1020.05 1939.06,1035.35C1939.41,1038.24 1939.64,1041.39 1939.76,1044.8C1940.2,1057.22 1942.65,1068.26 1944.1,1077.62C1946.2,1091.17 1946.21,1101.17 1935.03,1106.66" style="fill:rgb(249,151,70);fill-rule:nonzero;"/>
                </g>
                <g id="Tracé_1678" transform="matrix(1,0,0,1,-1563.04,-801.768)">
                    <path d="M2037.25,1021.95C2029.8,1026 2028.97,1039.37 2017.3,1042.82C2005.64,1046.27 1985.84,1045.95 1974.6,1058.12C1963.77,1069.87 1951.83,1039.96 1956.98,1031.56C1964.61,1029.91 1972.36,1028.84 1980.15,1028.36C1983.88,1025.34 1987.34,1022.02 1990.52,1018.42C2002.57,1003.84 2012.82,1005.1 2012.82,1005.1C2025.1,1002.72 2035.57,1002.02 2043.34,1006.34C2047.28,1010.64 2044.7,1017.88 2037.24,1021.94" style="fill:rgb(237,125,43);fill-rule:nonzero;"/>
                </g>
                <g id="Tracé_1679" transform="matrix(1,0,0,1,-1531.23,-891.488)">
                    <path d="M1959.69,1115.49C1959.69,1115.49 1922.3,1115 1917.32,1118.19C1912.34,1121.38 1922.45,1172.02 1922.45,1172.02C1922.45,1172.02 1932.13,1172.31 1932.89,1169.74C1932.89,1169.74 1931.08,1146.01 1932.59,1141.9C1934.11,1137.79 1933.15,1132.11 1933.15,1132.11C1933.15,1132.11 1952.08,1134.94 1958.08,1133.51C1964.08,1132.08 1959.7,1115.5 1959.7,1115.5" style="fill:rgb(35,56,98);fill-rule:nonzero;"/>
                </g>
                <g id="Tracé_1680" transform="matrix(1,0,0,1,-1651.49,-787.404)">
                    <path d="M2088.61,985.231C2088.61,985.261 2083.35,997.498 2080.78,998.801C2078.22,1000.1 2068.93,1010.77 2066.94,1010.59C2064.95,1010.4 2069.27,1012.21 2069.27,1012.21C2069.27,1012.21 2085.5,1004.73 2086.44,1004.26C2087.39,1003.79 2092.36,995.614 2093.04,991.459C2093.73,987.304 2088.61,985.229 2088.61,985.229" style="fill:rgb(255,178,125);fill-rule:nonzero;"/>
                </g>
                <g id="Tracé_1681" transform="matrix(1,0,0,1,-1563.68,-1088.16)">
                    <path d="M1966.53,1372.47C1965.29,1374.88 1965,1379.3 1964.63,1380.8C1964.26,1382.3 1957.73,1387.4 1957.16,1387.14C1955.74,1386.5 1957.1,1384.01 1957.97,1382.18C1958.01,1382.11 1958.04,1382.04 1958.07,1381.97C1958.93,1380.13 1958.19,1376.04 1958.64,1373.92C1959.09,1371.8 1956.94,1366.11 1956.94,1366.11L1960.55,1361.55C1960.55,1361.55 1963.09,1366.38 1964.9,1367.26C1965.22,1367.41 1965.52,1367.6 1965.79,1367.82C1967.18,1368.95 1967.5,1370.97 1966.53,1372.47" style="fill:rgb(255,178,125);fill-rule:nonzero;"/>
                </g>
                <g id="Tracé_1682" transform="matrix(1,0,0,1,-1486.34,-1139.13)">
                    <path d="M1876.5,1437.53C1874,1438.56 1870.93,1441.76 1869.68,1442.67C1868.43,1443.57 1860.15,1443.25 1859.88,1442.69C1859.18,1441.22 1862.07,1440.18 1863.91,1439.33C1863.94,1439.32 1863.97,1439.3 1863.99,1439.29L1864,1439.29C1865.82,1438.38 1867.86,1434.86 1869.54,1433.55C1871.24,1432.22 1873.28,1426.49 1873.28,1426.49L1878.98,1425.34C1878.98,1425.34 1877.8,1430.66 1878.62,1432.5C1878.7,1432.67 1878.77,1432.85 1878.82,1433.03C1878.94,1433.39 1879.01,1433.77 1879.01,1434.15C1879.01,1435.7 1877.98,1437.08 1876.5,1437.54" style="fill:rgb(255,178,125);fill-rule:nonzero;"/>
                </g>
                <g id="Tracé_1683" transform="matrix(1,0,0,1,-1746.79,-645.466)">
                    <path d="M2194.65,837.861C2193.89,836.981 2205.91,833.356 2208.48,843.225C2208.48,843.225 2230.61,837.34 2217,827.479C2212.29,824.065 2211.82,820.422 2211.14,817.09C2210.46,813.758 2205.76,804.177 2197.6,808.931C2197.6,808.931 2193.87,808.947 2191.51,810.99C2186.15,815.636 2180.29,845.17 2194.65,837.861" style="fill:rgb(22,53,96);fill-rule:nonzero;"/>
                </g>
                <g id="Tracé_1684" transform="matrix(1,0,0,1,-1532.76,-898.507)">
                    <path d="M1976.85,1124.25C1976.85,1124.25 1938.07,1128.19 1934.66,1132.15C1931.25,1136.11 1917.85,1187.58 1917.85,1187.58C1917.85,1187.58 1921.81,1189.79 1925.41,1187.72C1925.41,1187.72 1935.67,1170.26 1940.21,1164.78C1944.75,1159.3 1946.45,1142.38 1947.2,1142.2C1947.95,1142.03 1972.25,1145.6 1980.62,1139.17C1988.99,1132.75 1976.85,1124.25 1976.85,1124.25" style="fill:rgb(42,78,150);fill-rule:nonzero;"/>
                </g>
                <g id="Tracé_1685" transform="matrix(1,0,0,1,-1694.35,-747.546)">
                    <path d="M2160.04,938.1C2153.37,935.507 2146.13,934.732 2139.06,935.856C2136.44,936.082 2134.1,937.578 2132.79,939.856C2130.37,943.844 2129.23,945.986 2129.23,945.986C2129.23,945.986 2129.47,947.834 2132.77,949.306C2131.87,952.613 2133.6,958.389 2132.01,960.63C2130.42,962.871 2120.56,968.43 2120.07,971.519C2119.17,977.198 2136.91,987.494 2142.2,986.395C2157.42,983.234 2167.77,942.453 2160.04,938.103" style="fill:rgb(249,221,191);fill-rule:nonzero;"/>
                </g>
                <g id="Tracé_1686" transform="matrix(1,0,0,1,-1779.07,-653.559)">
                    <path d="M2239.53,832.41C2240.56,830.357 2241.26,828.151 2241.59,825.878C2241.76,823.778 2239.99,816.213 2232.39,818.041C2230.86,818.402 2229.43,819.103 2228.21,820.09C2226.64,821.376 2224.46,824.041 2227.78,830.474L2228.7,832.667L2239.53,832.41Z" style="fill:rgb(22,53,96);fill-rule:nonzero;"/>
                </g>
                <g id="Tracé_1687" transform="matrix(1,0,0,1,-1789.89,-716.735)">
                    <path d="M2239.93,907.688C2239.17,908.498 2239.47,911.188 2243.06,910.988C2245.42,910.856 2250.48,907.939 2250.01,905.923C2249.78,904.964 2247.97,902.493 2247.54,896.806L2247.12,896.926L2239.91,898.95C2239.91,898.95 2240.26,901.24 2240.44,903.409C2240.59,905.231 2240.26,907.352 2239.94,907.687" style="fill:rgb(255,178,125);fill-rule:nonzero;"/>
                </g>
                <g id="Tracé_1688" transform="matrix(1,0,0,1,-1791.17,-717.211)">
                    <path d="M2241.19,899.427C2241.19,899.427 2241.53,901.717 2241.71,903.886C2245.8,903.449 2247.67,899.543 2248.39,897.403L2241.19,899.427Z" style="fill:rgb(244,162,105);fill-rule:nonzero;"/>
                </g>
                <g id="Tracé_1689" transform="matrix(1,0,0,1,-1765.74,-669.793)">
                    <path d="M2215.6,855.339C2215.6,855.339 2225.03,852.969 2223.46,847.121C2221.89,841.273 2222.05,837.03 2215.97,838.296C2209.89,839.562 2209.32,842.106 2209.37,844.184C2209.42,846.262 2213.11,855.805 2215.6,855.339" style="fill:rgb(255,178,125);fill-rule:nonzero;"/>
                </g>
                <g id="Tracé_1690" transform="matrix(1,0,0,1,-1774.87,-666.42)">
                    <path d="M2220.78,835.93C2220.78,835.93 2223.95,841.961 2229.92,842.611C2233.41,842.991 2234.37,845.294 2234.37,845.294C2233.79,841.674 2232.86,838.12 2231.57,834.687C2230.28,831.254 2221.85,832.145 2220.79,835.931" style="fill:rgb(22,53,96);fill-rule:nonzero;"/>
                </g>
                <g id="Tracé_1691" transform="matrix(1,0,0,1,-1762.18,-673.949)">
                    <path d="M2209.18,844.257C2208.12,845.325 2207.21,846.533 2206.48,847.848C2205.54,850.048 2207.38,854.681 2208.14,855.679C2208.14,855.679 2203.75,848.237 2205.22,845.014C2206.77,841.597 2209.18,844.256 2209.18,844.256" style="fill:rgb(22,53,96);fill-rule:nonzero;"/>
                </g>
                <g id="Tracé_1692" transform="matrix(1,0,0,1,-1615.13,-888.086)">
                    <path d="M2033.38,1112.67C2033.38,1112.67 2031.5,1114.66 2031.28,1114.77C2030.03,1115.35 2028.47,1115.01 2027.71,1115.2C2026.95,1115.39 2027.08,1114.92 2027.64,1114.54C2028.2,1114.15 2029.57,1114.3 2029.01,1114.16C2028.45,1114.03 2025.41,1113.46 2024.27,1113.76C2023.17,1114.14 2021.96,1114.04 2020.92,1113.49C2020.81,1113.31 2025.05,1111.24 2026.27,1111.31C2027.48,1111.38 2030.97,1111.2 2030.97,1111.2L2033.38,1112.67Z" style="fill:rgb(255,178,125);fill-rule:nonzero;"/>
                </g>
                <g id="Tracé_1693" transform="matrix(1,0,0,1,-1760.76,-773.039)">
                    <path d="M2229.63,967.257C2229.63,967.257 2230.76,994.904 2227.51,998.78C2224.28,1002.63 2204.5,998.352 2204.5,998.352L2203.13,996.332C2203.13,996.332 2220.69,993.762 2221.87,993.432C2223.57,992.953 2222.39,973.915 2222.39,973.915L2229.63,967.257Z" style="fill:rgb(255,178,125);fill-rule:nonzero;"/>
                </g>
                <g id="Tracé_1694" transform="matrix(1,0,0,1,-1820.4,-756.714)">
                    <path d="M2284.92,946.831C2285.2,946.838 2288.69,947.986 2291.2,952.954C2293.67,957.834 2294.57,960.204 2294.57,960.204C2294.57,960.204 2283.63,968.678 2279.28,965.557C2274.93,962.436 2280.91,946.727 2284.92,946.831" style="fill:rgb(249,221,191);fill-rule:nonzero;"/>
                </g>
                <g id="Tracé_1695" transform="matrix(1,0,0,1,-1738.14,-891.644)">
                    <path d="M2181.89,1116.96C2181.89,1116.96 2180.31,1118.55 2179.71,1119.37C2179.11,1120.18 2174.93,1121.65 2174.84,1121.22C2174.74,1120.78 2176.71,1119.45 2176.89,1118.96C2177.06,1118.47 2179.21,1115.98 2180.51,1115.69C2181.82,1115.41 2181.89,1116.96 2181.89,1116.96" style="fill:rgb(255,178,125);fill-rule:nonzero;"/>
                </g>
                <g id="Tracé_1696" transform="matrix(1,0,0,1,-1719.95,-888.763)">
                    <path d="M2162.32,1112.06C2162.32,1112.06 2155.87,1113.55 2154.77,1113.99C2153.68,1114.44 2151.36,1117.73 2152.27,1118.22C2152.86,1118.53 2155.4,1117.19 2156.69,1116.91C2157.99,1116.63 2161.65,1117.26 2163.32,1113.95C2163.51,1113.58 2162.31,1112.05 2162.31,1112.05" style="fill:rgb(255,178,125);fill-rule:nonzero;"/>
                </g>
                <g id="Tracé_1697" transform="matrix(1,0,0,1,-1486.34,-1169.76)">
                    <path d="M1876.5,1468.15C1874,1469.18 1870.93,1472.38 1869.68,1473.29C1868.43,1474.2 1860.15,1473.87 1859.88,1473.32C1859.18,1471.85 1862.07,1470.8 1863.91,1469.95C1863.94,1469.94 1863.97,1469.93 1863.99,1469.91L1864,1469.91L1864.26,1469.83C1864.26,1469.83 1867.83,1471.11 1870.8,1469.83C1873.12,1468.84 1876.55,1465.15 1878.82,1463.65C1878.94,1464.01 1879,1464.39 1879,1464.78C1879,1466.33 1877.98,1467.7 1876.5,1468.16" style="fill:rgb(46,53,82);fill-rule:nonzero;"/>
                </g>
                <g id="Tracé_1698" transform="matrix(1,0,0,1,-1563.68,-1113.12)">
                    <path d="M1966.53,1397.43C1965.29,1399.83 1965,1404.26 1964.63,1405.76C1964.26,1407.26 1957.73,1412.36 1957.16,1412.1C1955.74,1411.45 1957.1,1408.96 1957.97,1407.14C1958.69,1407.08 1959.38,1406.82 1959.97,1406.4C1961.6,1405.31 1964.37,1401.2 1964.62,1398.78C1964.82,1396.81 1964.7,1393.98 1965.79,1392.78C1967.18,1393.91 1967.5,1395.93 1966.53,1397.43" style="fill:rgb(46,53,82);fill-rule:nonzero;"/>
                </g>
                <g id="Tracé_1699" transform="matrix(1,0,0,1,-1582.15,-832.957)">
                    <path d="M2016.21,1063.25L1988.11,1063.25L1979.65,1042.23L2007.71,1042.23L2016.21,1063.25Z" style="fill:rgb(249,151,70);fill-rule:nonzero;"/>
                </g>
                <g id="Tracé_1700" transform="matrix(1,0,0,1,-1614.49,-913.365)">
                    <path d="M2020.11,1142.84L2057.22,1142.84L2057.22,1143.66L2020.44,1143.66L2020.11,1142.84Z" style="fill:rgb(237,125,43);fill-rule:nonzero;"/>
                </g>
                <g id="Tracé_1701" transform="matrix(1,0,0,1,-1643.82,-869.464)">
                    <path d="M2056.87,1089.25C2056.82,1089.13 2056.79,1089.01 2056.79,1088.88C2056.79,1088.35 2057.23,1087.91 2057.77,1087.91C2057.78,1087.91 2057.8,1087.91 2057.82,1087.91C2058.62,1087.95 2059.3,1088.49 2059.54,1089.25C2059.59,1089.36 2059.61,1089.49 2059.61,1089.61C2059.61,1090.15 2059.17,1090.59 2058.64,1090.59C2058.62,1090.59 2058.61,1090.59 2058.59,1090.58C2057.79,1090.54 2057.11,1090.01 2056.87,1089.25" style="fill:white;fill-rule:nonzero;"/>
                </g>
                <g id="Tracé_1702" transform="matrix(1,0,0,1,-1638.12,-916.109)">
                    <path d="M2104.34,1146.27C2104.34,1146.27 2100.66,1149.71 2085.29,1150.2C2069.92,1150.69 2049.87,1167.67 2049.68,1172.47C2049.49,1177.26 2080.63,1184.57 2081.11,1183.88C2081.59,1183.19 2100.87,1166.65 2100.87,1166.65L2104.34,1146.27Z" style="fill:rgb(249,151,70);fill-rule:nonzero;"/>
                </g>
                <g id="Tracé_1703" transform="matrix(1,0,0,1,-1855.76,-924.331)">
                    <path d="M2354.97,1198.83C2346.7,1183.93 2327.8,1204.48 2323.1,1197.53C2318.4,1190.58 2329.74,1181.75 2339.97,1174.14C2349.99,1166.69 2349.95,1156.96 2349.94,1156.56C2350.28,1159.46 2350.52,1162.6 2350.64,1166.01C2351.08,1178.43 2353.52,1189.48 2354.97,1198.83" style="fill:rgb(237,125,43);fill-rule:nonzero;"/>
                </g>
                <g id="Tracé_1704" transform="matrix(1,0,0,1,-923.464,-0.004)">
                    <path d="M1289.07,66.4C1289.19,81.987 1283.82,97.13 1273.92,109.168C1265.66,119.136 1261.12,131.669 1261.07,144.613L1261.07,163.287C1261.07,168.38 1259.25,173.31 1255.95,177.187C1252.18,181.656 1246.77,184.417 1240.94,184.84C1240.46,184.873 1240,184.84 1239.51,184.84L1205.03,184.84C1204.56,184.84 1204.06,184.87 1203.6,184.84C1192.34,184.057 1183.49,174.58 1183.48,163.29L1183.48,144.644C1183.45,131.72 1178.93,119.199 1170.69,109.244C1160.85,97.29 1155.47,82.28 1155.47,66.798C1155.47,30.153 1185.62,-0.002 1222.27,-0.002C1258.77,-0.002 1288.85,29.906 1289.07,66.4" style="fill:rgb(255,185,62);fill-rule:nonzero;"/>
                </g>
                <g id="Tracé_1705" transform="matrix(1,0,0,1,-1115.03,-735.681)">
                    <path d="M1432.51,920.513C1432.34,921.85 1429.43,944.176 1429.4,944.388C1428.92,948.072 1424.71,950.888 1419.67,950.888L1408.32,950.888C1403.33,950.888 1399.13,948.119 1398.6,944.458C1398.05,940.606 1395.94,925.846 1395.17,920.514L1432.51,920.513Z" style="fill:rgb(237,125,43);fill-rule:nonzero;"/>
                </g>
                <g id="Tracé_1706" transform="matrix(1,0,0,1,-1119.17,-735.681)">
                    <path d="M1436.64,920.513L1425.73,920.513C1415.38,923.506 1405.11,926.463 1400.35,927.806L1400.6,929.551L1400.61,929.59L1400.86,931.357C1404.71,930.29 1413.96,927.641 1436.57,921.087L1436.64,920.513Z" style="fill:rgb(249,151,70);fill-rule:nonzero;"/>
                </g>
                <g id="Tracé_1707" transform="matrix(1,0,0,1,-1125.03,-766.876)">
                    <path d="M1407.94,971.018L1407.94,971.057L1408.19,972.831C1412.65,971.579 1421.84,968.943 1440.98,963.395L1441.23,961.469L1441.23,961.453L1441.48,959.54C1429.38,963.04 1414.75,967.271 1407.68,969.278L1407.94,971.018Z" style="fill:rgb(249,151,70);fill-rule:nonzero;"/>
                </g>
                <g id="Tracé_1708" transform="matrix(1,0,0,1,-1136.14,-811.12)">
                    <path d="M1423.31,1024.74L1423.37,1024.78C1424.2,1025.26 1425.09,1025.63 1426.02,1025.88C1431.27,1024.38 1439.06,1022.12 1450.65,1018.76L1450.9,1016.84L1450.9,1016.82L1451.15,1014.91C1440.8,1017.91 1428.92,1021.33 1421.59,1023.43C1422.1,1023.94 1422.68,1024.38 1423.31,1024.74" style="fill:rgb(249,151,70);fill-rule:nonzero;"/>
                </g>
                <g id="Tracé_1709" transform="matrix(1,0,0,1,-1078.12,-394.533)">
                    <path d="M1363.42,579.365L1348.98,494.159L1351.96,493.659L1366.48,579.369L1363.42,579.365Z" style="fill:rgb(255,234,197);fill-rule:nonzero;"/>
                </g>
                <g id="Tracé_1710" transform="matrix(1,0,0,1,-1225.49,-399.819)">
                    <path d="M1536.47,584.651L1533.39,584.651L1548.84,500.269L1551.82,500.813L1536.47,584.651Z" style="fill:rgb(255,234,197);fill-rule:nonzero;"/>
                </g>
                <g id="Tracé_1711" transform="matrix(1,0,0,1,-1083.95,-388.867)">
                    <path d="M1390.73,503.743C1390.29,503.739 1389.85,503.685 1389.43,503.584C1388.64,503.42 1388.04,502.765 1387.95,501.964C1387.6,500.076 1389.09,496.613 1391.16,493.678C1390.08,491.778 1388.63,490.214 1387.11,489.755C1384.87,489.074 1381.43,491.146 1379.03,493.791C1379.46,494.406 1379.86,495.048 1380.21,495.712C1381.44,498.03 1382.32,500.996 1381.11,502.366C1380.66,502.874 1379.75,503.335 1377.94,502.651C1375.67,501.797 1374.86,499.88 1375.7,497.39C1376.2,496.051 1376.92,494.81 1377.85,493.724C1375.99,491.303 1373.51,489.463 1371.07,489.771C1369.86,489.915 1368.71,490.35 1367.71,491.038C1369.28,493.947 1369.63,497.638 1368.55,499.62C1367.88,500.941 1366.24,501.484 1364.91,500.826C1363.76,500.416 1363.16,498.826 1363.38,496.783C1363.64,494.47 1364.76,492.336 1366.52,490.804C1366.05,490.061 1365.46,489.403 1364.78,488.856C1362.48,486.919 1359.03,487.091 1356.94,489.247L1356.28,488.61C1356.33,488.567 1360.49,484.369 1365.34,488.134C1366.09,488.729 1366.73,489.444 1367.24,490.249C1368.35,489.499 1369.62,489.025 1370.95,488.866C1373.69,488.522 1376.43,490.455 1378.45,493.027C1381.06,490.193 1384.78,488.099 1387.37,488.882C1389,489.382 1390.55,490.958 1391.73,492.904C1392.71,491.573 1393.9,490.407 1395.25,489.447C1397.15,488.183 1398.4,488.473 1399.1,488.938C1399.83,489.432 1400.46,490.061 1400.96,490.791C1401.51,490.35 1402.1,489.967 1402.73,489.648C1404.94,488.548 1406.97,488.628 1408.45,489.875L1407.86,490.575C1406.26,489.229 1404.22,489.931 1403.14,490.468C1402.53,490.773 1401.96,491.142 1401.44,491.568C1402.91,494.222 1403.19,497.681 1402.35,499.356C1402.05,500.075 1401.35,500.545 1400.57,500.545C1400.29,500.545 1400.02,500.486 1399.77,500.371C1398.33,499.987 1397.3,498.718 1397.22,497.238C1397.11,495.277 1398.47,493.044 1400.25,491.4C1399.82,490.729 1399.26,490.151 1398.6,489.7C1397.74,489.132 1396.57,489.662 1395.75,490.208C1394.39,491.191 1393.19,492.391 1392.21,493.76C1393.59,496.369 1394.3,499.41 1393.78,501.371C1393.49,502.803 1392.18,503.818 1390.72,503.743M1391.63,494.574C1389.82,497.214 1388.55,500.199 1388.84,501.8C1388.87,502.238 1389.19,502.604 1389.62,502.692C1391.41,503.098 1392.51,502.576 1392.89,501.137C1393.33,499.476 1392.76,496.881 1391.63,494.574M1378.41,494.508C1377.62,495.454 1376.99,496.528 1376.56,497.684C1375.87,499.728 1376.44,501.111 1378.25,501.795C1378.98,502.07 1379.95,502.288 1380.42,501.761C1381.13,500.946 1380.72,498.634 1379.39,496.139C1379.09,495.577 1378.77,495.033 1378.41,494.507M1366.98,491.607C1365.47,492.979 1364.51,494.853 1364.28,496.877C1364.11,498.437 1364.5,499.704 1365.22,499.959C1365.49,500.105 1365.79,500.182 1366.1,500.182C1366.79,500.182 1367.43,499.792 1367.74,499.175C1368.67,497.475 1368.33,494.213 1366.98,491.606M1400.72,492.189C1399.13,493.715 1398.05,495.671 1398.14,497.177C1398.21,498.288 1399,499.231 1400.08,499.502C1400.23,499.58 1400.39,499.621 1400.56,499.621C1401,499.621 1401.39,499.346 1401.54,498.935C1402.24,497.535 1401.94,494.527 1400.72,492.189" style="fill:rgb(255,234,197);fill-rule:nonzero;"/>
                </g>
                <g id="Tracé_1712" transform="matrix(1,0,0,1,-1240.63,-75.467)">
                    <path d="M1573.92,101.154C1579.41,106.327 1578.72,115.847 1571.66,117.965C1566.34,119.565 1558.39,117.43 1554.47,110.633C1550.55,103.836 1552.36,98.249 1557.17,95.469C1561.99,92.689 1568.21,95.769 1573.92,101.154" style="fill:rgb(255,234,197);fill-rule:nonzero;"/>
                </g>
                <g id="Tracé_1713" transform="matrix(1,0,0,1,-472.509,-514.001)">
                    <path d="M599.769,681.377C599.127,680.139 613.769,675.683 614,687.896C614,687.896 641.426,687.222 628.331,671.935C623.797,666.643 624.264,662.267 624.4,658.194C624.536,654.121 621.576,642.281 611.425,643.473C609.431,642.851 607.266,643.083 605.449,644.113C597.904,648.027 581.001,685.881 599.77,681.377" style="fill:rgb(22,53,96);fill-rule:nonzero;"/>
                </g>
                <g id="Tracé_1714" transform="matrix(1,0,0,1,-684.995,-707.7)">
                    <path d="M857.094,888.731C857.094,888.731 858.879,886.013 860.318,885.96C861.757,885.907 864.418,885.16 864.208,885.694C863.998,886.228 862.343,886.28 862.183,886.6C862.023,886.92 864.634,887.4 865.383,887.453C866.132,887.506 867.883,887.453 867.834,887.826C867.785,888.199 864.664,889.744 862.466,889.531C860.803,889.469 859.141,889.685 857.549,890.171L857.094,888.731Z" style="fill:rgb(255,178,125);fill-rule:nonzero;"/>
                </g>
                <g id="Tracé_1715" transform="matrix(1,0,0,1,-582.229,-637.67)">
                    <path d="M728.509,819.579C729.29,821.037 730.204,822.419 731.24,823.708C733.361,826.365 736.632,829.435 740.74,830.04C742.67,830.279 744.628,829.961 746.383,829.124L746.389,829.124C751.377,826.91 755.127,821.818 755.127,821.818C755.664,820.474 755.451,818.941 754.567,817.794C753.683,816.647 744.495,820.06 743.536,819.58C742.577,819.1 736.981,802.98 735.65,800.955C734.319,798.93 729.776,797.878 729.776,797.878L728.509,819.579Z" style="fill:rgb(249,221,191);fill-rule:nonzero;"/>
                </g>
                <g id="Tracé_1716" transform="matrix(1,0,0,1,-591.836,-719.241)">
                    <path d="M740.846,905.28C742.967,907.937 746.238,911.006 750.346,911.612C752.276,911.851 754.234,911.533 755.989,910.696C755.789,910.722 750.812,911.337 748.827,907.785C746.801,904.161 744.611,898.405 741.603,900.324C740.303,901.152 740.362,903.209 740.847,905.28" style="fill:rgb(242,204,170);fill-rule:nonzero;"/>
                </g>
                <g id="Tracé_1717" transform="matrix(1,0,0,1,-422.512,-1151.49)">
                    <path d="M531.216,1442.12C531.216,1442.12 528.143,1444.92 528.742,1446.92C529.341,1448.92 532.115,1450.25 532.49,1452.68C532.865,1455.12 534.364,1456.44 535.713,1456.44L542.146,1456.44C542.146,1456.44 543.139,1454.73 540.74,1454.21C538.341,1453.7 537.44,1450.84 537.587,1448.18C537.649,1446.11 537.574,1444.04 537.362,1441.98L532.262,1440.8L531.216,1442.12Z" style="fill:rgb(35,56,98);fill-rule:nonzero;"/>
                </g>
                <g id="Tracé_1718" transform="matrix(1,0,0,1,-534.504,-1161.52)">
                    <path d="M669.22,1453.34C669.22,1453.34 668.114,1465.22 669.464,1465.89L686.731,1465.85C686.731,1465.85 686.731,1463.86 683.958,1463.42C681.185,1462.97 676.312,1461.35 675.487,1457.73C674.662,1454.12 669.22,1453.34 669.22,1453.34" style="fill:rgb(35,56,98);fill-rule:nonzero;"/>
                </g>
                <g id="Tracé_1719" transform="matrix(1,0,0,1,-486.914,-593.438)">
                    <path d="M609.325,800.017C612.878,792.048 615.053,789.761 614.638,787.288C614.329,785.447 615.578,752.966 615.578,752.966C616,752.836 616.845,752.718 617.307,752.616C618.764,752.304 619.962,751.263 620.473,749.863C621.241,747.498 621.604,745.02 621.547,742.534L622.002,742.624L629.656,744.14C629.656,744.14 629.482,746.549 629.477,748.818L629.477,748.874C629.464,750.838 630.767,752.584 632.654,753.13C633.621,753.409 634.462,753.648 634.462,753.648C636.217,758.918 637.341,764.379 637.809,769.914C638.346,778.156 632.699,781.737 637.851,798.208C643.112,815.03 607.363,804.422 609.326,800.019" style="fill:rgb(255,178,125);fill-rule:nonzero;"/>
                </g>
                <g id="Tracé_1720" transform="matrix(1,0,0,1,-537.685,-593.795)">
                    <path d="M680.426,744.495C680.426,744.495 680.252,746.903 680.247,749.172C675.964,749.051 673.701,745.144 672.773,742.979L680.426,744.495Z" style="fill:rgb(232,148,91);fill-rule:nonzero;"/>
                </g>
                <g id="Tracé_1721" transform="matrix(1,0,0,1,-533.028,-540.325)">
                    <path d="M677.2,693.173C677.2,693.173 667.067,693.34 667.06,687.028C667.053,680.716 665.74,676.487 672.209,676.113C678.678,675.739 679.938,678.146 680.453,680.253C680.968,682.36 679.835,692.966 677.199,693.173" style="fill:rgb(255,178,125);fill-rule:nonzero;"/>
                </g>
                <g id="Tracé_1722" transform="matrix(1,0,0,1,-520.061,-534.757)">
                    <path d="M663.857,670.392C663.857,670.392 661.083,677.792 656.825,678.892C652.567,679.992 650.725,678.846 650.725,678.846C652.825,677.001 654.219,674.482 654.668,671.723C655.117,668.964 661.768,666.868 663.861,670.392" style="fill:rgb(22,53,96);fill-rule:nonzero;"/>
                </g>
                <g id="Tracé_1723" transform="matrix(1,0,0,1,-569.61,-537.45)">
                    <path d="M712.719,673.686C713.89,674.136 714.901,674.926 715.619,675.955C716.642,677.707 717.119,679.725 716.989,681.75C716.859,683.775 719.079,676.717 716.73,673.87C714.239,670.851 712.715,673.686 712.715,673.686" style="fill:rgb(22,53,96);fill-rule:nonzero;"/>
                </g>
                <g id="Tracé_1724" transform="matrix(1,0,0,1,-565.064,-591.385)">
                    <path d="M707.031,740.318C707.558,740.915 708.337,741.232 709.131,741.172C709.798,741.134 710.395,740.739 710.692,740.141C709.479,739.865 708.213,739.926 707.033,740.318" style="fill:rgb(235,243,250);fill-rule:nonzero;"/>
                </g>
                <g id="Tracé_1725" transform="matrix(1,0,0,1,-482.878,-634.959)">
                    <path d="M604.311,808.854C604.156,811.512 604.156,814.177 604.311,816.835C604.482,819.721 607.401,823.586 607.811,824.542C608.85,826.942 610.022,827.33 610.022,827.33L619.088,829.552L622.276,830.332L632.329,827.332C632.329,827.332 636.907,814.552 635.069,807.358C634.006,803.126 632.447,799.034 630.422,795.168C628.397,791.302 622.222,803.2 611.538,794.487L604.311,808.854Z" style="fill:rgb(249,221,191);fill-rule:nonzero;"/>
                </g>
                <g id="Tracé_1726" transform="matrix(1,0,0,1,-493.895,-716.987)">
                    <path d="M617.981,900.041C618.009,902.243 618.294,904.434 618.832,906.57C619.871,908.97 621.043,909.358 621.043,909.358L630.109,911.58L634.047,910.422C634.047,910.422 620.903,908.43 622.359,897.122L617.981,900.041Z" style="fill:rgb(242,204,170);fill-rule:nonzero;"/>
                </g>
                <g id="Tracé_1727" transform="matrix(1,0,0,1,-525.935,-773.412)">
                    <path d="M674.75,967.724C674.75,967.724 679.728,983.224 680.05,988.495C680.372,993.766 670.534,1063.44 670.138,1065.87C669.765,1068.16 666.92,1069.62 666.92,1069.62C665.932,1070.11 664.795,1070.2 663.744,1069.87C662.493,1069.62 661.323,1069.07 660.333,1068.26C659.343,1067.46 656.458,1018.57 658.856,1000.82C660.316,989.847 661.126,978.794 661.282,967.723L674.75,967.724Z" style="fill:rgb(237,125,43);fill-rule:nonzero;"/>
                </g>
                <g id="Tracé_1728" transform="matrix(1,0,0,1,-436.843,-771.573)">
                    <path d="M564.566,965.423C564.566,965.423 556.972,975.612 556.266,982.5C555.56,989.388 555.155,1013.58 553.647,1020.3C552.139,1027.02 546.597,1039.94 546.597,1060.88C547.128,1061.76 547.967,1062.42 548.951,1062.72C549.63,1062.95 550.322,1063.14 551.022,1063.29C552.484,1063.63 553.997,1062.91 554.663,1061.56C558.41,1054.02 570.343,1029.69 570.955,1024.64C571.388,1021.07 575.155,997.414 583.375,983.535C585.348,980.203 582.164,966.952 582.164,966.952L564.566,965.423Z" style="fill:rgb(249,151,70);fill-rule:nonzero;"/>
                </g>
                <g id="Tracé_1729" transform="matrix(1,0,0,1,-565.961,-591.573)">
                    <path d="M708.153,740.674C708.153,740.674 708.328,741.418 710.179,741.303C710.179,741.303 711.733,741.203 711.685,740.389C710.513,740.05 709.256,740.151 708.153,740.674" style="fill:white;fill-rule:nonzero;"/>
                </g>
                <g id="Tracé_1730" transform="matrix(1,0,0,1,-504.087,-763.891)">
                    <path d="M653.7,955.811C651.925,956.956 649.843,957.535 647.731,957.472C642.989,957.572 631.238,956.263 631.238,956.263C630.915,957.231 630.746,958.243 630.738,959.263C630.73,960.283 645.09,962.883 653.405,959.792C654.024,958.557 654.132,957.126 653.705,955.812" style="fill:rgb(35,56,98);fill-rule:nonzero;"/>
                </g>
                <g id="Tracé_1731" transform="matrix(1,0,0,1,-567.645,-767.271)">
                    <path d="M710.26,962.489C710.395,961.402 711.329,960.576 712.424,960.576C713.621,960.576 714.605,961.561 714.605,962.757C714.605,963.953 713.621,964.938 712.424,964.938C712.424,964.938 712.424,964.938 712.424,964.938C711.161,964.854 710.188,963.752 710.26,962.489M710.977,962.489C711.103,963.186 711.716,963.697 712.423,963.697C713.23,963.697 713.893,963.033 713.893,962.227C713.893,961.421 713.23,960.757 712.424,960.757C711.556,960.843 710.907,961.619 710.977,962.489" style="fill:white;fill-rule:nonzero;"/>
                </g>
                <g id="Rectangle_283" transform="matrix(0.656691,-0.75416,0.75416,0.656691,111.699,194.723)">
                    <rect x="0" y="0" width="26.688" height="19.497" style="fill:rgb(181,69,60);"/>
                </g>
                <g id="Tracé_1732" transform="matrix(1,0,0,1,-515.217,-775.235)">
                    <path d="M645.682,970C645.682,970 651.07,970.63 651.053,971.909C651.036,973.188 649.71,975.815 649.045,975.932C648.38,976.049 644.661,972.379 644.661,972.379L645.682,970Z" style="fill:rgb(255,178,125);fill-rule:nonzero;"/>
                </g>
                <g id="Tracé_1733" transform="matrix(1,0,0,1,-440.713,-634.959)">
                    <path d="M569.377,794.485C569.377,794.485 562.184,794.985 559.427,801.692C556.67,808.399 551.438,819.648 551.438,821.541C551.438,823.434 554.36,829.27 570.054,832.625C570.054,832.625 571.677,830.918 571.579,829.568C571.579,829.568 561.779,821.153 561.809,820.168C561.859,818.308 563.415,815.852 572.016,807.248C574.354,804.909 569.377,794.483 569.377,794.483" style="fill:rgb(249,221,191);fill-rule:nonzero;"/>
                </g>
                <g id="Tracé_1734" transform="matrix(1,0,0,1,-756.524,-1020.65)">
                    <path d="M947.378,1325.23L947.31,1325.23C946.917,1325.23 946.594,1324.91 946.594,1324.52C946.594,1324.51 946.594,1324.51 946.594,1324.5L947.68,1277.45L950.88,1277.08L948.153,1324.5C948.129,1324.91 947.788,1325.23 947.381,1325.23" style="fill:rgb(149,192,244);fill-rule:nonzero;"/>
                </g>
                <g id="Tracé_1735" transform="matrix(1,0,0,1,-950.373,-1020.65)">
                    <path d="M1192.64,1325.23L1192.71,1325.23C1193.1,1325.23 1193.43,1324.91 1193.43,1324.52C1193.43,1324.51 1193.43,1324.51 1193.43,1324.5L1192.34,1277.45L1189.14,1277.08L1191.87,1324.5C1191.89,1324.91 1192.23,1325.23 1192.64,1325.23" style="fill:rgb(176,212,255);fill-rule:nonzero;"/>
                </g>
                <g id="Tracé_1736" transform="matrix(1,0,0,1,-751.214,-841.314)">
                    <path d="M939.949,1095.2L939.949,1062.96C939.949,1057.33 944.585,1052.69 950.22,1052.69L973.448,1052.69C979.083,1052.69 983.72,1057.33 983.72,1062.96L983.72,1096.43L939.949,1095.2Z" style="fill:rgb(176,212,255);fill-rule:nonzero;"/>
                </g>
                <g id="Tracé_1737" transform="matrix(1,0,0,1,-751.214,-1010.52)">
                    <path d="M987.882,1269.49L943.033,1269.49C941.341,1269.49 939.949,1268.1 939.949,1266.41L939.949,1264.4L987.882,1264.4L987.882,1269.49Z" style="fill:rgb(149,192,244);fill-rule:nonzero;"/>
                </g>
                <g id="Tracé_1738" transform="matrix(1,0,0,1,-819.264,-1010.52)">
                    <path d="M1061.31,1269.49L1027.38,1269.49C1027.38,1269.49 1027.38,1269.49 1027.38,1269.49C1026.12,1269.49 1025.1,1268.46 1025.1,1267.21L1025.1,1266.68C1025.1,1265.43 1026.12,1264.4 1027.38,1264.4C1027.38,1264.4 1027.38,1264.4 1027.38,1264.4L1061.31,1264.4C1062.56,1264.4 1063.59,1265.43 1063.59,1266.68L1063.59,1267.21C1063.59,1268.46 1062.56,1269.49 1061.31,1269.49" style="fill:rgb(176,212,255);fill-rule:nonzero;"/>
                </g>
                <g id="Tracé_1739" transform="matrix(1,0,0,1,-858.94,-974.77)">
                    <path d="M1099.67,1220.62C1097.9,1223.9 1095.31,1226.66 1092.15,1228.65L1074.74,1228.65C1074.74,1228.65 1102.2,1216.2 1099.67,1220.62" style="fill:rgb(35,56,98);fill-rule:nonzero;"/>
                </g>
                <g id="Tracé_1740" transform="matrix(1,0,0,1,-903.27,-1099.42)">
                    <path d="M1130.62,1390.08C1130.2,1390.54 1130.09,1391.22 1130.34,1391.8C1130.33,1391.8 1130.33,1391.8 1130.34,1391.81C1130.75,1392.95 1132.12,1394.24 1133.72,1395.52C1133.92,1395.68 1134.1,1395.83 1134.26,1395.97C1134.3,1396.01 1134.34,1396.04 1134.38,1396.08L1134.48,1396.16C1135.96,1397.53 1135.4,1397.85 1138.08,1400.63C1141.12,1403.79 1143.22,1403.85 1143.81,1403.56C1144.31,1403.32 1143.29,1401.64 1142.16,1399.75C1142.1,1399.66 1142.05,1399.57 1141.99,1399.47C1141.84,1399.22 1141.69,1398.97 1141.54,1398.71C1140.21,1396.44 1140.55,1395.38 1140.86,1391.99C1141.12,1389.25 1145.14,1376.64 1145.14,1376.64L1139.31,1375.64C1139.31,1375.64 1137.55,1385.68 1135.61,1387.22C1134.58,1388.05 1133.42,1388.06 1132.42,1388.67C1132.35,1388.71 1132.28,1388.76 1132.22,1388.8C1131.63,1389.15 1131.09,1389.59 1130.62,1390.08" style="fill:rgb(255,178,125);fill-rule:nonzero;"/>
                </g>
                <g id="Tracé_1741" transform="matrix(1,0,0,1,-903.27,-1151.28)">
                    <path d="M1130.62,1441.93C1130.2,1442.4 1130.09,1443.08 1130.34,1443.66C1130.33,1443.66 1130.33,1443.66 1130.34,1443.66C1131.2,1445.12 1132.35,1446.38 1133.72,1447.37C1133.92,1447.53 1134.1,1447.69 1134.26,1447.83C1134.3,1447.87 1134.34,1447.9 1134.38,1447.94L1134.47,1448.02C1135.96,1449.39 1135.4,1449.71 1138.07,1452.49C1141.12,1455.65 1143.21,1455.71 1143.81,1455.42C1144.31,1455.18 1143.29,1453.5 1142.15,1451.61C1140.03,1450.78 1138.15,1449.4 1136.73,1447.61C1134.89,1445.27 1133.67,1442.26 1132.43,1440.52C1132.36,1440.57 1132.29,1440.61 1132.22,1440.65C1131.63,1441.01 1131.09,1441.44 1130.62,1441.94" style="fill:rgb(35,56,98);fill-rule:nonzero;"/>
                </g>
                <g id="Tracé_1742" transform="matrix(1,0,0,1,-1073.59,-1092.35)">
                    <path d="M1347.99,1379.37C1348.35,1381.17 1350.91,1380.87 1353.79,1380.17C1356.66,1379.47 1355.97,1380.3 1360.05,1379.85C1364.13,1379.4 1365.37,1377.87 1365.5,1377.27C1365.61,1376.73 1363.59,1376.54 1361.43,1376.29C1361.15,1376.26 1360.88,1376.23 1360.61,1376.19C1358.17,1375.88 1356.38,1374.31 1354.16,1373.01C1352.06,1371.79 1348.92,1366.79 1348.92,1366.79L1343.32,1367.23C1343.32,1367.23 1346.26,1371.7 1347.39,1373.63C1347.94,1374.83 1348.13,1376.15 1347.94,1377.45C1347.87,1378.09 1347.89,1378.73 1347.99,1379.36" style="fill:rgb(255,178,125);fill-rule:nonzero;"/>
                </g>
                <g id="Tracé_1743" transform="matrix(1,0,0,1,-1091.82,-1130.15)">
                    <path d="M1372.01,1417.96C1374.88,1417.26 1374.2,1418.1 1378.28,1417.64C1382.36,1417.19 1383.6,1415.67 1383.72,1415.06C1383.83,1414.52 1381.82,1414.33 1379.65,1414.09L1379.63,1414.13C1377.89,1415.25 1375.87,1415.88 1373.79,1415.94C1371.02,1416.01 1368.09,1415.22 1366.17,1415.24C1366.1,1415.88 1366.12,1416.53 1366.22,1417.16C1366.58,1418.96 1369.14,1418.66 1372.02,1417.96" style="fill:rgb(35,56,98);fill-rule:nonzero;"/>
                </g>
                <g id="Tracé_1744" transform="matrix(1,0,0,1,-930.343,-964.22)">
                    <path d="M1183.29,1215.44L1178.05,1229.52L1171.22,1247.91C1170,1248 1168.78,1247.89 1167.59,1247.58C1166.36,1247.16 1165.18,1246.58 1164.08,1245.87C1162.99,1245.16 1165.98,1226.13 1169.52,1214.8C1170.13,1212.43 1171.16,1210.2 1172.56,1208.21C1178.05,1201.73 1183.29,1215.44 1183.29,1215.44" style="fill:rgb(35,56,98);fill-rule:nonzero;"/>
                </g>
                <g id="Tracé_1745" transform="matrix(1,0,0,1,-784.145,-899.735)">
                    <path d="M1031.77,1128.6C1028.34,1127.49 1018.56,1128.91 1008.74,1130.84L1006.69,1127.44L985.47,1125.79C985.47,1125.79 978.47,1141.31 982.302,1151.2C982.822,1152.72 984.295,1153.71 985.893,1153.62C987.491,1153.53 986.202,1153.62 986.203,1153.62C986.204,1153.62 998.83,1153.61 1002.93,1153.61C1013.48,1153.61 1025.26,1146.36 1026.78,1146.06C1029.28,1145.56 1030.28,1150.55 1032.77,1155.78C1035.26,1161.02 1056.21,1178.98 1056.21,1178.98C1057.74,1179.01 1059.27,1178.85 1060.76,1178.51C1061.51,1178.28 1062.18,1177.85 1062.71,1177.28C1063.25,1176.7 1039.5,1131.09 1031.77,1128.6" style="fill:rgb(43,71,139);fill-rule:nonzero;"/>
                </g>
                <g id="Tracé_1746" transform="matrix(1,0,0,1,-739.307,-653.364)">
                    <path d="M961.012,819.295C958.294,817.868 954.159,817.675 953.487,817.585C945.448,816.505 940.609,828.185 940.325,831.726C939.801,838.25 936.349,839.245 931.491,843.331C921.75,851.524 924.607,861.044 929.933,864.581C933.133,866.703 938.762,864.581 938.762,864.581C938.841,864.636 954.167,856.013 961.722,851.854C973.048,850.244 967.938,822.932 961.012,819.296" style="fill:rgb(181,69,60);fill-rule:nonzero;"/>
                </g>
                <g id="Tracé_1747" transform="matrix(1,0,0,1,-818.92,-728.668)">
                    <path d="M1035,923.617C1035.03,923.639 1031.28,924.917 1028.78,923.808C1026.42,922.766 1024.63,918.884 1024.66,918.882C1025.74,918.832 1026.91,917.894 1027.82,911.738L1028.28,911.902L1035.96,914.667C1035.96,914.667 1035.41,917.132 1035.05,919.48C1034.75,921.451 1034.58,923.339 1035,923.617" style="fill:rgb(255,178,125);fill-rule:nonzero;"/>
                </g>
                <g id="Tracé_1748" transform="matrix(1,0,0,1,-833.314,-729.321)">
                    <path d="M1050.36,915.32C1050.36,915.32 1049.8,917.785 1049.44,920.133C1045.03,919.339 1043.3,914.942 1042.67,912.556L1050.36,915.32Z" style="fill:rgb(237,151,93);fill-rule:nonzero;"/>
                </g>
                <g id="Tracé_1749" transform="matrix(1,0,0,1,-830.25,-676.464)">
                    <path d="M1048.44,864.91C1048.44,864.91 1037.93,863.499 1038.91,856.966C1039.89,850.433 1039.19,845.851 1045.94,846.475C1052.7,847.099 1053.62,849.788 1053.83,852.048C1054.03,854.308 1051.2,865.108 1048.44,864.91" style="fill:rgb(255,178,125);fill-rule:nonzero;"/>
                </g>
                <g id="Tracé_1750" transform="matrix(1,0,0,1,-818.245,-674.166)">
                    <path d="M1041.44,846.168C1041.44,846.168 1034.71,851.968 1030.13,852.435C1025.55,852.902 1023.82,851.435 1023.82,851.435C1025.65,849.8 1027.12,847.807 1028.14,845.58C1028.62,844.513 1029.63,843.785 1030.8,843.68C1034.06,843.398 1040.26,843.269 1041.44,846.168" style="fill:rgb(181,69,60);fill-rule:nonzero;"/>
                </g>
                <g id="Tracé_1751" transform="matrix(1,0,0,1,-871.622,-677.546)">
                    <path d="M1090.61,849.03C1091.78,850.143 1092.77,851.42 1093.57,852.821C1094.29,855.003 1094.41,857.341 1093.91,859.585C1093.41,861.829 1097.42,852.765 1095.43,849.451C1093.33,845.937 1090.61,849.029 1090.61,849.029" style="fill:rgb(181,69,60);fill-rule:nonzero;"/>
                </g>
                <g id="Tracé_1752" transform="matrix(1,0,0,1,-783.012,-756.117)">
                    <path d="M1007.95,966.552C1007.63,987.832 1007.86,983.385 1005.53,985.404C1004.97,985.89 1003.39,986.18 1001.32,986.317C994.793,986.75 983.318,985.675 982.887,984.469C981.382,980.297 982.445,979 981.187,972.612C981.056,971.933 980.894,971.198 980.704,970.397C979.657,966.01 978.638,964.517 982.352,957.469C985.721,951.084 989.22,945.902 989.535,946.089C998.422,951.364 999.135,946.93 999.135,946.93C999.135,946.93 1008.1,956.172 1007.94,966.552" style="fill:rgb(249,221,191);fill-rule:nonzero;"/>
                </g>
                <g id="Tracé_1753" transform="matrix(1,0,0,1,-930.343,-997.361)">
                    <path d="M1178.05,1262.66L1171.22,1281.05C1170,1281.14 1168.78,1281.03 1167.59,1280.72C1166.36,1280.3 1165.18,1279.72 1164.08,1279.01C1162.99,1278.3 1165.98,1259.27 1169.52,1247.94L1178.05,1262.66Z" style="fill:rgb(43,71,139);fill-rule:nonzero;"/>
                </g>
                <g id="Tracé_1754" transform="matrix(1,0,0,1,-860.246,-759.481)">
                    <path d="M1076.38,950.292C1076.38,950.292 1085.52,951.843 1086.59,955.78C1087.67,959.717 1093.99,982.863 1093.99,982.863C1093.99,982.863 1089.34,983.698 1087.19,981.551C1085.04,979.404 1079.71,961.626 1079.71,961.626L1076.38,950.292Z" style="fill:rgb(249,221,191);fill-rule:nonzero;"/>
                </g>
                <g id="Tracé_1755" transform="matrix(1,0,0,1,-788.793,-826.436)">
                    <path d="M1007.1,1056.64C1000.58,1057.07 989.1,1055.99 988.668,1054.79C987.163,1050.62 988.226,1049.32 986.968,1042.93L990.115,1034.07C990.115,1034.07 989.595,1043.94 992.505,1046.53C995.415,1049.13 1004.42,1051.54 1005.84,1053.71C1006.45,1054.59 1006.88,1055.59 1007.1,1056.63" style="fill:rgb(242,204,170);fill-rule:nonzero;"/>
                </g>
                <g id="Tracé_1756" transform="matrix(1,0,0,1,-839.158,-895.769)">
                    <path d="M1049.99,1121.82C1049.99,1121.82 1056.43,1120.38 1057.46,1120.96C1058.95,1121.85 1060.27,1122.99 1061.36,1124.33C1061.68,1125.06 1059.05,1123.78 1058.2,1123.55C1057.26,1123.58 1056.33,1123.79 1055.46,1124.15C1053.9,1124.77 1052.21,1124.93 1050.56,1124.64L1049.99,1121.82Z" style="fill:rgb(255,178,125);fill-rule:nonzero;"/>
                </g>
                <g id="Tracé_1757" transform="matrix(1,0,0,1,-738.998,-756.118)">
                    <path d="M945.517,946.085C945.517,946.085 936.873,946.617 933.881,950.791C929.669,956.666 921.313,981.703 926.102,985.042C931.495,988.802 950.646,986.026 950.646,986.026C950.646,986.026 951.283,983.047 950.397,981.606C949.511,980.165 935.097,977.837 934.435,977.172C933.773,976.507 942.748,964.203 942.748,962.208C942.748,960.213 945.516,946.085 945.516,946.085" style="fill:rgb(249,221,191);fill-rule:nonzero;"/>
                </g>
                <g id="Tracé_1758" transform="matrix(1,0,0,1,-870.155,-903.436)">
                    <path d="M1088.77,1130.41C1089.3,1131.13 1089.9,1131.78 1090.56,1132.36C1090.79,1132.48 1091.04,1132.54 1091.29,1132.52L1090.38,1130.88L1088.77,1130.41Z" style="fill:rgb(255,178,125);fill-rule:nonzero;"/>
                </g>
                <g id="Tracé_1759" transform="matrix(1,0,0,1,-868.914,-896.304)">
                    <path d="M1087.22,1121.49L1091.14,1123.39C1090.99,1123.58 1090.74,1123.68 1090.49,1123.64C1089.91,1123.54 1089.34,1123.38 1088.79,1123.17L1087.22,1121.49Z" style="fill:rgb(255,178,125);fill-rule:nonzero;"/>
                </g>
                <g id="Tracé_1760" transform="matrix(1,0,0,1,-877.283,-829.434)">
                    <path d="M1097.69,1061.03L1128.71,1061.03L1138.05,1037.83L1107.07,1037.83L1097.69,1061.03Z" style="fill:rgb(249,151,70);fill-rule:nonzero;"/>
                </g>
                <g id="Tracé_1761" transform="matrix(1,0,0,1,-839.158,-918.197)">
                    <path d="M1090.95,1148.88L1049.99,1148.88L1049.99,1149.79L1090.59,1149.79L1090.95,1148.88Z" style="fill:rgb(237,125,43);fill-rule:nonzero;"/>
                </g>
                <g id="Tracé_1762" transform="matrix(1,0,0,1,-957.59,-869.736)">
                    <path d="M1201.19,1089.72C1201.24,1089.6 1201.27,1089.46 1201.27,1089.32C1201.27,1088.73 1200.78,1088.25 1200.19,1088.25C1200.17,1088.25 1200.15,1088.25 1200.14,1088.25C1199.26,1088.3 1198.5,1088.89 1198.24,1089.72C1198.18,1089.85 1198.16,1089.99 1198.16,1090.13C1198.16,1090.72 1198.64,1091.2 1199.23,1091.2C1199.25,1091.2 1199.27,1091.2 1199.29,1091.2C1200.17,1091.15 1200.92,1090.56 1201.19,1089.72" style="fill:white;fill-rule:nonzero;"/>
                </g>
                <g id="Tracé_1763" transform="matrix(1,0,0,1,-1250.09,-935.235)">
                    <path d="M1568.79,1240.46L1568.88,1240.46C1569.41,1240.44 1569.83,1239.99 1569.83,1239.46C1569.83,1239.44 1569.83,1239.42 1569.83,1239.39L1568.39,1170.75L1564.16,1170.2L1567.77,1239.4C1567.77,1239.97 1568.23,1240.44 1568.79,1240.47" style="fill:rgb(35,56,98);fill-rule:nonzero;"/>
                </g>
                <g id="Tracé_1764" transform="matrix(1,0,0,1,-839.121,-935.235)">
                    <path d="M1050.98,1240.46L1050.89,1240.46C1050.36,1240.44 1049.94,1240 1049.94,1239.46C1049.94,1239.44 1049.94,1239.42 1049.94,1239.39L1051.38,1170.75L1055.61,1170.2L1052,1239.4C1052,1239.97 1051.55,1240.44 1050.98,1240.46" style="fill:rgb(35,56,98);fill-rule:nonzero;"/>
                </g>
                <g id="Tracé_1765" transform="matrix(1,0,0,1,-815.125,-921.796)">
                    <path d="M1140.77,1158.3L1021.63,1158.3C1020.69,1158.3 1019.92,1157.53 1019.92,1156.59L1019.92,1155.1C1019.92,1154.16 1020.69,1153.39 1021.63,1153.39L1140.77,1153.39C1141.71,1153.39 1142.48,1154.16 1142.48,1155.1L1142.48,1156.59C1142.48,1157.53 1141.71,1158.3 1140.77,1158.3" style="fill:rgb(35,56,98);fill-rule:nonzero;"/>
                </g>
                <g id="Tracé_1766" transform="matrix(1,0,0,1,0,-1209.6)">
                    <path d="M563.865,1515.6L0.757,1515.6C0.342,1515.6 0.001,1515.26 0,1514.84L0,1514.26C0.001,1513.84 0.342,1513.5 0.757,1513.5L563.865,1513.5C564.28,1513.5 564.62,1513.84 564.622,1514.26L564.622,1514.84C564.621,1515.26 564.28,1515.6 563.865,1515.6" style="fill:rgb(46,53,82);fill-rule:nonzero;"/>
                </g>
                <g id="Tracé_1767" transform="matrix(1,0,0,1,-1638.43,-141.819)">
                    <path d="M2050.07,184.547L2073.33,188.228L2058.02,177.448L2057.18,180.816L2051.5,181.756L2050.07,184.547Z" style="fill:rgb(158,195,246);fill-rule:nonzero;"/>
                </g>
                <g id="Tracé_1768" transform="matrix(1,0,0,1,-1578.8,-138.777)">
                    <path d="M2013.69,185.186L1994.45,174.886L1975.45,173.639L2013.69,185.186Z" style="fill:white;fill-rule:nonzero;"/>
                </g>
                <g id="Tracé_1769" transform="matrix(1,0,0,1,-1670.08,-118.411)">
                    <path d="M2089.67,154.041L2104.98,164.82L2093.25,148.16L2089.67,154.041Z" style="fill:white;fill-rule:nonzero;"/>
                </g>
                <g id="Tracé_1770" transform="matrix(1,0,0,1,-630.068,-228.716)">
                    <path d="M818.649,294.3L788.367,303L806.925,286.175L808.591,290.51L816.291,290.826L818.649,294.3Z" style="fill:rgb(158,195,246);fill-rule:nonzero;"/>
                </g>
                <g id="Tracé_1771" transform="matrix(1,0,0,1,-630.069,-209.702)">
                    <path d="M788.368,283.989L812.234,267.158L837.255,262.386L788.368,283.989Z" style="fill:rgb(235,243,250);fill-rule:nonzero;"/>
                </g>
                <g id="Tracé_1772" transform="matrix(1,0,0,1,-630.069,-199.972)">
                    <path d="M806.926,257.434L788.367,274.26L801.2,250.213L806.926,257.434Z" style="fill:rgb(235,243,250);fill-rule:nonzero;"/>
                </g>
            </g>
        </g>
    </g>
</svg>
