<?xml version="1.0" encoding="UTF-8" standalone="no"?>
<!DOCTYPE svg PUBLIC "-//W3C//DTD SVG 1.1//EN" "http://www.w3.org/Graphics/SVG/1.1/DTD/svg11.dtd">
<svg width="100%" height="100%" viewBox="0 0 71 62" version="1.1" xmlns="http://www.w3.org/2000/svg" xmlns:xlink="http://www.w3.org/1999/xlink" xml:space="preserve" xmlns:serif="http://www.serif.com/" style="fill-rule:evenodd;clip-rule:evenodd;stroke-linejoin:round;stroke-miterlimit:2;">
    <g transform="matrix(1,0,0,1,-57.471,-304.768)">
        <g transform="matrix(1,0,0,1,-6649,171)">
            <g id="connection_icon" transform="matrix(2.66667,0,0,2.66667,6706.47,48.4347)">
                <path d="M17.744,42.63L10.326,35.63C10.097,35.414 9.793,35.294 9.478,35.294C8.8,35.294 8.241,35.852 8.241,36.53L8.241,40.236L1.648,40.236C1.648,40.236 1.647,40.236 1.647,40.236C0.743,40.236 -0,40.979 -0,41.883L0,45.177C-0,46.081 0.743,46.824 1.647,46.824C1.647,46.824 1.648,46.824 1.648,46.824L8.242,46.824L8.242,50.53C8.242,50.531 8.242,50.531 8.242,50.532C8.242,51.21 8.8,51.768 9.478,51.768C9.794,51.768 10.098,51.647 10.327,51.43L17.745,44.43C18.235,43.935 18.235,43.125 17.744,42.63ZM21.414,32L18.119,32C17.215,32 16.472,32.743 16.472,33.647C16.472,34.551 17.215,35.294 18.119,35.294L21.413,35.294C22.317,35.294 23.06,36.037 23.06,36.941L23.06,50.119C23.06,51.023 22.317,51.766 21.413,51.766L18.119,51.766C17.215,51.766 16.472,52.509 16.472,53.413C16.472,54.317 17.215,55.06 18.119,55.06L21.413,55.06C24.124,55.06 26.355,52.829 26.355,50.118L26.355,36.942C26.355,34.231 24.125,32.001 21.414,32Z" style="fill:white;fill-rule:nonzero;"/>
            </g>
        </g>
    </g>
</svg>
