<?xml version="1.0" encoding="UTF-8" standalone="no"?>
<!DOCTYPE svg PUBLIC "-//W3C//DTD SVG 1.1//EN" "http://www.w3.org/Graphics/SVG/1.1/DTD/svg11.dtd">
<svg width="100%" height="100%" viewBox="0 0 289 289" version="1.1" xmlns="http://www.w3.org/2000/svg" xmlns:xlink="http://www.w3.org/1999/xlink" xml:space="preserve" xmlns:serif="http://www.serif.com/" style="fill-rule:evenodd;clip-rule:evenodd;stroke-linejoin:round;stroke-miterlimit:2;">
    <g transform="matrix(1,0,0,1,-27126,-2556)">
        <g transform="matrix(5.66761,0,0,5.66761,27128.8,-3121.99)">
            <g transform="matrix(0.176441,0,0,0.176441,-267.852,-452.926)">
                <path d="M1659.77,8245C1739.52,8245 1804.27,8309.75 1804.27,8389.5C1804.27,8469.25 1739.52,8534 1659.77,8534C1580.02,8534 1515.27,8469.25 1515.27,8389.5C1515.27,8309.75 1580.02,8245 1659.77,8245ZM1586.53,8325.88C1583.33,8325.88 1580.76,8328.45 1580.76,8331.64L1580.76,8425.45C1580.76,8428.65 1583.33,8431.22 1586.53,8431.22L1641.89,8431.22L1641.89,8448.93L1635.61,8448.93C1634.45,8448.93 1633.51,8449.87 1633.51,8451.03C1633.51,8452.19 1634.45,8453.12 1635.61,8453.12L1683.93,8453.12C1685.09,8453.12 1686.03,8452.19 1686.03,8451.03C1686.03,8449.87 1685.09,8448.93 1683.93,8448.93L1677.65,8448.93L1677.65,8431.22L1733.01,8431.22C1736.2,8431.22 1738.78,8428.65 1738.78,8425.45L1738.78,8331.64C1738.78,8328.45 1736.2,8325.88 1733.01,8325.88L1586.53,8325.88ZM1588.11,8333.01L1731.43,8333.01L1731.43,8423.48L1588.11,8423.48L1588.11,8333.01ZM1717.23,8356.25L1696.32,8379.14L1696.33,8379.15C1696.83,8380.63 1696.03,8382.24 1694.54,8382.74C1693.06,8383.24 1691.45,8382.44 1690.95,8380.95C1690.94,8380.92 1690.93,8380.89 1690.92,8380.85L1664.84,8376.03C1664.49,8376.48 1664,8376.84 1663.41,8377.02C1662.85,8377.19 1662.28,8377.18 1661.76,8377.02L1641.2,8397.26C1641.2,8397.27 1641.2,8397.28 1641.2,8397.29C1641.51,8398.82 1640.5,8400.31 1638.97,8400.61C1637.43,8400.91 1635.94,8399.91 1635.64,8398.38C1635.64,8398.36 1635.63,8398.33 1635.63,8398.31L1618.5,8391.27C1618.24,8391.44 1617.94,8391.57 1617.62,8391.65C1617.3,8391.73 1616.98,8391.75 1616.67,8391.72L1601.28,8409.99C1601.54,8410.87 1601.37,8411.86 1600.73,8412.61C1599.73,8413.81 1597.94,8413.97 1596.74,8412.95C1595.54,8411.95 1595.39,8410.16 1596.4,8408.96C1597.11,8408.11 1598.22,8407.79 1599.23,8408.03L1614.37,8390.06C1614.3,8389.91 1614.24,8389.74 1614.2,8389.57C1613.82,8388.05 1614.76,8386.51 1616.27,8386.14C1617.79,8385.77 1619.33,8386.7 1619.7,8388.22C1619.74,8388.39 1619.77,8388.57 1619.78,8388.74L1636.61,8395.65C1636.97,8395.36 1637.4,8395.15 1637.88,8395.05C1638.37,8394.96 1638.86,8394.99 1639.31,8395.14L1659.82,8374.95C1659.49,8373.51 1660.32,8372.04 1661.75,8371.6C1663.15,8371.17 1664.63,8371.89 1665.19,8373.21L1691.6,8378.09C1691.9,8377.77 1692.29,8377.52 1692.74,8377.37C1693.22,8377.2 1693.72,8377.18 1694.19,8377.27L1715.12,8354.35C1714.81,8353.41 1715.01,8352.34 1715.72,8351.56C1716.78,8350.41 1718.57,8350.32 1719.72,8351.38C1720.88,8352.43 1720.96,8354.23 1719.9,8355.38C1719.2,8356.15 1718.18,8356.44 1717.23,8356.25Z" style="fill:rgb(251,149,5);"/>
            </g>
        </g>
    </g>
</svg>
