<?xml version="1.0" encoding="UTF-8" standalone="no"?>
<!DOCTYPE svg PUBLIC "-//W3C//DTD SVG 1.1//EN" "http://www.w3.org/Graphics/SVG/1.1/DTD/svg11.dtd">
<svg width="100%" height="100%" viewBox="0 0 374 411" version="1.1" xmlns="http://www.w3.org/2000/svg" xmlns:xlink="http://www.w3.org/1999/xlink" xml:space="preserve" xmlns:serif="http://www.serif.com/" style="fill-rule:evenodd;clip-rule:evenodd;stroke-linejoin:round;stroke-miterlimit:2;">
    <g transform="matrix(1,0,0,1,-25151.1,-1634.85)">
        <g transform="matrix(1,0,0,1,25151.1,1634.85)">
            <g id="Groupe_321">
                <g id="Rectangle_285" transform="matrix(1,0,0,1,37.427,227.071)">
                    <rect x="0" y="0" width="21.563" height="70.174" style="fill:rgb(77,77,77);"/>
                </g>
                <g id="Rectangle_286" transform="matrix(1,0,0,1,46.06,305.009)">
                    <rect x="0" y="0" width="6.585" height="74.937" style="fill:rgb(182,182,182);"/>
                </g>
                <g id="Tracé_1773" transform="matrix(1,0,0,1,-237.459,-1572.46)">
                    <path d="M290.1,1931.87L283.515,1925.46L283.515,1877.47L290.1,1877.47L290.1,1931.87Z" style="fill:rgb(157,157,157);fill-rule:nonzero;"/>
                </g>
                <g id="Groupe_320">
                    <g id="Groupe_319">
                        <g id="Tracé_1774" transform="matrix(1,0,0,1,-199.044,-1572.46)">
                            <path d="M253.708,1904.62L242.994,1904.62C240.063,1904.62 237.652,1902.21 237.652,1899.28L237.652,1877.47L259.052,1877.47L259.052,1899.28C259.052,1902.21 256.641,1904.62 253.71,1904.62" style="fill:rgb(77,77,77);fill-rule:nonzero;"/>
                        </g>
                        <g id="Tracé_1775" transform="matrix(1,0,0,1,-86.015,-1978.95)">
                            <path d="M130.405,2365.6L130.566,2362.8L102.701,2368.83L102.701,2369.87L130.405,2365.6Z" style="fill:rgb(102,102,102);fill-rule:nonzero;"/>
                        </g>
                        <g id="Tracé_1776" transform="matrix(1,0,0,1,-78.298,-1997.1)">
                            <path d="M104.46,2390.17C104.351,2393.1 101.908,2395.45 98.973,2395.45C95.961,2395.45 93.482,2392.97 93.482,2389.96C93.482,2386.95 95.961,2384.47 98.973,2384.47C98.976,2384.47 98.98,2384.47 98.983,2384.47C102.047,2384.53 104.519,2387.1 104.46,2390.17" style="fill:rgb(51,51,51);fill-rule:nonzero;"/>
                        </g>
                        <g id="Tracé_1777" transform="matrix(1,0,0,1,-269.758,-1978.57)">
                            <path d="M322.234,2365.14L322.082,2362.34L349.929,2368.46L349.929,2369.5L322.234,2365.14Z" style="fill:rgb(102,102,102);fill-rule:nonzero;"/>
                        </g>
                        <g id="Tracé_1778" transform="matrix(1,0,0,1,-362.195,-1997.1)">
                            <path d="M432.45,2390.15C432.55,2393.09 434.996,2395.45 437.938,2395.45C440.95,2395.45 443.429,2392.98 443.429,2389.96C443.429,2386.95 440.954,2384.48 437.944,2384.47C434.881,2384.53 432.402,2387.09 432.45,2390.15" style="fill:rgb(51,51,51);fill-rule:nonzero;"/>
                        </g>
                        <g id="Tracé_1779" transform="matrix(1,0,0,1,-194.569,-1933.93)">
                            <path d="M255.549,2323.23L232.31,2323.23L236.899,2309.05L250.96,2309.05L255.549,2323.23Z" style="fill:rgb(133,133,133);fill-rule:nonzero;"/>
                        </g>
                        <g id="Tracé_1780" transform="matrix(1,0,0,1,-238.958,-1973.66)">
                            <path d="M285.309,2356.49L291.409,2356.5L290.109,2364.07L286.595,2364.06L285.309,2356.49Z" style="fill:rgb(102,102,102);fill-rule:nonzero;"/>
                        </g>
                        <g id="Tracé_1781" transform="matrix(1,0,0,1,-226.292,-2002.89)">
                            <path d="M281.16,2397.09C281.05,2400.02 278.608,2402.37 275.674,2402.37C272.662,2402.37 270.184,2399.89 270.184,2396.88C270.184,2393.87 272.662,2391.39 275.674,2391.39C275.676,2391.39 275.679,2391.39 275.681,2391.39C278.745,2391.45 281.218,2394.02 281.16,2397.09" style="fill:rgb(51,51,51);fill-rule:nonzero;"/>
                        </g>
                        <g id="Rectangle_287" transform="matrix(1,0,0,1,35.484,313.313)">
                            <rect x="0" y="0" width="27.752" height="3.087" style="fill:rgb(133,133,133);"/>
                        </g>
                        <g id="Tracé_1782" transform="matrix(1,0,0,1,-11.206,-1529.56)">
                            <path d="M13.38,1833.22L105.449,1833.22C104.949,1827.91 98.292,1826.25 90.249,1826.25L28.579,1826.25C20.537,1826.25 13.879,1827.91 13.379,1833.22" style="fill:rgb(188,132,44);fill-rule:nonzero;"/>
                        </g>
                        <g id="Tracé_1783" transform="matrix(1,0,0,1,-6.484,-1544.07)">
                            <path d="M13.567,1858.26L95.818,1858.26C99.071,1858.2 101.7,1855.48 101.643,1852.23L101.643,1848.25C101.643,1845.68 99.532,1843.57 96.966,1843.57L12.419,1843.57C9.853,1843.57 7.742,1845.68 7.742,1848.25L7.742,1852.23C7.685,1855.48 10.314,1858.2 13.567,1858.26" style="fill:rgb(252,192,98);fill-rule:nonzero;"/>
                        </g>
                        <g id="Tracé_1784" transform="matrix(1,0,0,1,-22.732,-921.483)">
                            <path d="M90.8,1182.94L55.489,1182.94C39.956,1182.9 27.188,1170.13 27.141,1154.6L27.141,1128.57C27.186,1113.04 39.955,1100.27 55.489,1100.23L90.8,1100.23C106.334,1100.27 119.103,1113.04 119.148,1128.57L119.148,1154.6C119.101,1170.13 106.333,1182.9 90.8,1182.94" style="fill:rgb(252,192,98);fill-rule:nonzero;"/>
                        </g>
                        <g id="Tracé_1785" transform="matrix(1,0,0,1,0,-921.483)">
                            <path d="M63.659,1182.94L28.348,1182.94C12.815,1182.9 0.047,1170.13 0,1154.6L0,1128.57C0.045,1113.04 12.814,1100.27 28.348,1100.23L63.659,1100.23C79.193,1100.27 91.962,1113.04 92.007,1128.57L92.007,1154.6C91.962,1170.13 79.193,1182.9 63.659,1182.95" style="fill:rgb(227,159,53);fill-rule:nonzero;"/>
                        </g>
                        <g id="Tracé_1786" transform="matrix(1,0,0,1,-69.001,-1020.87)">
                            <path d="M144.635,1220.87L83.376,1220.87C82.832,1220.87 82.385,1220.43 82.385,1219.88C82.385,1219.34 82.832,1218.89 83.376,1218.89L144.635,1218.89C145.179,1218.89 145.626,1219.34 145.626,1219.88C145.626,1220.43 145.179,1220.87 144.635,1220.87" style="fill:rgb(188,132,44);fill-rule:nonzero;"/>
                        </g>
                        <g id="Tracé_1787" transform="matrix(1,0,0,1,-69.001,-1106.33)">
                            <path d="M144.635,1322.91L83.376,1322.91C82.832,1322.91 82.385,1322.46 82.385,1321.92C82.385,1321.37 82.832,1320.92 83.376,1320.92L144.635,1320.92C145.179,1320.92 145.626,1321.37 145.626,1321.92C145.626,1322.46 145.179,1322.91 144.635,1322.91" style="fill:rgb(188,132,44);fill-rule:nonzero;"/>
                        </g>
                        <g id="Tracé_1788" transform="matrix(1,0,0,1,-69.001,-1191.79)">
                            <path d="M144.635,1424.94L83.376,1424.94C82.832,1424.94 82.385,1424.49 82.385,1423.95C82.385,1423.4 82.832,1422.96 83.376,1422.96L144.635,1422.96C145.179,1422.96 145.626,1423.4 145.626,1423.95C145.626,1424.49 145.179,1424.94 144.635,1424.94" style="fill:rgb(188,132,44);fill-rule:nonzero;"/>
                        </g>
                        <g id="Rectangle_288" transform="matrix(1,0,0,1,254.87,227.072)">
                            <rect x="0" y="0" width="21.563" height="70.174" style="fill:rgb(77,77,77);"/>
                        </g>
                        <g id="Rectangle_289" transform="matrix(1,0,0,1,263.503,305.01)">
                            <rect x="0" y="0" width="6.585" height="74.937" style="fill:rgb(182,182,182);"/>
                        </g>
                        <g id="Tracé_1789" transform="matrix(1,0,0,1,-1358.48,-1572.46)">
                            <path d="M1628.57,1931.87L1621.98,1925.46L1621.98,1877.47L1628.57,1877.47L1628.57,1931.87Z" style="fill:rgb(157,157,157);fill-rule:nonzero;"/>
                        </g>
                        <g id="Tracé_1790" transform="matrix(1,0,0,1,-1320.06,-1572.46)">
                            <path d="M1592.17,1904.62L1581.46,1904.62C1578.53,1904.62 1576.11,1902.21 1576.11,1899.28L1576.11,1877.47L1597.51,1877.47L1597.51,1899.28C1597.51,1902.21 1595.1,1904.62 1592.17,1904.62" style="fill:rgb(77,77,77);fill-rule:nonzero;"/>
                        </g>
                        <g id="Tracé_1791" transform="matrix(1,0,0,1,-1207.03,-1978.95)">
                            <path d="M1468.87,2365.6L1469.03,2362.8L1441.16,2368.83L1441.16,2369.87L1468.87,2365.6Z" style="fill:rgb(102,102,102);fill-rule:nonzero;"/>
                        </g>
                        <g id="Tracé_1792" transform="matrix(1,0,0,1,-1199.32,-1997.1)">
                            <path d="M1442.92,2390.17C1442.81,2393.1 1440.37,2395.45 1437.44,2395.45C1434.42,2395.45 1431.94,2392.97 1431.94,2389.96C1431.94,2386.95 1434.42,2384.47 1437.44,2384.47C1437.44,2384.47 1437.44,2384.47 1437.45,2384.47C1440.51,2384.53 1442.98,2387.1 1442.92,2390.17" style="fill:rgb(51,51,51);fill-rule:nonzero;"/>
                        </g>
                        <g id="Tracé_1793" transform="matrix(1,0,0,1,-1390.78,-1978.57)">
                            <path d="M1660.7,2365.14L1660.55,2362.34L1688.39,2368.46L1688.39,2369.5L1660.7,2365.14Z" style="fill:rgb(102,102,102);fill-rule:nonzero;"/>
                        </g>
                        <g id="Tracé_1794" transform="matrix(1,0,0,1,-1483.21,-1997.1)">
                            <path d="M1770.91,2390.15C1771.01,2393.09 1773.46,2395.45 1776.4,2395.45C1779.41,2395.45 1781.89,2392.98 1781.89,2389.96C1781.89,2386.95 1779.42,2384.48 1776.41,2384.47C1773.34,2384.53 1770.86,2387.09 1770.91,2390.15" style="fill:rgb(51,51,51);fill-rule:nonzero;"/>
                        </g>
                        <g id="Tracé_1795" transform="matrix(1,0,0,1,-1315.59,-1933.93)">
                            <path d="M1594.01,2323.23L1570.77,2323.23L1575.36,2309.05L1589.42,2309.05L1594.01,2323.23Z" style="fill:rgb(133,133,133);fill-rule:nonzero;"/>
                        </g>
                        <g id="Tracé_1796" transform="matrix(1,0,0,1,-1359.98,-1973.66)">
                            <path d="M1623.77,2356.49L1629.87,2356.5L1628.57,2364.07L1625.06,2364.06L1623.77,2356.49Z" style="fill:rgb(102,102,102);fill-rule:nonzero;"/>
                        </g>
                        <g id="Tracé_1797" transform="matrix(1,0,0,1,-1347.31,-2002.89)">
                            <path d="M1619.62,2397.09C1619.51,2400.02 1617.07,2402.37 1614.14,2402.37C1611.12,2402.37 1608.65,2399.89 1608.65,2396.88C1608.65,2393.87 1611.12,2391.39 1614.14,2391.39C1614.14,2391.39 1614.14,2391.39 1614.14,2391.39C1617.21,2391.45 1619.68,2394.02 1619.62,2397.09" style="fill:rgb(51,51,51);fill-rule:nonzero;"/>
                        </g>
                        <g id="Rectangle_290" transform="matrix(1,0,0,1,252.927,313.313)">
                            <rect x="0" y="0" width="27.752" height="3.087" style="fill:rgb(133,133,133);"/>
                        </g>
                        <g id="Tracé_1798" transform="matrix(1,0,0,1,-1132.23,-1529.56)">
                            <path d="M1351.84,1833.22L1443.91,1833.22C1443.41,1827.91 1436.76,1826.25 1428.71,1826.25L1367.04,1826.25C1359,1826.25 1352.34,1827.91 1351.84,1833.22" style="fill:rgb(188,132,44);fill-rule:nonzero;"/>
                        </g>
                        <g id="Tracé_1799" transform="matrix(1,0,0,1,-1127.5,-1544.07)">
                            <path d="M1352.03,1858.26L1434.28,1858.26C1437.54,1858.2 1440.16,1855.48 1440.11,1852.23L1440.11,1848.25C1440.11,1845.68 1438,1843.57 1435.43,1843.57L1350.88,1843.57C1348.32,1843.57 1346.21,1845.68 1346.21,1848.25L1346.21,1852.23C1346.15,1855.48 1348.78,1858.2 1352.03,1858.26" style="fill:rgb(252,192,98);fill-rule:nonzero;"/>
                        </g>
                        <g id="Tracé_1800" transform="matrix(1,0,0,1,-1143.75,-921.483)">
                            <path d="M1429.26,1182.94L1393.95,1182.94C1378.42,1182.9 1365.65,1170.13 1365.6,1154.6L1365.6,1128.57C1365.64,1113.04 1378.41,1100.27 1393.95,1100.23L1429.26,1100.23C1444.79,1100.27 1457.56,1113.04 1457.61,1128.57L1457.61,1154.6C1457.56,1170.13 1444.79,1182.9 1429.26,1182.95" style="fill:rgb(252,192,98);fill-rule:nonzero;"/>
                        </g>
                        <g id="Tracé_1801" transform="matrix(1,0,0,1,-1121.02,-921.483)">
                            <path d="M1402.12,1182.94L1366.81,1182.94C1351.28,1182.9 1338.51,1170.13 1338.46,1154.6L1338.46,1128.57C1338.51,1113.04 1351.28,1100.27 1366.81,1100.22L1402.12,1100.22C1417.66,1100.27 1430.42,1113.04 1430.47,1128.57L1430.47,1154.6C1430.42,1170.13 1417.66,1182.9 1402.12,1182.95" style="fill:rgb(227,159,53);fill-rule:nonzero;"/>
                        </g>
                        <g id="Tracé_1802" transform="matrix(1,0,0,1,-1190.02,-1020.87)">
                            <path d="M1483.1,1220.87L1421.84,1220.87C1421.3,1220.87 1420.85,1220.43 1420.85,1219.88C1420.85,1219.34 1421.3,1218.89 1421.84,1218.89L1483.1,1218.89C1483.64,1218.89 1484.09,1219.34 1484.09,1219.88C1484.09,1220.43 1483.64,1220.87 1483.1,1220.87" style="fill:rgb(188,132,44);fill-rule:nonzero;"/>
                        </g>
                        <g id="Tracé_1803" transform="matrix(1,0,0,1,-1190.02,-1106.33)">
                            <path d="M1483.1,1322.91L1421.84,1322.91C1421.3,1322.91 1420.85,1322.46 1420.85,1321.92C1420.85,1321.37 1421.3,1320.92 1421.84,1320.92L1483.1,1320.92C1483.64,1320.92 1484.09,1321.37 1484.09,1321.92C1484.09,1322.46 1483.64,1322.91 1483.1,1322.91" style="fill:rgb(188,132,44);fill-rule:nonzero;"/>
                        </g>
                        <g id="Tracé_1804" transform="matrix(1,0,0,1,-1190.02,-1191.79)">
                            <path d="M1483.1,1424.94L1421.84,1424.94C1421.3,1424.94 1420.85,1424.49 1420.85,1423.95C1420.85,1423.4 1421.3,1422.96 1421.84,1422.96L1483.1,1422.96C1483.64,1422.96 1484.09,1423.4 1484.09,1423.95C1484.09,1424.49 1483.64,1424.94 1483.1,1424.94" style="fill:rgb(188,132,44);fill-rule:nonzero;"/>
                        </g>
                        <g id="Tracé_1805" transform="matrix(1,0,0,1,-1116.9,-1337.72)">
                            <path d="M1402.91,1639.51C1402.91,1639.51 1414.25,1639.25 1414.25,1626.32C1414.25,1613.4 1402.91,1597.2 1402.91,1597.2L1348.21,1597.2C1348.21,1597.2 1338.21,1613.18 1335.55,1619.93C1332.88,1626.68 1330.08,1639.51 1347.22,1639.51L1402.91,1639.51Z" style="fill:rgb(31,28,44);fill-rule:nonzero;"/>
                        </g>
                        <g id="Tracé_1806" transform="matrix(1,0,0,1,-962.246,-1914.92)">
                            <path d="M1167.16,2295.29C1167.16,2295.29 1169.06,2290.05 1170.81,2286.35L1180.4,2286.35C1183.78,2292.68 1183.5,2305.71 1183.78,2312.84L1149.27,2312.58C1145.81,2309.21 1167.16,2295.29 1167.16,2295.29" style="fill:rgb(179,179,179);fill-rule:nonzero;"/>
                        </g>
                        <g id="Tracé_1807" transform="matrix(1,0,0,1,-908.147,-1955.56)">
                            <path d="M1126.38,2345.95C1127.08,2345.23 1127.9,2338.45 1128.9,2338.45C1129.95,2338.44 1130.25,2340.3 1130.25,2340.3C1130.6,2341.29 1130.25,2360.74 1130.25,2360.74L1092.91,2360.74C1086.61,2360.74 1085.33,2356.91 1084.66,2355.16C1084.24,2354 1084.18,2352.74 1084.51,2351.54C1094.36,2346.76 1103.8,2341.19 1112.74,2334.89C1114.79,2335.43 1116.04,2337.53 1116.54,2339.59C1117.05,2341.64 1117.03,2343.81 1117.65,2345.83C1117.87,2346.54 1125.89,2346.46 1126.38,2345.95" style="fill:rgb(26,26,26);fill-rule:nonzero;"/>
                        </g>
                        <g id="Tracé_1808" transform="matrix(1,0,0,1,-1037.62,-1421.98)">
                            <path d="M1312.76,1702.32C1292.96,1701.12 1274.1,1698 1254.26,1697.81C1248.28,1697.75 1243.49,1698.81 1240.77,1701.26C1238.05,1703.7 1237.11,1717.87 1246.15,1724.78L1314.13,1724.78L1312.76,1702.32Z" style="fill:rgb(31,28,44);fill-rule:nonzero;"/>
                        </g>
                        <g id="Tracé_1809" transform="matrix(1,0,0,1,-1290.43,-1904.26)">
                            <path d="M1564.72,2307.91C1566.3,2304.52 1567.7,2301.05 1568.9,2297.5L1568.33,2276.38C1568.23,2274.83 1566.91,2273.61 1565.36,2273.63L1555.99,2273.75C1554.65,2273.77 1550.68,2291.83 1550.68,2291.83L1542.62,2303.77C1541.81,2305.06 1541.17,2306.45 1540.74,2307.91L1564.72,2307.91Z" style="fill:rgb(179,179,179);fill-rule:nonzero;"/>
                        </g>
                        <g id="Tracé_1810" transform="matrix(1,0,0,1,-1280.9,-1961.95)">
                            <path d="M1532.07,2354.19L1536.53,2350.39L1537.6,2347.18C1542.85,2345.94 1553.48,2348.11 1553.48,2348.11L1554.47,2352.68C1554.79,2352.62 1557.37,2352.32 1557.67,2352.18C1559.83,2351.12 1558.73,2342.51 1559.16,2342.5C1559.26,2342.5 1560.63,2342.73 1560.93,2344.83C1561.88,2351.6 1561.82,2367.12 1561.82,2367.12L1529.4,2367.12C1529.38,2366.98 1529.37,2366.85 1529.36,2366.72C1529.21,2364.12 1530.98,2355.62 1532.07,2354.19" style="fill:rgb(26,26,26);fill-rule:nonzero;"/>
                        </g>
                        <g id="Rectangle_291" transform="matrix(1,0,0,1,244.471,137.789)">
                            <rect x="0" y="0" width="24.16" height="28.738" style="fill:rgb(209,120,94);"/>
                        </g>
                        <g id="Tracé_1811" transform="matrix(1,0,0,1,-1260.36,-710.365)">
                            <path d="M1528.99,848.154L1528.99,856.992C1522.99,861.854 1514.87,865.137 1504.83,865.83L1504.83,848.154L1528.99,848.154Z" style="fill:rgb(132,66,46);fill-rule:nonzero;"/>
                        </g>
                        <g id="Tracé_1812" transform="matrix(1,0,0,1,-1463.2,-849.935)">
                            <path d="M1760.92,1015.62C1763.9,1017.15 1769.14,1020.48 1769.83,1022.66C1770.52,1024.84 1789.5,1075.89 1790.75,1079.62C1793.26,1087.12 1771.3,1093.77 1769.43,1088.92C1767.56,1084.08 1747.02,1046.16 1747.02,1046.16L1751.46,1015.27C1751.46,1015.27 1757.79,1014 1760.92,1015.62" style="fill:rgb(41,37,59);fill-rule:nonzero;"/>
                        </g>
                        <g id="Tracé_1813" transform="matrix(1,0,0,1,-1116.9,-807.047)">
                            <path d="M1356.54,1078.06L1355.15,1078.06C1351.55,1078.02 1340.85,1074.9 1339.3,1072.48C1343.29,1051.87 1337.42,1006.01 1337.42,1006.01C1335.98,1003.31 1332.58,983.076 1333.81,974.734L1360.31,963.594L1372.58,967.268L1375.06,967.268L1387.33,963.594L1413.83,974.734C1415.06,983.076 1413.39,1003.31 1411.95,1006.01C1411.95,1006.01 1402.58,1051.32 1406.59,1071.74L1406.61,1071.83C1405.81,1073.03 1399.85,1076.12 1396.95,1076.58C1387.62,1078.05 1357.81,1078.07 1356.55,1078.07" style="fill:rgb(207,215,233);fill-rule:nonzero;"/>
                        </g>
                        <g id="Tracé_1814" transform="matrix(1,0,0,1,-1263.08,-819.467)">
                            <path d="M1524.65,991.013L1529.28,986.523L1526.53,979L1519.99,978.419L1513.45,979L1510.7,986.524L1515.33,991.014L1508.07,1061.57L1519.99,1075.5L1531.91,1061.57L1524.65,991.013Z" style="fill:rgb(134,154,201);fill-rule:nonzero;"/>
                        </g>
                        <g id="Tracé_1815" transform="matrix(1,0,0,1,-1324.52,-775.753)">
                            <path d="M1594.17,926.225L1581.43,934.704L1586.1,935.657L1589.84,955L1602.27,935.435L1594.17,926.225Z" style="fill:rgb(231,235,244);fill-rule:nonzero;"/>
                        </g>
                        <g id="Tracé_1816" transform="matrix(1,0,0,1,-1217.12,-775.753)">
                            <path d="M1461.3,926.225L1474.04,934.704L1469.38,935.657L1465.64,955L1453.21,935.435L1461.3,926.225Z" style="fill:rgb(231,235,244);fill-rule:nonzero;"/>
                        </g>
                        <g id="Tracé_1817" transform="matrix(1,0,0,1,-971.389,-837.491)">
                            <path d="M1195.1,1000.13C1191.87,1001 1186.03,1003.12 1184.9,1005.11C1183.77,1007.09 1167.34,1040.25 1160.81,1051.8C1154.99,1063.12 1176.37,1065.67 1179.11,1063.02C1181.84,1060.37 1199.44,1035.79 1199.44,1035.79L1204.42,1001.82C1204.42,1001.82 1198.51,999.218 1195.1,1000.13" style="fill:rgb(41,37,59);fill-rule:nonzero;"/>
                        </g>
                        <g id="Tracé_1818" transform="matrix(1,0,0,1,-1345.72,-811.506)">
                            <path d="M1645.8,978.747L1621.47,968.913L1611.78,1026.59L1606.76,1086.1C1625.18,1088.68 1642.6,1095.17 1643.91,1093.86C1646.06,1091.7 1638.18,1069.56 1637.78,1066.48C1633.55,1033.84 1641.89,1011.06 1641.89,1011.06C1641.89,1011.06 1647.24,986.654 1645.8,978.746" style="fill:rgb(41,37,59);fill-rule:nonzero;"/>
                        </g>
                        <g id="Tracé_1819" transform="matrix(1,0,0,1,-1074.48,-811.506)">
                            <path d="M1320.58,1023.4C1319.48,1008.24 1312.57,968.913 1312.57,968.913L1288.9,978.24C1287.46,986.148 1292.15,1011.06 1292.15,1011.06C1294.85,1028.94 1295.97,1047.02 1295.48,1065.1C1295.25,1067.9 1281.63,1085.38 1282.99,1087.33C1284.35,1089.28 1306.85,1089.24 1317.26,1088.16C1317.26,1088.16 1321.69,1038.57 1320.58,1023.4" style="fill:rgb(41,37,59);fill-rule:nonzero;"/>
                        </g>
                        <g id="Tracé_1820" transform="matrix(1,0,0,1,-1105.57,-1184.15)">
                            <path d="M1320.02,1415.65C1320.02,1415.65 1322.73,1413.9 1324.3,1413.84C1325.4,1413.8 1327.55,1415.66 1327.55,1415.66L1325.77,1416.29L1320.02,1415.65Z" style="fill:rgb(209,120,94);fill-rule:nonzero;"/>
                        </g>
                        <g id="Tracé_1821" transform="matrix(1,0,0,1,-1052.14,-1190.36)">
                            <path d="M1272.66,1422.03L1266.23,1432.76C1266.23,1432.76 1261.12,1434.92 1258.93,1433.12C1256.74,1431.33 1255.85,1428.38 1256.37,1427.01C1256.89,1425.64 1262.92,1422.74 1266.05,1421.66C1268.24,1421.07 1270.56,1421.2 1272.66,1422.03" style="fill:rgb(209,120,94);fill-rule:nonzero;"/>
                        </g>
                        <g id="Tracé_1822" transform="matrix(1,0,0,1,-1121.88,-1192.54)">
                            <path d="M1341.79,1424.05C1341.79,1424.05 1345.34,1423.38 1347.66,1424.5C1349.98,1425.61 1356.36,1433.2 1357.15,1434.06C1358.03,1435.01 1355.44,1435.88 1354.43,1435.4C1352.42,1434.44 1346.95,1427.59 1345.65,1427.18C1344.36,1426.78 1339.49,1427.51 1339.49,1427.51L1341.79,1424.05Z" style="fill:rgb(209,120,94);fill-rule:nonzero;"/>
                        </g>
                        <g id="Tracé_1823" transform="matrix(1,0,0,1,-1108.07,-1205.87)">
                            <path d="M1325.3,1439.98C1325.3,1439.98 1328.85,1439.31 1331.17,1440.42C1333.5,1441.54 1338.97,1448.29 1340.1,1449.49C1341.22,1450.69 1338.23,1451.32 1337.14,1450.72C1335.19,1449.63 1330.06,1444.06 1328.77,1443.65C1327.48,1443.24 1323,1443.43 1323,1443.43L1325.3,1439.98Z" style="fill:rgb(209,120,94);fill-rule:nonzero;"/>
                        </g>
                        <g id="Tracé_1824" transform="matrix(1,0,0,1,-1090.57,-1222.18)">
                            <path d="M1304.2,1460.04C1304.2,1460.04 1307.54,1458.82 1309.75,1459.41C1311.97,1460 1317.28,1465.07 1318.37,1465.94C1319.46,1466.82 1316.65,1467.9 1315.6,1467.55C1313.74,1466.93 1308.78,1462.85 1307.55,1462.71C1305.71,1462.82 1303.89,1463.1 1302.1,1463.53L1304.2,1460.04Z" style="fill:rgb(209,120,94);fill-rule:nonzero;"/>
                        </g>
                        <g id="Tracé_1825" transform="matrix(1,0,0,1,-1074.97,-1232.1)">
                            <path d="M1285.34,1471.95C1285.34,1471.95 1288.46,1470.47 1290.25,1471.39C1291.58,1472.08 1296.6,1475.6 1297.56,1476.36C1297.82,1476.56 1297.98,1476.87 1297.98,1477.19C1297.98,1477.76 1297.51,1478.23 1296.94,1478.23C1296.86,1478.23 1296.79,1478.23 1296.72,1478.21C1295.07,1477.66 1290.31,1474.7 1289.22,1474.57C1287.3,1474.62 1285.38,1474.78 1283.48,1475.04L1285.34,1471.95Z" style="fill:rgb(209,120,94);fill-rule:nonzero;"/>
                        </g>
                        <g id="Tracé_1826" transform="matrix(1,0,0,1,-969.697,-1080.06)">
                            <path d="M1187.91,1308.83L1170.79,1321.25C1170.79,1321.25 1160.61,1308.84 1158.55,1303.26C1156.16,1296.79 1159.6,1291.01 1166.15,1289.78C1170.29,1288.88 1174.59,1290.46 1177.15,1293.83C1181.05,1298.6 1184.64,1303.61 1187.91,1308.83" style="fill:rgb(41,37,59);fill-rule:nonzero;"/>
                        </g>
                        <g id="Tracé_1827" transform="matrix(1,0,0,1,-1317.8,-1179.74)">
                            <path d="M1580.94,1410.39C1580.94,1410.39 1578.23,1408.64 1576.66,1408.58C1575.56,1408.54 1573.41,1410.4 1573.41,1410.4L1575.19,1411.03L1580.94,1410.39Z" style="fill:rgb(209,120,94);fill-rule:nonzero;"/>
                        </g>
                        <g id="Tracé_1828" transform="matrix(1,0,0,1,-1325.3,-1185.95)">
                            <path d="M1582.37,1416.77L1588.8,1427.5C1588.8,1427.5 1593.91,1429.65 1596.1,1427.86C1598.29,1426.06 1599.18,1423.12 1598.66,1421.74C1598.14,1420.37 1592.11,1417.47 1588.98,1416.39C1586.79,1415.8 1584.48,1415.93 1582.37,1416.77" style="fill:rgb(209,120,94);fill-rule:nonzero;"/>
                        </g>
                        <g id="Tracé_1829" transform="matrix(1,0,0,1,-1248.35,-1188.13)">
                            <path d="M1506.03,1418.79C1506.03,1418.79 1502.48,1418.12 1500.16,1419.23C1497.83,1420.35 1491.46,1427.94 1490.67,1428.79C1489.79,1429.75 1492.38,1430.62 1493.38,1430.14C1495.39,1429.17 1500.87,1422.33 1502.16,1421.92C1503.45,1421.51 1508.32,1422.25 1508.32,1422.25L1506.03,1418.79Z" style="fill:rgb(209,120,94);fill-rule:nonzero;"/>
                        </g>
                        <g id="Tracé_1830" transform="matrix(1,0,0,1,-1264.7,-1201.46)">
                            <path d="M1525.06,1434.71C1525.06,1434.71 1521.51,1434.04 1519.19,1435.16C1516.87,1436.27 1511.39,1443.03 1510.27,1444.23C1509.14,1445.43 1512.13,1446.06 1513.23,1445.45C1515.17,1444.37 1520.31,1438.8 1521.6,1438.39C1522.89,1437.98 1527.36,1438.17 1527.36,1438.17L1525.06,1434.71Z" style="fill:rgb(209,120,94);fill-rule:nonzero;"/>
                        </g>
                        <g id="Tracé_1831" transform="matrix(1,0,0,1,-1286.48,-1217.78)">
                            <path d="M1550.43,1454.78C1550.43,1454.78 1547.1,1453.56 1544.88,1454.15C1542.66,1454.74 1537.35,1459.81 1536.27,1460.68C1535.18,1461.55 1537.99,1462.64 1539.03,1462.29C1540.9,1461.67 1545.86,1457.59 1547.09,1457.45C1548.92,1457.56 1550.74,1457.83 1552.53,1458.27L1550.43,1454.78Z" style="fill:rgb(209,120,94);fill-rule:nonzero;"/>
                        </g>
                        <g id="Tracé_1832" transform="matrix(1,0,0,1,-1312.47,-1227.69)">
                            <path d="M1579.69,1466.69C1579.69,1466.69 1576.57,1465.21 1574.78,1466.13C1573.45,1466.82 1568.43,1470.33 1567.46,1471.1C1567.2,1471.3 1567.05,1471.61 1567.05,1471.93C1567.05,1472.5 1567.52,1472.97 1568.09,1472.97C1568.16,1472.97 1568.24,1472.96 1568.31,1472.95C1569.96,1472.39 1574.72,1469.43 1575.81,1469.31C1577.73,1469.36 1579.64,1469.51 1581.55,1469.77L1579.69,1466.69Z" style="fill:rgb(209,120,94);fill-rule:nonzero;"/>
                        </g>
                        <g id="Tracé_1833" transform="matrix(1,0,0,1,-1373.56,-1145.93)">
                            <path d="M1639.99,1374.01L1642.01,1391.46C1642.01,1391.46 1689.8,1390.56 1695.3,1388.31C1701.69,1385.7 1703.62,1379.25 1700.09,1373.6C1697.96,1369.94 1693.88,1367.84 1689.67,1368.24C1679.08,1368.87 1639.99,1374.01 1639.99,1374.01" style="fill:rgb(41,37,59);fill-rule:nonzero;"/>
                        </g>
                        <g id="Tracé_1834" transform="matrix(1,0,0,1,-1013.77,-1412.27)">
                            <path d="M1214.02,1789.07C1214.02,1789.07 1209.31,1723.37 1210.66,1701.65C1212.08,1678.71 1242.02,1683.78 1242.02,1700.92L1242.02,1789.07L1214.02,1789.07Z" style="fill:rgb(31,28,44);fill-rule:nonzero;"/>
                        </g>
                        <g id="Tracé_1835" transform="matrix(1,0,0,1,-1315.54,-1397.2)">
                            <path d="M1571.86,1774.29L1570.71,1689.05C1574.62,1659.43 1600.89,1664.53 1602.49,1684.75C1604.09,1704.97 1598.68,1774.29 1598.68,1774.29L1571.86,1774.29Z" style="fill:rgb(31,28,44);fill-rule:nonzero;"/>
                        </g>
                        <g id="Tracé_1836" transform="matrix(1,0,0,1,-1353.63,-663.721)">
                            <path d="M1616.19,804.956C1617.29,805.404 1618.52,805.438 1619.64,805.05C1620.73,804.663 1621.76,804.11 1622.69,803.409C1625.19,801.659 1627.61,799.342 1627.92,796.367C1628.07,795.359 1627.8,794.331 1627.18,793.525C1626.3,792.627 1625.01,792.256 1623.79,792.551C1622.6,792.855 1621.54,793.518 1620.74,794.451L1616.19,804.956Z" style="fill:rgb(209,120,94);fill-rule:nonzero;"/>
                        </g>
                        <g id="Tracé_1837" transform="matrix(1,0,0,1,-1169.06,-630.722)">
                            <path d="M1404.5,767.718C1403.32,767.81 1402.14,767.468 1401.19,766.757C1400.27,766.054 1399.46,765.213 1398.79,764.263C1396.95,761.835 1395.34,758.888 1395.95,755.963C1396.12,754.956 1396.69,754.059 1397.53,753.482C1398.64,752.894 1399.98,752.934 1401.05,753.587C1402.09,754.237 1402.9,755.193 1403.38,756.322L1404.5,767.718Z" style="fill:rgb(209,120,94);fill-rule:nonzero;"/>
                        </g>
                        <g id="Tracé_1838" transform="matrix(1,0,0,1,-1185.89,-493.532)">
                            <path d="M1452.67,636.888C1454.97,627.788 1458.22,622.788 1460.54,617.688C1462.23,613.858 1464.37,607.2 1460.66,600.455C1457.05,593.485 1446.08,588.132 1435.06,589.473C1423.97,590.806 1417.11,596.097 1417.29,603.373C1417.28,607.709 1416.97,613.661 1416.99,618.139C1417.01,621.862 1415.34,625.331 1416.13,629.078C1417.68,635.556 1425.67,647.742 1433.29,648.932C1439.51,649.904 1451.44,640.832 1452.67,636.895" style="fill:rgb(209,120,94);fill-rule:nonzero;"/>
                        </g>
                        <g transform="matrix(1,0,0,1,-1278.79,-681.717)">
                            <g id="Groupe_315">
                                <g id="Groupe_314">
                                    <g id="Groupe_313">
                                        <path id="Tracé_1839" d="M1528.19,815.3C1528.1,815.467 1528,815.626 1527.88,815.776C1527.79,815.936 1527.64,816.063 1527.47,816.144C1527.3,816.203 1527.08,816.107 1526.94,815.814C1526.86,815.646 1526.83,815.462 1526.84,815.278C1526.85,815.057 1526.91,814.841 1527.01,814.646C1527.12,814.453 1527.26,814.286 1527.44,814.156C1527.59,814.05 1527.76,813.981 1527.94,813.956C1528.26,813.917 1528.46,814.056 1528.5,814.234C1528.53,814.422 1528.5,814.613 1528.42,814.785C1528.36,814.964 1528.28,815.138 1528.19,815.304" style="fill:rgb(242,242,242);fill-rule:nonzero;"/>
                                    </g>
                                </g>
                            </g>
                        </g>
                        <g id="Tracé_1840" transform="matrix(1,0,0,1,-1268.13,-675.972)">
                            <path d="M1515.5,809.884C1515.49,809.753 1515.48,809.635 1515.48,809.531C1515.48,809.427 1515.48,809.331 1515.48,809.244C1515.48,809.138 1515.49,809.032 1515.51,808.928C1515.54,808.811 1515.57,808.682 1515.61,808.552C1515.69,808.303 1515.75,808.047 1515.79,807.787C1515.83,807.587 1515.78,807.38 1515.66,807.213C1515.57,807.087 1515.4,807.051 1515.27,807.133C1515.05,807.26 1514.86,807.43 1514.72,807.633C1514.46,807.951 1514.28,808.319 1514.17,808.713C1514.12,808.947 1514.1,809.189 1514.11,809.43C1514.13,809.668 1514.17,809.903 1514.25,810.13C1514.31,810.342 1514.39,810.547 1514.49,810.745C1514.58,810.922 1514.68,811.093 1514.79,811.257C1514.97,811.515 1515.16,811.76 1515.37,811.988C1515.72,812.353 1515.94,812.501 1516.1,812.311C1516.26,812.121 1516.28,811.888 1516.12,811.503C1516.05,811.311 1515.92,811.083 1515.79,810.812C1515.72,810.67 1515.66,810.523 1515.61,810.374C1515.55,810.216 1515.52,810.052 1515.5,809.886" style="fill:rgb(132,66,46);fill-rule:nonzero;"/>
                        </g>
                        <g id="Tracé_1841" transform="matrix(1,0,0,1,-1312.9,-639.459)">
                            <path d="M1568.35,763.517C1570.51,763.373 1572.65,763.999 1574.39,765.283C1575.25,765.929 1574.69,766.817 1573.78,766.445C1572.9,766.072 1572,765.75 1571.07,765.478C1570.15,765.208 1569.22,764.992 1568.27,764.829C1567.32,764.656 1567.29,763.601 1568.35,763.518" style="fill:rgb(26,26,26);fill-rule:nonzero;"/>
                        </g>
                        <g id="Tracé_1842" transform="matrix(1,0,0,1,-1215.89,-625.962)">
                            <path d="M1458.65,747.95C1457.65,747.575 1456.59,747.382 1455.52,747.379C1454.44,747.373 1453.38,747.557 1452.36,747.924C1451.35,748.298 1451.64,749.31 1452.61,749.21C1453.57,749.105 1454.53,749.053 1455.49,749.055C1456.45,749.058 1457.4,749.116 1458.36,749.229C1459.32,749.336 1459.65,748.329 1458.65,747.95" style="fill:rgb(26,26,26);fill-rule:nonzero;"/>
                        </g>
                        <g id="Tracé_1843" transform="matrix(1,0,0,1,-1217.99,-643.123)">
                            <path d="M1458.55,772.821L1458.92,770.366C1458.94,770.259 1458.94,770.151 1458.94,770.043C1458.94,768.85 1457.96,767.868 1456.77,767.868C1455.7,767.868 1454.78,768.66 1454.62,769.719L1454.25,772.174C1454.07,773.356 1458.37,774.003 1458.55,772.821" style="fill:rgb(26,26,26);fill-rule:nonzero;"/>
                        </g>
                        <g id="Tracé_1844" transform="matrix(1,0,0,1,-1316.21,-658.491)">
                            <path d="M1571.52,790.495L1571.92,788.044C1572.1,787.002 1573.01,786.23 1574.07,786.23C1575.26,786.23 1576.24,787.211 1576.24,788.403C1576.24,788.516 1576.23,788.628 1576.21,788.739L1575.81,791.19C1575.62,792.37 1571.33,791.675 1571.52,790.495" style="fill:rgb(26,26,26);fill-rule:nonzero;"/>
                        </g>
                        <g id="Tracé_1845" transform="matrix(1,0,0,1,-1254.59,-705.764)">
                            <path d="M1498.11,844.593C1500.67,845.944 1503.72,845.987 1506.32,844.71C1507.09,844.338 1507.82,843.873 1508.49,843.325C1508.78,843.087 1508.55,842.476 1508.25,842.717C1506.12,844.564 1503.24,845.317 1500.47,844.754C1499.71,844.582 1498.97,844.307 1498.29,843.937C1497.97,843.77 1497.8,844.427 1498.11,844.593" style="fill:rgb(26,26,26);fill-rule:nonzero;"/>
                        </g>
                        <g id="Tracé_1846" transform="matrix(1,0,0,1,-1137.64,-442.815)">
                            <path d="M1416.43,567.207C1416.85,566.642 1417.14,565.995 1417.29,565.307C1417.35,565.05 1417.38,564.789 1417.4,564.527C1417.85,564.142 1418.12,563.582 1418.14,562.987C1418.16,562.352 1417.92,561.738 1417.47,561.282C1418.52,559.82 1418.6,557.864 1417.67,556.322C1417.87,556.013 1417.98,555.656 1417.99,555.29C1418.02,554.352 1417.47,553.485 1416.61,553.112C1416.99,551.932 1416.8,550.639 1416.09,549.624C1415.94,549.411 1415.77,549.21 1415.59,549.024C1416.11,548.495 1416.34,547.735 1416.19,547.005C1415.95,545.879 1414.87,545.119 1413.73,545.279C1413.66,545.025 1413.57,544.776 1413.46,544.536L1414.53,543.863C1415.54,543.317 1415.95,542.054 1415.45,541.019C1414.91,539.997 1413.63,539.586 1412.6,540.101L1410.88,541.193C1410.87,541.107 1410.86,541.021 1410.84,540.937C1410.81,540.842 1410.78,540.749 1410.75,540.658C1410.86,540.531 1410.98,540.406 1411.1,540.283C1411.55,539.882 1411.81,539.306 1411.81,538.703C1411.81,537.543 1410.86,536.589 1409.7,536.589C1409.16,536.589 1408.64,536.796 1408.25,537.168C1408.2,537.21 1408.16,537.256 1408.12,537.299C1408.12,537.213 1408.12,537.127 1408.11,537.04C1408.07,536.702 1407.93,536.385 1407.7,536.132C1407.82,535.505 1407.63,534.858 1407.19,534.395C1406.39,533.559 1405.06,533.501 1404.2,534.266L1403.93,534.523C1403.87,534.105 1403.69,533.713 1403.41,533.395C1402.64,532.587 1401.36,532.507 1400.5,533.214C1400.5,532.292 1399.91,531.467 1399.03,531.168C1398.51,531.003 1397.95,531.052 1397.46,531.302C1397.5,530.337 1396.9,529.457 1395.99,529.136C1394.88,528.805 1393.7,529.411 1393.33,530.498L1392.97,531.358C1392.96,531.282 1392.95,531.205 1392.94,531.129C1392.75,530.15 1391.88,529.437 1390.88,529.437C1389.81,529.437 1388.89,530.273 1388.8,531.349L1388.66,530.859C1388.4,529.739 1387.29,529.01 1386.16,529.218C1385.83,529.292 1385.52,529.447 1385.26,529.669C1384.66,528.784 1383.49,528.474 1382.54,528.95C1381.52,529.493 1381.12,530.76 1381.62,531.794L1381.79,532.131C1381.57,532.224 1381.37,532.36 1381.2,532.531C1381.17,532.563 1381.14,532.597 1381.11,532.631C1381.25,531.63 1380.65,530.662 1379.69,530.348C1378.59,530.007 1377.4,530.616 1377.03,531.71C1376.97,531.964 1376.92,532.222 1376.9,532.482C1376.55,532.119 1376.07,531.909 1375.57,531.899C1374.42,531.853 1373.42,532.742 1373.34,533.892C1373.33,534.376 1373.37,534.86 1373.44,535.339C1373.16,535.592 1372.95,535.915 1372.84,536.274C1372.74,536.605 1372.72,536.955 1372.78,537.296L1370.99,536.674C1369.57,538.493 1367.7,539.903 1365.56,540.76C1365.5,540.992 1365.47,541.232 1365.48,541.472C1364.88,541.551 1364.32,541.863 1363.94,542.342C1363.14,541.586 1361.88,541.57 1361.06,542.305C1360.22,543.099 1360.17,544.429 1360.93,545.292C1361.18,545.574 1361.46,545.841 1361.74,546.092C1360.95,546.048 1360.19,546.442 1359.77,547.118C1359.45,547.678 1359.37,548.349 1359.55,548.97C1359.02,549.252 1358.61,549.725 1358.41,550.292C1358.07,551.438 1358.68,552.673 1359.8,553.086C1359.89,553.126 1359.98,553.175 1360.07,553.218C1359.41,554.553 1359.3,556.093 1359.76,557.508C1359.07,557.847 1358.64,558.55 1358.64,559.314C1358.64,559.411 1358.64,559.509 1358.64,559.606C1358.64,562.824 1361.21,565.506 1364.42,565.639C1363.97,566.624 1364.3,567.803 1365.19,568.42C1365.53,568.64 1365.94,568.757 1366.35,568.757C1367.1,568.757 1367.79,568.369 1368.19,567.732C1368.83,566.431 1369.25,565.035 1369.44,563.599C1370.92,563.034 1372.01,561.748 1372.32,560.199C1372.57,559.016 1372.31,557.78 1371.6,556.799C1372.3,555.849 1372.65,554.685 1372.58,553.508C1373.59,552.985 1374.33,552.059 1374.62,550.96C1374.74,550.504 1374.78,550.03 1374.74,549.56C1375.75,549.056 1376.6,548.271 1377.18,547.299C1379.33,548.171 1381.82,547.462 1383.19,545.587C1384.7,546.291 1386.44,546.323 1387.98,545.674C1389.59,546.999 1392.05,546.988 1394.3,546.441C1397.3,547.227 1399.9,549.084 1401.62,551.658C1401.4,554.076 1402.74,556.382 1404.95,557.382C1404.78,558.571 1405.07,559.78 1405.75,560.771C1404.5,561.332 1403.62,562.485 1403.41,563.833C1403.23,564.885 1403.43,565.966 1403.99,566.879C1403.09,568.274 1403.09,570.067 1403.98,571.464C1403.8,573.333 1405.01,575.074 1406.82,575.571C1407.19,576.235 1407.89,576.648 1408.65,576.648C1409.81,576.648 1410.76,575.698 1410.76,574.543C1410.76,574.468 1410.76,574.393 1410.75,574.318C1413,573.945 1415.2,572.855 1415.78,570.418C1415.89,570.347 1416,570.263 1416.1,570.167C1416.51,569.768 1416.77,569.226 1416.8,568.649C1416.82,568.146 1416.69,567.649 1416.42,567.226" style="fill:rgb(44,30,28);fill-rule:nonzero;"/>
                        </g>
                        <g id="Rectangle_293" transform="matrix(0.215,-0.977,0.977,0.215,111.703,80.972)">
                            <rect x="0" y="0" width="30.489" height="25.632" style="fill:rgb(240,178,151);"/>
                        </g>
                        <g id="Tracé_1847" transform="matrix(1,0,0,1,-588.884,-263.935)">
                            <path d="M732.173,320.64L730.158,329.797C722.824,333.465 713.658,335.015 703.109,333.445L707.139,315.131L732.173,320.64Z" style="fill:rgb(209,120,94);fill-rule:nonzero;"/>
                        </g>
                        <g id="Tracé_1848" transform="matrix(1,0,0,1,-746.792,-472.942)">
                            <path d="M917.912,568.944C920.176,571.676 923.919,577.101 923.681,579.515C923.443,581.929 918.636,646.398 918.304,650.568C917.639,658.929 893.604,644.906 893.788,639.4C893.972,633.894 891.647,592.98 891.647,592.98L908.82,564.68C908.82,564.68 915.52,566.063 917.912,568.946" style="fill:rgb(41,37,59);fill-rule:nonzero;"/>
                        </g>
                        <g id="Tracé_1849" transform="matrix(1,0,0,1,-464.623,-877.302)">
                            <path d="M600.979,1047.47C600.043,1090.46 601.885,1164.73 600.143,1175.92C598.381,1187.23 575.019,1168.55 574.265,1157.14C573.994,1153.04 575.071,1148.96 575.079,1144.86C575.086,1141.23 573.497,1137.74 573.437,1134.1C572.915,1102.3 566.649,1097.84 562.103,1078.23L554.747,1047.47L600.979,1047.47Z" style="fill:rgb(35,32,51);fill-rule:nonzero;"/>
                        </g>
                        <g id="Tracé_1850" transform="matrix(1,0,0,1,-232.743,-1920.28)">
                            <path d="M300.04,2327.8C305.01,2325.43 309.391,2322.92 310.623,2320.36L311.172,2297.77C311.364,2296.09 311.728,2294.04 310.087,2293.81L302.625,2292.78C301.165,2292.58 299.772,2293.52 299.408,2294.95C298.577,2298.06 295.656,2308.36 295.656,2308.36L281.089,2322.73C279.607,2324.19 278.033,2325.68 277.889,2327.8C277.889,2327.87 300.041,2327.8 300.041,2327.8" style="fill:rgb(179,179,179);fill-rule:nonzero;"/>
                        </g>
                        <g id="Tracé_1851" transform="matrix(1,0,0,1,-190.291,-1976.92)">
                            <path d="M268.575,2360.38C268.105,2360.3 269.79,2372.45 264.256,2373.35C263.901,2373.41 263.542,2373.44 263.183,2373.44L262.745,2368.32C262.745,2368.32 254.882,2364.68 248.99,2365.14L247.628,2367.94L230.878,2377.16C229.492,2378.53 227.398,2380.59 227.204,2383.44C227.213,2383.93 227.381,2384.4 227.682,2384.78L270.014,2384.78C270.014,2384.78 269.044,2360.45 268.574,2360.38" style="fill:rgb(26,26,26);fill-rule:nonzero;"/>
                        </g>
                        <g id="Tracé_1852" transform="matrix(1,0,0,1,-640.326,-1924.23)">
                            <path d="M792.09,2331.67C791.605,2329.9 790.885,2328.2 789.949,2326.62L778.881,2312.12C778.881,2312.12 777.488,2302.74 777.112,2299.91C776.954,2298.61 775.86,2297.62 774.556,2297.58L767.956,2297.47C767.952,2297.47 767.949,2297.47 767.945,2297.47C766.487,2297.47 765.287,2298.67 765.287,2300.13C765.287,2300.13 765.287,2300.13 765.287,2300.13L764.534,2320.56C765.82,2324.32 767.316,2328.01 769.015,2331.61L792.09,2331.67Z" style="fill:rgb(179,179,179);fill-rule:nonzero;"/>
                        </g>
                        <g id="Tracé_1853" transform="matrix(1,0,0,1,-613.703,-1980.02)">
                            <path d="M764.427,2381.52L756.94,2371.71L755.906,2368.6C750.834,2367.4 743.592,2369.5 743.592,2369.5L742.64,2373.92C742.328,2373.87 742.019,2373.79 741.717,2373.69C737.005,2372.16 738.517,2364.08 738.098,2364.08C737.679,2364.08 732.743,2387.88 732.743,2387.88L766.884,2387.88C766.901,2387.76 766.915,2387.63 766.922,2387.5C767.07,2384.98 765.479,2382.9 764.422,2381.52" style="fill:rgb(26,26,26);fill-rule:nonzero;"/>
                        </g>
                        <g id="Tracé_1854" transform="matrix(1,0,0,1,-336.811,-865.175)">
                            <path d="M410.274,1034.88C398.498,1077.41 402.458,1150.25 404.238,1161.44C406.038,1172.75 429.911,1154.07 430.683,1142.66C430.96,1138.56 429.859,1134.48 429.851,1130.38C429.988,1126.74 430.552,1123.12 431.529,1119.62C436.174,1100.01 445.983,1080.4 450.629,1060.79L450.629,1032.99L410.274,1034.88Z" style="fill:rgb(35,32,51);fill-rule:nonzero;"/>
                        </g>
                        <g id="Tracé_1855" transform="matrix(1,0,0,1,-324.882,-1363.12)">
                            <path d="M388.023,1743.73C387.732,1727.48 388.009,1711.23 388.285,1694.99C388.424,1686.83 388.563,1678.67 388.702,1670.51C388.902,1659.01 389.57,1647.36 393.802,1636.51C395.065,1633.28 415.41,1624.92 417.921,1628.31C417.921,1628.31 419.615,1644.31 420.676,1651.56C421.376,1656.33 420.426,1661.15 419.476,1665.89C414.34,1691.62 411.656,1718 406.521,1743.72L388.023,1743.73Z" style="fill:rgb(35,32,51);fill-rule:nonzero;"/>
                        </g>
                        <g id="Tracé_1856" transform="matrix(1,0,0,1,-554.329,-1375.24)">
                            <path d="M694.45,1757.16C694.735,1740.92 694.056,1725.72 693.786,1709.47C693.653,1701.31 693.517,1693.15 693.378,1684.99C693.187,1673.49 692.529,1661.84 688.386,1650.99C687.15,1647.76 667.24,1639.4 664.786,1642.79C664.786,1642.79 663.128,1658.79 662.086,1666.04C661.403,1670.81 662.331,1675.63 663.255,1680.37C668.281,1706.1 670.675,1731.5 675.7,1757.23L694.45,1757.16Z" style="fill:rgb(35,32,51);fill-rule:nonzero;"/>
                        </g>
                        <g id="Tracé_1857" transform="matrix(1,0,0,1,-341.703,-362.859)">
                            <path d="M424.577,550.992C423.836,550.829 423.339,550.717 423.141,550.671C419.423,549.804 409.041,544.141 407.983,541.278C416.816,520.825 417.135,507.398 417.443,494.409C417.617,487.102 419.398,471.58 419.398,471.58C418.521,468.447 421.408,447.108 424.583,438.744L454.583,433.244L466.461,439.844L469.026,440.408L482.579,439.4L507.496,456.984C506.866,465.908 500.529,486.484 498.418,488.963C498.418,488.963 493.072,504.082 489.764,510.763C484.164,522.075 478.378,533.772 477.881,555.84L477.881,555.94C476.781,557.005 469.903,558.84 466.787,558.657C456.787,558.057 425.894,551.275 424.587,550.987" style="fill:rgb(207,215,233);fill-rule:nonzero;"/>
                        </g>
                        <g id="Tracé_1858" transform="matrix(1,0,0,1,-489.859,-387.022)">
                            <path d="M618.143,477.1L623.963,473.5L622.827,465.077L616.183,462.984L609.274,462.094L604.707,469.262L608.48,474.969L584.88,546.416L594.051,563.572L609.577,551.85L618.143,477.1Z" style="fill:rgb(134,154,201);fill-rule:nonzero;"/>
                        </g>
                        <g id="Tracé_1859" transform="matrix(1,0,0,1,-651.259,-361.29)">
                            <path d="M792.717,431.37L777.583,437.251L782.2,439.3L781.662,460.2L799,442.761L792.717,431.37Z" style="fill:rgb(231,235,244);fill-rule:nonzero;"/>
                        </g>
                        <g id="Tracé_1860" transform="matrix(1,0,0,1,-539.121,-331.339)">
                            <path d="M654.178,395.609L665.445,407.3L660.396,407.224L652.112,426.417L643.694,403.311L654.178,395.609Z" style="fill:rgb(231,235,244);fill-rule:nonzero;"/>
                        </g>
                        <g id="Tracé_1861" transform="matrix(1,0,0,1,-232.438,-383.021)">
                            <path d="M309.928,458.048C306.728,459.578 301.052,462.93 300.254,465.221C299.456,467.512 282.497,515.921 277.932,529.23C274.067,542.175 298.94,547.805 301.273,544.508C303.606,541.211 323.673,490.889 323.673,490.889L319.967,457.989C319.967,457.989 313.302,456.43 309.924,458.045" style="fill:rgb(41,37,59);fill-rule:nonzero;"/>
                        </g>
                        <g id="Tracé_1862" transform="matrix(1,0,0,1,-556.636,-405.494)">
                            <path d="M725.788,499.884L702.822,484.148L681.932,542.206L664.605,616.278C672.825,624.999 691.157,626.653 693.658,624.604C696.159,622.555 696.628,605.214 696.918,601.926C699.98,567.151 714.366,532.475 714.366,532.475C714.366,532.475 725.474,508.407 725.788,499.886" style="fill:rgb(41,37,59);fill-rule:nonzero;"/>
                        </g>
                        <g id="Tracé_1863" transform="matrix(1,0,0,1,-293.509,-361.224)">
                            <path d="M396.355,492.463L400.676,431.291L374.03,435.559C370.738,443.425 369.913,470.306 369.913,470.306C369.913,470.306 370.631,507.687 357.832,539.793C356.955,542.648 349.565,560.061 350.532,562.393C351.499,564.725 371.532,574.008 381.356,570.219L396.355,492.463Z" style="fill:rgb(41,37,59);fill-rule:nonzero;"/>
                        </g>
                        <g id="Tracé_1864" transform="matrix(1,0,0,1,-436.89,-690.392)">
                            <path d="M600.5,870.787C601.112,869.187 599.089,852.005 593.018,848.287C586.947,844.569 525.878,824.308 525.878,824.308C525.878,824.308 521.45,829.02 521.633,833.472C521.633,833.472 564.36,859.235 570.05,862.455C575.74,865.675 599.888,872.388 600.5,870.788" style="fill:rgb(240,178,151);fill-rule:nonzero;"/>
                        </g>
                        <g id="Tracé_1865" transform="matrix(1,0,0,1,-388.033,-654.255)">
                            <path d="M479.521,789.592C479.521,789.592 470.799,781.756 470.081,781.161L463.3,799.469L475.751,798.108L479.521,789.592Z" style="fill:rgb(240,178,151);fill-rule:nonzero;"/>
                        </g>
                        <g id="Tracé_1866" transform="matrix(1,0,0,1,-470.918,-688.904)">
                            <path d="M570.335,822.531L562.261,840.173C562.261,840.173 601.149,862.273 617.492,869.629C633.835,876.985 642.484,872.138 642.317,865.965C642.096,857.107 636.986,849.064 629.062,845.1C619.018,840.167 570.335,822.533 570.335,822.533" style="fill:rgb(41,37,59);fill-rule:nonzero;"/>
                        </g>
                        <g id="Tracé_1867" transform="matrix(1,0,0,1,-270.779,-710.302)">
                            <path d="M323.307,866.955C323.738,865.297 333.259,847.591 340.361,848.09C347.463,848.589 415.339,874.382 415.339,874.382C415.339,874.382 410.088,883.337 407.297,883.812C407.297,883.812 371.839,877.407 358.991,876.19C352.482,875.573 322.876,868.614 323.307,866.956" style="fill:rgb(240,178,151);fill-rule:nonzero;"/>
                        </g>
                        <g id="Tracé_1868" transform="matrix(1,0,0,1,-672.409,-817.302)">
                            <path d="M803.842,988.476C807.189,991.384 811.421,992.866 815.272,994.929C816.842,995.77 818.756,996.597 820.192,995.694C820.956,995.089 821.526,994.273 821.832,993.348C823.111,990.464 821.444,985.562 822.932,981.748C823.974,979.073 824.376,976.031 822.919,975.883C819.082,975.493 812.689,977.373 808.319,978.483C807.688,978.645 807.115,978.983 806.668,979.458C804.896,981.326 801.004,986.004 803.843,988.471" style="fill:rgb(240,178,151);fill-rule:nonzero;"/>
                        </g>
                        <g id="Tracé_1869" transform="matrix(1,0,0,1,-755.48,-836.112)">
                            <path d="M903.566,1003.77C906.821,1004.67 910.184,1005.12 913.561,1005.1C915.634,1005.07 918.169,1003.84 924.874,1001.6C927.367,1000.77 924.731,998.481 922.154,999.036C919.605,999.723 916.995,1000.16 914.361,1000.35C910.601,1000.72 907.667,998.543 904.086,998.299C901.677,998.135 901.206,1003.19 903.565,1003.77" style="fill:rgb(240,178,151);fill-rule:nonzero;"/>
                        </g>
                        <g id="Tracé_1870" transform="matrix(1,0,0,1,-748.853,-859.425)">
                            <path d="M897.292,1030.91C902.967,1031.75 904.764,1032.77 908.53,1032.63C911.39,1032.52 912.962,1031.69 917.669,1031C920.898,1030.52 919.789,1027.28 916.569,1027.76C914.418,1028.15 912.234,1028.34 910.046,1028.33C905.212,1028.59 900.72,1026.45 895.946,1026.13C892.732,1025.92 894.1,1030.43 897.297,1030.91" style="fill:rgb(240,178,151);fill-rule:nonzero;"/>
                        </g>
                        <g id="Tracé_1871" transform="matrix(1,0,0,1,-739.195,-872.962)">
                            <path d="M885.275,1047.2C889.821,1049.15 894.256,1050.53 896.591,1050.65C900.295,1050.24 903.957,1049.51 907.533,1048.47C909.733,1047.64 908.539,1045.7 906.479,1045.93C903.088,1046.33 899.674,1046.51 896.259,1046.46C891.429,1046.23 884.559,1042.33 884.559,1042.33C881.395,1041.8 882.294,1045.92 885.272,1047.2" style="fill:rgb(240,178,151);fill-rule:nonzero;"/>
                        </g>
                        <g id="Tracé_1872" transform="matrix(1,0,0,1,-737.102,-893.006)">
                            <path d="M881.809,1071.52C884.204,1072.46 886.689,1073.17 889.225,1073.62C890.071,1073.83 893.288,1073.96 895.225,1074.32C896.267,1074.52 899.266,1074.61 899.266,1074.61C899.594,1074.39 899.79,1074.02 899.79,1073.62C899.79,1073.03 899.359,1072.52 898.778,1072.43C897.525,1072.21 895.17,1071.88 892.507,1071.23C888.729,1070.3 885.587,1067.75 881.988,1066.33C879.566,1065.38 879.382,1070.56 881.81,1071.51" style="fill:rgb(240,178,151);fill-rule:nonzero;"/>
                        </g>
                        <g id="Tracé_1873" transform="matrix(1,0,0,1,-716.864,-807.008)">
                            <path d="M855.914,968.276C855.914,968.276 860.53,965.126 864.457,964.466C867.607,963.846 870.812,963.553 874.022,963.592C876.773,963.925 874.892,967.6 871.188,968.104C869.294,968.381 867.56,969.328 866.304,970.772L855.914,968.276Z" style="fill:rgb(240,178,151);fill-rule:nonzero;"/>
                        </g>
                        <g id="Tracé_1874" transform="matrix(1,0,0,1,-255.879,-690.377)">
                            <path d="M383.07,865.236L391.299,846.981C391.299,846.981 330.607,826.49 325.442,824.667C320.277,822.844 309.958,827.855 307.289,834.616C304.62,841.377 304.271,847.257 311.142,850.399C318.013,853.541 383.071,865.236 383.071,865.236" style="fill:rgb(41,37,59);fill-rule:nonzero;"/>
                        </g>
                        <g id="Tracé_1875" transform="matrix(1,0,0,1,-595.063,-56.169)">
                            <path d="M751.213,112.681C752.076,103.25 754.527,97.748 756.039,92.297C757.119,88.213 758.207,81.238 753.452,75.097C748.752,68.716 736.977,65.105 726.204,68.174C715.355,71.248 709.344,77.603 710.668,84.824C711.338,89.148 711.968,95.13 712.699,99.591C713.304,103.3 712.181,107.021 713.558,110.633C716.122,116.847 727.446,126.299 735.221,126.287C741.575,126.278 750.612,116.795 751.212,112.68" style="fill:rgb(240,178,151);fill-rule:nonzero;"/>
                        </g>
                        <g transform="matrix(1,0,0,1,-714.399,-231.266)">
                            <g id="Groupe_318">
                                <g id="Groupe_317">
                                    <g id="Groupe_316">
                                        <path id="Tracé_1876" d="M853.157,277.461C853.22,277.641 853.297,277.816 853.389,277.983C853.463,278.158 853.586,278.307 853.743,278.414C853.902,278.499 854.143,278.439 854.329,278.167C854.431,278.011 854.495,277.833 854.514,277.648C854.537,277.426 854.511,277.202 854.438,276.991C854.363,276.782 854.242,276.592 854.085,276.435C853.954,276.305 853.794,276.209 853.618,276.155C853.305,276.067 853.082,276.176 853.013,276.345C852.96,276.529 852.96,276.723 853.013,276.907C853.047,277.095 853.096,277.28 853.161,277.46" style="fill:rgb(242,242,242);fill-rule:nonzero;"/>
                                    </g>
                                </g>
                            </g>
                        </g>
                        <g id="Tracé_1877" transform="matrix(1,0,0,1,-720.127,-227.117)">
                            <path d="M860.861,273.95C860.891,273.82 860.916,273.705 860.937,273.601C860.958,273.497 860.972,273.407 860.985,273.316C860.998,273.21 861.003,273.102 860.999,272.995C860.999,272.875 860.981,272.741 860.963,272.605C860.918,272.344 860.897,272.079 860.899,271.814C860.893,271.609 860.971,271.409 861.113,271.261C861.223,271.148 861.404,271.141 861.523,271.243C861.718,271.403 861.877,271.603 861.99,271.828C862.194,272.185 862.322,272.58 862.365,272.989C862.386,273.231 862.37,273.476 862.316,273.713C862.262,273.946 862.182,274.172 862.077,274.386C861.98,274.587 861.866,274.78 861.736,274.961C861.62,275.124 861.493,275.279 861.357,275.425C861.143,275.656 860.912,275.87 860.666,276.065C860.266,276.376 860.023,276.489 859.89,276.275C859.757,276.061 859.777,275.826 859.99,275.466C860.096,275.286 860.253,275.078 860.425,274.828C860.516,274.696 860.6,274.56 860.676,274.419C860.754,274.27 860.815,274.112 860.857,273.949" style="fill:rgb(209,120,94);fill-rule:nonzero;"/>
                        </g>
                        <g id="Tracé_1878" transform="matrix(1,0,0,1,-752.672,-190.322)">
                            <path d="M899.369,227.468C900.422,227.227 901.509,227.174 902.58,227.314C903.657,227.452 904.701,227.779 905.664,228.28C906.624,228.789 906.2,229.763 905.242,229.534C904.301,229.302 903.349,229.122 902.388,228.996C901.428,228.872 900.462,228.803 899.495,228.789C898.513,228.767 898.322,227.719 899.368,227.469" style="fill:rgb(26,26,26);fill-rule:nonzero;"/>
                        </g>
                        <g id="Tracé_1879" transform="matrix(1,0,0,1,-654.316,-190.217)">
                            <path d="M788.034,227.3C786.976,227.084 785.887,227.058 784.82,227.224C783.746,227.387 782.709,227.739 781.758,228.264C780.81,228.796 781.258,229.764 782.208,229.507C783.143,229.252 784.091,229.049 785.049,228.9C786.005,228.753 786.969,228.66 787.936,228.623C788.917,228.577 789.085,227.523 788.036,227.3" style="fill:rgb(26,26,26);fill-rule:nonzero;"/>
                        </g>
                        <g id="Tracé_1880" transform="matrix(1,0,0,1,-661.564,-208.434)">
                            <path d="M794.29,253.549L794.273,251.043C794.265,249.846 793.277,248.865 792.08,248.865C790.877,248.865 789.887,249.855 789.887,251.059C789.887,251.064 789.887,251.069 789.887,251.074L789.904,253.58C789.912,254.786 794.298,254.756 794.29,253.55" style="fill:rgb(26,26,26);fill-rule:nonzero;"/>
                        </g>
                        <g id="Tracé_1881" transform="matrix(1,0,0,1,-761.974,-208.288)">
                            <path d="M909.773,253.38L909.783,250.874C909.788,249.674 910.776,248.69 911.976,248.69C913.179,248.69 914.169,249.68 914.169,250.883C914.169,250.886 914.169,250.889 914.169,250.892L914.159,253.398C914.154,254.604 909.768,254.586 909.773,253.38" style="fill:rgb(26,26,26);fill-rule:nonzero;"/>
                        </g>
                        <g id="Tracé_1882" transform="matrix(1,0,0,1,-697.056,-269.326)">
                            <path d="M832.622,324C836.425,325.529 840.77,324.902 843.986,322.361C844.475,321.973 843.786,321.292 843.299,321.676C840.327,323.967 836.346,324.497 832.878,323.064C832.62,322.993 832.349,323.146 832.278,323.404C832.214,323.661 832.364,323.927 832.618,324.004" style="fill:rgb(163,57,57);fill-rule:nonzero;"/>
                        </g>
                        <g id="Tracé_1883" transform="matrix(1,0,0,1,-574.205,0.002)">
                            <path d="M726.1,33.4C723.67,33.051 721.49,31.711 720.082,29.7C718.402,27.042 720.023,23.343 717.608,22.616C713.776,21.462 706.169,25.046 702.767,23.093C702.063,22.689 701.458,22.132 700.997,21.464C700.091,22.639 699.023,23.68 697.825,24.555C695.733,26.193 693.425,28.079 693.292,30.561C693.208,32.086 693.982,33.529 694.404,35.01C695.204,37.819 692.968,46.23 692.968,46.23C691.475,43.952 690.203,41.537 689.168,39.017C688.468,36.917 688.802,34.655 688.281,32.517C687.721,30.223 686.202,28.175 685.73,25.866C685.246,23.137 686.19,20.342 688.23,18.466C688.056,17.189 688.034,15.895 688.165,14.613C688.411,11.758 689.872,9.142 692.173,7.434C694.427,5.875 697.31,5.523 699.873,6.495C704.108,2.827 709.089,-0.5 714.788,0.06C719.918,0.567 723.929,4.132 728.654,5.987C731.421,7.073 734.438,7.568 737.234,8.593C740.03,9.618 742.734,11.354 743.685,13.919C744.142,15.245 744.007,16.706 743.315,17.926C744.119,18.478 744.703,19.295 744.966,20.234C745.456,22.216 744.555,24.254 743.484,26.046C742.413,27.838 737.784,30.236 737.423,32.241C737.016,34.505 731.382,48.362 731.382,48.362L732.311,33.599C730.239,33.774 728.153,33.707 726.096,33.399" style="fill:rgb(44,30,28);fill-rule:nonzero;"/>
                        </g>
                        <g id="Tracé_1884" transform="matrix(1,0,0,1,-582.224,-201.44)">
                            <path d="M705.533,254.322C704.369,254.6 703.143,254.444 702.086,253.884C701.053,253.329 700.111,252.618 699.295,251.776C697.076,249.645 695.012,246.959 695.165,243.945C695.169,242.915 695.595,241.931 696.343,241.224C697.357,240.464 698.699,240.293 699.871,240.775C701.009,241.26 701.97,242.084 702.621,243.136L705.533,254.322Z" style="fill:rgb(240,178,151);fill-rule:nonzero;"/>
                        </g>
                        <g id="Tracé_1885" transform="matrix(1,0,0,1,-776.721,-1244.75)">
                            <path d="M1022.87,1489.67L928.449,1489.67C927.678,1489.67 927.22,1488.88 927.432,1487.93C927.587,1487.03 928.311,1486.32 929.218,1486.19L1023.64,1486.19C1024.41,1486.19 1024.87,1486.98 1024.66,1487.93C1024.5,1488.83 1023.78,1489.54 1022.87,1489.67" style="fill:rgb(219,218,225);fill-rule:nonzero;"/>
                        </g>
                        <g id="Tracé_1886" transform="matrix(1,0,0,1,-574.371,-929.936)">
                            <path d="M706.961,1174.7L779.731,1174.7C781.541,1174.7 783.168,1173.04 782.713,1171.65L763.15,1111.98C762.709,1110.89 761.597,1110.21 760.423,1110.31L690.371,1110.31C687.656,1110.31 685.215,1112.81 685.897,1114.89L705.143,1173.59C705.437,1174.32 706.178,1174.77 706.961,1174.7" style="fill:rgb(219,218,225);fill-rule:nonzero;"/>
                        </g>
                        <g id="Tracé_1887" transform="matrix(1,0,0,1,-567.13,-929.936)">
                            <path d="M697.149,1174.84L770.066,1174.84C771.88,1174.84 773.51,1173.17 773.055,1171.78L753.455,1111.99C753.013,1110.89 751.899,1110.21 750.722,1110.32L680.525,1110.32C680.448,1110.31 680.371,1110.31 680.294,1110.31C678.542,1110.31 677.1,1111.75 677.1,1113.5C677.1,1113.9 677.177,1114.3 677.325,1114.68L695.325,1173.72C695.621,1174.45 696.363,1174.9 697.147,1174.84" style="fill:rgb(107,105,121);fill-rule:nonzero;"/>
                        </g>
                        <g id="Rectangle_295" transform="matrix(1,0,0,1,38.982,244.899)">
                            <rect x="0" y="0" width="296.926" height="6.664" style="fill:rgb(165,163,180);"/>
                        </g>
                        <g id="Rectangle_296" transform="matrix(1,0,0,1,56.65,251.562)">
                            <rect x="0" y="0" width="261.589" height="3.957" style="fill:rgb(107,105,121);"/>
                        </g>
                        <g id="Tracé_1888" transform="matrix(1,0,0,1,-338.784,-1310.77)">
                            <path d="M404.5,1565.02L404.5,1721.17L439.472,1721.17L439.472,1612.56L615.372,1612.56L615.372,1721.17L650.344,1721.17L650.344,1565.02L404.5,1565.02Z" style="fill:rgb(107,105,121);fill-rule:nonzero;"/>
                        </g>
                        <g id="Tracé_1889" transform="matrix(1,0,0,1,-1565.42,-45.842)">
                            <path d="M1936.13,88.269C1936.13,106.666 1921,121.804 1902.6,121.804C1884.2,121.804 1869.07,106.666 1869.07,88.269C1869.07,69.872 1884.2,54.734 1902.6,54.734C1921,54.734 1936.13,69.872 1936.13,88.269" style="fill:rgb(207,215,233);fill-rule:nonzero;"/>
                        </g>
                        <g id="Tracé_1890" transform="matrix(1,0,0,1,-1551.9,-32.321)">
                            <path d="M1889.08,110.906C1869.24,110.906 1852.92,94.584 1852.92,74.748C1852.92,54.912 1869.24,38.59 1889.08,38.59C1908.91,38.59 1925.23,54.912 1925.23,74.748C1925.23,74.749 1925.23,74.749 1925.23,74.75C1925.21,94.576 1908.9,110.883 1889.08,110.906M1889.08,41.918C1889.08,41.918 1889.08,41.918 1889.07,41.918C1871.06,41.918 1856.24,56.739 1856.24,74.75C1856.24,92.761 1871.06,107.582 1889.07,107.582C1907.09,107.582 1921.91,92.761 1921.91,74.75C1921.89,56.747 1907.08,41.939 1889.08,41.918" style="fill:rgb(41,37,59);fill-rule:nonzero;"/>
                        </g>
                        <g id="Tracé_1891" transform="matrix(1,0,0,1,-1731.51,-68.172)">
                            <path d="M2070.01,82.714C2070.01,82.715 2070.01,82.715 2070.01,82.716C2070.01,83.44 2069.41,84.036 2068.69,84.036C2067.97,84.036 2067.37,83.44 2067.37,82.716C2067.37,81.992 2067.97,81.396 2068.69,81.396C2068.69,81.396 2068.69,81.396 2068.69,81.396C2069.41,81.396 2070.01,81.991 2070.01,82.714" style="fill:rgb(41,37,59);fill-rule:nonzero;"/>
                        </g>
                        <g id="Tracé_1892" transform="matrix(1,0,0,1,-1731.51,-359.383)">
                            <path d="M2070.01,430.412C2070.01,431.136 2069.41,431.732 2068.69,431.732C2067.97,431.732 2067.37,431.136 2067.37,430.412C2067.37,429.688 2067.97,429.092 2068.69,429.092L2068.69,429.092C2069.41,429.092 2070.01,429.687 2070.01,430.41C2070.01,430.411 2070.01,430.411 2070.01,430.412" style="fill:rgb(41,37,59);fill-rule:nonzero;"/>
                        </g>
                        <g id="Tracé_1893" transform="matrix(1,0,0,1,-1877.8,-204.218)">
                            <path d="M2244.68,245.15C2244.68,245.874 2244.08,246.47 2243.36,246.47C2242.63,246.47 2242.04,245.874 2242.04,245.15C2242.04,244.426 2242.63,243.83 2243.36,243.83L2243.36,243.83C2244.08,243.83 2244.68,244.425 2244.68,245.148C2244.68,245.149 2244.68,245.149 2244.68,245.15" style="fill:rgb(41,37,59);fill-rule:nonzero;"/>
                        </g>
                        <g id="Tracé_1894" transform="matrix(1,0,0,1,-1582.26,-211.924)">
                            <path d="M1891.81,254.353C1891.81,255.076 1891.21,255.671 1890.49,255.671C1889.77,255.671 1889.17,255.075 1889.17,254.351C1889.17,253.627 1889.77,253.031 1890.49,253.031L1890.49,253.031C1891.22,253.031 1891.81,253.626 1891.81,254.349C1891.81,254.35 1891.81,254.352 1891.81,254.353" style="fill:rgb(41,37,59);fill-rule:nonzero;"/>
                        </g>
                        <g id="Tracé_1895" transform="matrix(1,0,0,1,-1721.44,-204.463)">
                            <path d="M2063.02,247.96C2063.02,247.961 2063.02,247.961 2063.02,247.962C2063.02,250.068 2061.29,251.801 2059.18,251.801C2057.08,251.801 2055.34,250.068 2055.34,247.962C2055.34,245.856 2057.08,244.123 2059.18,244.123C2059.18,244.123 2059.18,244.123 2059.18,244.123C2061.29,244.123 2063.02,245.855 2063.02,247.96" style="fill:rgb(41,37,59);fill-rule:nonzero;"/>
                        </g>
                        <g id="Tracé_1896" transform="matrix(1,0,0,1,-1698.97,-147.483)">
                            <path d="M2036.66,189.811C2036.7,189.939 2036.72,190.072 2036.72,190.205C2036.72,190.933 2036.12,191.532 2035.39,191.532C2034.92,191.532 2034.47,191.274 2034.24,190.857L2028.61,177.82C2028.57,177.692 2028.55,177.56 2028.55,177.426C2028.55,176.697 2029.15,176.098 2029.88,176.098C2030.36,176.098 2030.8,176.356 2031.03,176.772L2036.66,189.811Z" style="fill:rgb(41,37,59);fill-rule:nonzero;"/>
                        </g>
                        <g id="Tracé_1897" transform="matrix(1,0,0,1,-1741.23,-151.833)">
                            <path d="M2080.72,195.761C2080.59,195.804 2080.45,195.826 2080.31,195.826C2079.6,195.826 2079.01,195.239 2079.01,194.526C2079.01,194.163 2079.17,193.816 2079.43,193.57L2100.14,181.405C2100.28,181.361 2100.41,181.339 2100.55,181.339C2101.27,181.339 2101.85,181.926 2101.85,182.639C2101.85,183.004 2101.7,183.353 2101.43,183.599L2080.72,195.761Z" style="fill:rgb(41,37,59);fill-rule:nonzero;"/>
                        </g>
                    </g>
                </g>
            </g>
        </g>
    </g>
</svg>
