<?xml version="1.0" encoding="UTF-8" standalone="no"?>
<!DOCTYPE svg PUBLIC "-//W3C//DTD SVG 1.1//EN" "http://www.w3.org/Graphics/SVG/1.1/DTD/svg11.dtd">
<svg width="100%" height="100%" viewBox="0 0 1921 154" version="1.1" xmlns="http://www.w3.org/2000/svg" xmlns:xlink="http://www.w3.org/1999/xlink" xml:space="preserve" xmlns:serif="http://www.serif.com/" style="fill-rule:evenodd;clip-rule:evenodd;stroke-linejoin:round;stroke-miterlimit:2;">
    <g transform="matrix(1,0,0,1,-23713.6,-4712.25)">
        <g transform="matrix(1,0,0,1,23881.6,1627.46)">
            <g id="Ellipse_21" transform="matrix(1,0,0,1,-209,3084.79)">
                <path d="M1022.5,0C1443.41,0 1805.26,29.788 1962,72.294L1962,153.083L41,153.083L41,85.917C165.286,36.29 557.917,0 1022.5,0Z" style="fill:rgb(83,60,168);"/>
            </g>
            <g id="Groupe_324" transform="matrix(1,0,0,1,754.117,3117.16)">
                <g id="Groupe_323">
                    <g id="Tracé_1898" transform="matrix(1,0,0,1,0,-147.63)">
                        <path d="M0,185.172C0.229,185.431 0.229,185.823 0,186.082L0,185.172Z" style="fill:rgb(64,17,119);fill-rule:nonzero;"/>
                    </g>
                    <g id="Tracé_1899" transform="matrix(1,0,0,1,-147.944,-305.035)">
                        <path d="M185.565,382.777C185.823,382.548 186.217,382.548 186.475,382.777L185.565,382.777Z" style="fill:rgb(64,17,119);fill-rule:nonzero;"/>
                    </g>
                    <g id="Tracé_1900" transform="matrix(1,0,0,1,-153.91,-305.05)">
                        <path d="M193.048,382.791C193.145,382.683 193.282,382.622 193.427,382.622C193.572,382.622 193.709,382.683 193.806,382.791L193.048,382.791Z" style="fill:rgb(64,17,119);fill-rule:nonzero;"/>
                    </g>
                    <g id="Tracé_1901" transform="matrix(1,0,0,1,0,-143.849)">
                        <path d="M0.132,180.472C0.152,180.645 0.195,180.824 0,180.935L0,180.48C0.04,180.413 0.084,180.411 0.132,180.472" style="fill:rgb(64,17,119);fill-rule:nonzero;"/>
                    </g>
                    <g id="Tracé_1902" transform="matrix(1,0,0,1,0,-159.959)">
                        <path d="M0.125,200.7C0.125,200.851 0.127,201.001 0.132,201.152C0.085,201.212 0.041,201.209 0,201.144L0,200.689C0.048,200.62 0.09,200.62 0.125,200.7" style="fill:rgb(64,17,119);fill-rule:nonzero;"/>
                    </g>
                    <g id="Tracé_1903" transform="matrix(1,0,0,1,-143.552,-305.125)">
                        <path d="M180.1,382.736C180.272,382.717 180.453,382.668 180.563,382.867L180.108,382.867C180.061,382.84 180.044,382.812 180.057,382.782C180.071,382.751 180.085,382.736 180.1,382.736" style="fill:rgb(64,17,119);fill-rule:nonzero;"/>
                    </g>
                    <g id="Tracé_1904" transform="matrix(1,0,0,1,-159.875,-305.125)">
                        <path d="M200.53,382.867C200.64,382.667 200.821,382.717 200.993,382.736C201.037,382.768 201.05,382.798 201.033,382.826C201.016,382.854 201.001,382.867 200.985,382.867L200.53,382.867Z" style="fill:rgb(64,17,119);fill-rule:nonzero;"/>
                    </g>
                    <g id="Tracé_1905" transform="matrix(1,0,0,1,0,-142.857)">
                        <path d="M0.132,179.48C0.088,179.485 0.044,179.487 0,179.488L0,179.188C0.185,179.224 0.146,179.359 0.132,179.488" style="fill:rgb(64,17,119);fill-rule:nonzero;"/>
                    </g>
                    <g id="Tracé_1906" transform="matrix(1,0,0,1,0,-158.964)">
                        <path d="M0.125,199.7C0.083,199.7 0.042,199.693 0,199.689L0,199.389C0.117,199.444 0.172,199.583 0.125,199.704" style="fill:rgb(64,17,119);fill-rule:nonzero;"/>
                    </g>
                    <g id="Tracé_1907" transform="matrix(1,0,0,1,0,-161.948)">
                        <path d="M0,203.13C0.044,203.13 0.088,203.133 0.132,203.138C0.146,203.262 0.186,203.398 0,203.438L0,203.13Z" style="fill:rgb(64,17,119);fill-rule:nonzero;"/>
                    </g>
                    <g id="Tracé_1908" transform="matrix(1,0,0,1,-142.575,-305.143)">
                        <path d="M179.126,382.754C179.133,382.797 179.135,382.841 179.134,382.885L178.834,382.885C178.869,382.698 179.005,382.739 179.134,382.754" style="fill:rgb(64,17,119);fill-rule:nonzero;"/>
                    </g>
                    <g id="Tracé_1909" transform="matrix(1,0,0,1,-161.662,-305.143)">
                        <path d="M202.773,382.884C202.771,382.84 202.774,382.796 202.781,382.753C202.905,382.738 203.042,382.697 203.081,382.884L202.773,382.884Z" style="fill:rgb(64,17,119);fill-rule:nonzero;"/>
                    </g>
                    <path id="Tracé_1910" d="M77.514,33.669C76.487,25.864 73.087,18.56 67.775,12.75C63.766,8.259 58.752,4.778 53.143,2.592C49.468,1.071 45.552,0.213 41.578,0.058C38.654,-0.105 35.721,-0.01 32.814,0.342C21.665,2.093 11.805,8.593 5.8,18.149C3.435,21.9 1.724,26.025 0.741,30.349C0.381,32.122 0.133,33.916 0,35.721L0,36.328C0.1,36.421 0.071,36.546 0.078,36.662C0.062,36.805 0.123,36.962 0,37.086L0,37.541C0.124,37.832 0.124,38.16 0,38.451L0,40.423C0.105,40.523 0.07,40.649 0.078,40.768C0.086,40.887 0.078,41.015 0.078,41.138C0.078,41.261 0.105,41.387 0,41.484L0,42.091C0.049,42.146 0.076,42.217 0.077,42.291C0.143,44.59 0.508,46.87 1.161,49.075C3.256,56.901 7.761,63.874 14.035,69C19.325,73.413 25.706,76.324 32.506,77.427C33.55,77.603 34.606,77.546 35.649,77.74L36.256,77.74C36.349,77.64 36.474,77.669 36.59,77.662C36.733,77.678 36.89,77.617 37.014,77.74L37.621,77.74C37.912,77.616 38.24,77.616 38.531,77.74L39.138,77.74C39.376,77.616 39.659,77.616 39.897,77.74L40.655,77.74C40.778,77.617 40.936,77.677 41.079,77.662C41.195,77.669 41.32,77.638 41.413,77.74L41.868,77.74C42.636,77.605 43.421,77.665 44.188,77.563C47.476,77.131 50.69,76.26 53.747,74.975C59.42,72.614 64.457,68.948 68.447,64.275C71.08,61.228 73.216,57.786 74.779,54.075C76.512,50.132 77.498,45.902 77.686,41.599C77.848,38.952 77.791,36.297 77.515,33.66M38.824,68.033C22.85,68.028 9.708,54.881 9.708,38.907C9.708,22.929 22.856,9.781 38.834,9.781C54.812,9.781 67.96,22.929 67.96,38.907C67.96,38.916 67.96,38.924 67.96,38.933C67.917,54.894 54.785,68.01 38.824,68.033" style="fill:rgb(64,17,119);fill-rule:nonzero;"/>
                    <g id="Tracé_1911" transform="matrix(1,0,0,1,-133.616,-133.917)">
                        <path d="M177.3,180.948C177.3,183.678 177.326,186.408 177.292,189.137C177.238,191.756 175.069,193.882 172.449,193.882C170.343,193.882 168.467,192.508 167.831,190.5C167.665,189.969 167.585,189.415 167.592,188.859C167.592,183.576 167.592,178.293 167.597,173.011C167.593,172.933 167.591,172.856 167.591,172.778C167.591,170.115 169.783,167.923 172.446,167.923C175.11,167.923 177.301,170.115 177.301,172.778C177.301,172.847 177.3,172.916 177.297,172.985C177.308,175.639 177.297,178.293 177.297,180.947L177.3,180.948Z" style="fill:rgb(64,17,119);fill-rule:nonzero;"/>
                    </g>
                    <g id="Tracé_1912" transform="matrix(1,0,0,1,-133.632,-69.956)">
                        <path d="M167.616,93.177C167.616,90.37 168.916,88.501 171.31,87.893C171.694,87.797 172.088,87.748 172.483,87.748C174.99,87.748 177.103,89.7 177.3,92.2C177.391,93.055 177.358,93.919 177.2,94.764C176.719,96.986 174.736,98.586 172.463,98.586C169.849,98.586 167.681,96.472 167.617,93.859C167.611,93.632 167.617,93.404 167.617,93.177" style="fill:rgb(64,17,119);fill-rule:nonzero;"/>
                    </g>
                </g>
            </g>
        </g>
    </g>
</svg>
