<?xml version="1.0" encoding="UTF-8" standalone="no"?>
<!DOCTYPE svg PUBLIC "-//W3C//DTD SVG 1.1//EN" "http://www.w3.org/Graphics/SVG/1.1/DTD/svg11.dtd">
<svg width="100%" height="100%" viewBox="0 0 52 52" version="1.1" xmlns="http://www.w3.org/2000/svg" xmlns:xlink="http://www.w3.org/1999/xlink" xml:space="preserve" xmlns:serif="http://www.serif.com/" style="fill-rule:evenodd;clip-rule:evenodd;stroke-linejoin:round;stroke-miterlimit:2;">
    <g transform="matrix(1,0,0,1,-1050.73,-675.372)">
        <g transform="matrix(1,0,0,1,-6649,171)">
            <g transform="matrix(1.04898,0,0,1.04898,6503.89,-287.608)">
                <rect x="1140" y="755" width="49" height="49" style="fill:none;"/>
                <clipPath id="_clip1">
                    <rect x="1140" y="755" width="49" height="49"/>
                </clipPath>
                <g clip-path="url(#_clip1)">
                    <g transform="matrix(1.38586,0,0,1.38586,183.138,686.029)">
                        <path d="M716.361,69.645L717.343,63.242L711.199,63.242L711.199,59.087C711.199,57.335 712.057,55.627 714.809,55.627L717.602,55.627L717.602,50.176C717.602,50.176 715.068,49.743 712.644,49.743C707.583,49.743 704.277,52.81 704.277,58.362L704.277,63.242L698.652,63.242L698.652,69.645L704.277,69.645L704.277,85.125L711.199,85.125L711.199,69.645L716.361,69.645Z" style="fill:white;fill-rule:nonzero;"/>
                    </g>
                </g>
            </g>
        </g>
    </g>
</svg>
