<?xml version="1.0" encoding="UTF-8" standalone="no"?>
<!DOCTYPE svg PUBLIC "-//W3C//DTD SVG 1.1//EN" "http://www.w3.org/Graphics/SVG/1.1/DTD/svg11.dtd">
<svg width="100%" height="100%" viewBox="0 0 576 241" version="1.1" xmlns="http://www.w3.org/2000/svg" xmlns:xlink="http://www.w3.org/1999/xlink" xml:space="preserve" xmlns:serif="http://www.serif.com/" style="fill-rule:evenodd;clip-rule:evenodd;stroke-linejoin:round;stroke-miterlimit:2;">
    <g transform="matrix(1,0,0,1,-65303.4,-3348.13)">
        <g transform="matrix(1,0,0,1,64080.4,2790.15)">
            <g transform="matrix(1,0,0,1,1223,557.974)">
                <g id="Groupe_368">
                    <g id="Groupe_367">
                        <g id="Tracé_2026" transform="matrix(1,0,0,1,0,0.005)">
                            <path d="M564.184,240.021L458.352,239.76L409.946,239.64L399.551,239.614L361.857,239.522L315.918,239.409L276.095,239.309L273.839,239.303L263.339,239.277L171.195,239.05L124.935,238.934L120.571,238.923L95.224,238.861L29.172,238.7C29.172,238.7 -52.763,83.615 58,26.2C200.686,-47.769 302.438,58.8 357.1,54.759C437.486,48.82 594.8,3.859 564.191,240.024" style="fill:rgb(235,243,250);fill-rule:nonzero;"/>
                        </g>
                        <g id="Tracé_2027" transform="matrix(1,0,0,1,-1622.62,-320.806)">
                            <path d="M2018.21,435.606C2018.21,435.606 2045.41,394.072 2057.05,399.506C2068.7,404.94 2018.21,435.606 2018.21,435.606" style="fill:rgb(223,235,253);fill-rule:nonzero;"/>
                        </g>
                        <g id="Tracé_2028" transform="matrix(1,0,0,1,-1618.42,-357.425)">
                            <path d="M2012.98,479.226C2012.98,479.226 2071.28,434.754 2090.32,446.556C2109.36,458.358 2075.62,464.276 2062.88,465.446C2050.15,466.616 2012.98,479.226 2012.98,479.226" style="fill:rgb(223,235,253);fill-rule:nonzero;"/>
                        </g>
                        <g id="Tracé_2029" transform="matrix(1,0,0,1,-1592.35,-352.344)">
                            <path d="M1982.5,467.647C1982.5,467.647 1982.42,465.935 1982.28,463.436C1981.99,458.561 1981.45,450.691 1980.74,446.693C1979.67,440.646 1983.47,435.278 1990.17,440.119C1996.87,444.96 1984.14,465.533 1984.14,465.533L1982.5,467.647Z" style="fill:rgb(223,235,253);fill-rule:nonzero;"/>
                        </g>
                        <g id="Tracé_2030" transform="matrix(1,0,0,1,-585.292,-825.317)">
                            <path d="M778.833,1064.29L752.26,1064.21C751.429,1064.09 750.584,1064.08 749.753,1064.21L735.193,1064.17C730.003,1060.32 729.202,1048.62 729.202,1048.62C733.566,1051.72 743.154,1051.89 744.037,1050.32C744.92,1048.76 731.969,1044.7 730.124,1043.54C728.279,1042.38 726.079,1037.2 730.89,1029.88C735.701,1022.55 748.445,1029.51 748.445,1029.51C748.445,1029.51 753.045,1046.6 755.617,1047.81C758.189,1049.02 754.535,1032.43 754.535,1032.43C759.892,1033.63 771.035,1044.33 771.035,1044.33C771.035,1044.33 764.82,1060.47 767.61,1061.02C770.4,1061.56 772.383,1046.44 772.383,1046.44C776.914,1049.6 779.683,1057 779.683,1057C780.364,1059.44 780.057,1062.06 778.829,1064.29" style="fill:rgb(205,224,251);fill-rule:nonzero;"/>
                        </g>
                        <g id="Tracé_2031" transform="matrix(1,0,0,1,-260.584,-206.183)">
                            <path d="M327.842,262.117C334.514,250.655 354.342,260.127 354.342,260.127C354.342,260.127 362.69,285.571 366.672,287.194C370.654,288.817 363.782,264.047 363.782,264.047C371.974,265.421 389.689,280.679 389.689,280.679C389.689,280.679 381.614,305.573 385.874,306.166C390.134,306.759 391.899,283.759 391.899,283.759C398.999,288.159 403.79,299.108 403.79,299.108C408.857,316.208 386.631,321.836 386.631,321.836C385.045,328.475 385.079,335.399 386.731,342.022C387.279,343.873 387.652,345.771 387.846,347.691L385.74,347.125C385.72,346.514 385.677,345.917 385.608,345.336C385.609,345.333 385.609,345.329 385.608,345.326L385.608,345.301C385.551,344.937 385.468,344.418 385.362,343.784C385.256,343.15 385.362,343.784 385.362,343.784C385.062,342.351 384.873,341.303 384.778,340.557C384.778,340.555 384.778,340.552 384.778,340.55C383.913,336.077 382.521,330.177 380.958,328.598C381.231,328.349 381.47,328.065 381.669,327.753L380.958,328.598C375.275,335.355 356.899,331.798 347.409,327.034C337.919,322.27 343.059,320.617 349.704,317.473C356.349,314.329 367.356,318.588 371.189,317.686C375.022,316.784 370.613,313.665 363.778,312.379C356.943,311.093 351.794,316.889 340.7,315.011C329.606,313.133 326.835,290.57 326.835,290.57C333.681,294.896 348.182,294.377 349.389,291.94C350.596,289.503 330.696,284.428 327.813,282.824C324.93,281.22 321.184,273.585 327.856,262.124" style="fill:rgb(223,235,253);fill-rule:nonzero;"/>
                        </g>
                        <g id="Tracé_2032" transform="matrix(1,0,0,1,-884.622,-449.14)">
                            <path d="M1105.26,563.213C1113.01,552.538 1131.68,563.891 1131.68,563.891C1131.68,563.891 1137.39,589.901 1141.18,591.904C1144.96,593.907 1140.63,568.712 1140.63,568.712C1148.6,570.89 1164.6,587.757 1164.6,587.757C1164.6,587.757 1154.12,611.582 1158.28,612.594C1162.44,613.606 1166.48,591.025 1166.48,591.025C1173.07,596.084 1176.71,607.4 1176.71,607.4C1180.01,624.831 1157.46,628.174 1157.46,628.174C1155.23,634.584 1154.57,641.439 1155.54,648.157C1155.9,650.043 1156.08,651.958 1156.08,653.878L1154.05,653.107C1154.09,652.5 1154.11,651.907 1154.1,651.324C1154.1,651.321 1154.1,651.317 1154.1,651.314L1154.1,651.289C1154.08,650.923 1154.05,650.401 1154.01,649.763C1153.97,649.125 1154.01,649.763 1154.01,649.763C1153.85,648.315 1153.77,647.263 1153.75,646.513C1153.75,646.511 1153.75,646.508 1153.75,646.506C1153.34,641.994 1152.55,636.017 1151.17,634.298C1151.46,634.079 1151.73,633.821 1151.96,633.533L1151.17,634.298C1144.87,640.416 1127.04,635.058 1118.13,629.398C1109.21,623.738 1114.47,622.614 1121.35,620.167C1128.24,617.72 1138.71,623.034 1142.59,622.524C1146.47,622.014 1142.42,618.487 1135.79,616.533C1129.16,614.579 1123.48,619.799 1112.69,616.833C1101.9,613.867 1101.41,591.264 1101.41,591.264C1107.76,596.229 1122.15,597.164 1123.59,594.872C1125.03,592.58 1105.85,585.572 1103.15,583.697C1100.46,581.822 1097.52,573.897 1105.27,563.218" style="fill:rgb(223,235,253);fill-rule:nonzero;"/>
                        </g>
                        <g id="Tracé_2033" transform="matrix(1,0,0,1,-1063.72,-925.219)">
                            <path d="M1336.01,1150.78C1336.01,1150.78 1333.2,1160.63 1333.74,1164.46L1323.1,1164.43C1322.88,1161.94 1323.63,1159.46 1325.2,1157.52C1326.77,1155.58 1330.64,1151.87 1336.01,1150.78" style="fill:rgb(223,235,253);fill-rule:nonzero;"/>
                        </g>
                        <g id="Tracé_2034" transform="matrix(1,0,0,1,-1116.94,-900.333)">
                            <path d="M1429.58,1139.69L1389.24,1139.58C1390.84,1135.52 1391.28,1124.5 1391.28,1124.5C1391.28,1124.5 1405.66,1119.15 1411.01,1120.16C1411.01,1120.16 1401.14,1133.84 1403.96,1133.75C1406.78,1133.66 1417.71,1119.9 1417.71,1119.9C1417.71,1119.9 1432.06,1118.58 1433.56,1127.16C1434.9,1134.85 1431.78,1138.74 1429.58,1139.69" style="fill:rgb(223,235,253);fill-rule:nonzero;"/>
                        </g>
                        <g id="Tracé_2035" transform="matrix(1,0,0,1,-1473.29,-964.739)">
                            <path d="M1870.66,1204.32L1832.47,1204.22C1834.95,1203.16 1838.18,1202.16 1841.65,1200.98C1850.34,1198.01 1862.18,1202.1 1870.66,1204.32" style="fill:rgb(223,235,253);fill-rule:nonzero;"/>
                        </g>
                        <g id="Tracé_2036" transform="matrix(1,0,0,1,-1349.85,-662.629)">
                            <path d="M1766.62,902.369L1732.05,902.277C1732.77,900.747 1728.36,897.614 1721.98,895.649C1713.85,893.149 1706.8,899.481 1693.58,895.674C1680.36,891.867 1680.1,864.074 1680.1,864.074C1687.82,870.274 1705.51,871.635 1707.31,868.839C1709.11,866.043 1685.63,857.139 1682.35,854.799C1679.07,852.459 1675.57,842.663 1685.25,829.656C1694.93,816.649 1717.71,830.881 1717.71,830.881C1717.71,830.881 1724.36,862.94 1728.97,865.46C1733.59,867.98 1728.64,836.941 1728.64,836.941C1738.41,839.741 1757.83,860.709 1757.83,860.709C1757.83,860.709 1744.6,889.841 1749.69,891.147C1754.79,892.453 1760.09,864.754 1760.09,864.754C1768.12,871.07 1772.43,885.035 1772.43,885.035C1773.84,893.025 1770.89,898.564 1766.62,902.37" style="fill:rgb(223,235,253);fill-rule:nonzero;"/>
                        </g>
                        <g id="Tracé_2037" transform="matrix(1,0,0,1,-368.906,-607.034)">
                            <path d="M459.627,757.544C459.627,757.472 458.572,755.292 458.908,755.124C459.244,754.956 459.845,754.982 459.914,755.364C459.879,756.097 459.783,756.826 459.627,757.544" style="fill:rgb(255,178,125);fill-rule:nonzero;"/>
                        </g>
                        <g id="Tracé_2038" transform="matrix(1,0,0,1,-254.411,-488.707)">
                            <path d="M329.391,612.116C329.391,612.116 323.208,604.686 319.934,609.44C319.934,609.44 317.492,610.453 316.609,614.61C315.709,618.851 318.528,622.075 319.986,621.278C320.921,620.767 321.629,622.404 321.629,622.404L329.391,612.116Z" style="fill:rgb(35,56,98);fill-rule:nonzero;"/>
                        </g>
                        <g id="Tracé_2039" transform="matrix(1,0,0,1,-313.97,-576.724)">
                            <path d="M396.62,739.673C401.536,737.862 406.271,729.45 406.271,729.45L404.721,728.365C403.43,730.254 397.621,733.881 397.621,733.881C397.488,732.29 397.296,730.845 397.058,729.537C395.445,720.646 391.758,718.013 390.766,717.454C390.685,717.407 390.602,717.365 390.516,717.328C390.43,717.291 390.516,717.393 390.527,717.517C390.541,717.784 390.573,718.324 390.627,719.063C391.011,724.563 392.517,741.19 396.627,739.675" style="fill:rgb(255,178,125);fill-rule:nonzero;"/>
                        </g>
                        <g id="Tracé_2040" transform="matrix(1,0,0,1,-242.891,-481.931)">
                            <path d="M309.089,601.911C309.089,601.911 308.257,598.585 303.373,599.625C303.373,599.625 305.711,599.33 306.352,600.231C306.352,600.231 304.499,599.382 303.338,600.092C302.177,600.802 301.987,603.192 302.16,603.92C302.333,604.648 303.615,606.813 304.46,606.813C305.132,606.73 305.771,606.473 306.313,606.068L309.089,601.911Z" style="fill:rgb(35,56,98);fill-rule:nonzero;"/>
                        </g>
                        <g id="Tracé_2041" transform="matrix(1,0,0,1,-241.337,-544.464)">
                            <path d="M300.227,716.492C302.656,711.046 303.818,709.505 303.858,707.792C303.89,706.437 303.222,704.975 301.924,701.392C301.623,700.552 301.406,699.683 301.278,698.8C300.252,691.888 304.248,684.416 306.733,683.907C307.424,683.724 308.596,681.228 308.581,677.207L308.892,677.268L314.123,678.304C314.123,678.304 314.004,679.95 314,681.504C314,682.797 314.075,684.021 314.367,684.176C314.744,684.21 314.967,684.232 314.967,684.232C314.967,684.232 319.329,690.289 319.696,695.923C320.063,701.557 316.203,704.004 319.725,715.262C323.325,726.762 298.886,719.509 300.225,716.5" style="fill:rgb(255,178,125);fill-rule:nonzero;"/>
                        </g>
                        <g id="Tracé_2042" transform="matrix(1,0,0,1,-277.099,-544.715)">
                            <path d="M349.885,678.55C349.885,678.55 349.766,680.197 349.762,681.75C346.835,681.668 345.288,678.997 344.654,677.517L349.885,678.55Z" style="fill:rgb(232,148,91);fill-rule:nonzero;"/>
                        </g>
                        <g id="Tracé_2043" transform="matrix(1,0,0,1,-266.897,-498.292)">
                            <path d="M333.911,630.521C333.042,629.132 332.401,627.613 332.011,626.021C331.748,624.541 332.502,619.057 338.011,619.847C339.121,620.001 340.183,620.402 341.117,621.021C342.317,621.829 344.041,623.574 342.11,628.36L341.61,629.977L333.911,630.521Z" style="fill:rgb(35,56,98);fill-rule:nonzero;"/>
                        </g>
                        <g id="Tracé_2044" transform="matrix(1,0,0,1,-273.819,-507.053)">
                            <path d="M347.582,642.356C347.582,642.356 340.656,642.47 340.652,638.156C340.648,633.842 339.752,630.956 344.172,630.696C348.592,630.436 349.455,632.086 349.806,633.525C350.157,634.964 349.384,642.215 347.582,642.356" style="fill:rgb(255,178,125);fill-rule:nonzero;"/>
                        </g>
                        <g id="Tracé_2045" transform="matrix(1,0,0,1,-264.685,-503.13)">
                            <path d="M338.192,626.668C338.192,626.668 336.292,631.729 333.386,632.478C330.48,633.227 329.214,632.447 329.214,632.447C330.651,631.187 331.606,629.465 331.914,627.578C332.222,625.691 336.767,624.26 338.197,626.668" style="fill:rgb(35,56,98);fill-rule:nonzero;"/>
                        </g>
                        <g id="Tracé_2046" transform="matrix(1,0,0,1,-299.587,-505.028)">
                            <path d="M372.624,628.976C373.378,629.57 373.981,630.333 374.385,631.204C374.73,632.304 374.885,634.564 375.545,634.487C375.545,634.487 376.974,631.047 375.368,629.101C373.668,627.037 372.624,628.975 372.624,628.975" style="fill:rgb(35,56,98);fill-rule:nonzero;"/>
                        </g>
                        <g id="Tracé_2047" transform="matrix(1,0,0,1,-260.3,-711.542)">
                            <path d="M325.322,935.834C326.385,940.045 327.847,944.145 329.687,948.079L331.971,947.921C331.212,943.79 330.859,939.594 330.915,935.394C330.896,929.734 331.793,924.108 333.571,918.734C340.405,899.217 339.3,885.013 339.3,885.013L326.449,886.513L325.849,886.583C325.796,892.483 325.643,900.498 325.51,906.764C325.392,912.399 325.289,916.621 325.289,916.621C322.818,921.942 323.716,929.453 325.32,935.832" style="fill:rgb(22,53,96);fill-rule:nonzero;"/>
                        </g>
                        <g id="Tracé_2048" transform="matrix(1,0,0,1,-204.611,-571.423)">
                            <path d="M254.493,749.236L256.572,749.86C256.572,749.86 263.431,738.48 264.054,735.519C264.254,734.555 264.754,732.626 265.338,730.464C266.538,725.988 268.097,720.511 268.097,720.511L268.609,718.294L270.355,710.733C268.55,710.915 266.771,711.304 265.055,711.892C264.518,712.054 264.054,712.397 263.741,712.863C262.304,716.021 260.87,723.993 259.862,729.679C259.3,732.848 258.872,735.308 258.648,735.83C258.024,737.284 256.119,745.287 254.491,749.236" style="fill:rgb(255,178,125);fill-rule:nonzero;"/>
                        </g>
                        <g id="Tracé_2049" transform="matrix(1,0,0,1,-235.719,-700.442)">
                            <path d="M293.368,923.626C293.742,928.192 295.104,932.623 297.36,936.611L298.451,937.405C298.451,937.405 299.484,931.849 300.214,925.239C300.914,918.956 301.865,912.308 302.944,910.279C307.23,902.232 308.52,871.852 308.52,871.852L295.49,871.206C294.18,873.406 293.608,877.022 293.473,881.13C293.13,891.498 295.567,905.018 295.932,906.973C295.932,906.975 295.932,906.976 295.932,906.978C295.953,907.129 295.923,907.283 295.846,907.415C293.254,912.547 292.879,918.415 293.366,923.627" style="fill:rgb(28,70,138);fill-rule:nonzero;"/>
                        </g>
                        <g id="Tracé_2050" transform="matrix(1,0,0,1,-280.063,-503.462)">
                            <path d="M353.363,627.581C353.363,627.581 352.012,632.881 348.34,634.581C348.34,634.581 352.012,631.325 352.324,627.826C352.636,624.327 353.363,627.584 353.363,627.584" style="fill:rgb(35,56,98);fill-rule:nonzero;"/>
                        </g>
                        <g id="Tracé_2051" transform="matrix(1,0,0,1,-223.961,-572.223)">
                            <path d="M281.217,748.183C281.185,748.532 281.212,748.884 281.298,749.224C281.575,750.097 282.527,750.494 284.829,750.256C286.236,750.11 286.863,747.756 287.143,745.741C287.988,748.619 289.174,750.23 290.7,750.573C292.932,751.073 304.188,752.438 304.924,747.087C305.734,741.202 303.308,730.781 303.174,725.163C303.473,723.444 303.61,721.701 303.582,719.956C303.488,715.956 302.313,713.71 301.41,712.807C300.951,712.506 300.419,712.334 299.871,712.307C299.346,712.218 298.619,712.114 297.588,711.979C297.452,711.961 297.314,711.95 297.177,711.947C297.367,712.288 299.917,716.147 299.718,717.14C299.51,718.179 290.468,717.24 289.845,716.673C289.222,716.106 288.235,711.724 288.235,711.724C288.235,711.724 285.035,712.074 283.467,713.213L283.484,713.233C283.315,713.344 283.174,713.492 283.072,713.666C281.401,716.847 279.732,724.876 278.559,730.603C280.403,731.669 282.587,731.989 284.659,731.497C283.651,738.097 281.365,745.174 281.215,748.179" style="fill:rgb(249,151,70);fill-rule:nonzero;"/>
                        </g>
                        <g id="Tracé_2052" transform="matrix(1,0,0,1,-372.126,-599.426)">
                            <path d="M462.875,751.066C462.875,750.852 462.696,747.759 463.246,747.109C463.796,746.459 464.921,745.535 465.275,745.563C466.276,746.332 466.783,747.588 466.596,748.837C466.069,750.058 465.335,751.179 464.426,752.151L462.875,751.066Z" style="fill:rgb(255,178,125);fill-rule:nonzero;"/>
                        </g>
                        <g id="Tracé_2053" transform="matrix(1,0,0,1,-361.295,-579.79)">
                            <path d="M449.519,727.646L452.725,728.607C452.744,728.613 452.764,728.616 452.784,728.616C452.873,728.616 452.951,728.557 452.976,728.472L454.808,722.359C454.814,722.34 454.817,722.321 454.817,722.301C454.817,722.212 454.758,722.134 454.673,722.109L451.467,721.148C451.448,721.142 451.429,721.139 451.409,721.139C451.32,721.139 451.242,721.198 451.217,721.283L449.385,727.396C449.379,727.415 449.376,727.434 449.376,727.454C449.376,727.543 449.435,727.621 449.52,727.646" style="fill:rgb(241,163,79);fill-rule:nonzero;"/>
                        </g>
                        <g id="Tracé_2054" transform="matrix(1,0,0,1,-364.257,-580.786)">
                            <path d="M453.314,728.892L456.222,729.763C456.255,729.773 456.29,729.778 456.325,729.778C456.482,729.778 456.621,729.674 456.666,729.524L458.409,723.709C458.465,723.522 458.357,723.321 458.17,723.265L455.262,722.394C455.075,722.338 454.874,722.446 454.818,722.633L453.075,728.448C453.065,728.481 453.06,728.516 453.06,728.551C453.06,728.708 453.164,728.847 453.314,728.892" style="fill:rgb(216,103,19);fill-rule:nonzero;"/>
                        </g>
                        <g id="Tracé_2055" transform="matrix(1,0,0,1,-236.469,-915.465)">
                            <path d="M294.118,1138.65C294.492,1143.22 295.854,1147.65 298.11,1151.63L299.221,1152.65C299.221,1152.65 300.234,1146.87 300.964,1140.26C298.571,1140.44 296.179,1139.88 294.117,1138.65" style="fill:rgb(255,178,125);fill-rule:nonzero;"/>
                        </g>
                        <g id="Tracé_2056" transform="matrix(1,0,0,1,-266.711,-918.199)">
                            <path d="M331.733,1142.49C332.796,1146.7 334.258,1150.8 336.098,1154.74L338.382,1154.58C337.623,1150.44 337.27,1146.25 337.326,1142.05C336.551,1142.44 334.952,1142.84 331.732,1142.49" style="fill:rgb(217,147,92);fill-rule:nonzero;"/>
                        </g>
                        <g id="Tracé_2057" transform="matrix(1,0,0,1,-274.36,-956.409)">
                            <path d="M342.432,1194.86L343.89,1194.86C344.378,1194.78 344.739,1194.64 345.24,1194.58C345.656,1194.48 346.095,1194.59 346.421,1194.86L346.435,1194.88L352.629,1194.88C352.785,1194.65 352.635,1194.14 352.489,1193.76C352.39,1193.5 352.175,1193.3 351.909,1193.23C350.756,1193.03 349.673,1192.54 348.771,1191.8C348.104,1191.19 345.549,1189.58 345.549,1189.58L345.535,1189.58C345.479,1189.58 345.212,1189.66 344.05,1190.64C343.45,1191.15 342.426,1189.93 342.426,1189.93C342.285,1190.06 342.171,1190.21 342.09,1190.38C341.945,1190.68 341.899,1191.01 341.957,1191.33C341.957,1192.12 341.807,1192.9 341.513,1193.63C341.368,1194.06 341.247,1194.36 341.247,1194.36C341.247,1194.36 341.177,1194.71 342.432,1194.87" style="fill:rgb(35,56,98);fill-rule:nonzero;"/>
                        </g>
                        <g id="Tracé_2058" transform="matrix(1,0,0,1,-277.82,-956.408)">
                            <path d="M345.55,1190.38C346.018,1190.74 346.551,1191.01 347.12,1191.17C347.778,1191.26 349.008,1189.58 349.008,1189.58L348.994,1189.58C348.938,1189.58 348.671,1189.66 347.509,1190.64C346.909,1191.15 345.884,1189.93 345.884,1189.93C345.743,1190.05 345.629,1190.21 345.548,1190.38" style="fill:rgb(70,106,165);fill-rule:nonzero;"/>
                        </g>
                        <g id="Tracé_2059" transform="matrix(1,0,0,1,-274.36,-973.03)">
                            <path d="M342.432,1211.48L343.89,1211.48C344.378,1211.4 344.739,1211.26 345.24,1211.2C345.656,1211.1 346.095,1211.21 346.421,1211.48L346.435,1211.5L352.629,1211.5C352.785,1211.27 352.635,1210.76 352.489,1210.38C352.301,1210.21 352.248,1211.11 352.144,1211.25C350.364,1211.37 348.576,1211.32 346.806,1211.09C346.099,1210.68 345.253,1210.58 344.468,1210.81C343.452,1210.89 342.431,1210.7 341.516,1210.25C341.371,1210.67 341.25,1210.97 341.25,1210.97C341.25,1210.97 341.18,1211.32 342.435,1211.48" style="fill:rgb(70,106,165);fill-rule:nonzero;"/>
                        </g>
                        <g id="Tracé_2060" transform="matrix(1,0,0,1,-242.444,-956.409)">
                            <path d="M302.736,1194.86L304.194,1194.86C304.682,1194.78 305.043,1194.64 305.544,1194.58C305.96,1194.48 306.399,1194.59 306.725,1194.86L306.738,1194.88L312.932,1194.88C313.088,1194.65 312.938,1194.14 312.792,1193.76C312.692,1193.5 312.477,1193.3 312.212,1193.23C311.059,1193.03 309.977,1192.54 309.075,1191.8C308.408,1191.19 305.853,1189.58 305.853,1189.58L305.84,1189.58C305.784,1189.58 305.517,1189.66 304.355,1190.64C303.755,1191.15 302.731,1189.93 302.731,1189.93C302.59,1190.06 302.476,1190.21 302.395,1190.38C302.25,1190.68 302.204,1191.01 302.262,1191.33C302.262,1192.12 302.112,1192.9 301.818,1193.63C301.674,1194.06 301.552,1194.36 301.552,1194.36C301.552,1194.36 301.482,1194.71 302.737,1194.87" style="fill:rgb(35,56,98);fill-rule:nonzero;"/>
                        </g>
                        <g id="Tracé_2061" transform="matrix(1,0,0,1,-245.904,-956.408)">
                            <path d="M305.854,1190.38C306.322,1190.74 306.855,1191.01 307.424,1191.17C308.082,1191.26 309.312,1189.58 309.312,1189.58L309.298,1189.58C309.242,1189.58 308.975,1189.66 307.813,1190.64C307.213,1191.15 306.189,1189.93 306.189,1189.93C306.048,1190.05 305.934,1190.21 305.853,1190.38" style="fill:rgb(70,106,165);fill-rule:nonzero;"/>
                        </g>
                        <g id="Tracé_2062" transform="matrix(1,0,0,1,-242.444,-973.03)">
                            <path d="M302.736,1211.48L304.194,1211.48C304.682,1211.4 305.043,1211.26 305.544,1211.2C305.96,1211.1 306.399,1211.21 306.725,1211.48L306.738,1211.5L312.932,1211.5C313.088,1211.27 312.938,1210.76 312.792,1210.38C312.604,1210.21 312.551,1211.11 312.447,1211.25C310.666,1211.37 308.878,1211.32 307.108,1211.09C306.401,1210.68 305.555,1210.58 304.77,1210.81C303.754,1210.89 302.733,1210.7 301.818,1210.25C301.674,1210.67 301.552,1210.97 301.552,1210.97C301.552,1210.97 301.482,1211.32 302.737,1211.48" style="fill:rgb(70,106,165);fill-rule:nonzero;"/>
                        </g>
                        <g id="Tracé_2063" transform="matrix(1,0,0,1,-315.303,-575.896)">
                            <path d="M392.367,716.3C392.367,716.3 396.686,718.474 398.125,727.245C397.255,728.393 396.072,729.265 394.718,729.756C394.429,729.84 394.131,729.891 393.831,729.908C391.384,730.038 392.367,716.3 392.367,716.3" style="fill:rgb(249,151,70);fill-rule:nonzero;"/>
                        </g>
                        <g id="Tracé_2064" transform="matrix(1,0,0,1,-374.311,-592.427)">
                            <path d="M467.791,738.8C467.791,738.8 466.456,736.746 466.13,736.86C465.664,737.023 467.34,739.63 467.34,739.63C467.34,739.63 466.098,737.682 465.904,737.83C465.462,738.164 466.166,739.388 466.863,740.33C466.863,740.33 465.614,739.186 465.574,739.392C465.431,740.114 466.945,741.862 466.945,741.862L467.791,739.93L467.791,738.8Z" style="fill:rgb(255,178,125);fill-rule:nonzero;"/>
                        </g>
                        <g id="Tracé_2065" transform="matrix(1,0,0,1,-383.443,-588.855)">
                            <path d="M477.924,737.137C477.86,736.886 477.533,731.981 477.394,732.446C477.255,732.911 476.923,735.483 476.923,735.483L477.924,737.137Z" style="fill:rgb(255,178,125);fill-rule:nonzero;"/>
                        </g>
                        <g id="Tracé_2066" transform="matrix(1,0,0,1,-297.016,-543.15)">
                            <path d="M369.426,675.892C369.426,675.892 369.546,676.401 370.81,676.322C370.81,676.322 371.872,676.256 371.839,675.698C371.038,675.466 370.179,675.535 369.425,675.892" style="fill:white;fill-rule:nonzero;"/>
                        </g>
                        <g id="Tracé_2067" transform="matrix(1,0,0,1,-187.506,-729.356)">
                            <path d="M237.389,907.169C236.331,907.837 235.36,908.633 234.497,909.539C234.114,910.239 233.219,912.83 233.219,912.83C233.219,912.83 233.858,912.93 234.497,911.808C235.136,910.686 237.245,910.786 237.948,910.179C238.571,909.464 239.083,908.66 239.468,907.793L237.389,907.169Z" style="fill:rgb(255,178,125);fill-rule:nonzero;"/>
                        </g>
                        <g id="Tracé_2068" transform="matrix(1,0,0,1,-201.737,-734.17)">
                            <path d="M253.426,913.157C253.257,914.048 252.943,914.905 252.498,915.695C251.987,916.27 251.284,917.228 250.998,916.973C250.712,916.718 251.318,914.573 251.318,914.573L253.426,913.157Z" style="fill:rgb(255,178,125);fill-rule:nonzero;"/>
                        </g>
                        <g id="Tracé_2069" transform="matrix(1,0,0,1,-184.885,-739.996)">
                            <path d="M232.227,920.4C232.163,920.5 229.959,922.838 229.959,922.838C229.959,922.838 230.759,923.2 230.981,922.838C231.203,922.476 232.227,920.4 232.227,920.4" style="fill:rgb(255,178,125);fill-rule:nonzero;"/>
                        </g>
                        <g id="Tracé_2070" transform="matrix(1,0,0,1,-938.692,-240.37)">
                            <path d="M1167.54,305.228L1187.98,308.401L1174.51,298.972L1173.78,301.933L1168.79,302.774L1167.54,305.228Z" style="fill:rgb(158,195,246);fill-rule:nonzero;"/>
                        </g>
                        <g id="Tracé_2071" transform="matrix(1,0,0,1,-884.621,-237.862)">
                            <path d="M1133.91,305.893L1116.98,296.893L1100.29,295.847L1133.91,305.893Z" style="fill:white;fill-rule:nonzero;"/>
                        </g>
                        <g id="Tracé_2072" transform="matrix(1,0,0,1,-967.267,-219.141)">
                            <path d="M1203.08,277.742L1216.55,287.171L1206.21,272.571L1203.08,277.742Z" style="fill:white;fill-rule:nonzero;"/>
                        </g>
                        <g id="Tracé_2073" transform="matrix(1,0,0,1,-2097.62,-485.483)">
                            <path d="M2625.74,609.024L2609,611.411L2620.11,603.84L2620.67,606.267L2624.74,607.004L2625.74,609.024Z" style="fill:rgb(158,195,246);fill-rule:nonzero;"/>
                        </g>
                        <g id="Tracé_2074" transform="matrix(1,0,0,1,-2097.62,-484.264)">
                            <path d="M2609,610.192L2622.93,603.011L2636.58,602.324L2609,610.192Z" style="fill:white;fill-rule:nonzero;"/>
                        </g>
                        <g id="Tracé_2075" transform="matrix(1,0,0,1,-2097.62,-468.003)">
                            <path d="M2620.11,586.361L2609,593.932L2617.6,582.1L2620.11,586.361Z" style="fill:white;fill-rule:nonzero;"/>
                        </g>
                        <g id="Tracé_2076" transform="matrix(1,0,0,1,-446.696,-430.665)">
                            <path d="M555.6,535.659L657.317,535.659L657.317,562.377L584.987,562.377L584.987,590.813L648.729,590.813L648.729,617.53L584.987,617.53L584.987,669.249L555.6,669.249L555.6,535.659Z" style="fill:rgb(105,159,240);fill-rule:nonzero;"/>
                        </g>
                        <g id="Tracé_2077" transform="matrix(1,0,0,1,-816.888,-441.522)">
                            <path d="M1071.77,549.163L1098.15,549.163L1153.88,680.133L1123.97,680.133L1112.08,650.966L1057.09,650.966L1045.2,680.133L1016.04,680.133L1071.77,549.163ZM1101.87,625.701L1084.59,583.531L1067.32,625.701L1101.87,625.701Z" style="fill:rgb(105,159,240);fill-rule:nonzero;"/>
                        </g>
                        <g id="Tracé_2078" transform="matrix(1,0,0,1,-1376.47,-425.989)">
                            <path d="M1819.61,653.2C1808.07,660.568 1794.65,664.44 1780.97,664.346C1740.84,664.346 1712.04,634.437 1712.04,597.096C1712.04,560.127 1741.21,529.846 1781.34,529.846C1821.46,529.846 1850.26,559.756 1850.26,597.096C1850.29,610.421 1846.28,623.446 1838.74,634.436L1852.12,645.768L1833.91,666.017L1819.61,653.2ZM1798.43,634.437C1798.43,634.437 1811.41,627.759 1816.82,615.303C1819.26,609.548 1820.46,603.345 1820.35,597.097C1820.35,574.804 1804,556.227 1780.97,556.227C1757.93,556.227 1741.95,574.433 1741.95,597.097C1741.95,619.39 1758.3,637.967 1781.34,637.967C1787.22,638.003 1793.04,636.8 1798.43,634.437" style="fill:rgb(105,159,240);fill-rule:nonzero;"/>
                        </g>
                        <g id="Tracé_2079" transform="matrix(1,0,0,1,-1593.94,-693.849)">
                            <path d="M2000.01,863.005C2000.01,863.005 1997.82,866.25 1996.57,873.071C1995.47,879.045 1994.51,881.25 1992.93,882.471C1991.35,883.692 1982.54,887.313 1982.54,887.313L1983.19,888.857C1983.19,888.857 1996.11,887.098 1997.56,884.939C1999.01,882.78 2004.54,870.025 2004.12,867.088C2003.69,864.151 2000.02,863.001 2000.02,863.001" style="fill:rgb(244,162,105);fill-rule:nonzero;"/>
                        </g>
                        <g id="Tracé_2080" transform="matrix(1,0,0,1,-1468.68,-938.218)">
                            <path d="M1838.88,1175.57C1838.75,1176.83 1836.97,1176.78 1834.96,1176.49C1832.94,1176.19 1833.47,1176.72 1830.64,1176.67C1827.81,1176.62 1826.86,1175.66 1826.74,1175.25C1826.62,1174.89 1828,1174.63 1829.46,1174.32C1829.65,1174.28 1829.83,1174.24 1830.02,1174.2C1831.67,1173.83 1832.8,1172.64 1834.24,1171.61C1835.6,1170.63 1837.43,1167.01 1837.43,1167.01L1841.3,1166.95C1841.3,1166.95 1839.57,1170.2 1838.92,1171.6C1838.62,1172.46 1838.57,1173.38 1838.79,1174.26C1838.88,1174.69 1838.91,1175.13 1838.88,1175.57" style="fill:rgb(255,178,125);fill-rule:nonzero;"/>
                        </g>
                        <g id="Tracé_2081" transform="matrix(1,0,0,1,-1468.68,-968.175)">
                            <path d="M1834.96,1206.45C1832.94,1206.15 1833.47,1206.68 1830.64,1206.63C1827.81,1206.58 1826.86,1205.62 1826.74,1205.21C1826.62,1204.85 1828,1204.59 1829.46,1204.28L1829.48,1204.3C1830.75,1204.96 1832.18,1205.26 1833.61,1205.17C1835.51,1205.04 1837.47,1204.31 1838.78,1204.21C1838.87,1204.64 1838.9,1205.09 1838.88,1205.53C1838.75,1206.78 1836.97,1206.74 1834.95,1206.45" style="fill:rgb(198,84,71);fill-rule:nonzero;"/>
                        </g>
                        <g id="Tracé_2082" transform="matrix(1,0,0,1,-1503.39,-790.507)">
                            <path d="M1915.5,986.062C1915.5,986.062 1890.14,986.185 1885.41,989.172C1880.68,992.159 1869.9,1022.92 1869.9,1022.92C1870.37,1023.54 1871.04,1023.98 1871.79,1024.17C1872.68,1024.34 1873.61,1024.19 1874.4,1023.75C1875.2,1023.31 1888.84,1009.39 1889.61,1005.47C1890.37,1001.55 1890.19,998.047 1891.93,997.953C1893.68,997.859 1915.49,1000.6 1918.79,994.793C1920.72,991.226 1920.93,986.968 1919.36,983.228L1915.5,986.062Z" style="fill:rgb(239,126,41);fill-rule:nonzero;"/>
                        </g>
                        <g id="Tracé_2083" transform="matrix(1,0,0,1,-1523.97,-935.128)">
                            <path d="M1907.63,1171.9C1907.61,1173.16 1905.84,1173.27 1903.8,1173.14C1901.77,1173.02 1902.34,1173.5 1899.51,1173.69C1896.69,1173.88 1895.67,1173 1895.51,1172.6C1895.37,1172.25 1896.71,1171.87 1898.15,1171.44C1898.33,1171.39 1898.52,1171.33 1898.7,1171.28C1900.32,1170.78 1901.34,1169.49 1902.68,1168.34C1903.96,1167.25 1905.49,1163.49 1905.49,1163.49L1909.34,1163.11C1909.34,1163.11 1907.88,1166.49 1907.35,1167.94C1907.12,1168.82 1907.15,1169.74 1907.44,1170.6C1907.56,1171.02 1907.63,1171.46 1907.64,1171.9" style="fill:rgb(255,178,125);fill-rule:nonzero;"/>
                        </g>
                        <g id="Tracé_2084" transform="matrix(1,0,0,1,-1523.97,-965.843)">
                            <path d="M1903.8,1203.86C1901.77,1203.73 1902.33,1204.21 1899.51,1204.4C1896.69,1204.59 1895.66,1203.71 1895.51,1203.31C1895.37,1202.96 1896.71,1202.59 1898.15,1202.15L1898.17,1202.18C1899.49,1202.73 1900.94,1202.91 1902.35,1202.7C1904.24,1202.41 1906.13,1201.52 1907.43,1201.31C1907.56,1201.73 1907.62,1202.17 1907.63,1202.61C1907.61,1203.88 1905.83,1203.98 1903.8,1203.86" style="fill:rgb(198,84,71);fill-rule:nonzero;"/>
                        </g>
                        <g id="Tracé_2085" transform="matrix(1,0,0,1,-1554.59,-808.521)">
                            <path d="M1971.61,1005.63C1971.61,1005.63 1949.28,1006.69 1944.67,1009.86C1940.06,1013.03 1933.58,1039.71 1933.58,1039.71C1934.59,1041.38 1936.7,1042.06 1938.5,1041.29C1940.29,1040.52 1947.46,1030.49 1948.08,1026.54C1948.69,1022.59 1949.66,1020.56 1951.4,1020.4C1953.14,1020.24 1970.28,1023.59 1978.12,1016.2C1982.98,1011.62 1971.62,1005.64 1971.62,1005.64" style="fill:rgb(249,151,70);fill-rule:nonzero;"/>
                        </g>
                        <g id="Tracé_2086" transform="matrix(1,0,0,1,-1667.62,-601.302)">
                            <path d="M2077.01,768.671C2076.3,767.228 2075.85,765.671 2075.68,764.071C2076.03,765.867 2076.71,767.58 2077.69,769.12C2082.87,772.043 2091.04,783.02 2090.99,785.092C2090.99,785.092 2096.01,778.446 2096.06,778.409C2096.06,778.409 2101.71,770.15 2094.09,766.142C2090.22,764.105 2090.05,761.172 2090.03,758.614C2090.02,756.056 2088.12,745.17 2080.86,748.536C2080.3,748.316 2079.7,748.202 2079.1,748.2C2079.35,748.231 2079.58,748.323 2079.78,748.469C2078.7,748.444 2077.63,748.723 2076.7,749.276C2074.07,751.009 2072.55,765.09 2077.01,768.676" style="fill:rgb(181,69,60);fill-rule:nonzero;"/>
                        </g>
                        <g id="Tracé_2087" transform="matrix(1,0,0,1,-1677.63,-678.158)">
                            <path d="M2095.59,843.577C2094.21,843.462 2092.82,843.462 2091.43,843.577C2090.2,843.709 2088.98,844.014 2087.83,844.483C2085.86,845.306 2086.07,848.79 2090.19,848.145C2094.32,847.5 2095.88,844.611 2095.59,843.577" style="fill:rgb(255,178,125);fill-rule:nonzero;"/>
                        </g>
                        <g id="Tracé_2088" transform="matrix(1,0,0,1,-1682.68,-657.181)">
                            <path d="M2093.06,825.141C2093.04,825.154 2092.47,828.141 2095.17,828.019C2096.95,827.941 2100.77,825.793 2100.44,824.273C2099.42,822.115 2098.82,819.781 2098.67,817.398L2098.35,817.484L2092.91,818.941C2092.91,818.941 2093.15,820.665 2093.26,822.298C2093.37,823.668 2093.37,824.974 2093.06,825.141" style="fill:rgb(255,178,125);fill-rule:nonzero;"/>
                        </g>
                        <g id="Tracé_2089" transform="matrix(1,0,0,1,-1682.68,-657.535)">
                            <path d="M2092.91,819.3C2092.91,819.3 2093.15,821.024 2093.26,822.657C2096.34,822.365 2097.78,819.446 2098.35,817.843L2092.91,819.3Z" style="fill:rgb(244,162,105);fill-rule:nonzero;"/>
                        </g>
                        <g id="Tracé_2090" transform="matrix(1,0,0,1,-1666.24,-609.339)">
                            <path d="M2082.43,769.005C2083.24,767.483 2083.81,765.84 2084.11,764.139C2084.29,762.563 2083.11,756.839 2077.36,758.061C2076.21,758.301 2075.12,758.798 2074.18,759.515C2072.98,760.45 2071.28,762.407 2073.65,767.309L2074.29,768.976L2082.43,769.005Z" style="fill:rgb(181,69,60);fill-rule:nonzero;"/>
                        </g>
                        <g id="Tracé_2091" transform="matrix(1,0,0,1,-1666.6,-618.811)">
                            <path d="M2075.9,782.185C2075.9,782.185 2083.2,781.819 2082.9,777.278C2082.6,772.737 2083.34,769.631 2078.67,769.673C2074,769.715 2073.21,771.507 2072.94,773.046C2072.67,774.585 2073.99,782.162 2075.9,782.184" style="fill:rgb(255,178,125);fill-rule:nonzero;"/>
                        </g>
                        <g id="Tracé_2092" transform="matrix(1,0,0,1,-1676.61,-614.953)">
                            <path d="M2085.35,765.926C2085.35,765.926 2087.7,771.12 2090.82,771.704C2093.93,772.288 2095.21,771.378 2095.21,771.378C2093.61,770.152 2092.49,768.406 2092.03,766.443C2091.57,764.48 2086.69,763.291 2085.35,765.927" style="fill:rgb(181,69,60);fill-rule:nonzero;"/>
                        </g>
                        <g id="Tracé_2093" transform="matrix(1,0,0,1,-1664.3,-617.682)">
                            <path d="M2073.57,769.054C2072.82,769.732 2072.23,770.578 2071.87,771.523C2071.58,772.704 2071.58,775.095 2070.88,775.06C2070.88,775.06 2069.13,771.539 2070.69,769.378C2072.33,767.087 2073.57,769.053 2073.57,769.053" style="fill:rgb(181,69,60);fill-rule:nonzero;"/>
                        </g>
                        <g id="Tracé_2094" transform="matrix(1,0,0,1,-1648.36,-678.521)">
                            <path d="M2050.36,874.456C2050.95,875.162 2052.79,875.379 2054.76,875.703C2056.27,875.87 2057.74,876.296 2059.1,876.96C2061.73,878.505 2070.33,883.724 2072.85,883.487C2073.82,883.395 2073.64,881.531 2073.05,879.057C2072.11,875.15 2070.16,869.725 2070.16,867.366C2069.98,864.743 2069.65,862.133 2069.16,859.549C2069.12,859.268 2069.07,858.985 2069.02,858.699C2067.89,851.926 2066.32,843.941 2066.32,843.941C2066.32,843.941 2064.58,847.755 2061.17,847.755C2057.76,847.755 2058.56,844.847 2058.56,844.847C2058.56,844.847 2055.45,845.212 2054.72,846.003C2053.56,847.616 2052.57,849.338 2051.75,851.144C2050.93,852.95 2051.67,852.33 2054.61,852.895C2054.22,854.663 2053.95,856.456 2053.81,858.262C2053.75,859.848 2054.89,864.811 2055.22,867.897C2055.37,868.672 2055.35,869.469 2055.18,870.238C2054.72,870.88 2054.1,871.391 2053.38,871.72C2051.72,872.686 2049.65,873.62 2050.36,874.456" style="fill:rgb(43,71,139);fill-rule:nonzero;"/>
                        </g>
                        <g id="Tracé_2095" transform="matrix(1,0,0,1,-1660.02,-730.601)">
                            <path d="M2065.04,923.8C2063.16,927.014 2070.16,927.98 2071.31,928.661C2073.94,930.205 2081.99,935.805 2084.51,935.568C2085.48,935.476 2085.3,933.612 2084.71,931.138C2083.78,927.231 2081.83,921.806 2081.83,919.447C2081.64,916.824 2081.31,914.214 2080.83,911.63L2077.8,908.719C2077.8,908.719 2074.55,917.119 2071.45,918.493C2069.98,919.128 2068.45,919.625 2066.89,919.979C2067.03,920.754 2067.02,921.551 2066.84,922.32C2066.38,922.962 2065.76,923.473 2065.04,923.802" style="fill:rgb(35,56,98);fill-rule:nonzero;"/>
                        </g>
                        <g id="Tracé_2096" transform="matrix(1,0,0,1,-1650.83,-687.13)">
                            <path d="M2069.73,855.063C2069.73,855.063 2072.32,853.489 2074.83,856.475C2077.33,859.461 2073.04,880.811 2069.33,881.908C2065.2,883.126 2053.28,881.708 2053.28,881.708L2053.51,879.845C2053.51,879.845 2066.2,877.413 2066.73,876.735C2067.25,876.057 2068.41,855.402 2069.73,855.058" style="fill:rgb(255,178,125);fill-rule:nonzero;"/>
                        </g>
                        <g id="Tracé_2097" transform="matrix(1,0,0,1,-1708.41,-678.518)">
                            <path d="M2126.38,843.937C2126.38,843.937 2131.7,844.417 2133.25,846.169C2134.8,847.921 2135.25,852.669 2135.25,852.669C2135.25,852.669 2130.56,856.454 2124.91,854.985L2126.38,843.937Z" style="fill:rgb(43,71,139);fill-rule:nonzero;"/>
                        </g>
                        <g id="Tracé_2098" transform="matrix(1,0,0,1,-1625.6,-787.463)">
                            <path d="M2029.32,980.073C2029.32,980.073 2025.19,979.273 2024.72,979.473C2024.25,979.673 2021.66,982.005 2021.92,982.473C2022.6,983.112 2023.61,983.271 2024.46,982.873C2025.65,982.473 2028.26,982.273 2028.72,981.673C2029.03,981.19 2029.24,980.644 2029.32,980.073" style="fill:rgb(255,178,125);fill-rule:nonzero;"/>
                        </g>
                        <g id="Rectangle_479" transform="matrix(1,0,0,1,400.399,197.174)">
                            <rect x="0" y="0" width="7.033" height="0.831" style="fill:rgb(158,51,46);"/>
                        </g>
                        <g id="Tracé_2099" transform="matrix(1,0,0,1,-1563.61,-769.389)">
                            <path d="M1965.5,967.279C1965.43,967.004 1959.04,956.961 1959.04,956.961L1944.8,956.961L1951.94,967.01L1965.5,967.279Z" style="fill:rgb(158,51,46);fill-rule:nonzero;"/>
                        </g>
                        <g id="Tracé_2100" transform="matrix(1,0,0,1,-1563.61,-769.389)">
                            <path d="M1964.91,967.393C1964.84,967.118 1958.42,956.961 1958.42,956.961L1944.81,956.961L1951.6,967.393L1964.91,967.393Z" style="fill:rgb(181,69,60);fill-rule:nonzero;"/>
                        </g>
                        <g id="Tracé_2101" transform="matrix(1,0,0,1,-1596.65,-787.901)">
                            <path d="M1985.95,980.723C1986.1,981.141 1986.49,981.43 1986.94,981.46C1986.95,981.461 1986.96,981.461 1986.97,981.461C1987.25,981.461 1987.48,981.232 1987.48,980.953C1987.48,980.873 1987.46,980.794 1987.42,980.723C1987.27,980.304 1986.88,980.015 1986.43,979.986C1986.42,979.985 1986.41,979.985 1986.4,979.985C1986.12,979.985 1985.89,980.214 1985.89,980.493C1985.89,980.573 1985.91,980.652 1985.95,980.723" style="fill:rgb(158,51,46);fill-rule:nonzero;"/>
                        </g>
                        <g id="Tracé_2102" transform="matrix(1,0,0,1,-2049.27,-668.898)">
                            <path d="M2550.14,831.971C2550.14,831.971 2553.54,833.902 2554.49,833.901C2555.43,833.9 2559.17,833.18 2560.21,833.711C2561.51,834.61 2562.62,835.754 2563.49,837.079C2564.12,838.335 2560.93,837.779 2559.42,836.711C2559.2,836.555 2558.93,836.499 2558.67,836.555C2557.63,836.842 2556.54,836.902 2555.48,836.73C2553.29,836.327 2551.09,836.052 2548.87,835.907L2550.14,831.971Z" style="fill:rgb(234,153,99);fill-rule:nonzero;"/>
                        </g>
                        <g id="Tracé_2103" transform="matrix(1,0,0,1,-1948.53,-546.71)">
                            <path d="M2423.56,683.488C2423.56,683.488 2427.08,708.505 2432.91,710.745C2435.79,711.851 2448.5,714.357 2452.26,714.609C2452.26,714.609 2453.18,713.862 2452.96,710.821C2452.96,710.821 2439.64,705.932 2437.75,703.274C2434.93,699.317 2439.5,687.109 2435.96,683.393C2432.43,679.677 2426.48,678.08 2423.56,683.493" style="fill:rgb(237,125,43);fill-rule:nonzero;"/>
                        </g>
                        <g id="Tracé_2104" transform="matrix(1,0,0,1,-1934.96,-716.974)">
                            <path d="M2411.18,906.457C2412.21,908.174 2413.36,909.817 2414.62,911.377C2418.4,916.153 2422.52,920.091 2423.24,923.813C2423.4,924.622 2423.62,925.418 2423.9,926.195C2424.2,927.048 2424.57,927.944 2425,928.871C2426.85,932.678 2428.99,936.338 2431.4,939.817C2435.55,945.957 2439.44,951.08 2439.44,951.08L2446.59,950.78C2446.3,950.064 2443.19,941.586 2439.02,931.226C2437.32,927.02 2435.52,922.547 2433.79,918.232C2433.56,917.656 2433.33,917.083 2433.1,916.513C2432.56,915.193 2432.04,913.893 2431.53,912.628C2427.62,902.9 2424.5,895.154 2424.5,895.154C2424.5,895.154 2408.85,889.227 2407.23,893.067C2405.89,896.234 2406.98,899.336 2411.18,906.461" style="fill:rgb(35,56,98);fill-rule:nonzero;"/>
                        </g>
                        <g id="Tracé_2105" transform="matrix(1,0,0,1,-2070.24,-947.153)">
                            <path d="M2574.94,1179.96C2574.94,1179.96 2575.31,1185.86 2576.45,1185.94C2576.6,1185.95 2582.24,1185.95 2582.24,1185.95L2589.43,1185.91C2589.32,1184.78 2588.41,1183.89 2587.28,1183.81C2585.18,1183.44 2581.66,1181.96 2580.38,1179.19C2579.04,1176.26 2574.94,1179.96 2574.94,1179.96" style="fill:rgb(22,53,96);fill-rule:nonzero;"/>
                        </g>
                        <g id="Tracé_2106" transform="matrix(1,0,0,1,-1945.53,-878.868)">
                            <path d="M2424.85,1093.13C2424.85,1093.13 2419.51,1095.66 2419.85,1096.75C2419.9,1096.89 2421.99,1102.12 2421.99,1102.12L2424.7,1108.79C2425.7,1108.27 2426.19,1107.09 2425.85,1106.01C2425.41,1103.92 2425.47,1100.11 2427.58,1097.89C2429.8,1095.57 2424.85,1093.13 2424.85,1093.13" style="fill:rgb(22,53,96);fill-rule:nonzero;"/>
                        </g>
                        <g id="Tracé_2107" transform="matrix(1,0,0,1,-1934.84,-720.024)">
                            <path d="M2416.06,940.171C2416.06,940.171 2413.06,937.139 2412.51,935.129C2412.51,935.129 2422.83,925.103 2426.51,922.669C2430.74,919.875 2433.49,919.86 2432.81,919.175C2430.59,916.933 2411.89,910.391 2408.84,905.655C2407.94,904.266 2407.27,902.733 2406.88,901.121C2406.45,899.526 2406.4,897.854 2406.73,896.236L2429.99,895.563C2429.99,895.563 2447.28,913.5 2447.18,920.251C2447.08,927.551 2416.05,940.172 2416.05,940.172" style="fill:rgb(43,71,139);fill-rule:nonzero;"/>
                        </g>
                        <g id="Tracé_2108" transform="matrix(1,0,0,1,-1953.68,-510.042)">
                            <path d="M2442.47,645.242C2437.77,646.458 2429.97,642.099 2429.97,642.099C2432.06,640.471 2433.53,638.172 2434.12,635.592C2434.18,635.367 2434.23,635.136 2434.28,634.899L2436.69,634.387L2440.28,637.607C2440.18,638.828 2440,640.042 2439.75,641.242C2439.68,641.642 2439.59,642.072 2439.48,642.532C2440.64,643.245 2441.65,644.164 2442.47,645.243" style="fill:rgb(255,178,125);fill-rule:nonzero;"/>
                        </g>
                        <g id="Tracé_2109" transform="matrix(1,0,0,1,-1932.73,-534.037)">
                            <path d="M2404.04,688.741C2404.71,697.805 2403.83,711.59 2404.59,713.978C2405.25,716.038 2412.77,714.813 2415.77,714.126C2416.88,713.871 2418.22,713.508 2419.61,713.078C2423.49,711.878 2427.71,710.164 2428.16,708.892C2428.18,708.844 2428.2,708.796 2428.21,708.746C2428.25,708.57 2428.24,708.388 2428.2,708.213C2427.77,707.28 2427.5,706.28 2427.4,705.257C2427.32,703.464 2427.34,701.357 2427.27,699.083C2427.27,698.827 2427.26,698.549 2427.23,698.294L2427.23,698.055C2427.17,695.524 2427.03,692.862 2426.88,690.222C2426.78,688.564 2426.67,686.922 2426.54,685.35C2426.33,682.001 2425.86,678.673 2425.14,675.396C2424.26,672.297 2422.47,669.533 2420,667.47L2418.57,666.243C2416.81,666.581 2414.99,666.338 2413.38,665.552C2411.53,664.675 2410.9,664.047 2410.57,664.284C2406.31,667.575 2403.24,677.66 2404.03,688.741" style="fill:rgb(249,151,70);fill-rule:nonzero;"/>
                        </g>
                        <g id="Tracé_2110" transform="matrix(1,0,0,1,-1951.9,-590.894)">
                            <path d="M2438.78,769.933C2442.66,768.733 2446.88,767.019 2447.34,765.747C2447.35,765.699 2447.37,765.65 2447.38,765.6C2447.38,765.422 2447.38,765.245 2447.37,765.067C2446.94,764.134 2446.66,763.135 2446.57,762.111C2446.49,760.318 2446.5,758.211 2446.43,755.937C2446.43,755.681 2446.43,755.403 2446.4,755.148L2446.4,754.91L2430.73,734.948C2430.73,734.948 2420.2,756.88 2438.79,769.931" style="fill:rgb(237,125,43);fill-rule:nonzero;"/>
                        </g>
                        <g id="Tracé_2111" transform="matrix(1,0,0,1,-1970.7,-510.042)">
                            <path d="M2457.31,637.607C2457.21,638.828 2457.03,640.042 2456.78,641.242C2454.17,640.274 2452.11,638.207 2451.15,635.593C2451.2,635.368 2451.26,635.137 2451.3,634.9L2453.72,634.388L2457.31,637.607Z" style="fill:rgb(234,153,99);fill-rule:nonzero;"/>
                        </g>
                        <g id="Tracé_2112" transform="matrix(1,0,0,1,-1969.82,-475.737)">
                            <path d="M2456.89,605.329C2456.89,605.329 2449.24,604.052 2450.11,599.298C2450.98,594.544 2450.58,591.178 2455.5,591.793C2460.42,592.408 2461.04,594.393 2461.13,596.052C2461.23,597.711 2458.91,605.54 2456.89,605.33" style="fill:rgb(255,178,125);fill-rule:nonzero;"/>
                        </g>
                        <g id="Rectangle_480" transform="matrix(0.3091,-0.95103,0.95103,0.3091,517.202,170.265)">
                            <rect x="0" y="0" width="18.581" height="0.709" style="fill:rgb(74,117,203);"/>
                        </g>
                        <g id="Rectangle_481" transform="matrix(0.021,-1,1,0.021,498.384,170.068)">
                            <rect x="0" y="0" width="1.167" height="19.499" style="fill:rgb(74,117,203);"/>
                        </g>
                        <g id="Tracé_2113" transform="matrix(1,0,0,1,-2045.9,-686.865)">
                            <path d="M2544.67,857.863C2544.67,857.863 2550.93,859.515 2553.28,859.341C2555.63,859.167 2557.58,858.05 2557.88,857.467C2558.18,856.884 2558.8,855.849 2557.2,856.04C2555.6,856.231 2553.42,856.571 2553.35,856.264C2553.28,855.957 2554.65,855.986 2554.65,855.986C2554.65,855.986 2555.07,855.386 2554.54,855.361C2554.02,855.336 2552.5,854.926 2551.93,855.209C2551.37,855.492 2550.85,856.536 2550.43,856.492C2550.02,856.448 2545.19,854.317 2545.19,854.317L2544.67,857.863Z" style="fill:rgb(255,178,125);fill-rule:nonzero;"/>
                        </g>
                        <g id="Tracé_2114" transform="matrix(1,0,0,1,-1954.9,-553.298)">
                            <path d="M2431.49,691.1C2431.49,691.1 2432.23,716.352 2437.77,719.222C2440.51,720.638 2452.87,724.53 2456.57,725.194C2456.57,725.194 2457.57,724.553 2457.68,721.506C2457.68,721.506 2444.98,715.179 2443.4,712.328C2441.04,708.085 2446.92,696.455 2443.82,692.372C2440.72,688.289 2434.98,686.046 2431.49,691.1" style="fill:rgb(249,151,70);fill-rule:nonzero;"/>
                        </g>
                        <g id="Tracé_2115" transform="matrix(1,0,0,1,-1964.09,-462.577)">
                            <path d="M2444.53,588.129C2444.49,587.187 2444.82,586.266 2445.45,585.563C2446.08,584.86 2445.1,583.928 2445.75,583.663C2446.4,583.398 2446.53,584.768 2446.83,584.552C2447.79,583.85 2448.55,582.9 2449.01,581.803C2449.58,580.293 2454.76,582.122 2455.36,582.394C2455.97,582.666 2457.91,581.669 2458.28,580.86C2457.72,580.408 2457.19,579.902 2456.72,579.35C2456.24,578.703 2452.84,574.337 2448.1,575.577C2443.35,576.817 2442.7,579.077 2442.97,581.022C2443.24,582.967 2442.59,587.482 2444.54,588.134" style="fill:rgb(43,71,139);fill-rule:nonzero;"/>
                        </g>
                        <g id="Tracé_2116" transform="matrix(1,0,0,1,-1346.26,-572.728)">
                            <path d="M1680.26,715.556C1679.74,716.956 1678.84,718.58 1677.89,718.984C1677.3,719.213 1676.78,719.592 1676.37,720.084L1675.51,719.584L1674.47,718.984C1674.47,718.984 1674.5,718.869 1674.55,718.684C1674.6,718.499 1674.67,718.238 1674.78,717.95C1674.97,717.682 1675.01,717.337 1674.9,717.029C1674.69,716.437 1674.76,715.783 1675.08,715.242C1675.41,714.76 1675.73,713.571 1675.93,713.606C1676.41,713.689 1675.69,715.324 1675.9,715.627C1675.99,715.794 1676.19,715.864 1676.36,715.786L1676.37,715.786C1677.73,715.186 1679.38,711.969 1680.11,712.404C1680.42,713.428 1680.47,714.514 1680.26,715.564" style="fill:rgb(255,178,125);fill-rule:nonzero;"/>
                        </g>
                        <g id="Tracé_2117" transform="matrix(1,0,0,1,-1350.29,-566.419)">
                            <path d="M1679.59,711.2L1681.29,712.4C1681.41,712.484 1681.58,712.454 1681.66,712.335L1686.02,706.135C1686.1,706.015 1686.07,705.848 1685.95,705.763L1684.25,704.563C1684.13,704.479 1683.97,704.509 1683.88,704.628L1679.52,710.828C1679.44,710.948 1679.47,711.115 1679.59,711.2" style="fill:rgb(43,71,139);fill-rule:nonzero;"/>
                        </g>
                        <g id="Tracé_2118" transform="matrix(1,0,0,1,-1356.79,-570.956)">
                            <path d="M1687.65,716.828L1688.65,717.528C1688.68,717.553 1688.72,717.566 1688.76,717.566C1688.83,717.566 1688.89,717.533 1688.93,717.478L1693.36,711.172C1693.39,711.138 1693.4,711.097 1693.4,711.055C1693.4,710.988 1693.37,710.926 1693.31,710.889L1692.31,710.189C1692.28,710.164 1692.24,710.151 1692.19,710.151C1692.13,710.151 1692.07,710.183 1692.03,710.238L1687.6,716.544C1687.57,716.578 1687.56,716.619 1687.56,716.661C1687.56,716.728 1687.59,716.79 1687.65,716.827" style="fill:rgb(35,56,98);fill-rule:nonzero;"/>
                        </g>
                        <g id="Tracé_2119" transform="matrix(1,0,0,1,-1231.3,-557.344)">
                            <path d="M1536.2,693.222C1536.2,693.222 1544.86,708.322 1548,711.101L1559.52,702.515C1560.58,702.893 1561.44,703.683 1561.92,704.705C1562.39,705.727 1554.92,718.953 1548.04,719.558C1541.15,720.163 1531.49,702.48 1531.49,702.48L1536.2,693.222Z" style="fill:rgb(35,56,98);fill-rule:nonzero;"/>
                        </g>
                        <g id="Tracé_2120" transform="matrix(1,0,0,1,-1133.91,-936.986)">
                            <path d="M1419.21,1175.57L1414.21,1175.57C1413.43,1175.06 1412.92,1174.21 1412.84,1173.28C1412.6,1171.67 1410.79,1170.79 1410.4,1169.47C1410.01,1168.15 1412.02,1166.3 1412.02,1166.3L1412.35,1165.86L1412.7,1165.42L1416.02,1166.2C1416.02,1166.2 1416.1,1166.99 1416.15,1168C1416.19,1168.76 1416.2,1169.53 1416.17,1170.3C1416.07,1172.06 1416.66,1173.95 1418.22,1174.29C1419.37,1174.54 1419.32,1175.23 1419.22,1175.57" style="fill:rgb(35,56,98);fill-rule:nonzero;"/>
                        </g>
                        <g id="Tracé_2121" transform="matrix(1,0,0,1,-1240.9,-954.637)">
                            <path d="M1555.24,1193.22L1543.8,1193.22C1543.25,1192.55 1543.45,1190.07 1543.54,1189.26C1543.55,1189.1 1543.57,1189.01 1543.57,1189.01C1543.57,1189.01 1547.47,1185.88 1548.01,1188.27C1548.03,1188.35 1548.05,1188.42 1548.07,1188.49C1548.74,1190.73 1551.78,1191.75 1553.53,1192.03C1554.28,1192.07 1554.94,1192.53 1555.24,1193.22" style="fill:rgb(35,56,98);fill-rule:nonzero;"/>
                        </g>
                        <g id="Tracé_2122" transform="matrix(1,0,0,1,-1212.42,-712.498)">
                            <path d="M1524.57,887.226C1524.57,887.226 1523.98,894.626 1523.28,903.526C1522.34,915.611 1521.2,930.455 1521.08,933.267C1520.89,938.15 1520.11,945.961 1520.11,945.961C1520.11,945.961 1518.25,947.817 1514.54,947.034C1512.43,939.53 1511,931.849 1510.29,924.086C1510.28,923.893 1510.26,923.698 1510.25,923.503C1509.37,911.493 1508,886.203 1508,886.203L1524.57,887.226Z" style="fill:rgb(249,151,70);fill-rule:nonzero;"/>
                        </g>
                        <g id="Tracé_2123" transform="matrix(1,0,0,1,-1212.42,-712.498)">
                            <path d="M1524.57,887.226C1524.57,887.226 1523.98,894.626 1523.28,903.526L1510.29,924.087C1510.28,923.894 1510.26,923.699 1510.25,923.504C1509.37,911.494 1508,886.204 1508,886.204L1524.57,887.226Z" style="fill:rgb(237,125,43);fill-rule:nonzero;"/>
                        </g>
                        <g id="Tracé_2124" transform="matrix(1,0,0,1,-1140.73,-700.483)">
                            <path d="M1450.17,876.09C1450.17,876.09 1439.48,902.89 1432.45,915.49C1425.42,928.09 1423.22,931.601 1423.22,931.601C1423.22,931.601 1419.19,929.99 1418.83,928.891C1418.83,928.891 1421.52,904.574 1426.23,898.646C1428.89,895.297 1432.01,885.246 1432.16,881.729C1432.31,878.212 1433.11,871.257 1433.11,871.257L1450.17,876.09Z" style="fill:rgb(249,151,70);fill-rule:nonzero;"/>
                        </g>
                        <g id="Tracé_2125" transform="matrix(1,0,0,1,-1211.58,-514.333)">
                            <path d="M1518.37,650.867C1514.19,652.186 1506.96,648.627 1506.96,648.627C1509.49,646.39 1510.84,643.097 1510.61,639.727L1513.84,642.327L1516.03,644.095C1516,645.055 1515.92,646.013 1515.79,646.964C1515.72,647.444 1515.64,647.98 1515.54,648.564C1516.62,649.151 1517.57,649.931 1518.37,650.864" style="fill:rgb(255,178,125);fill-rule:nonzero;"/>
                        </g>
                        <g id="Tracé_2126" transform="matrix(1,0,0,1,-1226.5,-524.755)">
                            <path d="M1530.95,654.519C1530.92,655.48 1530.84,656.438 1530.7,657.389C1528.27,656.972 1525.52,653.042 1525.52,653.042C1526.56,652.716 1527.67,652.618 1528.76,652.752L1530.95,654.519Z" style="fill:rgb(237,151,93);fill-rule:nonzero;"/>
                        </g>
                        <g id="Tracé_2127" transform="matrix(1,0,0,1,-1220.19,-485.027)">
                            <path d="M1525.92,614.692C1525.92,614.692 1519.02,615.839 1518.37,611.53C1517.72,607.221 1516.39,604.467 1520.77,603.553C1525.14,602.639 1526.25,604.153 1526.82,605.54C1527.39,606.927 1527.69,614.283 1525.91,614.692" style="fill:rgb(255,178,125);fill-rule:nonzero;"/>
                        </g>
                        <g id="Tracé_2128" transform="matrix(1,0,0,1,-1195.96,-544.03)">
                            <path d="M1508.57,719.374C1508.45,719.48 1508.3,719.54 1508.13,719.541C1506.57,719.52 1501.99,720.391 1498.12,719.994C1494.9,719.629 1491.78,718.726 1488.86,717.323C1488.45,717.138 1487.5,716.632 1487.53,716.172C1487.54,715.672 1487.59,714.936 1487.65,714.016C1488.06,709.005 1488.13,703.974 1487.88,698.953C1487.81,697.77 1487.78,696.596 1487.77,695.441C1487.74,686.83 1489.45,679.256 1492.88,676.692C1493.17,676.482 1494.97,677.361 1496.62,678.177C1498.02,678.865 1499.61,679.057 1501.12,678.722L1502.57,679.998C1504.77,681.894 1506.34,684.41 1507.09,687.216C1507.91,691.634 1508.37,696.113 1508.45,700.607C1508.55,703.034 1508.64,705.482 1508.66,707.807L1508.66,707.89C1508.68,708.12 1508.68,708.372 1508.68,708.602C1508.76,714.564 1508.68,719.293 1508.58,719.377" style="fill:rgb(43,71,139);fill-rule:nonzero;"/>
                        </g>
                        <g id="Tracé_2129" transform="matrix(1,0,0,1,-1196.48,-596.527)">
                            <path d="M1488.17,766.513C1488.58,761.502 1488.65,756.471 1488.4,751.45C1488.34,750.267 1488.3,749.093 1488.3,747.938C1489.73,744.471 1490.9,741.956 1490.9,741.956L1494.5,741.956C1494.5,741.956 1497.14,759.997 1488.17,766.513" style="fill:rgb(35,56,98);fill-rule:nonzero;"/>
                        </g>
                        <g id="Tracé_2130" transform="matrix(1,0,0,1,-1107.85,-723.832)">
                            <path d="M1381.08,914.265L1396.45,916.455C1398.44,916.733 1400.31,915.328 1400.6,913.337L1401.55,906.678C1401.83,904.685 1400.43,902.813 1398.43,902.524L1383.07,900.335C1381.08,900.057 1379.2,901.461 1378.91,903.453L1377.97,910.112C1377.69,912.105 1379.09,913.977 1381.08,914.266" style="fill:rgb(35,56,98);fill-rule:nonzero;"/>
                        </g>
                        <g id="Tracé_2131" transform="matrix(1,0,0,1,-1099.49,-715.642)">
                            <path d="M1390.95,896.32C1390.51,895.213 1389.56,894.384 1388.41,894.097C1388.29,894.069 1388.17,894.045 1388.05,894.028L1384.99,893.593L1385.19,892.156C1385.29,891.496 1384.82,890.876 1384.16,890.781L1383.36,890.667L1380.15,890.209L1379.57,890.127C1378.91,890.034 1378.29,890.499 1378.19,891.159L1377.99,892.596L1372.71,891.843C1370.71,891.565 1368.83,892.974 1368.54,894.972L1367.58,901.708C1367.31,903.708 1368.71,905.585 1370.71,905.877L1386.05,908.063C1386.31,908.102 1386.58,908.11 1386.85,908.089C1387.26,908.058 1387.67,907.957 1388.05,907.789C1389.21,907.277 1390.04,906.196 1390.22,904.936L1391.18,898.201C1391.27,897.567 1391.19,896.92 1390.95,896.325M1378.95,891.269C1378.98,891.073 1379.14,890.917 1379.33,890.885C1379.38,890.878 1379.42,890.878 1379.47,890.885L1380.15,890.985L1382.68,891.346L1384.06,891.546C1384.3,891.581 1384.48,891.813 1384.44,892.059L1384.24,893.496L1378.76,892.713L1378.95,891.269Z" style="fill:rgb(43,71,139);fill-rule:nonzero;"/>
                        </g>
                        <g id="Tracé_2132" transform="matrix(1,0,0,1,-1149.58,-695.49)">
                            <path d="M1434.5,866.1C1434.14,866.551 1433.86,867.058 1433.66,867.6C1433.44,870.511 1434.77,870.914 1431.33,872.531C1431.33,872.531 1429.86,873.092 1429.84,871.95C1429.81,870.808 1430.86,870.79 1430.66,869.192C1430.44,867.349 1430.46,867.332 1431.67,866.369L1432.48,865.045L1434.5,866.1Z" style="fill:rgb(255,178,125);fill-rule:nonzero;"/>
                        </g>
                        <g id="Tracé_2133" transform="matrix(1,0,0,1,-1152.98,-546.507)">
                            <path d="M1435.85,717.938C1436.74,718.092 1437.65,718.142 1438.55,718.089C1439.45,718.036 1442.4,706.189 1442.9,705.104C1443.39,704.019 1454.34,691.154 1454.34,691.154L1449.78,679.744C1449.78,679.744 1437.94,699.517 1436.74,702.296C1434.75,706.887 1434.06,717.181 1434.06,717.181C1434.6,717.548 1435.21,717.806 1435.85,717.939" style="fill:rgb(43,71,139);fill-rule:nonzero;"/>
                        </g>
                        <g id="Tracé_2134" transform="matrix(1,0,0,1,-1216.18,-472.281)">
                            <path d="M1514.35,598.368C1514.35,598.368 1515.06,598.25 1514.94,597.274C1514.83,596.298 1514.83,595.024 1515.62,595.261C1516.42,595.498 1516.46,596.134 1516.78,595.761C1517.11,595.388 1517.11,593.828 1519.47,593.719C1521.83,593.61 1522.79,594.431 1523.89,593.949C1524.99,593.467 1525.05,591.806 1525.05,591.806C1524.87,592.139 1524.6,592.411 1524.26,592.588C1523.93,592.765 1526.09,590.088 1523.97,588.367C1521.85,586.646 1519.69,587.774 1518.46,587.848C1515.76,588.012 1514.02,588.174 1513.13,589.948C1512.25,591.722 1512.61,596.655 1514.35,598.365" style="fill:rgb(43,71,139);fill-rule:nonzero;"/>
                        </g>
                        <g id="Tracé_2135" transform="matrix(1,0,0,1,-1163.2,-705.048)">
                            <path d="M1446.86,876.934C1446.86,876.934 1447.63,877.744 1447.68,878.081C1447.84,879.163 1448.2,879.63 1448.02,879.748C1447.64,879.993 1447.14,879.192 1446.91,878.473C1446.77,877.971 1446.75,877.444 1446.86,876.934" style="fill:rgb(255,178,125);fill-rule:nonzero;"/>
                        </g>
                        <g id="Tracé_2136" transform="matrix(1,0,0,1,-70.533,-978.107)">
                            <path d="M645.269,1218.13L88.38,1218.13C88.023,1218.13 87.73,1217.84 87.729,1217.48L87.729,1217.21C87.73,1216.86 88.023,1216.57 88.38,1216.56L645.269,1216.56C645.626,1216.57 645.919,1216.86 645.92,1217.21L645.92,1217.48C645.919,1217.84 645.626,1218.13 645.269,1218.13" style="fill:rgb(46,53,82);fill-rule:nonzero;"/>
                        </g>
                        <g id="Tracé_2137" transform="matrix(1,0,0,1,-629.356,-401.646)">
                            <path d="M782.9,500.235C784.207,502.721 786.027,504.903 788.238,506.635L800.89,506.635C800.89,506.635 781.145,496.976 782.898,500.235" style="fill:rgb(35,56,98);fill-rule:nonzero;"/>
                        </g>
                        <g id="Tracé_2138" transform="matrix(1,0,0,1,-623.858,-495.102)">
                            <path d="M786.213,626.449C786.512,626.796 786.58,627.288 786.387,627.703C786.388,627.705 786.388,627.707 786.387,627.709C785.765,628.771 784.9,629.67 783.862,630.332C783.711,630.447 783.577,630.552 783.462,630.649C783.431,630.674 783.4,630.7 783.371,630.726L783.301,630.786C782.201,631.75 782.596,631.986 780.601,633.952C778.331,636.189 776.81,636.189 776.383,635.968C776.022,635.78 776.798,634.582 777.659,633.235C777.701,633.17 777.741,633.104 777.784,633.035C777.899,632.856 778.013,632.674 778.127,632.494C779.137,630.873 778.91,630.094 778.748,627.634C778.616,625.634 775.948,616.416 775.948,616.416L780.198,615.803C780.198,615.803 781.274,623.117 782.647,624.276C783.381,624.894 784.221,624.924 784.931,625.387C784.981,625.419 785.03,625.452 785.079,625.487C785.498,625.756 785.878,626.079 786.211,626.449" style="fill:rgb(255,178,125);fill-rule:nonzero;"/>
                        </g>
                        <g id="Tracé_2139" transform="matrix(1,0,0,1,-625.257,-534.413)">
                            <path d="M787.612,665.761C787.911,666.108 787.979,666.6 787.786,667.015C787.787,667.017 787.787,667.019 787.786,667.021C787.13,668.056 786.269,668.945 785.257,669.635C785.108,669.752 784.976,669.86 784.857,669.961C784.826,669.986 784.796,670.012 784.766,670.038L784.696,670.098C783.596,671.062 783.99,671.298 781.996,673.264C779.726,675.501 778.205,675.501 777.778,675.28C777.417,675.092 778.193,673.893 779.054,672.547C780.615,671.986 782,671.022 783.068,669.754C784.444,668.094 785.389,665.939 786.329,664.701C786.379,664.733 786.429,664.766 786.477,664.801C786.896,665.07 787.276,665.393 787.609,665.763" style="fill:rgb(35,56,98);fill-rule:nonzero;"/>
                        </g>
                        <g id="Tracé_2140" transform="matrix(1,0,0,1,-474.412,-486.637)">
                            <path d="M602.725,614.412C602.425,615.712 600.573,615.442 598.507,614.877C596.441,614.312 596.919,614.93 593.968,614.522C591.017,614.114 590.151,612.985 590.068,612.543C589.998,612.15 591.468,612.052 593.038,611.915C593.238,611.898 593.438,611.879 593.638,611.86C595.415,611.686 596.744,610.579 598.378,609.684C599.926,608.836 602.299,605.276 602.299,605.276L606.349,605.708C606.349,605.708 604.131,608.885 603.269,610.269C602.847,611.122 602.683,612.079 602.795,613.024C602.834,613.488 602.811,613.954 602.726,614.412" style="fill:rgb(255,178,125);fill-rule:nonzero;"/>
                        </g>
                        <g id="Tracé_2141" transform="matrix(1,0,0,1,-474.412,-513.868)">
                            <path d="M598.508,642.11C596.442,641.545 596.92,642.163 593.969,641.755C591.018,641.347 590.152,640.218 590.069,639.776C589.999,639.383 591.469,639.286 593.039,639.148L593.053,639.178C594.298,640.026 595.749,640.521 597.253,640.611C599.26,640.711 601.402,640.197 602.788,640.257C602.827,640.721 602.804,641.188 602.719,641.645C602.419,642.945 600.567,642.675 598.501,642.11" style="fill:rgb(35,56,98);fill-rule:nonzero;"/>
                        </g>
                        <g id="Tracé_2142" transform="matrix(1,0,0,1,-593.03,-393.313)">
                            <path d="M737.606,495.557L741.122,505.871L745.713,519.338C746.596,519.428 747.487,519.371 748.351,519.169C749.256,518.888 750.123,518.495 750.931,518C751.739,517.505 749.945,503.647 747.603,495.36C747.208,493.636 746.504,491.997 745.525,490.524C741.675,485.714 737.606,495.557 737.606,495.557" style="fill:rgb(35,56,98);fill-rule:nonzero;"/>
                        </g>
                        <g id="Tracé_2143" transform="matrix(1,0,0,1,-514.682,-348.69)">
                            <path d="M663.558,434.823C666.066,434.089 673.128,435.312 680.213,436.9L681.771,434.481L697.188,433.699C697.188,433.699 701.958,445.099 698.988,452.193C698.578,453.23 697.497,453.852 696.394,453.684L696.119,453.684C696.119,453.684 686.959,453.765 683.986,453.684C676.335,453.476 667.933,447.832 666.834,447.584C665.034,447.173 664.214,450.77 662.302,454.519C660.39,458.268 644.844,470.874 644.844,470.874C643.734,470.868 642.629,470.725 641.554,470.446C641.016,470.262 640.536,469.94 640.162,469.513C639.788,469.086 657.907,436.482 663.562,434.826" style="fill:rgb(43,71,139);fill-rule:nonzero;"/>
                        </g>
                        <g id="Tracé_2144" transform="matrix(1,0,0,1,-672.471,-163.608)">
                            <path d="M840.227,228.215C845.627,231.381 856.566,237.937 856.627,237.898C856.627,237.898 860.67,239.549 863.027,238.073C866.959,235.613 869.219,228.766 862.317,222.633C858.875,219.574 856.392,218.784 856.14,214.043C856.004,211.471 852.726,202.904 846.875,203.529C846.387,203.588 845.894,203.607 845.403,203.585C844.365,203.524 843.332,203.761 842.424,204.268C839.071,206.142 832.045,226.824 840.224,228.216" style="fill:rgb(35,56,98);fill-rule:nonzero;"/>
                        </g>
                        <g id="Tracé_2145" transform="matrix(1,0,0,1,-705.094,-220.236)">
                            <path d="M877.512,282.4C877.487,282.415 880.182,283.417 882.022,282.662C883.753,281.952 885.122,279.173 885.101,279.171C884.324,279.114 883.488,278.41 882.952,273.928L882.617,274.038L876.991,275.891C876.991,275.891 877.346,277.691 877.561,279.399C877.742,280.834 877.823,282.206 877.513,282.399" style="fill:rgb(255,178,125);fill-rule:nonzero;"/>
                        </g>
                        <g id="Tracé_2146" transform="matrix(1,0,0,1,-705.094,-220.686)">
                            <path d="M876.99,276.342C876.99,276.342 877.345,278.142 877.56,279.85C880.776,279.361 882.118,276.207 882.617,274.489L876.99,276.342Z" style="fill:rgb(237,151,93);fill-rule:nonzero;"/>
                        </g>
                        <g id="Tracé_2147" transform="matrix(1,0,0,1,-686.455,-180.755)">
                            <path d="M857.473,238.163C857.473,238.163 865.124,237.348 864.543,232.591C863.962,227.834 864.558,224.525 859.648,224.845C854.738,225.165 854.013,227.096 853.821,228.73C853.629,230.364 855.468,238.253 857.473,238.163" style="fill:rgb(255,178,125);fill-rule:nonzero;"/>
                        </g>
                        <g id="Tracé_2148" transform="matrix(1,0,0,1,-687.94,-178.931)">
                            <path d="M855.655,224.317C855.655,224.317 860.42,228.655 863.731,229.085C867.042,229.515 868.331,228.485 868.331,228.485C867.039,227.264 866.011,225.789 865.313,224.154C864.99,223.372 864.266,222.824 863.426,222.726C861.061,222.457 856.571,222.241 855.66,224.32" style="fill:rgb(35,56,98);fill-rule:nonzero;"/>
                        </g>
                        <g id="Tracé_2149" transform="matrix(1,0,0,1,-684.074,-181.013)">
                            <path d="M854.85,226.105C853.982,226.889 853.234,227.796 852.628,228.796C852.06,230.365 851.927,232.058 852.245,233.696C852.563,235.334 849.836,228.681 851.345,226.317C852.945,223.81 854.853,226.107 854.853,226.107" style="fill:rgb(35,56,98);fill-rule:nonzero;"/>
                        </g>
                        <g id="Tracé_2150" transform="matrix(1,0,0,1,-679.246,-240.943)">
                            <path d="M844.939,314.163C844.749,329.6 844.67,326.371 846.318,327.881C847.254,328.373 848.297,328.629 849.355,328.626C854.078,329.069 862.417,328.516 862.755,327.65C863.929,324.65 863.184,323.693 864.221,319.086C864.329,318.596 864.461,318.066 864.615,317.486C865.461,314.325 866.229,313.263 863.675,308.078C861.358,303.378 858.923,299.555 858.691,299.684C852.142,303.334 851.71,300.104 851.71,300.104C851.71,300.104 845.029,306.629 844.937,314.159" style="fill:white;fill-rule:nonzero;"/>
                        </g>
                        <g id="Tracé_2151" transform="matrix(1,0,0,1,-607.454,-418.58)">
                            <path d="M755.547,531.139L760.137,544.606C761.02,544.696 761.912,544.639 762.776,544.437C763.681,544.156 764.547,543.763 765.355,543.268C766.163,542.773 764.369,528.915 762.027,520.628L755.547,531.139Z" style="fill:rgb(43,71,139);fill-rule:nonzero;"/>
                        </g>
                        <g id="Tracé_2152" transform="matrix(1,0,0,1,-652.407,-242.677)">
                            <path d="M824.873,301.841C824.873,301.841 818.211,302.785 817.355,305.618C816.499,308.451 811.455,325.111 811.455,325.111C811.455,325.111 814.809,325.811 816.409,324.294C818.009,322.777 822.221,309.994 822.221,309.994L824.873,301.841Z" style="fill:white;fill-rule:nonzero;"/>
                        </g>
                        <g id="Tracé_2153" transform="matrix(1,0,0,1,-697.761,-293.912)">
                            <path d="M867.87,381.6C872.593,382.043 880.932,381.49 881.27,380.624C882.444,377.624 881.699,376.667 882.736,372.06L880.629,365.571C880.629,365.571 880.811,372.738 878.65,374.562C876.489,376.386 869.91,377.962 868.842,379.505C868.379,380.13 868.048,380.843 867.869,381.6" style="fill:rgb(235,243,255);fill-rule:nonzero;"/>
                        </g>
                        <g id="Tracé_2154" transform="matrix(1,0,0,1,-686.221,-344.417)">
                            <path d="M861.833,429.239C861.833,429.239 857.193,428.073 856.433,428.466C855.341,429.085 854.363,429.887 853.542,430.837C853.297,431.356 855.23,430.484 855.855,430.337C856.536,430.377 857.205,430.542 857.826,430.825C858.943,431.299 860.169,431.457 861.369,431.279L861.833,429.239Z" style="fill:rgb(255,178,125);fill-rule:nonzero;"/>
                        </g>
                        <g id="Tracé_2155" transform="matrix(1,0,0,1,-717.096,-240.943)">
                            <path d="M896.547,299.684C896.547,299.684 902.804,300.241 904.892,303.326C907.83,307.669 913.392,325.99 909.856,328.317C905.871,330.937 892.038,328.546 892.038,328.546C892.038,328.546 891.638,326.373 892.306,325.346C892.974,324.319 903.473,322.915 903.968,322.446C904.463,321.977 898.196,312.877 898.235,311.431C898.274,309.985 896.546,299.685 896.546,299.685" style="fill:white;fill-rule:nonzero;"/>
                        </g>
                        <g id="Tracé_2156" transform="matrix(1,0,0,1,-689.433,-350.054)">
                            <path d="M859.379,435.4C858.983,435.905 858.535,436.367 858.042,436.777C857.878,436.861 857.694,436.895 857.511,436.877L858.202,435.709L859.379,435.4Z" style="fill:rgb(255,178,125);fill-rule:nonzero;"/>
                        </g>
                        <g id="Tracé_2157" transform="matrix(1,0,0,1,-686.349,-344.749)">
                            <path d="M856.556,428.8L853.675,430.1C853.783,430.245 853.961,430.321 854.141,430.3C854.564,430.238 854.98,430.136 855.384,429.995L856.556,428.8Z" style="fill:rgb(255,178,125);fill-rule:nonzero;"/>
                        </g>
                        <g id="Tracé_2158" transform="matrix(1,0,0,1,-573.247,-291.337)">
                            <path d="M741.8,379.988L719.305,379.375L713,362.364L735.46,362.976L741.8,379.988Z" style="fill:rgb(249,151,70);fill-rule:nonzero;"/>
                        </g>
                        <g id="Tracé_2159" transform="matrix(1,0,0,1,-598.116,-358.397)">
                            <path d="M743.932,445.773L773.632,446.582L773.614,447.238L744.173,446.438L743.932,445.773Z" style="fill:rgb(237,125,43);fill-rule:nonzero;"/>
                        </g>
                        <g id="Tracé_2160" transform="matrix(1,0,0,1,-623.21,-322.929)">
                            <path d="M775.179,402.709C775.147,402.622 775.13,402.53 775.13,402.437C775.13,402.009 775.482,401.657 775.91,401.657C775.931,401.657 775.951,401.657 775.972,401.659C776.607,401.712 777.146,402.155 777.321,402.768C777.353,402.855 777.37,402.947 777.37,403.04C777.37,403.468 777.018,403.82 776.59,403.82C776.569,403.82 776.549,403.82 776.528,403.818C775.893,403.765 775.354,403.322 775.179,402.709" style="fill:white;fill-rule:nonzero;"/>
                        </g>
                    </g>
                </g>
            </g>
        </g>
    </g>
</svg>
