<?xml version="1.0" encoding="UTF-8" standalone="no"?>
<!DOCTYPE svg PUBLIC "-//W3C//DTD SVG 1.1//EN" "http://www.w3.org/Graphics/SVG/1.1/DTD/svg11.dtd">
<svg width="100%" height="100%" viewBox="0 0 40 32" version="1.1" xmlns="http://www.w3.org/2000/svg" xmlns:xlink="http://www.w3.org/1999/xlink" xml:space="preserve" xmlns:serif="http://www.serif.com/" style="fill-rule:evenodd;clip-rule:evenodd;stroke-linejoin:round;stroke-miterlimit:2;">
    <g transform="matrix(1,0,0,1,-46023.5,-2674.59)">
        <g transform="matrix(1,0,0,1,46023.5,2674.59)">
            <g id="Groupe_340-3">
                <path id="Tracé_1916-3" d="M0,18.09C0.119,17.682 0.186,17.26 0.2,16.835C1.277,9.318 6.638,3.079 13.907,0.881C18.417,-0.528 23.29,-0.236 27.6,1.7C28.212,1.915 28.624,2.497 28.624,3.145C28.624,3.986 27.933,4.677 27.092,4.677C26.861,4.677 26.632,4.625 26.424,4.524C24.863,3.854 23.215,3.408 21.529,3.2C21.257,3.169 21.156,3.194 21.17,3.506C21.199,4.131 21.184,4.759 21.177,5.385C21.178,5.408 21.179,5.43 21.179,5.453C21.179,6.295 20.486,6.988 19.644,6.988C18.801,6.988 18.109,6.295 18.109,5.453C18.109,5.43 18.109,5.408 18.11,5.385C18.103,4.759 18.097,4.132 18.11,3.506C18.117,3.251 18.084,3.163 17.789,3.198C14.588,3.554 11.561,4.841 9.084,6.9C7.752,8.002 6.599,9.303 5.667,10.759C5.527,10.975 5.54,11.059 5.779,11.159C6.408,11.438 7.03,11.733 7.642,12.047C8.171,12.3 8.509,12.837 8.509,13.423C8.509,14.082 8.082,14.67 7.456,14.874C7.038,15.009 6.582,14.966 6.196,14.755C5.596,14.465 4.996,14.183 4.407,13.89C4.236,13.806 4.145,13.768 4.062,14.011C2.456,18.415 2.807,23.303 5.027,27.432C5.154,27.676 5.253,27.702 5.483,27.58C5.967,27.323 6.462,27.088 6.957,26.852C7.194,26.715 7.462,26.643 7.736,26.643C8.321,26.643 8.859,26.973 9.123,27.495C9.226,27.705 9.279,27.936 9.279,28.17C9.279,28.795 8.897,29.361 8.317,29.595C7.336,30.083 6.353,30.568 5.363,31.038C5.132,31.166 4.872,31.234 4.608,31.234C4.038,31.234 3.513,30.921 3.241,30.42C1.644,27.982 0.602,25.223 0.187,22.339C0.187,21.963 0.124,21.59 -0,21.236L0,20.852C0.052,20.804 0.036,20.741 0.04,20.682C0.044,20.623 0.04,20.591 0.04,20.545L0.04,20.408C0.04,20.349 0.052,20.286 0,20.238L0,18.857C0.066,18.79 0.03,18.704 0.04,18.627C0.03,18.55 0.067,18.464 0,18.397L0,18.09Z" style="fill:rgb(251,149,5);fill-rule:nonzero;"/>
                <g id="Tracé_1917-3" transform="matrix(1,0,0,1,0,-172.95)">
                    <path d="M0,191.346C0.129,191.39 0.059,191.49 0.062,191.569C0.046,191.611 0.025,191.612 0,191.577L0,191.346Z" style="fill:rgb(251,149,5);fill-rule:nonzero;"/>
                </g>
                <g id="Tracé_1918-3" transform="matrix(1,0,0,1,0,-175.043)">
                    <path d="M0,193.67C0.02,193.665 0.041,193.662 0.062,193.662C0.076,193.75 0.1,193.841 0,193.9L0,193.67Z" style="fill:rgb(251,149,5);fill-rule:nonzero;"/>
                </g>
                <g id="Tracé_1919-3" transform="matrix(1,0,0,1,0,-190.264)">
                    <path d="M0,210.5C0.073,210.531 0.076,210.591 0.065,210.656C0.042,210.687 0.02,210.687 0,210.656L0,210.5Z" style="fill:rgb(251,149,5);fill-rule:nonzero;"/>
                </g>
                <g id="Tracé_1920-3" transform="matrix(1,0,0,1,0,-191.706)">
                    <path d="M0,212.1L0.065,212.1L0.065,212.253C0.042,212.286 0.021,212.283 0.001,212.253L0,212.1Z" style="fill:rgb(251,149,5);fill-rule:nonzero;"/>
                </g>
                <g id="Tracé_1921-3" transform="matrix(1,0,0,1,0,-193.149)">
                    <path d="M0,213.694L0.064,213.694L0.064,213.847C0.042,213.879 0.02,213.879 0,213.847L0,213.694Z" style="fill:rgb(251,149,5);fill-rule:nonzero;"/>
                </g>
                <g id="Tracé_1922-3" transform="matrix(1,0,0,1,0,-194.592)">
                    <path d="M0,215.291L0.065,215.291C0.075,215.355 0.094,215.423 0,215.442L0,215.291Z" style="fill:rgb(251,149,5);fill-rule:nonzero;"/>
                </g>
                <g id="Tracé_1923-3" transform="matrix(1,0,0,1,-281.329,-100.541)">
                    <path d="M320.622,119.97C320.625,123.881 319.493,127.709 317.365,130.99C316.963,131.716 316.044,131.994 315.307,131.612C314.253,131.129 313.206,130.632 312.165,130.121C311.616,129.874 311.262,129.326 311.262,128.724C311.262,127.883 311.953,127.192 312.794,127.192C313.04,127.192 313.283,127.251 313.501,127.365C314.058,127.616 314.611,127.879 315.158,128.153C315.358,128.253 315.45,128.253 315.565,128.029C317.938,123.665 318.205,118.451 316.29,113.867C316.079,113.487 315.966,113.06 315.963,112.625C316.036,111.84 316.703,111.233 317.491,111.233C318.118,111.233 318.685,111.617 318.917,112.199C319.389,113.259 319.766,114.358 320.045,115.484C320.415,116.951 320.61,118.456 320.624,119.969" style="fill:rgb(251,149,5);fill-rule:nonzero;"/>
                </g>
                <g id="Tracé_1924-3" transform="matrix(1,0,0,1,-141.391,-51.546)">
                    <path d="M175.2,58.246C175.058,57.529 174.423,57.008 173.692,57.008C173.329,57.008 172.977,57.136 172.7,57.371C168.589,60.201 164.463,63.011 160.412,65.928C159.463,66.556 158.564,67.258 157.726,68.028C156.439,69.339 156.071,71.308 156.796,72.996C157.547,74.748 159.304,75.868 161.21,75.808C162.515,75.782 163.742,75.174 164.553,74.151C165.914,72.489 167.123,70.716 168.353,68.958C170.54,65.83 172.701,62.684 174.875,59.547C175.167,59.182 175.286,58.706 175.198,58.247M162.273,72.108C161.916,72.614 161.279,72.848 160.68,72.691C160.098,72.576 159.644,72.112 159.543,71.527C159.402,70.939 159.637,70.32 160.134,69.975C162.528,68.086 165.082,66.421 167.58,64.664C165.823,67.159 164.155,69.71 162.272,72.108" style="fill:rgb(251,149,5);fill-rule:nonzero;"/>
                </g>
            </g>
        </g>
    </g>
</svg>
