<?xml version="1.0" encoding="UTF-8" standalone="no"?>
<!DOCTYPE svg PUBLIC "-//W3C//DTD SVG 1.1//EN" "http://www.w3.org/Graphics/SVG/1.1/DTD/svg11.dtd">
<svg width="100%" height="100%" viewBox="0 0 289 289" version="1.1" xmlns="http://www.w3.org/2000/svg" xmlns:xlink="http://www.w3.org/1999/xlink" xml:space="preserve" xmlns:serif="http://www.serif.com/" style="fill-rule:evenodd;clip-rule:evenodd;stroke-linejoin:round;stroke-miterlimit:2;">
    <g transform="matrix(1,0,0,1,-368,-8192)">
        <g transform="matrix(1,0,0,1.76979,-6649,302.635)">
            <g transform="matrix(1,0,0,0.565038,6649,-171)">
                <path d="M512.5,8192C592.252,8192 657,8256.75 657,8336.5C657,8416.25 592.252,8481 512.5,8481C432.748,8481 368,8416.25 368,8336.5C368,8256.75 432.748,8192 512.5,8192ZM508.829,8372.03C508.917,8373.66 508.69,8374.52 507.466,8374.85C505.48,8375.38 503.579,8375.99 501.109,8376.65C499.646,8377.05 499.109,8377.49 498.867,8379.39C498.623,8381.29 499.033,8381.85 500.349,8382.6C502.574,8383.86 504.259,8384.93 506.046,8385.95C507.148,8386.57 507.146,8387.49 506.651,8389.02C506.155,8390.55 505.569,8391.27 504.311,8391.1C502.272,8390.84 500.284,8390.67 497.747,8390.34C496.247,8390.14 495.581,8390.34 494.63,8392.01C493.679,8393.67 493.839,8394.34 494.771,8395.54C496.343,8397.56 497.49,8399.19 498.753,8400.81C499.532,8401.81 499.208,8402.69 498.136,8403.88C497.046,8405.1 496.277,8405.55 495.179,8404.91C493.396,8403.89 491.622,8402.97 489.406,8401.69C488.095,8400.94 487.402,8400.87 485.886,8402.04C484.372,8403.21 484.261,8403.9 484.665,8405.36C485.345,8407.83 485.78,8409.77 486.325,8411.76C486.663,8412.98 485.999,8413.61 484.581,8414.36C483.278,8415.05 482.226,8415.18 481.454,8414.17C480.2,8412.54 478.911,8411.02 477.352,8408.99C476.43,8407.79 475.815,8407.47 473.967,8407.97C472.119,8408.47 471.754,8409.06 471.569,8410.57C471.253,8413.1 470.911,8415.07 470.657,8417.11C470.499,8418.37 469.651,8418.76 468.05,8418.85C466.419,8418.93 465.558,8418.71 465.23,8417.48C464.697,8415.5 464.085,8413.6 463.423,8411.13C463.03,8409.66 462.587,8409.13 460.688,8408.89C458.79,8408.64 458.226,8409.05 457.478,8410.37C456.215,8412.59 455.147,8414.27 454.13,8416.06C453.505,8417.17 452.573,8417.19 451.06,8416.67C449.529,8416.14 448.81,8415.59 448.975,8414.33C449.243,8412.29 449.406,8410.3 449.74,8407.76C449.937,8406.26 449.732,8405.6 448.072,8404.65C446.41,8403.7 445.732,8403.86 444.538,8404.79C442.519,8406.36 440.888,8407.51 439.265,8408.77C438.265,8409.55 437.389,8409.23 436.196,8408.15C434.981,8407.06 434.532,8406.29 435.165,8405.19C436.192,8403.41 437.104,8401.64 438.384,8399.42C439.14,8398.11 439.206,8397.42 438.036,8395.9C436.864,8394.39 436.177,8394.28 434.718,8394.68C432.251,8395.36 430.304,8395.8 428.322,8396.34C427.099,8396.68 426.47,8396.02 425.722,8394.6C425.033,8393.3 424.897,8392.24 425.902,8391.47C427.533,8390.22 429.054,8388.93 431.084,8387.37C432.285,8386.45 432.612,8385.83 432.109,8383.99C431.607,8382.14 431.013,8381.77 429.511,8381.59C426.972,8381.27 425.007,8380.93 422.966,8380.67C421.709,8380.52 421.319,8379.67 421.233,8378.07C421.145,8376.44 421.372,8375.58 422.595,8375.25C424.581,8374.72 426.48,8374.1 428.951,8373.44C430.413,8373.05 430.951,8372.6 431.194,8370.71C431.436,8368.81 431.028,8368.24 429.712,8367.5C427.487,8366.23 425.802,8365.16 424.014,8364.15C422.911,8363.52 422.915,8362.6 423.41,8361.08C423.905,8359.55 424.492,8358.83 425.748,8358.99C427.788,8359.26 429.776,8359.42 432.312,8359.76C433.814,8359.95 434.48,8359.75 435.431,8358.09C436.382,8356.43 436.22,8355.75 435.29,8354.56C433.718,8352.54 432.569,8350.91 431.307,8349.28C430.529,8348.28 430.853,8347.41 431.923,8346.21C433.015,8345 433.784,8344.55 434.882,8345.18C436.663,8346.21 438.439,8347.12 440.654,8348.4C441.966,8349.16 442.659,8349.22 444.174,8348.05C445.689,8346.88 445.798,8346.19 445.396,8344.74C444.716,8342.27 444.281,8340.32 443.734,8338.34C443.398,8337.12 444.06,8336.49 445.478,8335.74C446.783,8335.05 447.833,8334.91 448.606,8335.92C449.859,8337.55 451.15,8339.07 452.708,8341.1C453.63,8342.3 454.245,8342.63 456.093,8342.13C457.94,8341.62 458.305,8341.03 458.492,8339.53C458.806,8336.99 459.15,8335.02 459.404,8332.98C459.56,8331.73 460.409,8331.34 462.01,8331.25C463.641,8331.16 464.502,8331.39 464.832,8332.61C465.365,8334.6 465.975,8336.5 466.637,8338.97C467.03,8340.43 467.473,8340.97 469.371,8341.21C471.271,8341.45 471.836,8341.05 472.582,8339.73C473.846,8337.5 474.914,8335.82 475.93,8334.03C476.557,8332.93 477.487,8332.9 479.002,8333.43C480.531,8333.96 481.25,8334.51 481.086,8335.76C480.818,8337.8 480.656,8339.79 480.322,8342.33C480.125,8343.83 480.328,8344.5 481.99,8345.45C483.652,8346.4 484.33,8346.24 485.523,8345.31C487.543,8343.74 489.173,8342.59 490.796,8341.32C491.796,8340.55 492.673,8340.87 493.866,8341.94C495.081,8343.03 495.53,8343.8 494.897,8344.9C493.868,8346.68 492.958,8348.46 491.678,8350.67C490.92,8351.98 490.854,8352.68 492.026,8354.19C493.196,8355.7 493.885,8355.82 495.344,8355.41C497.811,8354.73 499.758,8354.3 501.74,8353.75C502.961,8353.42 503.59,8354.08 504.34,8355.5C505.028,8356.8 505.164,8357.85 504.16,8358.62C502.527,8359.88 501.008,8361.17 498.976,8362.72C497.775,8363.65 497.449,8364.26 497.951,8366.11C498.455,8367.96 499.047,8368.32 500.551,8368.51C503.09,8368.82 505.055,8369.17 507.096,8369.42C508.346,8369.61 508.736,8370.45 508.826,8372.05L508.829,8372.03ZM465.029,8358.57C474.129,8358.57 481.516,8365.96 481.516,8375.06C481.516,8384.16 474.129,8391.54 465.029,8391.54C455.93,8391.54 448.542,8384.16 448.542,8375.06C448.542,8365.96 455.93,8358.57 465.029,8358.57ZM488.349,8340.76C490.119,8340.36 492.542,8339.81 494.886,8339.26C495.919,8339.01 496.647,8339.97 497.46,8341.38C498.272,8342.79 498.739,8343.9 498.011,8344.67C496.361,8346.42 494.669,8348.25 493.445,8349.58C492.536,8350.57 492.767,8351.42 493.802,8352.77C494.838,8354.12 495.603,8354.56 496.796,8353.94C498.403,8353.1 500.601,8351.94 502.722,8350.8C503.657,8350.3 504.607,8351.03 505.757,8352.19C506.907,8353.34 507.644,8354.29 507.142,8355.22C506,8357.34 504.838,8359.54 504.001,8361.15C503.38,8362.34 503.823,8363.1 505.173,8364.14C506.523,8365.17 507.376,8365.4 508.366,8364.49C509.702,8363.27 511.524,8361.58 513.278,8359.92C514.051,8359.2 515.159,8359.66 516.568,8360.48C517.977,8361.29 518.934,8362.02 518.69,8363.05C518.137,8365.4 517.584,8367.82 517.191,8369.59C516.899,8370.9 517.525,8371.52 519.097,8372.17C520.668,8372.82 521.552,8372.82 522.274,8371.69C523.248,8370.16 524.569,8368.06 525.836,8366.01C526.395,8365.1 527.586,8365.27 529.156,8365.69C530.727,8366.11 531.841,8366.56 531.873,8367.62C531.945,8370.03 532.037,8372.52 532.116,8374.33C532.174,8375.67 532.939,8376.11 534.627,8376.33C536.315,8376.55 537.166,8376.32 537.57,8375.04C538.115,8373.31 538.847,8370.94 539.541,8368.63C539.846,8367.61 541.039,8367.46 542.666,8367.46C544.292,8367.46 545.484,8367.61 545.791,8368.63C546.484,8370.94 547.216,8373.31 547.76,8375.04C548.164,8376.32 549.017,8376.55 550.703,8376.33C552.391,8376.1 553.155,8375.66 553.213,8374.32C553.291,8372.51 553.385,8370.02 553.457,8367.62C553.488,8366.56 554.602,8366.1 556.174,8365.68C557.744,8365.26 558.936,8365.1 559.494,8366C560.761,8368.05 562.082,8370.15 563.056,8371.68C563.777,8372.82 564.66,8372.81 566.232,8372.16C567.803,8371.51 568.427,8370.89 568.136,8369.57C567.743,8367.8 567.189,8365.38 566.636,8363.03C566.392,8362 567.35,8361.27 568.759,8360.46C570.167,8359.65 571.277,8359.18 572.048,8359.91C573.803,8361.56 575.624,8363.25 576.96,8364.48C577.951,8365.39 578.801,8365.16 580.15,8364.12C581.501,8363.08 581.941,8362.32 581.32,8361.13C580.483,8359.52 579.321,8357.32 578.18,8355.2C577.678,8354.26 578.413,8353.31 579.564,8352.17C580.714,8351.01 581.665,8350.28 582.599,8350.78C584.721,8351.92 586.918,8353.08 588.525,8353.92C589.718,8354.54 590.48,8354.1 591.515,8352.75C592.552,8351.4 592.78,8350.55 591.87,8349.56C590.645,8348.22 588.954,8346.4 587.304,8344.64C586.575,8343.87 587.041,8342.76 587.855,8341.35C588.667,8339.95 589.396,8338.99 590.429,8339.23C592.773,8339.78 595.197,8340.34 596.966,8340.73C598.278,8341.02 598.9,8340.4 599.55,8338.83C600.202,8337.25 600.201,8336.37 599.068,8335.65C597.539,8334.67 595.433,8333.35 593.384,8332.09C592.482,8331.53 592.644,8330.34 593.066,8328.76C593.486,8327.19 593.941,8326.08 595.002,8326.05C597.41,8325.98 599.895,8325.88 601.705,8325.81C603.049,8325.75 603.486,8324.98 603.709,8323.3C603.932,8321.61 603.702,8320.76 602.42,8320.35C600.691,8319.81 598.316,8319.08 596.008,8318.38C594.992,8318.08 594.841,8316.88 594.841,8315.26C594.841,8313.63 594.992,8312.44 596.008,8312.13C598.316,8311.44 600.692,8310.71 602.42,8310.16C603.702,8309.76 603.928,8308.91 603.705,8307.22C603.483,8305.53 603.041,8304.77 601.697,8304.71C599.886,8304.63 597.403,8304.54 594.995,8304.47C593.934,8304.43 593.479,8303.32 593.058,8301.75C592.637,8300.18 592.474,8298.99 593.376,8298.43C595.426,8297.16 597.53,8295.84 599.06,8294.87C600.195,8294.15 600.191,8293.26 599.54,8291.69C598.889,8290.12 598.264,8289.5 596.951,8289.79C595.181,8290.18 592.759,8290.73 590.413,8291.29C589.381,8291.53 588.653,8290.57 587.841,8289.16C587.027,8287.76 586.562,8286.65 587.288,8285.88C588.94,8284.12 590.632,8282.3 591.856,8280.96C592.764,8279.97 592.534,8279.12 591.498,8277.77C590.462,8276.42 589.697,8275.98 588.505,8276.6C586.898,8277.44 584.7,8278.6 582.578,8279.74C581.643,8280.25 580.693,8279.51 579.543,8278.36C578.393,8277.21 577.657,8276.26 578.16,8275.32C579.3,8273.2 580.462,8271 581.3,8269.4C581.921,8268.2 581.478,8267.44 580.128,8266.41C578.777,8265.37 577.926,8265.14 576.934,8266.05C575.598,8267.28 573.778,8268.97 572.023,8270.62C571.251,8271.35 570.141,8270.88 568.733,8270.07C567.325,8269.25 566.367,8268.53 566.61,8267.49C567.164,8265.15 567.717,8262.73 568.11,8260.95C568.401,8259.64 567.776,8259.02 566.204,8258.37C564.632,8257.72 563.749,8257.72 563.027,8258.85C562.053,8260.38 560.731,8262.49 559.465,8264.54C558.907,8265.44 557.716,8265.28 556.144,8264.85C554.574,8264.43 553.46,8263.98 553.428,8262.92C553.356,8260.51 553.263,8258.03 553.185,8256.22C553.126,8254.87 552.362,8254.43 550.675,8254.21C548.987,8253.99 548.134,8254.22 547.731,8255.5C547.187,8257.23 546.455,8259.61 545.761,8261.91C545.455,8262.93 544.263,8263.08 542.636,8263.08C541.009,8263.08 539.816,8262.93 539.511,8261.91C538.818,8259.6 538.085,8257.23 537.54,8255.5C537.137,8254.22 536.284,8253.99 534.597,8254.22C532.91,8254.44 532.146,8254.88 532.087,8256.22C532.009,8258.03 531.917,8260.52 531.845,8262.93C531.812,8263.99 530.699,8264.44 529.128,8264.86C527.557,8265.28 526.365,8265.45 525.808,8264.54C524.54,8262.5 523.218,8260.39 522.246,8258.86C521.523,8257.73 520.642,8257.73 519.07,8258.38C517.498,8259.03 516.874,8259.66 517.166,8260.97C517.559,8262.74 518.111,8265.16 518.665,8267.51C518.908,8268.54 517.951,8269.27 516.543,8270.08C515.134,8270.89 514.025,8271.36 513.252,8270.63C511.498,8268.98 509.677,8267.29 508.341,8266.07C507.35,8265.16 506.499,8265.39 505.149,8266.42C503.799,8267.46 503.358,8268.22 503.98,8269.42C504.817,8271.02 505.979,8273.22 507.12,8275.34C507.624,8276.28 506.887,8277.23 505.737,8278.38C504.587,8279.53 503.635,8280.26 502.701,8279.76C500.579,8278.62 498.382,8277.46 496.774,8276.62C495.583,8276 494.82,8276.44 493.784,8277.79C492.749,8279.14 492.52,8280 493.429,8280.99C494.655,8282.32 496.345,8284.14 497.997,8285.9C498.725,8286.67 498.259,8287.78 497.445,8289.19C496.631,8290.6 495.905,8291.55 494.872,8291.31C492.526,8290.76 490.104,8290.2 488.335,8289.81C487.023,8289.52 486.4,8290.15 485.749,8291.72C485.099,8293.29 485.099,8294.17 486.233,8294.89C487.761,8295.87 489.866,8297.19 491.916,8298.46C492.819,8299.01 492.655,8300.21 492.235,8301.78C491.813,8303.35 491.359,8304.46 490.297,8304.49C487.889,8304.57 485.405,8304.66 483.595,8304.74C482.252,8304.8 481.813,8305.56 481.591,8307.25C481.369,8308.93 481.598,8309.79 482.881,8310.19C484.61,8310.73 486.985,8311.47 489.292,8312.16C490.309,8312.47 490.459,8313.66 490.459,8315.28C490.459,8316.91 490.309,8318.1 489.292,8318.41C486.984,8319.1 484.609,8319.84 482.881,8320.38C481.598,8320.78 481.373,8321.64 481.595,8323.32C481.817,8325.01 482.259,8325.77 483.602,8325.83C485.413,8325.91 487.897,8326 490.305,8326.08C491.366,8326.11 491.821,8327.22 492.242,8328.79C492.663,8330.36 492.826,8331.56 491.923,8332.11C489.874,8333.38 487.769,8334.7 486.24,8335.67C485.106,8336.4 485.109,8337.28 485.761,8338.85C486.431,8340.41 487.051,8341.03 488.361,8340.74L488.349,8340.76ZM542.659,8278.37C563.023,8278.37 579.556,8294.9 579.556,8315.27C579.556,8335.63 563.023,8352.17 542.659,8352.17C522.295,8352.17 505.761,8335.63 505.761,8315.27C505.761,8294.9 522.295,8278.37 542.659,8278.37Z" style="fill:rgb(64,17,119);"/>
            </g>
        </g>
    </g>
</svg>
