<?xml version="1.0" encoding="UTF-8" standalone="no"?>
<!DOCTYPE svg PUBLIC "-//W3C//DTD SVG 1.1//EN" "http://www.w3.org/Graphics/SVG/1.1/DTD/svg11.dtd">
<svg width="100%" height="100%" viewBox="0 0 1926 120" version="1.1" xmlns="http://www.w3.org/2000/svg" xmlns:xlink="http://www.w3.org/1999/xlink" xml:space="preserve" xmlns:serif="http://www.serif.com/" style="fill-rule:evenodd;clip-rule:evenodd;">
    <g transform="matrix(1,0,0,1,-29.5276,-317.002)">
        <g transform="matrix(1,0,0,1,-6649,171)">
            <g transform="matrix(0.774328,0,0,0.712701,523.079,-111.706)">
                <g>
                    <g transform="matrix(1.28608,0,0,1.28608,7968.45,98.9342)">
                        <path d="M1918.88,225.79L652.737,225.79L570.639,279.946C1246.31,290.69 1776.28,391.317 1918.87,291.107L1918.88,225.79Z" style="fill:rgb(57,39,125);"/>
                    </g>
                    <g transform="matrix(1.28608,0,0,1.28608,7957.52,136.08)">
                        <path d="M1607.06,289.264C1746.57,291.363 700.766,84.073 60.17,265.067C59.083,265.374 -0.366,276.973 -0.366,276.973C0.1,276.938 0.319,276.922 0.811,276.886C66.954,272.001 363.663,251.053 587.368,251.053C840.596,251.053 1397.06,286.106 1607.06,289.264Z" style="fill:white;stroke:rgb(57,39,125);stroke-width:3px;"/>
                    </g>
                    <g transform="matrix(1.29144,0,0,1.28608,7958.17,98.9342)">
                        <path d="M-1.125,305.174C-1.125,305.174 370.632,279.198 587.368,279.198C840.596,279.198 1427.37,315.79 1637.37,318.948C1777.12,321.05 1918.88,204.233 1918.88,204.233L-1.125,204.233L-1.125,305.174Z" style="fill:white;"/>
                    </g>
                    <g transform="matrix(1.29144,0,0,1.40311,7911.27,-83.1963)">
                        <path d="M35.187,409.524L35.187,411.609L35.897,411.554L35.521,409.503L35.187,409.524Z" style="fill:rgb(57,39,125);"/>
                    </g>
                    <g transform="matrix(1.28608,0,0,1.28608,7967,98.8182)">
                        <path d="M1920,204.329L1920,263.079C1920,263.079 1864.11,317.442 1689.4,319.04C1615.54,319.716 1606.18,319.92 1565.99,317.222C1608.39,317.162 1774.53,325.143 1774.49,204.329L1920,204.329Z" style="fill:rgb(251,149,5);fill-rule:nonzero;"/>
                    </g>
                </g>
            </g>
        </g>
    </g>
</svg>
