<?xml version="1.0" encoding="UTF-8" standalone="no"?>
<!DOCTYPE svg PUBLIC "-//W3C//DTD SVG 1.1//EN" "http://www.w3.org/Graphics/SVG/1.1/DTD/svg11.dtd">
<svg width="100%" height="100%" viewBox="0 0 1920 95" version="1.1" xmlns="http://www.w3.org/2000/svg" xmlns:xlink="http://www.w3.org/1999/xlink" xml:space="preserve" xmlns:serif="http://www.serif.com/" style="fill-rule:evenodd;clip-rule:evenodd;stroke-linejoin:round;stroke-miterlimit:2;">
    <g transform="matrix(1,0,0,1,-92.8869,-617.008)">
        <g transform="matrix(1,0,0,1.76979,-6649,302.635)">
            <g transform="matrix(0.774328,0,0,0.402703,580.079,32.0147)">
                <g>
                    <g transform="matrix(1.29144,0,0,1.28608,7959.08,101.945)">
                        <path d="M-1.125,302.02C-1.125,302.02 370.632,279.198 587.368,279.198C840.596,279.198 1427.37,296.447 1637.37,299.605C1715.4,300.779 1812.91,300.964 1918.16,239.004C1278.4,230.089 638.638,241.808 -1.125,302.02Z" style="fill:rgb(64,17,119);"/>
                    </g>
                    <g transform="matrix(1.28608,0,0,1.28608,7968.45,71.2176)">
                        <path d="M1918.88,225.79L652.737,225.79L570.639,279.946C1246.47,283.912 1776.57,380.808 1918.87,291.107L1918.88,225.79Z" style="fill:rgb(64,17,119);"/>
                    </g>
                    <g transform="matrix(1.29144,0,0,1.28608,7959.08,97.8892)">
                        <path d="M-1.125,305.174C-1.125,305.174 370.632,279.198 587.368,279.198C840.596,279.198 1427.37,296.447 1637.37,299.605C1715.4,300.779 1812.91,300.964 1918.16,239.004L1918.16,205.051L-1.135,205.051L-1.125,305.174Z" style="fill:white;"/>
                    </g>
                    <g transform="matrix(1.28608,0,0,1.28608,7967,98.8182)">
                        <path d="M1920,204.329L1920,258.715C1920,258.715 1890.31,298.448 1688.49,300.046C1633.82,300.479 1521.58,297.534 1499.2,296.13C1512.74,293.921 1627.91,303.323 1627.88,204.329L1920,204.329Z" style="fill:rgb(251,149,5);fill-rule:nonzero;"/>
                    </g>
                </g>
            </g>
        </g>
    </g>
</svg>
