<?xml version="1.0" encoding="UTF-8" standalone="no"?>
<!DOCTYPE svg PUBLIC "-//W3C//DTD SVG 1.1//EN" "http://www.w3.org/Graphics/SVG/1.1/DTD/svg11.dtd">
<svg width="100%" height="100%" viewBox="0 0 375 52" version="1.1" xmlns="http://www.w3.org/2000/svg" xmlns:xlink="http://www.w3.org/1999/xlink" xml:space="preserve" xmlns:serif="http://www.serif.com/" style="fill-rule:evenodd;clip-rule:evenodd;stroke-linejoin:round;stroke-miterlimit:2;">
    <g transform="matrix(0.127681,0,0,0.269231,-1654.37,0)">
        <g transform="matrix(6.93783,0,0,3.02837,-56511.2,-1227.3)">
            <g>
                <g transform="matrix(1.28608,0,0,1.28608,7968.45,70.6379)">
                    <path d="M1918.88,260.193L1589.72,260.193L1589.72,301.732C1616.55,301.307 1642.07,300.944 1666.16,302.671C1737.5,307.782 1838.64,316.839 1918.87,295.876L1918.88,260.193Z" style="fill:rgb(64,17,119);"/>
                </g>
                <g transform="matrix(1.29144,0,0,1.28608,7959.08,97.8892)">
                    <path d="M1590.37,239.004L1590.37,281.007C1614.18,280.4 1638.46,279.567 1662.5,281.127C1704.87,283.878 1746.47,286.322 1783.41,286.491C1839.49,286.747 1833.47,287.959 1918.16,271.249L1918.16,239.004L1590.37,239.004Z" style="fill:white;"/>
                </g>
                <g transform="matrix(1.28608,0,0,1.28608,7967,98.2385)">
                    <path d="M1920,238.732L1920,270.977C1884.14,283.19 1840.55,285.67 1833.76,285.668C1833.76,285.668 1892.94,277.954 1892.94,238.732L1920,238.732Z" style="fill:rgb(251,149,5);fill-rule:nonzero;"/>
                </g>
            </g>
        </g>
    </g>
</svg>
