<?xml version="1.0" encoding="UTF-8" standalone="no"?>
<!DOCTYPE svg PUBLIC "-//W3C//DTD SVG 1.1//EN" "http://www.w3.org/Graphics/SVG/1.1/DTD/svg11.dtd">
<svg width="100%" height="100%" viewBox="0 0 1926 160" version="1.1" xmlns="http://www.w3.org/2000/svg" xmlns:xlink="http://www.w3.org/1999/xlink" xml:space="preserve" xmlns:serif="http://www.serif.com/" style="fill-rule:evenodd;clip-rule:evenodd;">
    <g transform="matrix(1,0,0,1,-29.202,-571.033)">
        <g transform="matrix(1,0,0,1,-6649,171)">
            <g transform="matrix(0.774328,0,0,0.730016,523.079,163.298)">
                <g>
                    <g transform="matrix(1.28608,0,0,1.28608,7968.45,98.9342)">
                        <path d="M1918.88,225.79L652.737,225.79L570.639,279.946C570.639,279.946 1200.79,297.632 1564.11,338.684C1737.77,358.307 1849.53,333.376 1918.88,301.985L1918.88,225.79Z" style="fill:rgb(57,39,125);"/>
                    </g>
                    <g transform="matrix(1.28608,0,0,1.28608,7957.52,136.08)">
                        <path d="M1607.06,289.264C1746.57,291.363 700.766,84.073 60.17,265.067C59.083,265.374 -0.626,276.992 -0.626,276.992C62.539,272.314 362,251.053 587.368,251.053C840.596,251.053 1397.06,286.106 1607.06,289.264Z" style="fill:white;stroke:rgb(57,39,125);stroke-width:3px;"/>
                    </g>
                    <g transform="matrix(1.29144,0,0,1.28608,7958.17,98.9342)">
                        <path d="M-1.125,305.174C-1.125,305.174 370.632,279.198 587.368,279.198C840.596,279.198 1427.37,315.79 1637.37,318.948C1777.12,321.05 1918.88,175.474 1918.88,175.474L-1.125,175.474L-1.125,305.174Z" style="fill:white;"/>
                    </g>
                    <g transform="matrix(1.28608,0,0,1.28608,7967,98.8182)">
                        <path d="M1920,175.315L1920,263.079C1920,263.079 1864.11,317.442 1689.4,319.04C1615.54,319.716 1606.18,319.92 1565.99,317.222C1608.39,317.162 1764.5,329.147 1768.47,175.315L1920,175.315Z" style="fill:rgb(251,149,5);fill-rule:nonzero;"/>
                    </g>
                </g>
            </g>
        </g>
    </g>
</svg>
