<?xml version="1.0" encoding="UTF-8" standalone="no"?>
<!DOCTYPE svg PUBLIC "-//W3C//DTD SVG 1.1//EN" "http://www.w3.org/Graphics/SVG/1.1/DTD/svg11.dtd">
<svg width="100%" height="100%" viewBox="0 0 1928 273" version="1.1" xmlns="http://www.w3.org/2000/svg" xmlns:xlink="http://www.w3.org/1999/xlink" xml:space="preserve" xmlns:serif="http://www.serif.com/" style="fill-rule:evenodd;clip-rule:evenodd;">
    <g transform="matrix(1,0,0,1,-35.1874,-32.6238)">
        <g transform="matrix(1,0,0,1,-6649,171)">
            <g transform="matrix(0.777554,0,0,0.777554,497.412,-290.777)">
                <g>
                    <g transform="matrix(0.63674,0,0,0.749465,7967,49.1049)">
                        <rect x="0" y="196" width="3878" height="467" style="fill:none;"/>
                    </g>
                    <g transform="matrix(0.63674,0,0,0.749465,7967,49.1049)">
                        <path d="M0,541.869L0,663L3878,663L3878,518.849C3782.16,558.615 3591.69,617.408 3309.41,613.802C2885.26,608.383 1700.1,497.294 1188.63,497.294C733.437,497.294 128.589,533.777 1.008,541.805L0,541.869Z" style="fill:none;"/>
                    </g>
                    <g transform="matrix(0.63674,0,0,0.749465,7967,49.1049)">
                        <path d="M3878,453.942L3878,196L0,196L0,663L3878,663L3878,584.693C3737.94,638.56 3512.21,681.341 3161.44,647.669C2427.62,577.223 1349.47,499.362 1349.47,499.362L1320.66,453.942L3878,453.942Z" style="fill:none;"/>
                    </g>
                    <g transform="matrix(1.28608,0,0,1.28608,7968.45,98.9342)">
                        <path d="M1918.88,225.79L652.737,225.79L667,252.258C667,252.258 1200.79,297.632 1564.11,338.684C1737.77,358.307 1849.53,333.376 1918.88,301.985L1918.88,225.79Z" style="fill:rgb(57,39,125);"/>
                    </g>
                    <g transform="matrix(1.28608,0,0,1.28608,7968.45,98.9342)">
                        <path d="M1637.37,318.948C1776.88,321.046 700.766,84.073 60.17,265.067C59.083,265.374 -0.626,276.992 -0.626,276.992C62.539,272.314 362,251.053 587.368,251.053C840.596,251.053 1427.37,315.79 1637.37,318.948Z" style="fill:white;stroke:rgb(57,39,125);stroke-width:3px;"/>
                    </g>
                    <g transform="matrix(1.29144,0,0,1.28608,7958.17,98.9342)">
                        <path d="M1637.37,318.948C1777.12,321.05 1918.88,75.474 1918.88,75.474L-1.125,75.474L-1.125,277.029L-0.626,276.992C62.539,272.314 362,251.053 587.368,251.053C840.596,251.053 1427.37,315.79 1637.37,318.948Z" style="fill:white;"/>
                    </g>
                    <g transform="matrix(-0.327899,0,0,1.11923,7981.16,192.92)">
                        <path d="M74.565,234.357L40,233.612L40.002,236.01L74.565,236.846L74.565,234.357Z" style="fill:rgb(57,39,125);"/>
                    </g>
                    <g id="Tracé_4" transform="matrix(1.28608,0,0,1.28608,7967,98.8182)">
                        <path d="M1920,75.564L1920,263.079C1920,263.079 1820.93,319.974 1646.22,319.04C1471.51,318.106 1409.97,306.789 1367.92,303.052C1326.51,299.372 1648.78,320.451 1598.27,75.564" style="fill:rgb(251,149,5);fill-rule:nonzero;"/>
                    </g>
                </g>
            </g>
        </g>
    </g>
</svg>
