<?xml version="1.0" encoding="UTF-8" standalone="no"?>
<!DOCTYPE svg PUBLIC "-//W3C//DTD SVG 1.1//EN" "http://www.w3.org/Graphics/SVG/1.1/DTD/svg11.dtd">
<svg width="100%" height="100%" viewBox="0 0 346 330" version="1.1" xmlns="http://www.w3.org/2000/svg" xmlns:xlink="http://www.w3.org/1999/xlink" xml:space="preserve" xmlns:serif="http://www.serif.com/" style="fill-rule:evenodd;clip-rule:evenodd;stroke-linejoin:round;stroke-miterlimit:2;">
    <g transform="matrix(0.75,0,0,0.75,0,0)">
        <g transform="matrix(1,0,0,1,0,0.00790015)">
            <g id="Groupe_287">
                <g id="Groupe_286">
                    <g id="Groupe_285">
                        <g id="Tracé_1449" transform="matrix(1,0,0,1,-116.925,-315.466)">
                            <path d="M158.61,754.99L268.142,754.99L277.228,730.528C280.463,721.877 287.03,714.872 295.455,711.086C306.522,705.953 316.388,698.552 324.413,689.364C336.826,675.261 347.202,659.489 355.24,642.507L287.359,642.174C287.359,642.174 293.468,604.204 259.731,553.774C256.126,548.372 254.471,541.898 255.04,535.428L258.24,498.648C258.24,498.648 281.166,473.027 267.1,441.241C267.1,441.241 253.65,422.618 248.313,429.435C248.313,429.435 207.684,526.186 203.985,540.572C200.286,554.958 195.353,564.001 200.285,609.213C201.425,619.226 202.013,629.294 202.044,639.371C202.009,655.126 198.496,670.681 191.756,684.922L158.61,754.99Z" style="fill:rgb(246,193,157);fill-rule:nonzero;"/>
                        </g>
                        <g id="Groupe_272" transform="matrix(1,0,0,1,41.685,319.833)">
                            <g opacity="0.2">
                                <g transform="matrix(1,0,0,1,-158.61,-1216.95)">
                                    <g id="Groupe_271">
                                        <g id="Groupe_270">
                                            <path id="Tracé_1450" d="M260.769,1273.88C250.602,1262.59 236.479,1264.37 221.627,1259.22C206.775,1254.07 202.011,1216.95 202.011,1216.95L202.011,1216.95C202.035,1218.35 202.046,1219.71 202.043,1221.02C202.009,1236.77 198.495,1252.33 191.755,1266.57L158.611,1336.64L268.142,1336.64L277.228,1312.17C280.463,1303.52 287.03,1296.52 295.455,1292.73C304.484,1288.57 312.715,1282.86 319.777,1275.87C289.609,1288.55 270.936,1285.17 260.769,1273.88" style="fill:rgb(246,193,157);fill-rule:nonzero;"/>
                                        </g>
                                    </g>
                                </g>
                            </g>
                        </g>
                        <g id="Tracé_1451" transform="matrix(1,0,0,1,-267.621,-3.4)">
                            <path d="M363.032,4.611C388.213,44.343 450.277,79.752 450.277,79.752C450.277,79.752 400.94,75.745 376.456,43.86L385.334,36.507C385.334,36.507 378.278,37.19 372.367,37.872C366.393,27.796 363.173,16.323 363.032,4.61" style="fill:rgb(156,117,196);fill-rule:nonzero;"/>
                        </g>
                        <g id="Tracé_1452" transform="matrix(1,0,0,1,-267.62,-0.002)">
                            <path d="M429.1,17.645C425.271,19.382 419.606,22.029 419.606,22.029L425.064,14.187C418.984,9.527 412.112,6.004 404.779,3.787C401.969,7.879 398.666,12.452 398.666,12.452L398.011,2.013C386.496,-0.376 374.641,-0.647 363.028,1.213C388.209,40.945 450.273,76.353 450.273,76.353C450,47.161 441.107,28.932 429.1,17.645" style="fill:rgb(172,140,206);fill-rule:nonzero;"/>
                        </g>
                        <g id="Tracé_1453" transform="matrix(1,0,0,1,-241.686,-137.713)">
                            <path d="M327.851,194.986C334.664,190.957 342.225,188.352 350.075,187.331C352.275,189.842 354.975,192.795 354.975,192.795L355.125,186.882C383.192,185.537 406.856,203.214 406.856,203.214C390.795,212.985 376.973,215.725 365.585,214.914C364.867,212.849 363.846,209.768 363.846,209.768L361.94,214.527C356.919,213.81 352.031,212.359 347.432,210.221C348.443,207.752 349.502,204.93 349.502,204.93L343.517,208.21C337.487,204.86 332.166,200.368 327.851,194.986" style="fill:rgb(91,153,230);fill-rule:nonzero;"/>
                        </g>
                        <g id="Tracé_1454" transform="matrix(1,0,0,1,-241.686,-158.626)">
                            <path d="M365.584,235.827C364.866,233.762 363.845,230.681 363.845,230.681L361.939,235.44C356.918,234.723 352.03,233.272 347.431,231.134C348.442,228.665 349.501,225.843 349.501,225.843L343.516,229.123C337.486,225.773 332.166,221.282 327.851,215.9C360.506,212.168 406.851,224.128 406.851,224.128C390.79,233.899 376.968,236.639 365.58,235.828" style="fill:rgb(38,113,209);fill-rule:nonzero;"/>
                        </g>
                        <g id="Tracé_1455" transform="matrix(1,0,0,1,-1010.25,-117.698)">
                            <path d="M1372.79,170.889L1370.42,188.733L1383.09,179.477L1421.89,159.659L1391.88,162.406C1391.88,162.406 1376.6,166.119 1375.77,166.868C1374.68,168.14 1373.69,169.483 1372.79,170.889" style="fill:rgb(92,179,11);fill-rule:nonzero;"/>
                        </g>
                        <g id="Tracé_1456" transform="matrix(1,0,0,1,-979.622,-117.698)">
                            <path d="M1328.87,160.113L1391.26,159.658L1342.16,170.889L1328.87,160.113Z" style="fill:rgb(146,204,92);fill-rule:nonzero;"/>
                        </g>
                        <g id="Tracé_1457" transform="matrix(1,0,0,1,-1027.29,-117.698)">
                            <path d="M1409.89,188.84L1393.54,175.71L1438.93,159.658L1409.89,188.84Z" style="fill:rgb(146,204,92);fill-rule:nonzero;"/>
                        </g>
                        <g id="Tracé_1458" transform="matrix(1,0,0,1,-997.751,-169.099)">
                            <path d="M1353.86,231.585C1355.2,231.063 1356.6,230.696 1358.02,230.491L1357.9,229.384C1356.38,229.596 1354.89,229.985 1353.46,230.543L1353.86,231.585Z" style="fill:rgb(20,20,20);fill-rule:nonzero;"/>
                        </g>
                        <g id="Tracé_1459" transform="matrix(1,0,0,1,-888.577,-185.002)">
                            <path d="M1205.37,346.87C1207.86,345.618 1210.27,344.218 1212.59,342.679L1213.21,343.606C1210.85,345.17 1208.4,346.591 1205.87,347.864L1205.37,346.87ZM1219.17,337.564C1221.22,335.697 1223.1,333.645 1224.77,331.434L1225.66,332.105C1223.94,334.371 1222.02,336.473 1219.92,338.387L1219.17,337.564ZM1229.08,324.343C1229.62,323.197 1230.13,322.002 1230.57,320.791C1231.07,319.421 1231.52,317.991 1231.9,316.534L1232.98,316.813C1232.59,318.303 1232.13,319.772 1231.62,321.177C1231.16,322.419 1230.64,323.646 1230.08,324.823L1229.08,324.343ZM1233.58,299.978L1234.69,299.953C1234.77,302.783 1234.68,305.614 1234.42,308.433L1233.31,308.333C1233.56,305.557 1233.65,302.769 1233.58,299.982M1231.99,283.282L1233.09,283.124C1233.56,286.384 1233.89,289.048 1234.14,291.507L1233.03,291.619C1232.79,289.176 1232.45,286.527 1231.99,283.282M1230.74,274.893C1230.31,272.096 1230.17,269.262 1230.32,266.436L1231.43,266.505C1231.29,269.253 1231.42,272.008 1231.84,274.727L1231.85,274.792L1230.75,274.944L1230.74,274.893ZM1232.14,258.065C1233.23,255.378 1234.88,252.954 1236.98,250.96L1237.74,251.769C1235.76,253.655 1234.2,255.946 1233.17,258.487L1232.14,258.065Z" style="fill:rgb(20,20,20);fill-rule:nonzero;"/>
                        </g>
                        <g id="Tracé_1460" transform="matrix(1,0,0,1,-855.417,-463.628)">
                            <path d="M1160.75,631.507C1162.18,631.007 1163.6,630.486 1164.95,629.953L1164.54,628.917C1163.2,629.444 1161.81,629.962 1160.39,630.455L1160.75,631.507Z" style="fill:rgb(20,20,20);fill-rule:nonzero;"/>
                        </g>
                        <g id="Tracé_1461" transform="matrix(1,0,0,1,-835.626,-114.091)">
                            <path d="M1135.18,163.551C1135.18,163.551 1158.38,148.023 1163.68,158.251C1168.98,168.479 1133.54,204.68 1133.54,204.68L1135.18,163.551Z" style="fill:rgb(241,154,94);fill-rule:nonzero;"/>
                        </g>
                        <g id="Tracé_1462" transform="matrix(1,0,0,1,-835.626,-303.859)">
                            <path d="M1135.18,420.975C1135.18,420.975 1158.38,405.447 1163.68,415.675C1168.98,425.903 1133.54,462.104 1133.54,462.104L1135.18,420.975Z" style="fill:rgb(241,154,94);fill-rule:nonzero;"/>
                        </g>
                        <g id="Tracé_1463" transform="matrix(1,0,0,1,-835.626,-433.153)">
                            <path d="M1135.18,596.363C1135.18,596.363 1158.38,580.836 1163.68,591.063C1168.98,601.29 1133.54,637.493 1133.54,637.493L1135.18,596.363Z" style="fill:rgb(241,154,94);fill-rule:nonzero;"/>
                        </g>
                        <g id="Tracé_1464" transform="matrix(1,0,0,1,-389.871,-89.929)">
                            <path d="M673.4,121.989L546.039,121.989C536.618,121.989 528.865,129.742 528.865,139.163L528.865,399.463C528.867,408.884 536.618,416.635 546.039,416.637L673.4,416.637C682.821,416.637 690.574,408.884 690.574,399.463L690.574,139.163C690.572,129.742 682.821,121.991 673.4,121.989" style="fill:rgb(20,20,20);fill-rule:nonzero;"/>
                        </g>
                        <g id="Groupe_275" transform="matrix(1,0,0,1,129.643,215.819)">
                            <g opacity="0.2">
                                <g transform="matrix(1,0,0,1,-493.283,-821.181)">
                                    <g id="Groupe_274">
                                        <g id="Groupe_273">
                                            <path id="Tracé_1465" d="M514.238,856.284C514.238,856.284 491.201,912.677 493.438,923.34C495.675,934.003 509.652,948.261 543.952,943.509C563.479,940.893 582.844,937.185 601.956,932.4C621.068,927.615 603.389,856.293 601.956,852.434C600.523,848.575 538.856,821.18 536.426,821.18C533.996,821.18 514.238,856.28 514.238,856.28" style="fill:rgb(246,193,157);fill-rule:nonzero;"/>
                                        </g>
                                    </g>
                                </g>
                            </g>
                        </g>
                        <g id="Rectangle_164" transform="matrix(1,0,0,1,147.32,55.468)">
                            <rect x="0" y="0" width="145.062" height="247.832" style="fill:white;"/>
                        </g>
                        <g id="Tracé_1466" transform="matrix(1,0,0,1,-491.322,-314.156)">
                            <path d="M746.852,538.68L675.493,538.68C670.551,538.68 666.485,534.614 666.485,529.672L666.485,435.164C666.485,430.222 670.551,426.156 675.493,426.156L746.853,426.156C751.795,426.156 755.861,430.222 755.861,435.164L755.861,529.672C755.861,534.614 751.795,538.68 746.853,538.68" style="fill:rgb(218,231,247);fill-rule:nonzero;"/>
                        </g>
                        <g id="Tracé_1467" transform="matrix(1,0,0,1,-529.512,-441.975)">
                            <path d="M718.291,599.545L725.374,633.53C725.658,634.985 726.936,636.049 728.418,636.066L770.309,636.066C771.791,636.049 773.069,634.985 773.353,633.53L780.436,599.545L718.291,599.545ZM730.783,632.772C729.842,632.772 729.068,631.998 729.068,631.057L726.69,606.969C726.69,606.028 727.464,605.253 728.406,605.253C729.347,605.253 730.121,606.028 730.121,606.969L732.499,631.057C732.499,631.998 731.725,632.772 730.784,632.772M739.411,632.772C738.47,632.772 737.696,631.998 737.696,631.057L736.745,606.969C736.745,606.028 737.519,605.253 738.46,605.253C739.402,605.253 740.176,606.028 740.176,606.969L741.127,631.057C741.127,631.998 740.353,632.772 739.412,632.772M751.081,631.057C751.081,631.998 750.307,632.772 749.365,632.772C748.424,632.772 747.65,631.998 747.65,631.057L747.65,606.969C747.65,606.028 748.424,605.254 749.365,605.254C750.307,605.254 751.081,606.028 751.081,606.969L751.081,631.057ZM761.034,631.057C761.034,631.998 760.26,632.772 759.318,632.772C758.377,632.772 757.603,631.998 757.603,631.057L758.555,606.969C758.555,606.028 759.329,605.253 760.27,605.253C761.212,605.253 761.986,606.028 761.986,606.969L761.034,631.057ZM769.661,631.057C769.661,631.998 768.887,632.772 767.945,632.772C767.004,632.772 766.23,631.998 766.23,631.057L768.609,606.969C768.609,606.028 769.383,605.254 770.324,605.254C771.265,605.254 772.039,606.028 772.039,606.969C772.039,606.969 769.661,631.057 769.661,631.057Z" style="fill:rgb(146,204,92);fill-rule:nonzero;"/>
                        </g>
                        <g id="Tracé_1468" transform="matrix(1,0,0,1,-520.572,-434.275)">
                            <path d="M771.938,594.59L708.909,594.59C707.403,594.59 706.164,593.351 706.164,591.845C706.164,590.339 707.403,589.1 708.909,589.1L771.938,589.1C773.444,589.1 774.683,590.339 774.683,591.845C774.683,593.351 773.444,594.59 771.938,594.59" style="fill:rgb(92,179,11);fill-rule:nonzero;"/>
                        </g>
                        <g id="Tracé_1469" transform="matrix(1,0,0,1,-556.776,-399.521)">
                            <path d="M758.349,554.553L758.349,552.181C758.349,548.258 761.578,545.029 765.501,545.029L787.754,545.029C791.677,545.029 794.906,548.258 794.906,552.181L794.906,554.553C794.906,555.396 795.6,556.09 796.443,556.09C797.286,556.09 797.98,555.396 797.98,554.553L797.98,552.181C797.98,546.571 793.364,541.955 787.754,541.955L765.5,541.955C759.89,541.955 755.274,546.571 755.274,552.181L755.274,554.553C755.274,555.396 755.968,556.09 756.811,556.09C757.654,556.09 758.348,555.396 758.348,554.553" style="fill:rgb(146,204,92);fill-rule:nonzero;"/>
                        </g>
                        <g id="Tracé_1470" transform="matrix(1,0,0,1,-529.943,-125.028)">
                            <path d="M779.7,172.707L720.122,172.707C719.438,172.707 718.875,172.144 718.875,171.46L718.875,170.849C718.875,170.165 719.438,169.602 720.122,169.602L779.7,169.602C780.384,169.602 780.947,170.165 780.947,170.849L780.947,171.46C780.947,172.144 780.384,172.707 779.7,172.707" style="fill:white;fill-rule:nonzero;"/>
                        </g>
                        <g id="Tracé_1471" transform="matrix(1,0,0,1,-277.912,-315.466)">
                            <path d="M414.02,520.842C414.02,520.842 414.895,524.095 416.874,525.696L419.226,498.646C419.226,498.646 436.091,479.799 432.016,454.379C430.644,445.666 426.278,437.697 419.674,431.85C415.895,428.529 411.745,426.309 409.299,429.434C409.299,429.434 390.193,474.934 376.992,508.167L414.02,520.842Z" style="fill:rgb(246,193,157);fill-rule:nonzero;"/>
                        </g>
                        <g id="Groupe_278" transform="matrix(1,0,0,1,212.643,308.116)">
                            <g opacity="0.3">
                                <g transform="matrix(1,0,0,1,-809.094,-1172.36)">
                                    <g id="Groupe_277">
                                        <g id="Groupe_276">
                                            <path id="Tracé_1472" d="M823.343,1179.49C823.342,1183.39 820.127,1186.61 816.219,1186.61C812.311,1186.61 809.095,1183.39 809.095,1179.48C809.095,1175.58 812.31,1172.36 816.218,1172.36C816.218,1172.36 816.219,1172.36 816.219,1172.36C820.127,1172.36 823.343,1175.58 823.343,1179.48C823.343,1179.48 823.343,1179.49 823.343,1179.49" style="fill:rgb(218,231,247);fill-rule:nonzero;"/>
                                        </g>
                                    </g>
                                </g>
                            </g>
                        </g>
                        <g id="Tracé_1473" transform="matrix(1,0,0,1,-608.109,-875.905)">
                            <path d="M830,1194.11L825.752,1194.11C825.289,1194.11 824.908,1193.73 824.908,1193.27L824.908,1189.02C824.908,1188.56 825.289,1188.18 825.752,1188.18L830,1188.18C830.463,1188.18 830.844,1188.56 830.844,1189.02L830.844,1193.27C830.844,1193.73 830.463,1194.11 830,1194.11M825.752,1188.41C825.415,1188.41 825.138,1188.68 825.137,1189.02L825.137,1193.27C825.138,1193.61 825.415,1193.88 825.752,1193.88L830,1193.88C830.337,1193.88 830.614,1193.61 830.615,1193.27L830.615,1189.02C830.615,1188.68 830.337,1188.41 830,1188.41L825.752,1188.41Z" style="fill:rgb(218,231,247);fill-rule:nonzero;"/>
                        </g>
                        <g id="Rectangle_166" transform="matrix(1,0,0,1,147.32,288.64)">
                            <rect x="0" y="0" width="145.062" height="14.659" style="fill:rgb(208,225,245);"/>
                        </g>
                        <g id="Rectangle_167" transform="matrix(1,0,0,1,147.32,55.468)">
                            <rect x="0" y="0" width="145.062" height="13.152" style="fill:rgb(208,225,245);"/>
                        </g>
                        <g id="Tracé_1474" transform="matrix(1,0,0,1,-340.379,-315.466)">
                            <path d="M475.2,456.158C480.479,453.73 483.235,439.993 484.222,433.819C479.985,429.557 474.671,425.719 471.764,429.435C471.764,429.435 467.557,439.454 461.727,453.522C465.713,455.741 471.252,457.974 475.2,456.158" style="fill:rgb(241,154,94);fill-rule:nonzero;"/>
                        </g>
                        <g id="Tracé_1475" transform="matrix(1,0,0,1,-171.807,-1049.83)">
                            <path d="M245.051,1424.73C256.641,1431.85 293.951,1453.14 332.534,1457.68C334.794,1457.94 336.384,1460.01 335.715,1461.8L328.975,1479.86C328.405,1481.12 327.033,1481.83 325.675,1481.57C314.305,1480.18 267.391,1473.12 234.382,1447.59C233.308,1446.87 232.828,1445.52 233.205,1444.28L240.083,1425.85C240.731,1424.12 243.159,1423.57 245.046,1424.73" style="fill:rgb(20,20,20);fill-rule:nonzero;"/>
                        </g>
                        <g id="Tracé_1476" transform="matrix(1,0,0,1,-193.204,-1077.14)">
                            <path d="M263.063,1469.3L262.936,1469.25C262.426,1469.06 262.085,1468.57 262.085,1468.03C262.085,1467.87 262.113,1467.71 262.168,1467.57L264.243,1462.01C264.433,1461.5 264.924,1461.16 265.468,1461.16C265.625,1461.16 265.78,1461.19 265.926,1461.24L266.053,1461.29C266.563,1461.48 266.904,1461.97 266.904,1462.52C266.904,1462.67 266.876,1462.83 266.821,1462.97L264.746,1468.53C264.556,1469.04 264.065,1469.38 263.521,1469.38C263.364,1469.38 263.209,1469.35 263.063,1469.3" style="fill-rule:nonzero;"/>
                        </g>
                        <g id="Tracé_1477" transform="matrix(1,0,0,1,-212.67,-1089.14)">
                            <path d="M289.468,1485.57L289.341,1485.52C288.831,1485.33 288.49,1484.84 288.49,1484.3C288.49,1484.14 288.518,1483.99 288.573,1483.84L290.648,1478.28C290.838,1477.77 291.329,1477.43 291.873,1477.43C292.03,1477.43 292.185,1477.46 292.331,1477.51L292.458,1477.56C292.968,1477.75 293.309,1478.24 293.309,1478.79C293.309,1478.94 293.281,1479.1 293.226,1479.25L291.151,1484.8C290.961,1485.31 290.47,1485.65 289.926,1485.65C289.769,1485.65 289.614,1485.63 289.468,1485.57" style="fill-rule:nonzero;"/>
                        </g>
                        <g id="Tracé_1478" transform="matrix(1,0,0,1,-232.167,-1101.05)">
                            <path d="M315.916,1501.73L315.789,1501.69C315.117,1501.43 314.771,1500.68 315.021,1500L317.096,1494.45C317.286,1493.94 317.777,1493.6 318.321,1493.6C318.478,1493.6 318.633,1493.62 318.779,1493.68L318.907,1493.73C319.417,1493.92 319.758,1494.41 319.758,1494.95C319.758,1495.11 319.73,1495.26 319.675,1495.41L317.6,1500.97C317.349,1501.64 316.589,1501.98 315.917,1501.73" style="fill-rule:nonzero;"/>
                        </g>
                        <g id="Tracé_1479" transform="matrix(1,0,0,1,-252.231,-1110.74)">
                            <path d="M343.134,1514.88L343.007,1514.83C342.497,1514.64 342.156,1514.15 342.156,1513.61C342.156,1513.45 342.184,1513.29 342.239,1513.15L344.314,1507.59C344.504,1507.08 344.995,1506.74 345.539,1506.74C345.696,1506.74 345.851,1506.77 345.997,1506.82L346.125,1506.87C346.635,1507.06 346.976,1507.55 346.976,1508.1C346.976,1508.25 346.948,1508.41 346.893,1508.55L344.818,1514.11C344.628,1514.62 344.137,1514.96 343.593,1514.96C343.436,1514.96 343.281,1514.93 343.135,1514.88" style="fill-rule:nonzero;"/>
                        </g>
                        <g id="Tracé_1480" transform="matrix(1,0,0,1,-271.971,-1122.01)">
                            <path d="M369.911,1530.16L369.784,1530.11C369.274,1529.92 368.933,1529.43 368.933,1528.89C368.933,1528.73 368.961,1528.57 369.016,1528.43L371.091,1522.87C371.281,1522.36 371.772,1522.02 372.316,1522.02C372.473,1522.02 372.628,1522.05 372.774,1522.1L372.901,1522.15C373.411,1522.34 373.752,1522.83 373.752,1523.38C373.752,1523.53 373.724,1523.69 373.669,1523.83L371.594,1529.39C371.404,1529.9 370.913,1530.24 370.369,1530.24C370.212,1530.24 370.057,1530.21 369.911,1530.16" style="fill-rule:nonzero;"/>
                        </g>
                        <g id="Tracé_1481" transform="matrix(1,0,0,1,-292.581,-1130.94)">
                            <path d="M397.869,1542.28L397.742,1542.23C397.232,1542.04 396.891,1541.55 396.891,1541C396.891,1540.85 396.919,1540.69 396.974,1540.54L399.049,1534.99C399.239,1534.48 399.729,1534.14 400.274,1534.14C400.43,1534.14 400.585,1534.16 400.732,1534.22L400.859,1534.27C401.369,1534.46 401.71,1534.95 401.71,1535.49C401.71,1535.65 401.682,1535.8 401.627,1535.95L399.552,1541.51C399.362,1542.02 398.871,1542.36 398.327,1542.36C398.17,1542.36 398.015,1542.33 397.869,1542.27" style="fill-rule:nonzero;"/>
                        </g>
                        <g id="Tracé_1482" transform="matrix(1,0,0,1,-313.597,-1138.79)">
                            <path d="M426.378,1552.92L426.251,1552.87C425.741,1552.68 425.4,1552.19 425.4,1551.65C425.4,1551.49 425.428,1551.33 425.483,1551.19L427.558,1545.63C427.809,1544.96 428.569,1544.61 429.241,1544.86L429.368,1544.91C429.878,1545.1 430.219,1545.59 430.219,1546.13C430.219,1546.29 430.191,1546.45 430.136,1546.59L428.061,1552.15C427.871,1552.66 427.381,1553 426.836,1553C426.68,1553 426.525,1552.97 426.378,1552.92" style="fill-rule:nonzero;"/>
                        </g>
                        <g id="Tracé_1483" transform="matrix(1,0,0,1,-335.018,-1145.55)">
                            <path d="M455.436,1562.09L455.309,1562.04C454.799,1561.85 454.458,1561.36 454.458,1560.82C454.458,1560.66 454.486,1560.51 454.541,1560.36L456.616,1554.8C456.806,1554.29 457.297,1553.95 457.841,1553.95C457.998,1553.95 458.153,1553.98 458.299,1554.03L458.426,1554.08C458.936,1554.27 459.277,1554.76 459.277,1555.31C459.277,1555.46 459.249,1555.62 459.194,1555.76L457.119,1561.32C456.929,1561.83 456.438,1562.17 455.894,1562.17C455.737,1562.17 455.582,1562.14 455.436,1562.09" style="fill-rule:nonzero;"/>
                        </g>
                        <g id="Tracé_1484" transform="matrix(1,0,0,1,-357.31,-1149.97)">
                            <path d="M485.674,1568.1L485.547,1568.05C485.037,1567.86 484.696,1567.37 484.696,1566.82C484.696,1566.67 484.724,1566.51 484.779,1566.37L486.854,1560.81C487.044,1560.3 487.534,1559.96 488.079,1559.96C488.235,1559.96 488.39,1559.98 488.537,1560.04L488.664,1560.09C489.174,1560.28 489.515,1560.77 489.515,1561.31C489.515,1561.47 489.487,1561.62 489.432,1561.77L487.357,1567.33C487.167,1567.84 486.676,1568.18 486.132,1568.18C485.975,1568.18 485.82,1568.15 485.674,1568.09" style="fill-rule:nonzero;"/>
                        </g>
                        <g id="Tracé_1485" transform="matrix(1,0,0,1,-379.014,-1155.98)">
                            <path d="M515.117,1576.24L514.99,1576.19C514.318,1575.94 513.972,1575.18 514.222,1574.51L516.297,1568.95C516.487,1568.44 516.978,1568.1 517.522,1568.1C517.679,1568.1 517.834,1568.13 517.98,1568.18L518.108,1568.23C518.618,1568.42 518.959,1568.91 518.959,1569.45C518.959,1569.61 518.931,1569.77 518.876,1569.91L516.801,1575.47C516.611,1575.98 516.12,1576.32 515.576,1576.32C515.419,1576.32 515.264,1576.29 515.118,1576.24" style="fill-rule:nonzero;"/>
                        </g>
                        <g id="Tracé_1486" transform="matrix(1,0,0,1,-401.549,-1159.75)">
                            <path d="M545.686,1581.36L545.558,1581.31C545.048,1581.12 544.707,1580.63 544.707,1580.09C544.707,1579.93 544.735,1579.78 544.79,1579.63L546.865,1574.07C547.055,1573.56 547.546,1573.22 548.09,1573.22C548.247,1573.22 548.402,1573.25 548.548,1573.3L548.675,1573.35C549.185,1573.54 549.526,1574.03 549.526,1574.58C549.526,1574.73 549.498,1574.89 549.443,1575.03L547.368,1580.59C547.117,1581.26 546.358,1581.61 545.686,1581.36" style="fill-rule:nonzero;"/>
                        </g>
                        <g id="Tracé_1487" transform="matrix(1,0,0,1,-424.115,-1163.45)">
                            <path d="M576.3,1586.37L576.173,1586.33C575.663,1586.13 575.322,1585.64 575.322,1585.1C575.322,1584.94 575.35,1584.79 575.405,1584.64L577.48,1579.09C577.67,1578.58 578.16,1578.23 578.705,1578.23C578.861,1578.23 579.016,1578.26 579.162,1578.32L579.29,1578.37C579.8,1578.56 580.141,1579.05 580.141,1579.59C580.141,1579.75 580.113,1579.9 580.058,1580.05L577.983,1585.61C577.732,1586.28 576.972,1586.62 576.3,1586.37" style="fill-rule:nonzero;"/>
                        </g>
                        <g id="Tracé_1488" transform="matrix(1,0,0,1,-234.013,-1080.31)">
                            <path d="M330.159,1497.01L330.191,1496.92C330.066,1496.9 329.944,1496.88 329.826,1496.83L320.696,1493.42C319.779,1493.04 319.34,1491.96 319.721,1491.05L327.954,1468.99C328.269,1468.05 329.302,1467.53 330.248,1467.84L339.379,1471.25C339.903,1471.45 340.294,1471.9 340.421,1472.45C341.138,1472.76 341.861,1473.07 342.59,1473.38C342.884,1471.57 341.88,1469.79 340.183,1469.09L331.052,1465.68C328.952,1465 326.658,1466.15 325.96,1468.25L317.727,1490.3C316.88,1492.34 317.855,1494.72 319.892,1495.58L329.023,1498.99C330.39,1499.47 331.919,1499.14 332.965,1498.14C332.032,1497.77 331.098,1497.39 330.165,1497.01" style="fill:rgb(172,140,206);fill-rule:nonzero;"/>
                        </g>
                        <g id="Tracé_1489" transform="matrix(1,0,0,1,-247.565,-1115.33)">
                            <path d="M341.708,1514.53L337.736,1513.04C337.601,1513.01 337.461,1512.99 337.32,1512.99C336.502,1512.99 335.829,1513.66 335.829,1514.48C335.829,1515.06 336.168,1515.59 336.696,1515.83L340.668,1517.31L341.708,1514.53Z" style="fill:white;fill-rule:nonzero;"/>
                        </g>
                        <g id="Tracé_1490" transform="matrix(1,0,0,1,-694.056,-613.419)">
                            <path d="M961.9,832.111C961.9,832.111 942.308,833.755 941.623,838.961C940.938,844.167 942.445,853.347 960.941,855.128L980.1,855.128C980.1,855.128 974.368,839.235 974.642,838.687C974.916,838.139 961.9,832.111 961.9,832.111" style="fill:rgb(243,168,117);fill-rule:nonzero;"/>
                        </g>
                        <g id="Tracé_1491" transform="matrix(1,0,0,1,-655.279,-449.255)">
                            <path d="M891.689,745.613C889.97,746.539 888.894,748.341 888.894,750.293C888.894,751.235 889.144,752.161 889.619,752.974C898.635,768.523 934.485,830.319 937.719,835.345C941.419,841.099 950.461,854.663 980.466,861.651C1010.47,868.639 1022.8,888.778 1022.8,888.778L1115.28,888.778C1115.28,888.778 1093.5,854.252 1075.41,764.648C1075.41,764.648 1061.44,690.248 1035.13,692.718C1035.13,692.718 1019.1,675.866 1003.48,679.154C1003.48,679.154 973.89,661.48 957.038,661.48L916.559,613.642C912.599,608.892 905.525,608.054 900.565,611.748C898.914,612.914 897.789,614.687 897.438,616.678C896.205,624.488 906.481,644.217 922.922,668.056C939.363,691.895 980.054,767.525 962.38,800.817C949.583,790.631 938.244,778.738 928.68,765.469C915.6,747.226 900.215,741.09 891.696,745.611" style="fill:rgb(246,193,157);fill-rule:nonzero;"/>
                        </g>
                        <g id="Tracé_1492" transform="matrix(1,0,0,1,-846.587,-595.334)">
                            <path d="M1148.49,807.579C1153.85,812.198 1158.91,817.149 1163.65,822.404C1170.84,830.249 1177.29,838.734 1182.94,847.752C1188.94,857.645 1192.9,866.319 1194.78,877.212L1194.65,877.237C1192.5,867.004 1186.86,855.981 1181.95,848.367C1176.24,839.466 1169.88,831.001 1162.91,823.042C1158.62,818.077 1153.15,812.212 1148.4,807.669L1148.49,807.579Z" style="fill:rgb(241,154,94);fill-rule:nonzero;"/>
                        </g>
                        <g id="Tracé_1493" transform="matrix(1,0,0,1,-975.768,-644.498)">
                            <path d="M1323.7,874.27C1328.06,876.579 1332.01,879.578 1335.41,883.151C1338.88,886.693 1341.86,890.673 1344.29,894.99C1346.72,899.304 1348.59,903.912 1349.84,908.701C1351.1,913.457 1351.73,918.359 1351.7,923.279L1351.58,923.289C1351.18,918.44 1350.28,913.645 1348.91,908.977C1347.52,904.318 1345.61,899.829 1343.21,895.597C1340.84,891.354 1337.98,887.399 1334.69,883.809C1331.44,880.187 1327.73,877.015 1323.64,874.377L1323.7,874.27Z" style="fill:rgb(241,154,94);fill-rule:nonzero;"/>
                        </g>
                        <g id="Tracé_1494" transform="matrix(1,0,0,1,-1064.35,-681.934)">
                            <path d="M1443.86,925.053C1447.77,928.281 1451.06,932.213 1453.53,936.646C1456.05,941.05 1457.91,945.797 1459.06,950.738C1459.87,954.002 1460.3,957.349 1460.34,960.712L1460.22,960.729C1459.74,957.444 1459.04,954.194 1458.12,951.003C1456.76,946.211 1454.88,941.584 1452.51,937.203C1450.16,932.809 1447.23,928.752 1443.8,925.144L1443.86,925.053Z" style="fill:rgb(241,154,94);fill-rule:nonzero;"/>
                        </g>
                        <g id="Tracé_1495" transform="matrix(1,0,0,1,-655.283,-830.986)">
                            <path d="M910.361,1146.48C911.181,1142.32 906.332,1135.72 901.931,1130.74C899.228,1127.66 894.923,1126.48 891.031,1127.77C888.88,1129.38 888.271,1132.38 889.622,1134.7C892.045,1138.88 896.405,1146.4 901.55,1155.26C905.401,1153.3 909.6,1150.33 910.359,1146.48" style="fill:rgb(241,154,94);fill-rule:nonzero;"/>
                        </g>
                        <g id="Tracé_1496" transform="matrix(1,0,0,1,-691.547,-450.681)">
                            <path d="M950.51,633.844C952.848,633.376 963.457,629.844 962.81,627.914L952.346,615.548C950.335,613.171 947.471,611.674 944.371,611.38L944.322,611.38C944.237,611.372 944.045,611.358 943.777,611.358C942.377,611.358 938.919,611.758 938.16,615.558C937.41,619.31 943.619,628.428 946.36,632.22C947.305,633.528 948.934,634.166 950.516,633.848" style="fill:rgb(241,154,94);fill-rule:nonzero;"/>
                        </g>
                        <g id="Groupe_281" transform="matrix(1,0,0,1,282.972,360.702)">
                            <g opacity="0.2">
                                <g transform="matrix(1,0,0,1,-1076.69,-1372.45)">
                                    <g id="Groupe_280">
                                        <g id="Groupe_279">
                                            <path id="Tracé_1497" d="M1161.24,1451.27L1253.72,1451.27C1253.72,1451.27 1239.44,1428.63 1224.4,1372.45C1217.8,1413.82 1181.4,1411.43 1166.95,1413.73C1150.32,1416.37 1085.74,1402.91 1076.69,1398.67C1080.72,1404.81 1090.26,1417.47 1118.9,1424.14C1148.91,1431.13 1161.24,1451.27 1161.24,1451.27" style="fill:rgb(246,193,157);fill-rule:nonzero;"/>
                                        </g>
                                    </g>
                                </g>
                            </g>
                        </g>
                        <g id="Groupe_284" transform="matrix(1,0,0,1,272.53,226.303)">
                            <g opacity="0.2">
                                <g transform="matrix(1,0,0,1,-1036.96,-861.07)">
                                    <g id="Groupe_283">
                                        <g id="Groupe_282">
                                            <path id="Tracé_1498" d="M1036.95,861.07C1055.09,890.205 1087.62,957.132 1071.52,986.331L1082.21,996.876C1082.21,996.876 1109.2,966.976 1066.25,901.03C1057.24,887.17 1047.46,873.829 1036.95,861.07" style="fill:rgb(246,193,157);fill-rule:nonzero;"/>
                                        </g>
                                    </g>
                                </g>
                            </g>
                        </g>
                        <g id="Tracé_1499" transform="matrix(1,0,0,1,-138.567,-580.439)">
                            <path d="M191.5,790.836C190.421,789.883 189.236,789.056 187.969,788.372L188.462,787.372C189.815,788.096 191.079,788.975 192.228,789.992L191.5,790.836Z" style="fill:rgb(20,20,20);fill-rule:nonzero;"/>
                        </g>
                        <g id="Tracé_1500" transform="matrix(1,0,0,1,-111.503,-606.743)">
                            <path d="M166.2,924.743C164.267,922.676 162.458,920.495 160.784,918.213L161.684,917.557C163.332,919.803 165.112,921.949 167.015,923.984L166.2,924.743ZM156.293,911C154.98,908.478 153.901,905.841 153.071,903.121L154.137,902.799C154.948,905.453 156,908.027 157.282,910.488L156.293,911ZM151.435,894.76C151.315,893.46 151.254,892.132 151.254,890.808C151.254,889.308 151.332,887.776 151.485,886.244L152.593,886.355C152.443,887.85 152.367,889.348 152.367,890.808C152.367,892.097 152.426,893.393 152.543,894.657L151.435,894.76ZM154.104,878.168L153.027,877.883C153.758,875.149 154.649,872.459 155.697,869.83L156.734,870.238C155.702,872.827 154.824,875.475 154.104,878.168M160.131,862.577L159.131,862.089C160.213,859.867 161.445,857.482 163.009,854.589L163.989,855.117C162.433,858.002 161.207,860.374 160.132,862.581M168.032,847.719L167.049,847.196L167.08,847.138C168.413,844.731 169.494,842.193 170.305,839.564L171.372,839.883C170.539,842.587 169.428,845.198 168.057,847.674L168.032,847.719ZM171.44,831.437C171.356,828.699 170.684,826.011 169.47,823.555L170.47,823.055C171.754,825.653 172.465,828.496 172.555,831.393L171.44,831.437Z" style="fill:rgb(20,20,20);fill-rule:nonzero;"/>
                        </g>
                        <g id="Tracé_1501" transform="matrix(1,0,0,1,-170.498,-906.273)">
                            <path d="M234.689,1233.11C233.515,1232.15 232.37,1231.17 231.283,1230.2L232.024,1229.37C233.099,1230.33 234.233,1231.3 235.395,1232.25L234.689,1233.11Z" style="fill:rgb(20,20,20);fill-rule:nonzero;"/>
                        </g>
                        <g id="Tracé_1502" transform="matrix(1,0,0,1,0,-477.271)">
                            <path d="M45.6,668.822L44.126,686.762L33.7,675.026L0,647.424L28.74,656.479C28.74,656.479 42.89,663.353 43.54,664.261C44.328,665.734 45.015,667.258 45.598,668.823" style="fill:rgb(147,105,191);fill-rule:nonzero;"/>
                        </g>
                        <g id="Tracé_1503" transform="matrix(1,0,0,1,0,-477.271)">
                            <path d="M60.869,661.114L0,647.424L45.6,668.824L60.869,661.114Z" style="fill:rgb(172,140,206);fill-rule:nonzero;"/>
                        </g>
                        <g id="Tracé_1504" transform="matrix(1,0,0,1,0,-477.271)">
                            <path d="M22.188,682.108L40.95,672.747L0,647.424L22.188,682.108Z" style="fill:rgb(172,140,206);fill-rule:nonzero;"/>
                        </g>
                        <g id="Tracé_1505" transform="matrix(1,0,0,1,-649.197,-237.682)">
                            <path d="M892.274,342.563L892.156,342.563C885.841,342.563 880.645,337.367 880.645,331.052L880.645,322.419L903.785,322.419L903.785,331.051C903.785,337.366 898.588,342.563 892.273,342.563" style="fill:rgb(8,95,204);fill-rule:nonzero;"/>
                        </g>
                        <g id="Tracé_1506" transform="matrix(1,0,0,1,-584.289,-237.682)">
                            <path d="M804.226,342.563L804.109,342.563C797.795,342.562 792.599,337.365 792.6,331.051L792.6,322.419L815.74,322.419L815.74,331.051C815.74,337.366 810.543,342.563 804.228,342.563" style="fill:rgb(136,178,231);fill-rule:nonzero;"/>
                        </g>
                        <g id="Tracé_1507" transform="matrix(1,0,0,1,-519.382,-237.682)">
                            <path d="M716.178,342.563L716.06,342.563C709.745,342.563 704.549,337.367 704.549,331.052L704.549,322.419L727.69,322.419L727.69,331.051C727.69,337.366 722.493,342.563 716.178,342.563" style="fill:rgb(8,95,204);fill-rule:nonzero;"/>
                        </g>
                        <g id="Tracé_1508" transform="matrix(1,0,0,1,-454.474,-237.682)">
                            <path d="M628.13,342.563L628.012,342.563C621.697,342.563 616.5,337.366 616.5,331.051L616.5,322.419L639.641,322.419L639.641,331.051C639.641,337.366 634.444,342.563 628.129,342.563" style="fill:rgb(136,178,231);fill-rule:nonzero;"/>
                        </g>
                        <g id="Tracé_1509" transform="matrix(1,0,0,1,-389.568,-237.682)">
                            <path d="M540.083,342.563L539.966,342.563C533.651,342.563 528.454,337.366 528.454,331.051L528.454,322.419L551.595,322.419L551.595,331.051C551.595,337.366 546.398,342.563 540.083,342.563" style="fill:rgb(8,95,204);fill-rule:nonzero;"/>
                        </g>
                        <g id="Tracé_1510" transform="matrix(1,0,0,1,-843.768,-237.682)">
                            <path d="M1156.21,342.563L1156.1,342.563C1149.78,342.563 1144.58,337.366 1144.58,331.051L1144.58,322.419L1167.72,322.419L1167.72,331.051C1167.72,337.366 1162.53,342.562 1156.21,342.563" style="fill:rgb(136,178,231);fill-rule:nonzero;"/>
                        </g>
                        <g id="Tracé_1511" transform="matrix(1,0,0,1,-778.862,-237.682)">
                            <path d="M1068.17,342.563L1068.05,342.563C1061.73,342.563 1056.54,337.366 1056.54,331.051L1056.54,322.419L1079.68,322.419L1079.68,331.051C1079.68,337.366 1074.48,342.563 1068.17,342.563" style="fill:rgb(8,95,204);fill-rule:nonzero;"/>
                        </g>
                        <g id="Tracé_1512" transform="matrix(1,0,0,1,-714.104,-237.682)">
                            <path d="M980.321,342.563L980.199,342.563C973.884,342.563 968.688,337.367 968.688,331.052L968.688,322.419L991.829,322.419L991.829,331.051C991.829,337.366 986.632,342.563 980.317,342.563" style="fill:rgb(136,178,231);fill-rule:nonzero;"/>
                        </g>
                        <g id="Tracé_1513" transform="matrix(1,0,0,1,-324.66,-237.682)">
                            <path d="M452.035,342.563L451.917,342.563C445.602,342.563 440.406,337.367 440.406,331.052L440.406,322.419L463.546,322.419L463.546,331.051C463.546,337.366 458.349,342.563 452.034,342.563" style="fill:rgb(136,178,231);fill-rule:nonzero;"/>
                        </g>
                        <g id="Tracé_1514" transform="matrix(1,0,0,1,-584.29,-155.584)">
                            <path d="M812.394,211.052L795.941,211.052L792.6,240.321L815.741,240.321L812.394,211.052Z" style="fill:rgb(218,231,247);fill-rule:nonzero;"/>
                        </g>
                        <g id="Tracé_1515" transform="matrix(1,0,0,1,-519.382,-155.584)">
                            <path d="M731.034,211.052L714.581,211.052L704.549,240.321L727.689,240.321L731.034,211.052Z" style="fill:rgb(102,156,223);fill-rule:nonzero;"/>
                        </g>
                        <g id="Tracé_1516" transform="matrix(1,0,0,1,-454.475,-155.584)">
                            <path d="M649.674,211.052L633.221,211.052L616.5,240.321L639.64,240.321L649.674,211.052Z" style="fill:rgb(218,231,247);fill-rule:nonzero;"/>
                        </g>
                        <g id="Tracé_1517" transform="matrix(1,0,0,1,-389.568,-155.584)">
                            <path d="M568.314,211.052L551.862,211.052L528.455,240.321L551.596,240.321L568.314,211.052Z" style="fill:rgb(102,156,223);fill-rule:nonzero;"/>
                        </g>
                        <g id="Tracé_1518" transform="matrix(1,0,0,1,-324.66,-155.584)">
                            <path d="M486.954,211.052L470.5,211.052L440.4,240.321L463.541,240.321L486.954,211.052Z" style="fill:rgb(218,231,247);fill-rule:nonzero;"/>
                        </g>
                        <g id="Tracé_1519" transform="matrix(1,0,0,1,-777.956,-155.584)">
                            <path d="M1071.76,211.052L1055.31,211.052L1078.77,240.321L1101.91,240.321L1071.76,211.052Z" style="fill:rgb(218,231,247);fill-rule:nonzero;"/>
                        </g>
                        <g id="Tracé_1520" transform="matrix(1,0,0,1,-732.037,-155.584)">
                            <path d="M1009.47,211.052L993.019,211.052L1009.71,240.321L1032.85,240.321L1009.47,211.052Z" style="fill:rgb(102,156,223);fill-rule:nonzero;"/>
                        </g>
                        <g id="Tracé_1521" transform="matrix(1,0,0,1,-685.889,-155.584)">
                            <path d="M946.87,211.052L930.418,211.052L940.477,240.321L963.617,240.321L946.87,211.052Z" style="fill:rgb(218,231,247);fill-rule:nonzero;"/>
                        </g>
                        <g id="Tracé_1522" transform="matrix(1,0,0,1,-639.741,-155.584)">
                            <path d="M884.27,211.052L867.817,211.052L871.188,240.321L894.328,240.321L884.27,211.052Z" style="fill:rgb(102,156,223);fill-rule:nonzero;"/>
                        </g>
                        <g id="Tracé_1523" transform="matrix(1,0,0,1,-466.315,-672.085)">
                            <path d="M730.94,931.954L641.392,931.954C636.549,931.954 632.563,927.968 632.563,923.125L632.563,920.525C632.564,915.682 636.549,911.697 641.392,911.697L730.94,911.697C735.783,911.697 739.768,915.682 739.769,920.525L739.769,923.125C739.769,927.968 735.783,931.954 730.94,931.954" style="fill:rgb(67,133,216);fill-rule:nonzero;"/>
                        </g>
                        <g id="Tracé_1524" transform="matrix(1,0,0,1,-539.825,-687.503)">
                            <path d="M738.027,938.824C738.031,939.08 737.997,939.336 737.927,939.582C737.862,939.804 737.763,940.014 737.634,940.205C737.508,940.389 737.355,940.553 737.18,940.69C736.996,940.833 736.795,940.95 736.58,941.04C736.351,941.137 736.111,941.208 735.866,941.252C735.578,941.302 735.286,941.326 734.994,941.323L732.718,941.323C732.612,941.323 732.509,941.288 732.425,941.223C732.323,941.13 732.272,940.993 732.287,940.856L732.287,933.083C732.272,932.946 732.323,932.809 732.425,932.716C732.509,932.651 732.612,932.616 732.718,932.616L734.698,932.616C735.13,932.605 735.56,932.655 735.978,932.765C736.282,932.849 736.566,932.996 736.81,933.196C737.03,933.383 737.202,933.622 737.31,933.89C737.426,934.186 737.483,934.501 737.478,934.819C737.479,935.019 737.454,935.218 737.404,935.412C737.357,935.596 737.283,935.771 737.185,935.934C737.087,936.095 736.964,936.24 736.821,936.362C736.671,936.49 736.503,936.595 736.321,936.672C736.556,936.715 736.781,936.798 736.988,936.917C737.194,937.036 737.377,937.19 737.53,937.372C737.689,937.564 737.814,937.783 737.897,938.018C737.989,938.28 738.035,938.556 738.032,938.833M736.287,934.933C736.29,934.739 736.26,934.546 736.2,934.361C736.145,934.196 736.051,934.046 735.925,933.926C735.784,933.799 735.616,933.705 735.434,933.653C735.173,933.583 734.904,933.551 734.634,933.559L733.434,933.559L733.434,936.381L734.751,936.381C734.998,936.39 735.245,936.35 735.477,936.263C735.65,936.192 735.806,936.084 735.934,935.947C736.056,935.813 736.147,935.655 736.2,935.482C736.256,935.304 736.284,935.119 736.284,934.933M736.81,938.9C736.815,938.665 736.772,938.431 736.685,938.213C736.606,938.02 736.481,937.848 736.322,937.713C736.146,937.57 735.941,937.465 735.722,937.407C735.428,937.332 735.125,937.299 734.822,937.307L733.437,937.307L733.437,940.378L735.117,940.378C735.351,940.382 735.585,940.351 735.81,940.284C736,940.225 736.177,940.13 736.331,940.004C736.482,939.879 736.603,939.722 736.684,939.543C736.773,939.342 736.817,939.123 736.812,938.903" style="fill:white;fill-rule:nonzero;"/>
                        </g>
                        <g id="Tracé_1525" transform="matrix(1,0,0,1,-560.835,-687.39)">
                            <path d="M767.348,937.99C767.356,938.473 767.277,938.953 767.116,939.408C766.973,939.803 766.747,940.163 766.452,940.462C766.155,940.755 765.796,940.979 765.401,941.115C764.948,941.27 764.472,941.345 763.993,941.337C763.546,941.343 763.102,941.272 762.679,941.129C762.3,941 761.953,940.789 761.662,940.513C761.37,940.227 761.146,939.877 761.009,939.492C760.849,939.038 760.771,938.559 760.78,938.078L760.78,932.669C760.779,932.636 760.789,932.603 760.807,932.575C760.83,932.544 760.863,932.521 760.901,932.51C760.958,932.492 761.017,932.479 761.076,932.47C761.17,932.458 761.264,932.452 761.359,932.453C761.451,932.452 761.544,932.458 761.635,932.47C761.695,932.478 761.755,932.491 761.813,932.51C761.849,932.521 761.881,932.544 761.904,932.575C761.922,932.603 761.932,932.636 761.931,932.669L761.931,937.936C761.924,938.294 761.974,938.651 762.079,938.994C762.165,939.272 762.311,939.528 762.507,939.744C762.694,939.945 762.924,940.099 763.181,940.196C763.464,940.301 763.764,940.353 764.066,940.348C764.372,940.353 764.677,940.303 764.966,940.2C765.22,940.107 765.449,939.955 765.633,939.756C765.823,939.544 765.965,939.294 766.05,939.022C766.154,938.691 766.205,938.346 766.2,938L766.2,932.672C766.199,932.639 766.209,932.606 766.227,932.578C766.25,932.547 766.283,932.524 766.321,932.513C766.379,932.495 766.439,932.481 766.499,932.473C766.592,932.461 766.685,932.455 766.779,932.456C766.87,932.455 766.961,932.461 767.051,932.473C767.11,932.481 767.169,932.494 767.226,932.513C767.263,932.525 767.296,932.548 767.32,932.578C767.34,932.605 767.351,932.638 767.35,932.672L767.348,937.99Z" style="fill:white;fill-rule:nonzero;"/>
                        </g>
                        <g id="Tracé_1526" transform="matrix(1,0,0,1,-585.698,-687.503)">
                            <path d="M799.358,940.844C799.359,940.915 799.354,940.986 799.345,941.057C799.338,941.11 799.322,941.161 799.298,941.208C799.28,941.243 799.253,941.273 799.22,941.295C799.19,941.314 799.155,941.323 799.12,941.322L794.937,941.322C794.831,941.322 794.728,941.287 794.644,941.222C794.542,941.129 794.49,940.992 794.506,940.855L794.506,933.082C794.491,932.945 794.542,932.808 794.644,932.715C794.728,932.65 794.831,932.615 794.937,932.615L799.073,932.615C799.108,932.614 799.143,932.623 799.173,932.642C799.205,932.663 799.23,932.694 799.244,932.73C799.264,932.779 799.279,932.829 799.288,932.881C799.3,932.956 799.306,933.031 799.305,933.107C799.306,933.178 799.3,933.249 799.288,933.319C799.279,933.37 799.265,933.42 799.244,933.467C799.229,933.502 799.204,933.531 799.173,933.552C799.143,933.57 799.108,933.579 799.073,933.578L795.665,933.578L795.665,936.313L798.588,936.313C798.624,936.312 798.659,936.323 798.688,936.344C798.719,936.366 798.744,936.395 798.762,936.428C798.785,936.474 798.8,936.524 798.806,936.576C798.816,936.65 798.82,936.724 798.819,936.798C798.82,936.868 798.816,936.938 798.806,937.007C798.8,937.057 798.785,937.105 798.762,937.149C798.745,937.181 798.719,937.208 798.688,937.226C798.657,937.243 798.623,937.251 798.588,937.25L795.665,937.25L795.665,940.368L799.12,940.368C799.155,940.367 799.19,940.377 799.22,940.395C799.252,940.417 799.279,940.446 799.298,940.48C799.323,940.526 799.339,940.576 799.345,940.628C799.355,940.703 799.359,940.778 799.358,940.853" style="fill:white;fill-rule:nonzero;"/>
                        </g>
                        <g id="Tracé_1527" transform="matrix(1,0,0,1,-613.339,-687.446)">
                            <path d="M838.59,940.788C838.592,940.867 838.577,940.945 838.545,941.017C838.517,941.077 838.477,941.13 838.426,941.172C838.378,941.212 838.322,941.242 838.262,941.26C838.203,941.278 838.142,941.287 838.081,941.287L837.7,941.287C837.593,941.289 837.487,941.276 837.383,941.25C837.289,941.223 837.201,941.177 837.125,941.115C837.032,941.038 836.95,940.948 836.881,940.849C836.785,940.712 836.699,940.568 836.623,940.418L833.964,935.46C833.825,935.203 833.685,934.935 833.544,934.655C833.403,934.375 833.271,934.102 833.15,933.837L833.137,933.837C833.146,934.16 833.152,934.49 833.157,934.827C833.162,935.164 833.164,935.498 833.164,935.827L833.164,941.087C833.164,941.12 833.154,941.152 833.135,941.179C833.11,941.212 833.075,941.236 833.035,941.246C832.977,941.264 832.917,941.278 832.857,941.286C832.67,941.308 832.482,941.308 832.295,941.286C832.236,941.278 832.178,941.265 832.121,941.246C832.084,941.234 832.051,941.211 832.028,941.179C832.01,941.152 832,941.12 832,941.087L832,933.045C831.985,932.9 832.043,932.756 832.153,932.661C832.248,932.587 832.366,932.546 832.487,932.546L833.057,932.546C833.17,932.544 833.283,932.555 833.394,932.58C833.482,932.601 833.564,932.639 833.638,932.691C833.718,932.752 833.788,932.824 833.846,932.907C833.925,933.017 833.996,933.133 834.058,933.254L836.102,937.08C836.228,937.313 836.35,937.541 836.467,937.763C836.584,937.985 836.697,938.204 836.806,938.42C836.915,938.635 837.022,938.847 837.128,939.056C837.234,939.265 837.34,939.474 837.444,939.686L837.45,939.686C837.441,939.332 837.436,938.961 837.433,938.578C837.43,938.195 837.433,937.824 837.433,937.47L837.433,932.741C837.433,932.71 837.443,932.679 837.462,932.654C837.488,932.622 837.523,932.597 837.562,932.583C837.619,932.56 837.679,932.545 837.74,932.539C837.836,932.529 837.932,932.525 838.028,932.526C838.118,932.525 838.208,932.53 838.298,932.539C838.359,932.544 838.419,932.559 838.476,932.583C838.512,932.598 838.544,932.623 838.568,932.654C838.586,932.679 838.596,932.71 838.596,932.741L838.59,940.788Z" style="fill:white;fill-rule:nonzero;"/>
                        </g>
                        <g id="Tracé_1528" transform="matrix(1,0,0,1,-636.936,-687.144)">
                            <path d="M871.806,936.5C871.814,937.144 871.731,937.786 871.557,938.407C871.411,938.934 871.158,939.426 870.813,939.851C870.478,940.252 870.052,940.567 869.57,940.768C869.016,940.992 868.422,941.101 867.825,941.088C867.245,941.101 866.667,941.002 866.125,940.795C865.665,940.614 865.258,940.321 864.94,939.943C864.609,939.537 864.371,939.063 864.24,938.556C864.079,937.934 864.001,937.293 864.011,936.65C864.003,936.017 864.087,935.386 864.26,934.777C864.406,934.253 864.661,933.765 865.008,933.346C865.345,932.949 865.773,932.637 866.254,932.437C866.808,932.213 867.402,932.104 867.999,932.117C868.571,932.105 869.141,932.203 869.676,932.407C870.135,932.588 870.543,932.878 870.865,933.252C871.197,933.653 871.439,934.122 871.572,934.626C871.735,935.237 871.813,935.868 871.804,936.501M870.578,936.582C870.581,936.12 870.537,935.658 870.447,935.205C870.372,934.812 870.224,934.438 870.01,934.1C869.807,933.789 869.525,933.537 869.193,933.369C868.798,933.182 868.365,933.092 867.928,933.106C867.489,933.091 867.054,933.189 866.663,933.389C866.329,933.57 866.044,933.829 865.832,934.144C865.61,934.478 865.455,934.851 865.374,935.244C865.281,935.679 865.235,936.123 865.237,936.568C865.233,937.042 865.276,937.516 865.364,937.982C865.435,938.378 865.582,938.756 865.795,939.097C865.995,939.407 866.275,939.658 866.605,939.824C867.004,940.01 867.441,940.099 867.881,940.084C868.324,940.098 868.764,940.001 869.159,939.801C869.496,939.619 869.783,939.356 869.993,939.036C870.212,938.696 870.365,938.318 870.444,937.921C870.536,937.48 870.581,937.031 870.579,936.581" style="fill:white;fill-rule:nonzero;"/>
                        </g>
                        <g id="Tracé_1529" transform="matrix(1,0,0,1,-661.431,-687.389)">
                            <path d="M906.33,940.954C906.316,941.01 906.288,941.062 906.249,941.105C906.208,941.147 906.157,941.177 906.101,941.193C906.025,941.215 905.948,941.23 905.869,941.237C905.777,941.245 905.663,941.25 905.529,941.25C905.395,941.25 905.272,941.25 905.175,941.237C905.094,941.231 905.014,941.216 904.936,941.193C904.881,941.178 904.832,941.147 904.794,941.105C904.759,941.06 904.734,941.009 904.72,940.954L902.895,934.374L902.881,934.374L901.197,940.954C901.187,941.009 901.163,941.061 901.129,941.105C901.093,941.146 901.046,941.177 900.994,941.193C900.921,941.216 900.845,941.231 900.768,941.237C900.676,941.245 900.558,941.25 900.414,941.25C900.27,941.25 900.142,941.25 900.043,941.237C899.961,941.231 899.88,941.216 899.801,941.193C899.688,941.164 899.603,941.07 899.586,940.954L897.286,932.905C897.263,932.826 897.248,932.745 897.242,932.663C897.237,932.612 897.257,932.561 897.296,932.528C897.351,932.491 897.415,932.47 897.481,932.468C897.566,932.459 897.681,932.454 897.825,932.454C897.969,932.454 898.074,932.454 898.155,932.464C898.218,932.467 898.28,932.48 898.34,932.501C898.377,932.514 898.409,932.541 898.428,932.576C898.446,932.614 898.459,932.655 898.465,932.697L900.425,939.997L900.432,939.997L902.291,932.71C902.302,932.666 902.319,932.624 902.341,932.585C902.364,932.549 902.4,932.521 902.441,932.508C902.503,932.486 902.567,932.472 902.633,932.467C902.742,932.457 902.851,932.452 902.96,932.453C903.06,932.452 903.16,932.457 903.26,932.467C903.321,932.473 903.381,932.487 903.439,932.508C903.48,932.521 903.516,932.549 903.539,932.585C903.562,932.624 903.579,932.666 903.59,932.71L905.59,939.997L905.604,939.997L907.524,932.704C907.537,932.659 907.551,932.62 907.564,932.585C907.58,932.549 907.611,932.521 907.649,932.508C907.708,932.486 907.769,932.472 907.831,932.467C907.935,932.457 908.039,932.452 908.144,932.453C908.251,932.452 908.358,932.457 908.464,932.47C908.526,932.475 908.585,932.497 908.635,932.534C908.672,932.568 908.691,932.618 908.685,932.668C908.68,932.75 908.668,932.83 908.649,932.91L906.33,940.954Z" style="fill:white;fill-rule:nonzero;"/>
                        </g>
                    </g>
                </g>
            </g>
        </g>
    </g>
</svg>
