<?xml version="1.0" encoding="UTF-8" standalone="no"?>
<!DOCTYPE svg PUBLIC "-//W3C//DTD SVG 1.1//EN" "http://www.w3.org/Graphics/SVG/1.1/DTD/svg11.dtd">
<svg width="100%" height="100%" viewBox="0 0 52 52" version="1.1" xmlns="http://www.w3.org/2000/svg" xmlns:xlink="http://www.w3.org/1999/xlink" xml:space="preserve" xmlns:serif="http://www.serif.com/" style="fill-rule:evenodd;clip-rule:evenodd;stroke-linejoin:round;stroke-miterlimit:2;">
    <g transform="matrix(1,0,0,1,-1050.71,-744.701)">
        <g transform="matrix(1,0,0,1,-6649,171)">
            <g transform="matrix(0.854861,0,0,0.788889,6649,421.432)">
                <g transform="matrix(1.70055,0,0,1.84276,54.9797,0.748938)">
                    <path d="M717.495,110.654C716.349,110.654 715.42,111.583 715.42,112.728C715.42,113.874 716.349,114.803 717.495,114.803C718.64,114.803 719.569,113.874 719.569,112.728C719.569,111.583 718.64,110.654 717.495,110.654Z" style="fill:white;fill-rule:nonzero;"/>
                </g>
                <g transform="matrix(1.70055,0,0,1.84276,54.9797,0.748938)">
                    <path d="M708.273,127.609C705.195,127.609 702.691,125.105 702.691,122.028C702.691,118.95 705.195,116.446 708.273,116.446C711.35,116.446 713.854,118.95 713.854,122.028C713.854,125.105 711.35,127.609 708.273,127.609ZM708.273,113.314C703.468,113.314 699.559,117.223 699.559,122.028C699.559,126.832 703.468,130.741 708.273,130.741C713.077,130.741 716.986,126.832 716.986,122.028C716.986,117.223 713.077,113.314 708.273,113.314Z" style="fill:white;fill-rule:nonzero;"/>
                </g>
                <g transform="matrix(1.70055,0,0,1.84276,54.9797,0.748938)">
                    <path d="M701.064,107.666C697.039,107.666 693.765,110.94 693.765,114.965L693.765,129.091C693.765,133.116 697.039,136.39 701.064,136.39L715.19,136.39C719.215,136.39 722.49,133.116 722.49,129.091L722.49,114.965C722.49,110.94 719.215,107.666 715.19,107.666L701.064,107.666ZM715.19,139.719L701.064,139.719C695.203,139.719 690.437,134.951 690.437,129.091L690.437,114.965C690.437,109.104 695.203,104.337 701.064,104.337L715.19,104.337C721.05,104.337 725.818,109.104 725.818,114.965L725.818,129.091C725.818,134.951 721.05,139.719 715.19,139.719Z" style="fill:white;fill-rule:nonzero;"/>
                </g>
            </g>
        </g>
    </g>
</svg>
