<?xml version="1.0" encoding="UTF-8" standalone="no"?>
<!DOCTYPE svg PUBLIC "-//W3C//DTD SVG 1.1//EN" "http://www.w3.org/Graphics/SVG/1.1/DTD/svg11.dtd">
<svg width="100%" height="100%" viewBox="0 0 762 83" version="1.1" xmlns="http://www.w3.org/2000/svg" xmlns:xlink="http://www.w3.org/1999/xlink" xml:space="preserve" xmlns:serif="http://www.serif.com/" style="fill-rule:evenodd;clip-rule:evenodd;stroke-linejoin:round;stroke-miterlimit:2;">
    <g transform="matrix(1,0,0,1,-1022.05,-2357.52)">
        <g transform="matrix(1,0,0,1.76979,-6649,302.635)">
            <g transform="matrix(1,0,0,0.565038,9694.18,-45.3732)">
                <g transform="matrix(1,0,0,1,-2063,1879.04)">
                    <path d="M54.41,337.03C48.51,335.63 43.66,333.76 39.87,331.4L48.03,312.94C51.61,315.02 55.61,316.68 60.05,317.93C64.49,319.18 68.74,319.81 72.82,319.81C76.33,319.81 78.83,319.47 80.33,318.79C81.83,318.11 82.58,317.09 82.58,315.73C82.58,314.16 81.6,312.98 79.63,312.19C77.66,311.4 74.42,310.54 69.92,309.61C64.12,308.39 59.29,307.09 55.43,305.69C51.57,304.29 48.2,302.01 45.34,298.82C42.48,295.64 41.05,291.33 41.05,285.89C41.05,281.17 42.37,276.87 45.02,273.01C47.67,269.15 51.62,266.11 56.88,263.89C62.14,261.67 68.53,260.56 76.04,260.56C81.19,260.56 86.25,261.12 91.23,262.22C96.2,263.33 100.59,264.96 104.38,267.1L96.76,285.45C89.39,281.73 82.41,279.87 75.83,279.87C69.32,279.87 66.06,281.44 66.06,284.59C66.06,286.09 67.03,287.22 68.96,287.97C70.89,288.72 74.08,289.53 78.51,290.38C84.23,291.45 89.06,292.69 93,294.08C96.93,295.48 100.35,297.75 103.25,300.9C106.15,304.05 107.6,308.34 107.6,313.78C107.6,318.5 106.28,322.78 103.63,326.61C100.98,330.44 97.03,333.48 91.77,335.73C86.51,337.98 80.12,339.11 72.61,339.11C66.37,339.12 60.31,338.42 54.41,337.03Z" style="fill:white;fill-rule:nonzero;"/>
                </g>
                <g transform="matrix(1,0,0,1,-2063,1879.04)">
                    <path d="M157.61,335.37C153.96,337.44 148.99,338.48 142.69,338.48C134.46,338.48 128.13,336.49 123.69,332.52C119.25,328.55 117.04,322.59 117.04,314.65L117.04,299.62L108.99,299.62L108.99,281.91L117.04,281.91L117.04,265.49L141.3,265.49L141.3,281.91L153.32,281.91L153.32,299.62L141.3,299.62L141.3,314.43C141.3,316.22 141.76,317.61 142.7,318.62C143.63,319.62 144.85,320.12 146.35,320.12C148.42,320.12 150.25,319.58 151.82,318.51L157.61,335.37Z" style="fill:white;fill-rule:nonzero;"/>
                </g>
                <g transform="matrix(1,0,0,1,-2063,1879.04)">
                    <path d="M227.91,278.69L227.91,337.4L204.83,337.4L204.83,331.82C202.68,334.04 200.18,335.7 197.32,336.81C194.46,337.92 191.42,338.47 188.2,338.47C180.76,338.47 174.78,336.2 170.28,331.65C165.77,327.11 163.52,320.26 163.52,311.1L163.52,278.69L187.78,278.69L187.78,306.92C187.78,310.93 188.42,313.79 189.71,315.51C191,317.23 192.89,318.09 195.4,318.09C197.76,318.09 199.73,317.14 201.3,315.25C202.87,313.35 203.66,310.37 203.66,306.29L203.66,278.71L227.91,278.71L227.91,278.69Z" style="fill:white;fill-rule:nonzero;"/>
                </g>
                <g transform="matrix(1,0,0,1,-2063,1879.04)">
                    <path d="M303.58,257.75L303.58,337.4L280.5,337.4L280.5,332.57C276.99,336.51 271.63,338.47 264.4,338.47C259.25,338.47 254.51,337.24 250.18,334.77C245.85,332.3 242.42,328.74 239.88,324.09C237.34,319.44 236.07,314.07 236.07,307.99C236.07,301.91 237.34,296.56 239.88,291.94C242.42,287.32 245.85,283.78 250.18,281.31C254.51,278.84 259.25,277.61 264.4,277.61C270.91,277.61 275.88,279.29 279.32,282.65L279.32,257.75L303.58,257.75ZM277.07,316.53C278.86,314.49 279.75,311.65 279.75,308C279.75,304.35 278.85,301.52 277.07,299.52C275.28,297.52 272.99,296.51 270.2,296.51C267.41,296.51 265.12,297.51 263.33,299.52C261.54,301.52 260.65,304.35 260.65,308C260.65,311.65 261.54,314.49 263.33,316.53C265.12,318.57 267.41,319.59 270.2,319.59C272.99,319.59 275.28,318.57 277.07,316.53Z" style="fill:white;fill-rule:nonzero;"/>
                </g>
                <g transform="matrix(1,0,0,1,-2063,1879.04)">
                    <path d="M318.87,267.64C317.55,266.35 316.88,264.78 316.88,262.92C316.88,261.06 317.54,259.47 318.87,258.14C320.19,256.82 321.86,256.15 323.86,256.15C325.86,256.15 327.53,256.78 328.85,258.03C330.17,259.28 330.84,260.84 330.84,262.7C330.84,264.63 330.18,266.26 328.85,267.58C327.53,268.9 325.86,269.57 323.86,269.57C321.86,269.57 320.2,268.93 318.87,267.64ZM318.71,280.52L329.01,280.52L329.01,337.41L318.71,337.41L318.71,280.52Z" style="fill:white;fill-rule:nonzero;"/>
                </g>
                <g transform="matrix(1,0,0,1,-2063,1879.04)">
                    <path d="M396.26,286.26C400.52,290.45 402.65,296.58 402.65,304.67L402.65,337.41L392.35,337.41L392.35,305.85C392.35,300.34 391.03,296.19 388.38,293.4C385.73,290.61 381.94,289.21 377,289.21C371.42,289.21 367.02,290.84 363.8,294.09C360.58,297.35 358.97,302.02 358.97,308.1L358.97,337.4L348.67,337.4L348.67,280.51L358.54,280.51L358.54,289.1C360.62,286.17 363.42,283.91 366.97,282.34C370.51,280.77 374.54,279.98 379.04,279.98C386.26,279.98 392,282.07 396.26,286.26Z" style="fill:white;fill-rule:nonzero;"/>
                </g>
                <g transform="matrix(1,0,0,1,-2063,1879.04)">
                    <path d="M471.02,280.52L446.12,337.41L435.6,337.41L410.7,280.52L421.43,280.52L440.97,326.14L460.93,280.52L471.02,280.52Z" style="fill:white;fill-rule:nonzero;"/>
                </g>
                <g transform="matrix(1,0,0,1,-2063,1879.04)">
                    <path d="M530.26,312.4L484.11,312.4C484.75,317.41 486.95,321.43 490.71,324.47C494.47,327.51 499.14,329.03 504.72,329.03C511.52,329.03 516.99,326.74 521.14,322.16L526.83,328.81C524.25,331.82 521.05,334.11 517.22,335.68C513.39,337.25 509.12,338.04 504.39,338.04C498.38,338.04 493.05,336.81 488.4,334.34C483.75,331.87 480.15,328.42 477.61,323.98C475.07,319.54 473.8,314.53 473.8,308.95C473.8,303.44 475.03,298.47 477.5,294.03C479.97,289.59 483.37,286.14 487.7,283.67C492.03,281.2 496.91,279.97 502.35,279.97C507.79,279.97 512.64,281.2 516.89,283.67C521.15,286.14 524.47,289.59 526.87,294.03C529.27,298.47 530.47,303.55 530.47,309.27C530.48,310.07 530.41,311.11 530.26,312.4ZM489.96,293.18C486.63,296.19 484.68,300.12 484.11,304.99L520.6,304.99C520.03,300.2 518.08,296.28 514.75,293.24C511.42,290.2 507.29,288.68 502.35,288.68C497.42,288.68 493.29,290.18 489.96,293.18Z" style="fill:white;fill-rule:nonzero;"/>
                </g>
                <g transform="matrix(1,0,0,1,-2063,1879.04)">
                    <path d="M592.36,286.26C596.62,290.45 598.75,296.58 598.75,304.67L598.75,337.41L588.45,337.41L588.45,305.85C588.45,300.34 587.13,296.19 584.48,293.4C581.83,290.61 578.04,289.21 573.1,289.21C567.52,289.21 563.12,290.84 559.9,294.09C556.68,297.35 555.07,302.02 555.07,308.1L555.07,337.4L544.77,337.4L544.77,280.51L554.64,280.51L554.64,289.1C556.72,286.17 559.52,283.91 563.07,282.34C566.61,280.77 570.64,279.98 575.15,279.98C582.36,279.98 588.1,282.07 592.36,286.26Z" style="fill:white;fill-rule:nonzero;"/>
                </g>
                <g transform="matrix(1,0,0,1,-2063,1879.04)">
                    <path d="M649.83,334.08C648.33,335.37 646.47,336.35 644.25,337.03C642.03,337.71 639.74,338.05 637.38,338.05C631.66,338.05 627.22,336.51 624.07,333.43C620.92,330.35 619.35,325.95 619.35,320.23L619.35,289L609.69,289L609.69,280.52L619.35,280.52L619.35,268.07L629.65,268.07L629.65,280.52L645.96,280.52L645.96,289L629.65,289L629.65,319.8C629.65,322.88 630.42,325.24 631.96,326.88C633.5,328.53 635.7,329.35 638.56,329.35C641.71,329.35 644.39,328.46 646.61,326.67L649.83,334.08Z" style="fill:white;fill-rule:nonzero;"/>
                </g>
                <g transform="matrix(1,0,0,1,-2063,1879.04)">
                    <path d="M662.44,267.64C661.12,266.35 660.46,264.78 660.46,262.92C660.46,261.06 661.12,259.47 662.44,258.14C663.76,256.82 665.43,256.15 667.43,256.15C669.43,256.15 671.1,256.78 672.42,258.03C673.74,259.28 674.41,260.84 674.41,262.7C674.41,264.63 673.75,266.26 672.42,267.58C671.1,268.9 669.43,269.57 667.43,269.57C665.43,269.57 663.76,268.93 662.44,267.64ZM662.28,280.52L672.58,280.52L672.58,337.41L662.28,337.41L662.28,280.52Z" style="fill:white;fill-rule:nonzero;"/>
                </g>
                <g transform="matrix(1,0,0,1,-2063,1879.04)">
                    <path d="M742.56,280.52L717.66,337.41L707.14,337.41L682.24,280.52L692.97,280.52L712.5,326.14L732.46,280.52L742.56,280.52Z" style="fill:white;fill-rule:nonzero;"/>
                </g>
                <g transform="matrix(1,0,0,1,-2063.49,1878.04)">
                    <path d="M801.81,312.4L755.66,312.4C756.3,317.41 758.5,321.43 762.26,324.47C766.02,327.51 770.69,329.03 776.27,329.03C783.07,329.03 788.54,326.74 792.69,322.16L798.38,328.81C795.8,331.82 792.6,334.11 788.77,335.68C784.94,337.25 780.67,338.04 775.94,338.04C769.93,338.04 764.6,336.81 759.95,334.34C755.3,331.87 751.7,328.42 749.16,323.98C746.62,319.54 745.35,314.53 745.35,308.95C745.35,303.44 746.58,298.47 749.05,294.03C751.52,289.59 754.92,286.14 759.25,283.67C763.58,281.2 768.46,279.97 773.9,279.97C779.34,279.97 784.19,281.2 788.44,283.67C792.7,286.14 796.02,289.59 798.42,294.03C800.82,298.47 802.02,303.55 802.02,309.27C802.03,310.07 801.95,311.11 801.81,312.4ZM761.51,293.18C758.18,296.19 756.23,300.12 755.66,304.99L792.15,304.99C791.58,300.2 789.63,296.28 786.3,293.24C782.97,290.2 778.84,288.68 773.9,288.68C768.97,288.68 764.84,290.18 761.51,293.18Z" style="fill:white;fill-rule:nonzero;"/>
                </g>
            </g>
        </g>
    </g>
</svg>
