<?xml version="1.0" encoding="UTF-8" standalone="no"?>
<!DOCTYPE svg PUBLIC "-//W3C//DTD SVG 1.1//EN" "http://www.w3.org/Graphics/SVG/1.1/DTD/svg11.dtd">
<svg width="100%" height="100%" viewBox="0 0 235 235" version="1.1" xmlns="http://www.w3.org/2000/svg" xmlns:xlink="http://www.w3.org/1999/xlink" xml:space="preserve" xmlns:serif="http://www.serif.com/" style="fill-rule:evenodd;clip-rule:evenodd;stroke-linejoin:round;stroke-miterlimit:2;">
    <g transform="matrix(1,0,0,1,-2981.81,-4878.58)">
        <g transform="matrix(1,0,0,1,5831.3,1042.33)">
            <g transform="matrix(1,0,0,1,-16319.9,2964.08)">
                <g>
                    <g>
                        <g>
                            <g transform="matrix(0.464819,0,0,0.464819,10624,620.669)">
                                <path d="M6563.34,865C6560.39,878.195 6553.74,890.277 6544.18,899.838C6514.71,929.312 6447.4,996.622 6404.86,1039.15C6398,1046.02 6387.79,1048.32 6378.64,1045.07C6369.49,1041.81 6363.03,1033.58 6362.05,1023.92C6357.88,982.901 6352.54,930.473 6350.99,915.267C6350.71,912.479 6349.47,909.874 6347.49,907.892C6333.55,893.956 6276.23,836.634 6262.34,822.744C6260.37,820.776 6257.79,819.548 6255.02,819.266C6239.86,817.723 6187.42,812.387 6146.39,808.211C6136.72,807.226 6128.48,800.763 6125.22,791.606C6121.96,782.448 6124.26,772.233 6131.13,765.359C6173.67,722.82 6240.96,655.529 6270.43,626.067C6279.98,616.512 6292.06,609.87 6305.24,606.917C6361.43,594.334 6520.48,558.718 6596.44,541.708C6605.42,539.697 6614.81,542.422 6621.32,548.933C6627.83,555.443 6630.56,564.832 6628.55,573.816C6611.54,649.768 6575.93,808.801 6563.34,865" style="fill:rgb(64,17,119);"/>
                            </g>
                            <g transform="matrix(-0.124539,-1.52516e-17,1.52516e-17,-0.124539,14328.5,1142.01)">
                                <path d="M6563.34,865C6560.39,878.195 6553.74,890.277 6544.18,899.838C6514.71,929.312 6447.4,996.622 6404.86,1039.15C6398,1046.02 6387.79,1048.32 6378.64,1045.07C6369.49,1041.81 6363.03,1033.58 6362.05,1023.92C6357.88,982.901 6352.54,930.473 6350.99,915.267C6350.71,912.479 6349.47,909.874 6347.49,907.892C6333.55,893.956 6276.23,836.634 6262.34,822.744C6260.37,820.776 6257.79,819.548 6255.02,819.266C6239.86,817.723 6187.42,812.387 6146.39,808.211C6136.72,807.226 6128.48,800.763 6125.22,791.606C6121.96,782.448 6124.26,772.233 6131.13,765.359C6173.67,722.82 6240.96,655.529 6270.43,626.067C6279.98,616.512 6292.06,609.87 6305.24,606.917C6361.43,594.334 6520.48,558.718 6596.44,541.708C6605.42,539.697 6614.81,542.422 6621.32,548.933C6627.83,555.443 6630.56,564.832 6628.55,573.816C6611.54,649.768 6575.93,808.801 6563.34,865" style="fill:rgb(251,149,5);"/>
                            </g>
                            <g id="Logo-Stud-2" serif:id="Logo Stud 2" transform="matrix(0.41223,0,0,0.686781,10957,-950.417)">
                                <g transform="matrix(1,0,0,0.600235,6012,2606.94)">
                                    <path d="M350.72,419.91C332.96,415.71 318.37,410.06 306.96,402.96L331.5,347.42C342.26,353.66 354.32,358.67 367.67,362.43C381.02,366.2 393.83,368.08 406.1,368.08C416.65,368.08 424.18,367.06 428.7,365.01C433.22,362.97 435.48,359.9 435.48,355.81C435.48,351.08 432.52,347.53 426.6,345.15C420.68,342.78 410.94,340.2 397.38,337.4C379.94,333.74 365.41,329.81 353.79,325.61C342.17,321.41 332.04,314.52 323.44,304.94C314.83,295.36 310.52,282.39 310.52,266.03C310.52,251.82 314.5,238.91 322.47,227.28C330.43,215.65 342.33,206.51 358.15,199.83C373.97,193.16 393.19,189.82 415.79,189.82C431.29,189.82 446.52,191.49 461.48,194.83C476.44,198.17 489.62,203.06 501.04,209.52L478.11,264.74C455.94,253.55 434.95,247.95 415.14,247.95C395.55,247.95 385.76,252.69 385.76,262.16C385.76,266.68 388.67,270.07 394.48,272.33C400.29,274.59 409.87,277.01 423.22,279.6C440.44,282.83 454.97,286.54 466.81,290.74C478.65,294.94 488.93,301.78 497.65,311.25C506.37,320.73 510.73,333.64 510.73,350C510.73,364.21 506.74,377.07 498.78,388.59C490.81,400.11 478.92,409.26 463.1,416.04C447.28,422.82 428.06,426.21 405.46,426.21C386.72,426.21 368.48,424.11 350.72,419.91Z" style="fill:white;fill-rule:nonzero;"/>
                                </g>
                                <g transform="matrix(1,0,0,0.600235,6012,2606.94)">
                                    <circle cx="528.19" cy="253.8" r="31.32" style="fill:rgb(251,149,5);"/>
                                </g>
                            </g>
                        </g>
                    </g>
                </g>
            </g>
        </g>
    </g>
</svg>
