<?xml version="1.0" encoding="UTF-8" standalone="no"?>
<!DOCTYPE svg PUBLIC "-//W3C//DTD SVG 1.1//EN" "http://www.w3.org/Graphics/SVG/1.1/DTD/svg11.dtd">
<svg width="100%" height="100%" viewBox="0 0 1171 834" version="1.1" xmlns="http://www.w3.org/2000/svg" xmlns:xlink="http://www.w3.org/1999/xlink" xml:space="preserve" xmlns:serif="http://www.serif.com/" style="fill-rule:evenodd;clip-rule:evenodd;stroke-linejoin:round;stroke-miterlimit:2;">
    <g transform="matrix(1,0,0,1,-3109.96,-11708.7)">
        <g transform="matrix(2.66667,0,0,2.66667,-6649,171)">
            <g id="Groupe_182" transform="matrix(-0.956305,-0.292372,0.292372,-0.956305,3996.17,4708.87)">
                <g id="Groupe_180-2">
                    <g id="Tracé_1382-2" transform="matrix(1,0,0,1,5.557,0)">
                        <path d="M342.137,37.612C366.247,61.659 379.792,94.36 379.749,128.412L379.725,128.412C379.725,128.42 379.725,128.428 379.725,128.436C379.725,198.881 321.758,256.848 251.313,256.848C180.868,256.848 122.901,198.881 122.901,128.436C122.901,57.991 180.868,0.024 251.313,0.024C251.321,0.024 251.328,0.024 251.336,0.024L251.336,0C285.388,-0.044 318.089,13.502 342.136,37.612M253.562,24.1L251.336,24.1C251.328,24.1 251.32,24.1 251.312,24.1C194.078,24.1 146.981,71.197 146.981,128.431C146.981,185.665 194.078,232.762 251.312,232.762C308.546,232.762 355.643,185.665 355.643,128.431C355.643,128.425 355.643,128.418 355.643,128.412L355.643,126.186C354.459,70.642 309.106,25.287 253.562,24.1" style="fill:rgb(64,17,119);fill-opacity:0.5;fill-rule:nonzero;"/>
                    </g>
                    <g id="Tracé_1383-2" transform="matrix(1,0,0,1,0,9.731)">
                        <path d="M106.566,219.537L156.06,269.032L156.09,269.064L160.316,273.29L70.006,363.6C62.323,371.224 51.927,375.507 41.103,375.507C18.593,375.507 0.07,356.984 0.07,334.474C0.07,323.65 4.353,313.254 11.977,305.571L86.43,231.115L98.03,219.515L98.062,219.484L102.287,215.258L106.566,219.537Z" style="fill:rgb(64,17,119);fill-opacity:0.5;fill-rule:nonzero;"/>
                    </g>
                    <g id="Tracé_1384-2" transform="matrix(1,0,0,1,4.726,8.494)">
                        <path d="M108.084,227.019L145.067,264.002L181.883,227.186C167.478,217.647 155.086,205.439 144.901,190.203L108.084,227.019Z" style="fill:rgb(64,17,119);fill-opacity:0.5;"/>
                    </g>
                    <g id="Tracé_1385-2" transform="matrix(1,0,0,1,7.523,1.552)">
                        <path d="M192.43,69.922C207.386,54.958 227.651,46.473 248.807,46.315C252.017,46.202 254.596,43.531 254.596,40.319C254.596,37.09 251.989,34.41 248.761,34.321C214.374,34.58 182.846,53.953 167.076,84.512C166.608,85.385 166.363,86.36 166.363,87.351C166.363,90.645 169.074,93.357 172.369,93.357C174.65,93.357 176.742,92.057 177.753,90.012C181.552,82.581 186.506,75.8 192.43,69.922" style="fill:rgb(64,17,119);fill-opacity:0.5;"/>
                    </g>
                </g>
            </g>
        </g>
    </g>
</svg>
