<?xml version="1.0" encoding="UTF-8" standalone="no"?>
<!DOCTYPE svg PUBLIC "-//W3C//DTD SVG 1.1//EN" "http://www.w3.org/Graphics/SVG/1.1/DTD/svg11.dtd">
<svg width="100%" height="100%" viewBox="0 0 1920 975" version="1.1" xmlns="http://www.w3.org/2000/svg" xmlns:xlink="http://www.w3.org/1999/xlink" xml:space="preserve" xmlns:serif="http://www.serif.com/" style="fill-rule:evenodd;clip-rule:evenodd;stroke-linejoin:round;stroke-miterlimit:2;">
    <g transform="matrix(1,0,0,1,-35.1874,-4293.26)">
        <g transform="matrix(1,0,0,1.76979,-6649,302.635)">
            <g id="method_background" transform="matrix(0.999999,0,0,0.56524,6690.19,1645.89)">
                <path d="M1914,2052L1914,1172.64C1702.22,1149.34 521.348,1025.55 -6,1101.96L-6,2052L1914,2052Z" style="fill:rgb(83,60,168);fill-rule:nonzero;"/>
                <clipPath id="_clip1">
                    <path d="M1914,2052L1914,1172.64C1702.22,1149.34 521.348,1025.55 -6,1101.96L-6,2052L1914,2052Z" clip-rule="nonzero"/>
                </clipPath>
                <g clip-path="url(#_clip1)">
                    <g transform="matrix(1.14584,0.489173,-0.489173,1.14584,-188.907,1371.44)">
                        <path d="M350.72,419.91C332.96,415.71 318.37,410.06 306.96,402.96L331.5,347.42C342.26,353.66 354.32,358.67 367.67,362.43C381.02,366.2 393.83,368.08 406.1,368.08C416.65,368.08 424.18,367.06 428.7,365.01C433.22,362.97 435.48,359.9 435.48,355.81C435.48,351.08 432.52,347.53 426.6,345.15C420.68,342.78 410.94,340.2 397.38,337.4C379.94,333.74 365.41,329.81 353.79,325.61C342.17,321.41 332.04,314.52 323.44,304.94C314.83,295.36 310.52,282.39 310.52,266.03C310.52,251.82 314.5,238.91 322.47,227.28C330.43,215.65 342.33,206.51 358.15,199.83C373.97,193.16 393.19,189.82 415.79,189.82C431.29,189.82 446.52,191.49 461.48,194.83C476.44,198.17 489.62,203.06 501.04,209.52L478.11,264.74C455.94,253.55 434.95,247.95 415.14,247.95C395.55,247.95 385.76,252.69 385.76,262.16C385.76,266.68 388.67,270.07 394.48,272.33C400.29,274.59 409.87,277.01 423.22,279.6C440.44,282.83 454.97,286.54 466.81,290.74C478.65,294.94 488.93,301.78 497.65,311.25C506.37,320.73 510.73,333.64 510.73,350C510.73,364.21 506.74,377.07 498.78,388.59C490.81,400.11 478.92,409.26 463.1,416.04C447.28,422.82 428.06,426.21 405.46,426.21C386.72,426.21 368.48,424.11 350.72,419.91Z" style="fill:rgb(57,39,125);fill-rule:nonzero;"/>
                    </g>
                    <g transform="matrix(1.14584,0.489173,-0.489173,1.14584,-188.907,1371.44)">
                        <circle cx="528.19" cy="253.8" r="31.32" style="fill:rgb(57,39,125);"/>
                    </g>
                </g>
            </g>
        </g>
    </g>
</svg>
