<?xml version="1.0" encoding="UTF-8" standalone="no"?>
<!DOCTYPE svg PUBLIC "-//W3C//DTD SVG 1.1//EN" "http://www.w3.org/Graphics/SVG/1.1/DTD/svg11.dtd">
<svg width="100%" height="100%" viewBox="0 0 1680 1680" version="1.1" xmlns="http://www.w3.org/2000/svg" xmlns:xlink="http://www.w3.org/1999/xlink" xml:space="preserve" xmlns:serif="http://www.serif.com/" style="fill-rule:evenodd;clip-rule:evenodd;stroke-linejoin:round;stroke-miterlimit:2;">
    <g transform="matrix(1,0,0,1,-7035.06,-5574.98)">
        <g transform="matrix(1,0,0,1.76979,-6649,2561.63)">
            <g transform="matrix(1,0,0,0.565038,13321.7,1659.8)">
                <g>
                    <path d="M1123.01,1446.86L907.902,1314.05L1102.44,1069.01L1158.55,1014.77L1280.13,842.678L1152.53,503.607L1258.61,609.688L1224.02,266.559L2042.21,919.783C2042.2,922.053 2042.18,924.307 2042.16,926.579C2042.21,922.971 2042.3,919.379 2042.3,915.764C2042.3,451.907 1666.24,75.837 1202.32,75.837C738.424,75.837 362.402,451.907 362.402,915.764C362.402,1379.61 738.423,1755.69 1202.32,1755.69C1291.27,1755.69 1376.96,1741.83 1457.42,1716.21C1361.07,1662.42 1199.71,1566.57 1199.71,1566.57L1123.01,1446.86Z" style="fill:rgb(64,17,119);fill-rule:nonzero;"/>
                    <path d="M2042.16,926.58C2042.18,924.309 2042.2,922.055 2042.21,919.785L1224.02,266.562L1258.61,609.688L1152.53,503.607L1280.13,842.68L1158.55,1014.77L1102.44,1069.01L907.902,1314.05L1123.01,1446.86L1199.71,1566.57C1199.71,1566.57 1361.07,1662.43 1457.42,1716.21C1793.33,1609.25 2037.49,1296.78 2042.16,926.58Z" style="fill:rgb(83,60,168);fill-rule:nonzero;"/>
                </g>
                <g>
                    <path d="M1342.21,1343.84C1342.21,1442.23 1202.83,1574.73 1202.83,1574.73C1202.83,1574.73 1063.45,1442.23 1063.45,1343.84C1063.45,1245.45 1125.85,1218.44 1202.83,1218.44C1279.8,1218.44 1342.21,1245.45 1342.21,1343.84Z" style="fill:rgb(251,149,5);fill-rule:nonzero;"/>
                    <path d="M1299.03,1324.38C1299.03,1392.29 1202.83,1483.74 1202.83,1483.74C1202.83,1483.74 1106.63,1392.29 1106.63,1324.38C1106.63,1256.47 1149.7,1237.83 1202.83,1237.83C1255.96,1237.83 1299.03,1256.47 1299.03,1324.38Z" style="fill:rgb(245,184,72);fill-rule:nonzero;"/>
                    <path d="M1258.55,1291.87C1258.55,1331.2 1202.83,1384.18 1202.83,1384.18C1202.83,1384.18 1147.11,1331.2 1147.11,1291.87C1147.11,1252.53 1172.06,1241.73 1202.83,1241.73C1233.6,1241.73 1258.55,1252.53 1258.55,1291.87Z" style="fill:rgb(247,203,109);fill-rule:nonzero;"/>
                    <g>
                        <g>
                            <path d="M1089.12,991.802C1089.12,991.802 897.199,1092.56 897.199,1310.87C897.199,1310.87 909.198,1334.86 928.39,1306.07C947.58,1277.28 964.376,1198.12 1086.72,1198.12L1089.12,991.802Z" style="fill:rgb(245,184,72);fill-rule:nonzero;"/>
                            <path d="M1315.58,991.802C1315.58,991.802 1507.5,1092.56 1507.5,1310.87C1507.5,1310.87 1495.5,1334.86 1476.31,1306.07C1457.12,1277.28 1440.33,1198.12 1317.98,1198.12L1315.58,991.802Z" style="fill:rgb(251,149,5);fill-rule:nonzero;"/>
                        </g>
                        <g>
                            <path d="M1415.44,779.672C1415.44,690.289 1400.34,606.141 1377.85,532.563L1202.35,532.563L1202.35,607.235C1267.28,607.235 1319.91,659.871 1319.91,724.794C1319.91,789.717 1267.28,842.354 1202.35,842.354L1202.35,1220.17L1317.2,1220.17C1376.28,1127.22 1415.44,964.667 1415.44,779.672Z" style="fill:rgb(239,239,239);fill-rule:nonzero;"/>
                            <path d="M1084.79,724.794C1084.79,659.871 1137.43,607.235 1202.35,607.235L1202.35,532.563L1026.86,532.563C1004.37,606.142 989.264,690.289 989.264,779.672C989.264,964.667 1028.42,1127.22 1087.5,1220.17L1202.35,1220.17L1202.35,842.354C1137.43,842.354 1084.79,789.718 1084.79,724.794Z" style="fill:white;fill-rule:nonzero;"/>
                            <path d="M1089.14,1220.53C1086.17,1220.53 1083.76,1222.93 1083.76,1225.9L1083.76,1250.97C1083.76,1253.93 1086.17,1256.33 1089.14,1256.33L1202.35,1256.33L1202.35,1220.53L1089.14,1220.53L1089.14,1220.53Z" style="fill:rgb(231,198,52);fill-rule:nonzero;"/>
                            <path d="M1315.46,1220.53L1202.35,1220.53L1202.35,1256.33L1315.46,1256.33C1318.43,1256.33 1320.83,1253.93 1320.83,1250.97L1320.83,1225.9C1320.83,1222.93 1318.43,1220.53 1315.46,1220.53Z" style="fill:rgb(206,174,45);fill-rule:nonzero;"/>
                            <path d="M1282.9,724.794C1282.9,769.28 1246.84,805.345 1202.35,805.345L1202.35,842.354C1267.27,842.354 1319.91,789.718 1319.91,724.794C1319.91,659.87 1267.27,607.235 1202.35,607.235L1202.35,644.251C1246.84,644.251 1282.9,680.308 1282.9,724.794Z" style="fill:rgb(251,149,5);fill-rule:nonzero;"/>
                            <path d="M1084.79,724.794C1084.79,789.717 1137.43,842.354 1202.35,842.354L1202.35,805.345C1157.87,805.345 1121.8,769.281 1121.8,724.794C1121.8,680.307 1157.87,644.249 1202.35,644.249L1202.35,607.235C1137.43,607.235 1084.79,659.871 1084.79,724.794Z" style="fill:rgb(245,184,72);fill-rule:nonzero;"/>
                            <path d="M1282.9,724.794C1282.9,680.309 1246.84,644.251 1202.35,644.251L1202.35,805.345C1246.84,805.345 1282.9,769.281 1282.9,724.794Z" style="fill:rgb(64,17,119);fill-rule:nonzero;"/>
                            <path d="M1121.8,724.794C1121.8,769.28 1157.87,805.345 1202.35,805.345L1202.35,644.251C1157.87,644.251 1121.8,680.308 1121.8,724.794Z" style="fill:rgb(83,60,168);fill-rule:nonzero;"/>
                        </g>
                    </g>
                    <g>
                        <path d="M1202.35,256.803L1202.35,532.565L1377.85,532.565C1327.66,368.413 1240.68,256.803 1202.35,256.803Z" style="fill:rgb(251,149,5);fill-rule:nonzero;"/>
                        <path d="M1202.35,256.803C1164.02,256.803 1077.04,368.412 1026.85,532.565L1202.35,532.565L1202.35,256.803Z" style="fill:rgb(245,184,72);fill-rule:nonzero;"/>
                        <path d="M1209.75,1051.54C1209.16,1051.35 1208.54,1051.25 1207.89,1051.25L1202.35,1051.25L1202.35,1320.52L1208.56,1320.52C1211.94,1320.52 1214.68,1317.78 1214.68,1314.4L1214.68,1306.23L1214.92,1294.42L1231.9,1077.88C1231.9,1055.93 1213.48,1052.48 1209.75,1051.54Z" style="fill:rgb(251,149,5);fill-rule:nonzero;"/>
                        <path d="M1202.35,1051.25L1196.14,1051.25C1195.5,1051.25 1194.87,1051.35 1194.29,1051.54C1193.22,1051.81 1192.01,1052.28 1190.84,1052.97C1184.14,1055.14 1172.8,1060.97 1172.8,1078.2L1189.8,1294.94L1190.02,1305.91L1190.02,1314.09C1190.02,1316.66 1191.61,1318.85 1193.85,1319.75C1194.72,1320.25 1195.74,1320.52 1196.81,1320.52L1202.35,1320.52L1202.35,1051.25Z" style="fill:rgb(245,184,72);fill-rule:nonzero;"/>
                    </g>
                </g>
            </g>
        </g>
    </g>
</svg>
