<?xml version="1.0" encoding="UTF-8" standalone="no"?>
<!DOCTYPE svg PUBLIC "-//W3C//DTD SVG 1.1//EN" "http://www.w3.org/Graphics/SVG/1.1/DTD/svg11.dtd">
<svg width="100%" height="100%" viewBox="0 0 1521 1521" version="1.1" xmlns="http://www.w3.org/2000/svg" xmlns:xlink="http://www.w3.org/1999/xlink" xml:space="preserve" xmlns:serif="http://www.serif.com/" style="fill-rule:evenodd;clip-rule:evenodd;stroke-linejoin:round;stroke-miterlimit:2;">
    <g transform="matrix(1,0,0,1,-8714.96,-6790.99)">
        <g transform="matrix(293.793,0,0,293.793,-94083.7,-131852)">
            <g transform="matrix(4.39969,0,0,4.39969,-1189.56,-1604.33)">
                <path d="M350.504,471.906C350.343,471.904 350.203,471.958 350.084,472.067C349.968,472.182 349.907,472.319 349.901,472.48C349.901,472.643 349.955,472.783 350.063,472.9C350.178,473.016 350.315,473.077 350.475,473.082C350.636,473.084 350.775,473.031 350.894,472.921C351.011,472.807 351.072,472.669 351.078,472.509C351.079,472.345 351.025,472.205 350.916,472.089C350.802,471.973 350.665,471.912 350.505,471.906" style="fill:rgb(64,17,119);fill-rule:nonzero;"/>
                <clipPath id="_clip1">
                    <path d="M350.504,471.906C350.343,471.904 350.203,471.958 350.084,472.067C349.968,472.182 349.907,472.319 349.901,472.48C349.901,472.643 349.955,472.783 350.063,472.9C350.178,473.016 350.315,473.077 350.475,473.082C350.636,473.084 350.775,473.031 350.894,472.921C351.011,472.807 351.072,472.669 351.078,472.509C351.079,472.345 351.025,472.205 350.916,472.089C350.802,471.973 350.665,471.912 350.505,471.906" clip-rule="nonzero"/>
                </clipPath>
                <g clip-path="url(#_clip1)">
                    <g transform="matrix(-0.000386817,-0.000669987,0.000669987,-0.000386817,350.672,473.623)">
                        <path d="M2042.16,926.58C2042.18,924.309 2042.2,922.055 2042.21,919.785L568.966,50.599L125.639,750.9C125.639,750.9 1361.07,1662.43 1457.42,1716.21C1793.33,1609.25 2037.49,1296.78 2042.16,926.58Z" style="fill:rgb(83,60,168);fill-rule:nonzero;"/>
                    </g>
                    <g transform="matrix(0.434606,0,0,0.434606,198.172,267.068)">
                        <path d="M350.504,471.906C350.343,471.904 350.203,471.958 350.084,472.067C349.968,472.182 349.907,472.319 349.901,472.48C349.901,472.643 349.955,472.783 350.063,472.9C350.178,473.016 350.315,473.077 350.475,473.082C350.636,473.084 350.775,473.031 350.894,472.921C351.011,472.807 351.072,472.669 351.078,472.509C351.079,472.345 351.025,472.205 350.916,472.089C350.802,471.973 350.665,471.912 350.505,471.906" style="fill:rgb(83,60,168);fill-rule:nonzero;"/>
                    </g>
                    <g transform="matrix(0.434606,-5.55112e-17,0,0.434606,198.167,267.032)">
                        <path d="M350.504,471.906C350.485,472.476 350.483,472.618 350.475,473.082C350.475,473.082 350.775,473.031 350.894,472.921C351.011,472.807 351.072,472.669 351.078,472.509C351.079,472.345 351.025,472.205 350.916,472.089C350.802,471.973 350.505,471.906 350.505,471.906" style="fill:rgb(64,17,119);fill-rule:nonzero;"/>
                    </g>
                    <g transform="matrix(1.23281,0,0,1.23281,-81.6304,-109.88)">
                        <path d="M350.52,472.095L350.502,472.096C350.501,472.096 350.5,472.096 350.5,472.096C350.427,472.099 350.366,472.127 350.326,472.174C350.303,472.201 350.287,472.235 350.28,472.274C350.274,472.308 350.274,472.345 350.282,472.384C350.287,472.407 350.289,472.413 350.305,472.445C350.316,472.468 350.319,472.476 350.323,472.488C350.329,472.506 350.33,472.518 350.327,472.536C350.324,472.549 350.319,472.571 350.316,472.582C350.315,472.584 350.313,472.59 350.312,472.595C350.309,472.605 350.308,472.609 350.302,472.627L350.302,472.627C350.296,472.637 350.289,472.649 350.28,472.66C350.271,472.671 350.263,472.69 350.262,472.703C350.26,472.72 350.254,472.73 350.239,472.743C350.228,472.752 350.217,472.761 350.216,472.763C350.214,472.765 350.208,472.771 350.201,472.776C350.162,472.806 350.083,472.901 350.084,472.919L350.083,472.919C350.193,473.022 350.324,473.077 350.475,473.082C350.478,473.082 350.48,473.082 350.483,473.082C350.554,473.082 350.62,473.071 350.683,473.05L350.687,473.05C350.686,473.049 350.686,473.049 350.686,473.049C350.663,473.023 350.657,473.003 350.654,472.936C350.649,472.846 350.633,472.791 350.597,472.744C350.585,472.729 350.585,472.728 350.6,472.704C350.601,472.703 350.601,472.702 350.602,472.701L350.602,472.701C350.6,472.7 350.598,472.7 350.597,472.699L350.597,472.699C350.599,472.693 350.601,472.687 350.604,472.682C350.607,472.675 350.613,472.667 350.616,472.664L350.619,472.662L350.709,472.675L350.714,472.674C350.72,472.673 350.724,472.673 350.729,472.671C350.741,472.667 350.753,472.656 350.757,472.647C350.76,472.64 350.76,472.632 350.756,472.611C350.754,472.596 350.754,472.596 350.755,472.592C350.756,472.586 350.759,472.582 350.767,472.574C350.774,472.568 350.775,472.568 350.775,472.566C350.776,472.563 350.775,472.561 350.771,472.555C350.767,472.55 350.766,472.547 350.767,472.546C350.767,472.545 350.769,472.544 350.771,472.543C350.78,472.538 350.783,472.535 350.784,472.53C350.785,472.526 350.784,472.524 350.781,472.518C350.778,472.513 350.777,472.51 350.777,472.507C350.777,472.505 350.777,472.502 350.776,472.498C350.775,472.492 350.775,472.489 350.777,472.486C350.779,472.484 350.783,472.483 350.79,472.482L350.795,472.482C350.795,472.482 350.796,472.482 350.796,472.482C350.796,472.482 350.797,472.482 350.797,472.482C350.799,472.482 350.802,472.481 350.807,472.48C350.819,472.476 350.824,472.472 350.827,472.467C350.829,472.462 350.828,472.456 350.825,472.447C350.821,472.434 350.814,472.421 350.793,472.386C350.78,472.364 350.773,472.352 350.769,472.343L350.766,472.337L350.768,472.334C350.774,472.323 350.776,472.312 350.775,472.294C350.774,472.266 350.766,472.239 350.752,472.214C350.742,472.195 350.727,472.176 350.711,472.161C350.682,472.134 350.642,472.114 350.598,472.104C350.594,472.103 350.589,472.102 350.588,472.102C350.584,472.101 350.551,472.097 350.545,472.096C350.535,472.096 350.527,472.095 350.52,472.095ZM350.515,472.149C350.562,472.149 350.602,472.165 350.637,472.197C350.672,472.231 350.69,472.271 350.692,472.32C350.692,472.368 350.676,472.409 350.644,472.445C350.61,472.479 350.57,472.497 350.521,472.499L350.519,472.499C350.471,472.499 350.43,472.483 350.396,472.451C350.362,472.418 350.344,472.377 350.342,472.329C350.341,472.281 350.357,472.239 350.39,472.203C350.423,472.169 350.464,472.151 350.512,472.149L350.515,472.149Z" style="fill:rgb(239,239,239);fill-rule:nonzero;"/>
                    </g>
                    <g transform="matrix(1.23281,0,0,1.23281,-81.6304,-109.88)">
                        <path d="M350.473,472.342C350.476,472.342 350.478,472.341 350.479,472.341C350.479,472.341 350.479,472.338 350.48,472.336C350.48,472.327 350.481,472.326 350.484,472.324C350.488,472.322 350.489,472.323 350.498,472.33C350.501,472.332 350.503,472.331 350.509,472.326L350.512,472.323L350.509,472.317C350.506,472.309 350.506,472.309 350.509,472.305L350.511,472.302L350.518,472.303C350.527,472.304 350.527,472.304 350.53,472.296C350.531,472.292 350.531,472.292 350.529,472.289C350.528,472.288 350.525,472.286 350.523,472.285C350.521,472.283 350.52,472.282 350.52,472.28C350.519,472.274 350.52,472.273 350.527,472.27L350.534,472.268L350.534,472.263C350.534,472.257 350.532,472.253 350.53,472.253C350.529,472.253 350.525,472.253 350.523,472.252C350.518,472.251 350.517,472.251 350.516,472.248C350.514,472.243 350.514,472.243 350.518,472.237C350.521,472.234 350.523,472.232 350.523,472.231C350.523,472.23 350.518,472.223 350.516,472.222C350.515,472.221 350.513,472.221 350.508,472.223C350.501,472.226 350.501,472.226 350.497,472.224C350.494,472.222 350.494,472.222 350.494,472.216C350.494,472.213 350.495,472.209 350.495,472.208C350.496,472.206 350.495,472.205 350.49,472.204C350.488,472.202 350.485,472.201 350.484,472.201C350.482,472.201 350.48,472.204 350.477,472.207C350.474,472.212 350.473,472.213 350.47,472.213C350.468,472.213 350.466,472.212 350.466,472.212C350.465,472.212 350.461,472.205 350.459,472.2C350.459,472.198 350.454,472.198 350.448,472.199C350.445,472.2 350.445,472.2 350.444,472.205C350.444,472.214 350.443,472.215 350.439,472.217C350.435,472.218 350.435,472.218 350.431,472.215C350.422,472.209 350.423,472.209 350.42,472.21C350.419,472.211 350.417,472.213 350.415,472.215L350.411,472.218L350.414,472.224C350.418,472.231 350.418,472.232 350.415,472.235L350.413,472.239L350.405,472.238C350.401,472.237 350.398,472.237 350.397,472.238C350.396,472.239 350.392,472.249 350.392,472.25C350.393,472.25 350.395,472.253 350.398,472.255C350.403,472.257 350.404,472.259 350.404,472.261C350.404,472.267 350.403,472.268 350.397,472.271C350.39,472.273 350.39,472.273 350.39,472.277C350.39,472.279 350.39,472.282 350.39,472.284C350.391,472.287 350.391,472.287 350.399,472.289C350.407,472.29 350.407,472.29 350.408,472.293C350.41,472.297 350.41,472.297 350.407,472.301C350.4,472.311 350.4,472.309 350.404,472.314C350.408,472.321 350.408,472.321 350.416,472.318C350.419,472.316 350.422,472.315 350.423,472.315C350.423,472.315 350.425,472.316 350.427,472.317L350.43,472.32L350.429,472.327C350.429,472.331 350.429,472.335 350.429,472.335C350.43,472.336 350.438,472.34 350.44,472.339C350.441,472.339 350.444,472.337 350.446,472.334C350.45,472.328 350.452,472.327 350.457,472.328C350.458,472.329 350.46,472.331 350.462,472.335C350.464,472.341 350.466,472.344 350.467,472.344C350.467,472.343 350.47,472.343 350.473,472.342ZM350.456,472.287C350.443,472.282 350.44,472.266 350.45,472.258C350.459,472.25 350.471,472.252 350.477,472.262C350.485,472.276 350.471,472.293 350.456,472.287Z" style="fill:rgb(251,149,5);fill-rule:nonzero;"/>
                    </g>
                    <g transform="matrix(1.23281,0,0,1.23281,-81.6304,-109.88)">
                        <path d="M350.6,472.414C350.602,472.414 350.602,472.413 350.603,472.408C350.604,472.4 350.604,472.398 350.607,472.397C350.611,472.394 350.613,472.395 350.619,472.4L350.624,472.404L350.628,472.402C350.629,472.401 350.632,472.399 350.633,472.397L350.635,472.395L350.633,472.389C350.629,472.381 350.63,472.38 350.633,472.376C350.635,472.374 350.636,472.374 350.64,472.375C350.649,472.377 350.65,472.376 350.652,472.37C350.654,472.368 350.654,472.365 350.654,472.364C350.654,472.363 350.652,472.361 350.649,472.358C350.643,472.354 350.642,472.353 350.644,472.347C350.644,472.346 350.646,472.344 350.65,472.342C350.654,472.341 350.657,472.339 350.658,472.339C350.659,472.338 350.657,472.326 350.655,472.325C350.654,472.325 350.652,472.325 350.651,472.325C350.65,472.325 350.647,472.325 350.645,472.324C350.642,472.324 350.641,472.323 350.639,472.32L350.637,472.316L350.646,472.303L350.644,472.3C350.643,472.298 350.641,472.296 350.64,472.295L350.638,472.293L350.623,472.299L350.617,472.293L350.618,472.286C350.618,472.282 350.619,472.278 350.618,472.278C350.618,472.277 350.615,472.276 350.612,472.275C350.607,472.273 350.606,472.273 350.605,472.274C350.605,472.275 350.602,472.278 350.6,472.28C350.597,472.285 350.596,472.285 350.593,472.285C350.588,472.284 350.588,472.284 350.585,472.276L350.582,472.27L350.576,472.271C350.572,472.271 350.569,472.271 350.569,472.272C350.568,472.272 350.568,472.275 350.568,472.279L350.567,472.286L350.559,472.291L350.553,472.286C350.55,472.284 350.547,472.282 350.546,472.282C350.545,472.282 350.542,472.284 350.54,472.286L350.535,472.29L350.538,472.295C350.541,472.302 350.541,472.305 350.539,472.308L350.536,472.311L350.529,472.31C350.52,472.309 350.519,472.309 350.517,472.318C350.515,472.322 350.515,472.322 350.524,472.329C350.528,472.331 350.528,472.331 350.527,472.336L350.527,472.34L350.513,472.346L350.513,472.35C350.513,472.359 350.514,472.36 350.521,472.36C350.53,472.361 350.53,472.361 350.532,472.366C350.533,472.369 350.533,472.37 350.529,472.375C350.524,472.382 350.524,472.382 350.528,472.387C350.532,472.393 350.533,472.393 350.54,472.39C350.545,472.387 350.548,472.387 350.551,472.39C350.554,472.392 350.554,472.392 350.553,472.399C350.552,472.403 350.552,472.407 350.553,472.407C350.553,472.408 350.556,472.409 350.559,472.41L350.564,472.413L350.573,472.402C350.575,472.4 350.576,472.399 350.581,472.401C350.582,472.401 350.584,472.404 350.586,472.408L350.589,472.415L350.6,472.414ZM350.576,472.357C350.572,472.354 350.568,472.348 350.568,472.343C350.567,472.339 350.57,472.333 350.573,472.33C350.582,472.322 350.596,472.324 350.601,472.335C350.604,472.341 350.603,472.349 350.598,472.354C350.594,472.36 350.583,472.362 350.576,472.357Z" style="fill:rgb(245,184,72);fill-rule:nonzero;"/>
                    </g>
                    <g transform="matrix(1.23281,0,0,1.23281,-81.6304,-109.88)">
                        <path d="M350.49,472.402C350.491,472.402 350.492,472.4 350.491,472.399C350.491,472.396 350.494,472.394 350.497,472.396C350.502,472.398 350.504,472.397 350.503,472.393C350.502,472.388 350.503,472.387 350.507,472.387C350.51,472.388 350.51,472.387 350.511,472.385C350.511,472.383 350.511,472.382 350.509,472.381C350.506,472.378 350.507,472.377 350.51,472.375C350.514,472.373 350.514,472.37 350.509,472.368C350.505,472.366 350.505,472.365 350.507,472.362C350.51,472.359 350.507,472.357 350.502,472.357C350.499,472.357 350.499,472.357 350.498,472.353C350.497,472.35 350.497,472.349 350.495,472.349C350.493,472.349 350.492,472.349 350.491,472.351C350.489,472.354 350.487,472.353 350.485,472.35C350.484,472.347 350.479,472.347 350.479,472.35C350.478,472.354 350.475,472.355 350.473,472.353C350.471,472.352 350.47,472.352 350.468,472.353C350.467,472.354 350.467,472.355 350.467,472.358C350.468,472.362 350.467,472.363 350.463,472.362C350.459,472.362 350.458,472.365 350.461,472.369C350.464,472.371 350.464,472.373 350.461,472.374C350.458,472.376 350.457,472.377 350.458,472.38C350.458,472.381 350.459,472.381 350.461,472.381C350.465,472.381 350.466,472.384 350.464,472.387C350.461,472.391 350.463,472.393 350.468,472.393C350.472,472.393 350.472,472.393 350.473,472.396C350.473,472.401 350.476,472.402 350.479,472.399C350.481,472.396 350.484,472.396 350.485,472.399C350.486,472.402 350.488,472.403 350.49,472.402ZM350.481,472.379C350.478,472.377 350.478,472.373 350.48,472.371C350.484,472.366 350.491,472.369 350.492,472.375C350.492,472.381 350.486,472.383 350.481,472.379Z" style="fill:rgb(251,149,5);fill-rule:nonzero;"/>
                    </g>
                </g>
            </g>
        </g>
    </g>
</svg>
