<?xml version="1.0" encoding="UTF-8" standalone="no"?>
<!DOCTYPE svg PUBLIC "-//W3C//DTD SVG 1.1//EN" "http://www.w3.org/Graphics/SVG/1.1/DTD/svg11.dtd">
<svg width="100%" height="100%" viewBox="0 0 265 265" version="1.1" xmlns="http://www.w3.org/2000/svg" xmlns:xlink="http://www.w3.org/1999/xlink" xml:space="preserve" xmlns:serif="http://www.serif.com/" style="fill-rule:evenodd;clip-rule:evenodd;stroke-linejoin:round;stroke-miterlimit:2;">
    <g transform="matrix(1,0,0,1,-53966.8,-6166.25)">
        <g transform="matrix(1,0,0,1,52915.7,2317.25)">
            <g id="Groupe_366" transform="matrix(1,0,0,1,1051,3849)">
                <g id="Groupe_365">
                    <g id="Tracé_2016" transform="matrix(1,0,0,1,3.274,3.274)">
                        <path d="M99.306,1C87.697,1.006 77.098,7.772 72.206,18.3C71.27,18.21 70.342,18.1 69.385,18.1C52.974,18.101 39.47,31.605 39.468,48.016L39.468,49.816C32.67,52.811 27.911,59.152 26.936,66.516L26.645,66.349C14.003,70.099 5.27,81.799 5.27,94.985C5.27,100.541 6.82,105.988 9.745,110.711C-2.733,124.576 -1.631,146.24 12.19,158.766C10.442,162.946 9.542,167.432 9.542,171.963C9.542,189.118 22.448,203.754 39.468,205.9L39.468,206.165L41.084,206.165C44.134,214.906 51.711,221.326 60.834,222.9L60.898,222.114C60.885,222.499 60.838,222.871 60.838,223.255C60.838,223.317 60.837,223.378 60.837,223.44C60.837,242.198 76.273,257.634 95.031,257.634C113.79,257.634 129.226,242.198 129.226,223.44C129.226,223.378 129.225,223.317 129.225,223.255L129.225,30.919C129.225,14.506 115.719,1 99.306,1M39.468,154.679L39.468,154.871C39.425,154.986 39.434,154.892 39.468,154.679" style="fill:rgb(245,184,72);fill-rule:nonzero;"/>
                    </g>
                    <g id="Tracé_2017" transform="matrix(1,0,0,1,111.323,55.661)">
                        <path d="M51.1,59.742L34,59.742L34,51.194L51.1,51.194C53.443,51.19 55.37,49.263 55.374,46.92L55.374,17L63.922,17L63.922,46.919C63.914,53.95 58.131,59.733 51.1,59.742" style="fill:rgb(64,17,119);fill-rule:nonzero;"/>
                    </g>
                    <g id="Tracé_2018" transform="matrix(1,0,0,1,121.145,29.468)">
                        <path d="M49.823,34.645C49.823,34.645 49.822,34.645 49.822,34.645C42.788,34.645 36.999,28.856 36.999,21.822C36.999,14.788 42.788,8.999 49.822,8.999C56.856,8.999 62.645,14.788 62.645,21.822C62.645,21.822 62.645,21.823 62.645,21.823C62.636,28.854 56.854,34.636 49.823,34.645M49.823,17.545C47.479,17.547 45.552,19.475 45.552,21.819C45.552,24.164 47.481,26.093 49.826,26.093C52.169,26.093 54.098,24.166 54.1,21.823C54.096,19.48 52.169,17.553 49.826,17.549" style="fill:rgb(64,17,119);fill-rule:nonzero;"/>
                    </g>
                    <g id="Tracé_2019" transform="matrix(1,0,0,1,111.323,114.597)">
                        <path d="M63.919,77.742L55.371,77.742L55.371,47.823C55.368,45.481 53.442,43.553 51.1,43.548L34,43.548L34,35L51.1,35C58.13,35.01 63.911,40.793 63.919,47.823L63.919,77.742Z" style="fill:rgb(64,17,119);fill-rule:nonzero;"/>
                    </g>
                    <g id="Tracé_2020" transform="matrix(1,0,0,1,121.145,153.887)">
                        <path d="M49.823,72.645C49.823,72.645 49.822,72.645 49.822,72.645C42.788,72.645 36.999,66.856 36.999,59.822C36.999,52.788 42.788,46.999 49.822,46.999C56.856,46.999 62.645,52.788 62.645,59.822C62.645,59.822 62.645,59.823 62.645,59.823C62.636,66.854 56.854,72.636 49.823,72.645M49.823,55.545C47.479,55.547 45.552,57.475 45.552,59.819C45.552,62.164 47.481,64.093 49.826,64.093C52.169,64.093 54.098,62.166 54.1,59.823C54.096,57.48 52.169,55.553 49.826,55.549" style="fill:rgb(64,17,119);fill-rule:nonzero;"/>
                    </g>
                    <g id="Tracé_2021" transform="matrix(1,0,0,1,111.323,78.581)">
                        <path d="M76.742,58.194L34,58.194L34,49.645L76.742,49.645C83.773,49.637 89.556,43.854 89.565,36.823L89.565,24L98.113,24L98.113,36.823C98.097,48.541 88.46,58.178 76.742,58.194" style="fill:rgb(64,17,119);fill-rule:nonzero;"/>
                    </g>
                    <g id="Tracé_2022" transform="matrix(1,0,0,1,147.339,52.387)">
                        <path d="M57.823,41.645C57.823,41.645 57.822,41.645 57.822,41.645C50.788,41.645 44.999,35.856 44.999,28.822C44.999,21.788 50.788,15.999 57.822,15.999C64.856,15.999 70.645,21.788 70.645,28.822C70.645,28.822 70.645,28.823 70.645,28.823C70.636,35.854 64.854,41.636 57.823,41.645M57.823,24.545C55.479,24.547 53.552,26.475 53.552,28.819C53.552,31.164 55.481,33.093 57.826,33.093C60.169,33.093 62.098,31.166 62.1,28.823C62.096,26.48 60.169,24.553 57.826,24.549" style="fill:rgb(64,17,119);fill-rule:nonzero;"/>
                    </g>
                    <g id="Rectangle_461" transform="matrix(1,0,0,1,201,150)">
                        <rect x="0" y="0" width="8" height="42" style="fill:rgb(64,17,119);"/>
                    </g>
                    <g id="Rectangle_462" transform="matrix(1,0,0,1,222,90)">
                        <rect x="0" y="0" width="9" height="68" style="fill:rgb(64,17,119);"/>
                    </g>
                    <g id="Rectangle_463" transform="matrix(1,0,0,1,222,167)">
                        <rect x="0" y="0" width="9" height="8" style="fill:rgb(64,17,119);"/>
                    </g>
                    <path id="Tracé_2023" d="M152.939,1.569C143.426,0.081 134.026,5.189 130.1,13.981C123.684,5.204 113.443,0.004 102.571,0.004C90.375,0.004 79.073,6.546 73,17.122C72.889,17.122 72.773,17.096 72.662,17.096C54.232,17.122 38.966,32.037 38.51,50.461C32.505,53.93 28.152,59.686 26.449,66.408C13.15,71.345 4.274,84.106 4.274,98.292C4.274,103.578 5.507,108.792 7.873,113.518C-3.505,128.409 -2.377,149.57 10.519,163.167C9.214,167.08 8.549,171.178 8.549,175.303C8.549,194.17 22.468,210.375 41.119,213.222C44.698,221.18 51.606,227.171 59.99,229.588C61.545,249.465 78.335,264.994 98.273,264.994C110.563,264.994 122.134,259.094 129.352,249.147C132.679,258.969 142.687,265.032 152.933,263.431C217.873,253.378 265,198.31 265,132.5C265,66.69 217.873,11.622 152.939,1.569M98.306,256.452C81.893,256.452 68.387,242.946 68.387,226.533C68.387,210.119 81.893,196.613 98.306,196.613L98.306,188.065C79.44,188.101 63.242,201.998 60.338,220.639C52.301,217.38 47.015,209.533 47.015,200.86C47.015,189.152 56.649,179.517 68.358,179.517C68.367,179.517 68.377,179.517 68.386,179.517L68.386,170.969C68.356,170.969 68.325,170.969 68.295,170.969C51.931,170.969 38.466,184.434 38.466,200.798C38.466,201.85 38.522,202.902 38.633,203.949C25.906,200.239 17.093,188.49 17.093,175.234C17.093,158.826 30.595,145.324 47.003,145.324C47.007,145.324 47.011,145.324 47.015,145.324L47.015,136.776C33.844,136.791 21.565,143.574 14.54,154.715C5.994,143.362 6.697,127.399 16.207,116.841L18.34,114.46L16.66,111.742C14.151,107.706 12.822,103.048 12.822,98.296C12.822,89.071 17.834,80.539 25.892,76.048C27.589,88.719 38.508,98.288 51.292,98.308L51.292,89.758C41.911,89.758 34.192,82.039 34.192,72.658C34.192,63.277 41.911,55.558 51.292,55.558C60.673,55.558 68.392,63.277 68.392,72.658L76.94,72.658C76.924,58.594 65.354,47.027 51.29,47.016C49.97,47.027 48.652,47.138 47.349,47.349C49.114,36.101 58.162,27.309 69.456,25.867C68.746,28.633 68.387,31.477 68.387,34.332C68.387,53.014 83.76,68.387 102.442,68.387C102.488,68.387 102.535,68.387 102.581,68.387L102.581,59.839C88.513,59.839 76.936,48.262 76.936,34.194C76.936,20.126 88.513,8.549 102.581,8.549C116.649,8.549 128.226,20.126 128.226,34.194L128.226,226.532C128.208,242.938 114.713,256.433 98.307,256.451M151.628,254.985C150.97,255.088 150.304,255.14 149.638,255.14C142.588,255.14 136.785,249.345 136.775,242.295L136.775,22.7C136.788,15.649 142.597,9.855 149.648,9.861C150.312,9.861 150.975,9.913 151.631,10.015C211.389,19.269 256.451,71.927 256.451,132.501C256.451,193.075 211.389,245.732 151.627,254.986" style="fill:rgb(63,58,52);fill-rule:nonzero;"/>
                    <g id="Rectangle_464" transform="matrix(1,0,0,1,103,30)">
                        <rect x="0" y="0" width="8" height="8" style="fill:rgb(63,58,52);"/>
                    </g>
                    <g id="Rectangle_465" transform="matrix(1,0,0,1,81,128)">
                        <rect x="0" y="0" width="9" height="9" style="fill:rgb(63,58,52);"/>
                    </g>
                    <g id="Rectangle_466" transform="matrix(1,0,0,1,107,222)">
                        <rect x="0" y="0" width="8" height="9" style="fill:rgb(63,58,52);"/>
                    </g>
                    <g id="Rectangle_467" transform="matrix(1,0,0,1,34,158)">
                        <rect x="0" y="0" width="9" height="9" style="fill:rgb(63,58,52);"/>
                    </g>
                    <g id="Rectangle_468" transform="matrix(1,0,0,1,111,98)">
                        <rect x="0" y="0" width="9" height="9" style="fill:rgb(63,58,52);"/>
                    </g>
                    <g id="Rectangle_469" transform="matrix(1,0,0,1,30,107)">
                        <rect x="0" y="0" width="8" height="8" style="fill:rgb(63,58,52);"/>
                    </g>
                </g>
            </g>
        </g>
    </g>
</svg>
