<?xml version="1.0" encoding="UTF-8" standalone="no"?>
<!DOCTYPE svg PUBLIC "-//W3C//DTD SVG 1.1//EN" "http://www.w3.org/Graphics/SVG/1.1/DTD/svg11.dtd">
<svg width="100%" height="100%" viewBox="0 0 342 269" version="1.1" xmlns="http://www.w3.org/2000/svg" xmlns:xlink="http://www.w3.org/1999/xlink" xml:space="preserve" xmlns:serif="http://www.serif.com/" style="fill-rule:evenodd;clip-rule:evenodd;stroke-linejoin:round;stroke-miterlimit:2;">
    <g transform="matrix(1,0,0,1,-497.842,-2323.86)">
        <g transform="matrix(1,0,0,1.76979,-6649,302.635)">
            <g id="method_image" transform="matrix(1,0,0,0.565038,7003,963.085)">
                <g>
                    <path d="M143.842,422.629L484.888,322.427L237.165,458.103L143.842,422.629Z" style="fill:white;fill-rule:nonzero;"/>
                </g>
                <g>
                    <path d="M484.888,322.427L237.165,458.103L276.946,542.871L484.888,322.427Z" style="fill:rgb(220,229,235);fill-rule:nonzero;"/>
                </g>
                <g>
                    <path d="M484.888,322.427L287.415,475.871L366.799,584.867L484.888,322.427Z" style="fill:white;fill-rule:nonzero;"/>
                </g>
                <g>
                    <path d="M276.946,542.871L287.415,475.871L310.387,507.397L276.946,542.871Z" style="fill:rgb(60,70,79);fill-rule:nonzero;"/>
                </g>
                <g>
                    <path d="M280.545,400.08C266.515,402.306 260.291,408.41 261.873,418.391C262.594,421.805 264.197,424.106 266.681,425.294C267.139,425.518 267.771,425.674 268.577,425.763C271.865,425.661 275.97,425.9 280.89,426.482C281.479,430.909 282.236,434.659 283.16,437.73C288.414,452.352 290.978,460.018 290.854,460.729C291.799,464.399 292.446,469.522 292.793,476.097L296.313,480.441L311.56,476.217C311.662,474.105 311.284,471.092 310.427,467.177C305.063,449.436 301.361,435.325 299.322,424.845C322.38,419.606 334.968,416.612 337.087,415.862C337.799,422.901 338.492,427.693 339.165,430.24C339.382,431.661 341.027,436.85 344.1,445.805L347.623,460.425L351.759,462.939L364.565,457.266C364.496,455.017 363.879,450.916 362.715,444.961C361.677,439.191 360.094,433.046 357.964,426.526L355.956,411.116C355.564,408.576 355.073,406.282 354.485,404.232C353.035,399.11 350.835,395.779 347.884,394.239C345.356,392.894 341.967,392.424 337.717,392.829C336.474,392.935 334.995,393.135 333.28,393.43C325.134,395.128 320.049,396.063 318.023,396.236C314.213,396.735 309.576,397.015 304.114,397.074L299.101,397.575C291.137,398.371 284.977,399.2 280.62,400.065" style="fill:rgb(55,89,122);fill-rule:nonzero;"/>
                </g>
                <g>
                    <path d="M338.518,455.752C338.148,458.281 338.185,460.734 338.629,463.112C339.072,465.33 339.752,466.555 340.668,466.787C341.056,466.911 341.545,466.931 342.136,466.845C346.298,465.915 349.529,465.393 351.829,465.279C352.636,465.238 353.292,465.252 353.797,465.321C354.025,465.328 354.735,465.486 355.926,465.795L356.707,465.908C357.216,465.956 357.827,465.946 358.538,465.879C360.632,465.651 362.789,465.174 365.009,464.449C369.197,463.122 370.164,461.393 367.908,459.261C367.291,458.711 366.654,458.389 365.996,458.296C365.738,458.254 365.424,458.242 365.053,458.26C363.267,458.498 362.141,458.582 361.672,458.514C360.763,458.455 359.88,458.238 359.022,457.863C357.408,457.235 354.577,455.186 350.528,451.715L338.573,455.733" style="fill-rule:nonzero;"/>
                </g>
                <g>
                    <path d="M303.668,466.07L292.533,470.757C292.924,474.475 293.438,477.225 294.074,479.006C295.353,482.722 297.254,484.683 299.779,484.889C301.232,485.129 303.776,484.809 307.413,483.93C310.186,483.123 311.9,482.274 312.555,481.381C313.008,480.808 313.002,480.138 312.537,479.371C312.304,478.97 311.945,478.508 311.461,477.986C309.323,475.878 308.185,474.719 308.046,474.509C307.514,473.908 307.038,473.293 306.619,472.665C305.667,471.294 304.684,469.097 303.669,466.074" style="fill-rule:nonzero;"/>
                </g>
                <g>
                    <path d="M348.723,381.322L332.446,381.844L327.495,372.912L314.356,378.197C315.39,380.655 317.074,383.722 319.408,387.398C322.005,391.443 323.984,394.131 325.346,395.461C326.873,397.095 329.014,397.787 331.771,397.539C334.953,397.347 337.51,396.22 339.441,394.158C339.994,394.787 340.835,395.07 341.962,395.007C344.024,394.866 345.635,394.512 346.795,393.944C347.023,393.81 347.208,393.652 347.351,393.471L348.029,392.443C348.898,391.414 349.407,390.765 349.557,390.495C349.963,389.89 350.223,389.199 350.335,388.422C350.387,388.087 350.42,387.685 350.433,387.216L350.468,383.538C350.405,383.096 349.83,382.364 348.746,381.343" style="fill:rgb(255,183,146);fill-rule:nonzero;"/>
                </g>
                <g>
                    <path d="M290.776,340.496C288.463,340.831 286.51,343.047 284.92,347.143C280.532,348.047 276.104,350.312 271.635,353.939C268.836,356.387 266.845,359.232 265.662,362.473C264.979,364.353 264.475,366.654 264.153,369.376C263.99,370.746 263.863,372.205 263.772,373.754C263.433,382.691 263.163,387.729 262.959,388.868C262.831,390.799 262.024,395.978 260.536,404.403C260.328,405.805 260.194,407.018 260.132,408.043C259.843,411.755 260.537,415.559 262.216,419.457L262.252,414.044C262.72,412.749 263.15,411.744 263.541,411.028C263.991,410.181 264.553,409.406 265.227,408.704C265.883,407.989 267.06,406.977 268.758,405.668C269.871,404.249 270.621,403.436 271.008,403.228C271.157,403.066 271.705,402.902 272.653,402.737C276.956,402.097 288.131,400.216 306.177,397.094L313.102,376.294L314.36,378.589C314.988,378.897 315.639,378.997 316.315,378.889C317.813,378.797 322.017,377.355 328.929,374.561C327.332,371.311 326.288,368.934 325.795,367.429C325.549,367 325.079,364.907 324.384,361.148L323.499,358.637C322.261,355.97 320.772,353.842 319.032,352.252C318.342,351.622 317.504,351.061 316.519,350.568C315.615,350.108 314.201,349.618 312.277,349.098C305.933,345.541 301.432,343.228 298.775,342.16C295.324,340.693 292.692,340.132 290.878,340.477M262.228,419.499C262.223,419.673 262.227,419.687 262.239,419.541" style="fill-rule:nonzero;"/>
                </g>
                <g>
                    <path d="M299.319,317.103C296.107,317.708 293.79,319.261 292.369,321.762C290.884,324.489 290.082,328.417 289.964,333.545C289.936,336.728 290.293,339.422 291.034,341.626L299.054,341.57C308.589,336.666 314.475,333.661 316.712,332.554C319.332,331.247 320.634,330.673 320.619,330.833C319.492,329.856 318.65,328.978 318.091,328.198L315.272,323.62C314.795,322.885 314.318,322.228 313.839,321.649C312.873,320.476 311.823,319.523 310.689,318.79C307.674,316.9 303.903,316.334 299.375,317.092" style="fill-rule:nonzero;"/>
                </g>
                <g>
                    <path d="M270.172,383.371L269.277,383.658C269.712,386.492 270.368,388.902 271.245,390.888C271.62,391.739 272.115,392.65 272.729,393.619C275.502,397.448 277.514,400.505 278.766,402.789C279.78,404.578 282.407,405.173 286.645,404.575C291.124,403.94 293.679,403.507 294.31,403.275C295.809,402.871 297.203,402.258 298.49,401.437C300.932,400.05 305.62,395.711 312.553,388.42L317.071,388.386C318.086,388.344 319.042,388.256 319.939,388.122C323.331,387.61 325.564,387.042 326.639,386.418C327.432,386.01 328.179,385.311 328.879,384.322C329.6,384.704 330.156,384.487 330.548,383.671C330.111,382.703 329.086,381.354 327.472,379.623C328.23,379.595 329.338,379.466 330.797,379.234C330.866,379.353 331.085,379.465 331.453,379.571L334.117,380.236L335.981,377.951C332.95,376.526 330.868,375.705 329.736,375.486C329.334,375.392 328.877,375.321 328.366,375.272C326.639,375.238 325.424,375.155 324.722,375.023C324.304,375.006 323.941,375.039 323.63,375.119C323.272,375.198 322.822,375.364 322.28,375.617L318.233,377.716L313.117,380.017L303.427,385.114C301.666,386.008 300.161,386.713 298.912,387.228C295.934,388.503 292.628,389.259 288.995,389.495C288.968,387.275 288.787,385.776 288.453,384.998L287.644,382.945C287.357,382.743 287.046,382.588 286.711,382.479C286.169,382.192 283.957,382.098 280.075,382.196L270.293,383.356" style="fill:rgb(255,183,146);fill-rule:nonzero;"/>
                </g>
                <g>
                    <path d="M303.743,331.453L302.551,336.211L299.623,337.031L298.201,339.957L296.791,339.22C296.297,336.908 295.694,335.507 294.982,335.017C293.915,334.287 292.969,334.285 292.144,335.012C291.512,335.598 291.443,337.341 291.937,340.24L290.911,340.552C290.849,342.938 290.363,345.042 289.453,346.866C291.242,349.561 292.621,351.396 293.59,352.373C294.483,353.35 295.913,354.453 297.879,355.681L299.986,366.679L303.343,355.624C305.316,356.126 306.914,356.416 308.137,356.495C309.066,356.514 309.668,356.254 309.943,355.714C310.272,355.21 310.427,354.081 310.409,352.325C310.815,351.996 311.023,351.705 311.035,351.454C311.078,351.364 311.072,350.931 311.016,350.156C312.049,349.779 312.513,349.13 312.41,348.209C313.498,348.089 314.107,347.915 314.238,347.688C314.363,347.628 314.452,347.233 314.507,346.503C314.939,346.099 315.166,345.817 315.187,345.658C315.429,345.283 315.323,343.669 314.868,340.816C316.096,340.086 316.715,339.328 316.725,338.543C316.62,336.383 316.692,333.989 316.942,331.36C315.691,331.78 314.285,331.988 312.726,331.984C311.322,332.014 308.34,331.838 303.779,331.456" style="fill:rgb(255,183,146);fill-rule:nonzero;"/>
                </g>
                <g>
                    <path d="M298.565,354.143L299.896,366.817L303.311,355.611L298.569,354.144" style="fill:rgb(255,71,0);fill-opacity:0.11;fill-rule:nonzero;"/>
                </g>
                <g>
                    <path d="M295.262,355.01C294.613,355.137 293.604,357.015 292.235,360.644L297.02,359.888C296.716,358.14 296.453,356.935 296.233,356.275C295.99,355.52 295.728,355.103 295.449,355.025L295.446,355.024C295.388,355.002 295.327,354.997 295.262,355.01L295.262,355.011L295.262,355.01ZM305.404,357.328C305.215,357.365 304.995,357.589 304.746,358C304.452,358.468 304.022,359.395 303.457,360.779L306.751,360.325C306.489,359.265 306.277,358.537 306.113,358.139C305.929,357.676 305.746,357.411 305.564,357.343L305.56,357.342C305.51,357.322 305.458,357.317 305.404,357.328L305.404,357.328L305.404,357.328ZM316.175,366.39L314.934,371.61L313.085,376.225C314.031,374.595 314.714,373.116 315.132,371.785C315.519,370.609 315.866,368.816 316.173,366.405L316.175,366.39L316.176,366.39L316.175,366.39ZM277.657,359.796L277.658,359.796C278.929,361.248 279.895,362.492 280.554,363.526C281.292,364.659 282.001,366 282.68,367.548C283.347,369.061 284.038,370.9 284.755,373.066C285.411,375.027 286.391,378.224 287.694,382.658C286.874,378.85 286.137,375.893 285.483,373.787C284.861,371.708 283.764,368.65 282.192,364.615L277.663,359.801L277.658,359.796L277.658,359.797L277.657,359.796ZM299.196,415.69C299.658,417.307 299.729,420.347 299.409,424.811L311.76,421.793L337.866,415.697L299.244,415.69L299.196,415.69L299.196,415.691L299.196,415.69Z" style="fill-opacity:0.16;fill-rule:nonzero;"/>
                </g>
                <g>
                    <path d="M357.257,347.547L361.127,364.664L342.164,389.13C342.07,389.273 342.033,389.298 342.054,389.206L340.681,371.018L357.24,347.57" style="fill-rule:nonzero;"/>
                </g>
                <g>
                    <path d="M356.706,349.171L360.28,364.978L342.77,387.569C342.683,387.701 342.649,387.724 342.668,387.64L341.4,370.845L356.691,349.193" style="fill:white;fill-rule:nonzero;"/>
                </g>
                <g>
                    <path d="M357.156,369.262L339.736,371.395L323.105,397.502C323.002,397.638 322.99,397.681 323.07,397.631L340.655,392.786L357.139,369.286" style="fill-rule:nonzero;"/>
                </g>
                <g>
                    <path d="M349.513,379.868L347.834,382.231C348.419,381.986 348.831,381.792 349.071,381.649C349.353,381.485 349.549,381.324 349.659,381.167C349.888,380.851 349.839,380.418 349.514,379.87" style="fill:rgb(255,183,146);fill-rule:nonzero;"/>
                </g>
                <g>
                    <path d="M346.641,385.289C342.733,385.294 340.687,385.337 340.502,385.416C339.605,385.566 339.029,385.881 338.773,386.361C338.621,386.679 338.605,387.024 338.723,387.394C338.845,387.73 339.058,387.955 339.363,388.069C339.524,388.13 339.744,388.165 340.023,388.174C340.133,388.177 340.266,388.176 340.422,388.17C341.162,388.13 341.588,388.111 341.699,388.115C341.97,388.113 342.242,388.126 342.513,388.155C343.07,388.207 343.875,388.371 344.93,388.648L346.639,385.292" style="fill:rgb(255,183,146);fill-rule:nonzero;"/>
                </g>
                <g>
                    <path d="M344.702,388.694C341.389,388.095 339.396,387.799 338.724,387.805C337.942,387.746 337.342,387.969 336.926,388.474C336.402,389.049 336.501,389.728 337.224,390.51C337.542,390.872 337.92,391.198 338.358,391.487C338.805,391.792 339.695,392.322 341.028,393.08L344.693,388.703" style="fill:rgb(255,183,146);fill-rule:nonzero;"/>
                </g>
                <g>
                    <path d="M348.743,381.61C347.239,381.566 346.098,381.642 345.32,381.838C344.444,382.064 343.831,382.424 343.483,382.919C343.291,383.205 343.219,383.493 343.265,383.783C343.316,384.066 343.477,384.29 343.748,384.454C343.966,384.587 344.298,384.677 344.742,384.723C345.111,384.766 345.729,384.775 346.596,384.75L348.739,381.617" style="fill:rgb(255,183,146);fill-rule:nonzero;"/>
                </g>
                <g>
                    <path d="M406.126,404.044L400.384,398.31L394.642,392.575C359.473,419.921 324.304,447.267 289.135,474.613C297.951,486.779 306.766,498.946 315.581,511.113C344.667,493.233 373.752,475.353 402.838,457.473L406.126,404.044" style="fill:white;fill-rule:nonzero;"/>
                </g>
            </g>
        </g>
    </g>
</svg>
