<?xml version="1.0" encoding="UTF-8" standalone="no"?>
<!DOCTYPE svg PUBLIC "-//W3C//DTD SVG 1.1//EN" "http://www.w3.org/Graphics/SVG/1.1/DTD/svg11.dtd">
<svg width="100%" height="100%" viewBox="0 0 603 408" version="1.1" xmlns="http://www.w3.org/2000/svg" xmlns:xlink="http://www.w3.org/1999/xlink" xml:space="preserve" xmlns:serif="http://www.serif.com/" style="fill-rule:evenodd;clip-rule:evenodd;stroke-linejoin:round;stroke-miterlimit:2;">
    <g transform="matrix(1,0,0,1,-58396.8,-3376.26)">
        <g transform="matrix(1,0,0,1,52915.7,2317.25)">
            <g id="Groupe_363" transform="matrix(1,0,0,1,5481.12,1059.01)">
                <g id="Groupe_362">
                    <g transform="matrix(1,0,0,1,0,340.77)">
                        <g id="Groupe_353">
                            <g id="Groupe_352">
                                <g id="Groupe_351" opacity="0.5">
                                    <g transform="matrix(1,0,0,1,0,-544.152)">
                                        <g id="Groupe_350">
                                            <g id="Groupe_349">
                                                <path id="Tracé_1933" d="M276.588,544.157C258.932,544.21 241.277,544.634 223.653,546.594C217.008,547.333 210.502,548.959 203.842,549.614C190.542,550.924 177.473,553.368 164.122,554.494C153.371,555.402 142.574,555.937 131.854,557.094C121.476,558.209 110.994,557.888 100.704,556.141C93.321,554.82 85.904,554.077 78.645,551.956C70.413,549.414 61.86,548.064 53.245,547.948C41.18,548.035 29.43,548.048 17.884,552.235C13.831,553.705 8.869,556.123 5.791,559.209C-1.255,566.274 -2.209,583.903 4.827,591.231C16.676,603.564 41.966,608.403 58.575,608.631C76.775,608.881 94.456,607.531 112.683,606.736C129.62,605.998 146.514,604.947 163.483,604.984C198.132,605.06 232.783,604.984 267.372,602.669C299.866,600.495 332.443,601.241 365.009,601.241C398.404,601.241 431.573,601.504 464.727,605.941C479.172,607.875 493.889,608.552 508.407,609.906C521.407,611.12 533.907,609.882 546.854,608.761C557.79,607.85 568.475,604.984 578.4,600.3C586.22,596.563 600.161,584.953 602.559,576.032C609.282,551.023 507.809,551.624 492.228,551.681C474.799,551.744 457.228,552.317 439.816,551.653C432.502,551.205 425.242,550.108 418.122,548.373C411,546.81 403.822,547.207 396.603,546.551C366.486,543.812 336.303,544.213 306.089,544.213C296.258,544.213 286.421,544.127 276.584,544.156" style="fill:rgb(238,213,213);fill-rule:nonzero;"/>
                                            </g>
                                        </g>
                                    </g>
                                </g>
                            </g>
                        </g>
                    </g>
                    <g id="Groupe_361">
                        <g id="Groupe_360">
                            <g id="Tracé_1934" transform="matrix(1,0,0,1,-7.657,-51.911)">
                                <path d="M46.48,176.3C59.642,173.707 62.18,159.594 62.441,157.9C62.459,157.788 62.44,157.673 62.386,157.573L61.535,155.873L58.494,149.825L55.457,143.777L54.606,142.077C54.557,141.974 54.476,141.889 54.375,141.837C52.86,141.03 40.018,134.637 30.075,143.651C29.958,143.758 29.892,143.909 29.892,144.068C29.892,144.367 30.13,144.618 30.429,144.633C32.629,144.76 37.055,145.133 39.107,146.126C39.29,146.225 39.404,146.417 39.404,146.624C39.404,146.891 39.216,147.123 38.955,147.179C36.025,147.867 28.24,150.37 24.255,158.068C19.283,167.668 20.655,168.82 20.655,168.82L20.855,168.72L20.655,168.82C20.655,168.82 20.77,170.613 31.431,172.355C39.987,173.755 46.642,169.004 48.944,167.066C49.047,166.976 49.18,166.926 49.317,166.926C49.628,166.926 49.884,167.182 49.884,167.493C49.884,167.521 49.882,167.548 49.878,167.576C49.452,169.813 47.109,173.582 45.894,175.427C45.834,175.519 45.802,175.627 45.802,175.737C45.802,176.049 46.058,176.305 46.37,176.305C46.404,176.305 46.439,176.302 46.473,176.296" style="fill:rgb(214,112,134);fill-rule:nonzero;"/>
                            </g>
                            <g id="Tracé_1935" transform="matrix(1,0,0,1,-14.437,-53.13)">
                                <path d="M57.522,170.9C66.869,169.343 68.232,158.631 68.364,157.341C68.373,157.254 68.356,157.166 68.315,157.089L65.274,151.041L62.237,144.993C62.199,144.914 62.139,144.847 62.065,144.8C60.95,144.134 51.542,138.834 44.712,145.4C44.639,145.484 44.598,145.592 44.598,145.703C44.598,145.933 44.77,146.129 44.998,146.16C46.581,146.328 49.762,146.76 51.264,147.585C51.408,147.66 51.498,147.808 51.498,147.97C51.498,148.16 51.373,148.329 51.192,148.385C46.748,149.242 42.965,152.159 41.007,156.239C37.756,163.419 38.779,164.344 38.779,164.344C38.779,164.344 38.899,165.551 45.257,167.086C45.681,167.186 46.134,167.286 46.613,167.397C51.055,168.263 55.653,166.97 58.994,163.918C59.068,163.864 59.158,163.834 59.25,163.834C59.489,163.834 59.685,164.031 59.685,164.269C59.685,164.292 59.684,164.315 59.68,164.338C59.446,166.038 57.89,168.838 57.08,170.213C57.043,170.281 57.024,170.357 57.024,170.434C57.024,170.689 57.234,170.899 57.489,170.899C57.5,170.899 57.512,170.899 57.523,170.898" style="fill:rgb(238,213,213);fill-rule:nonzero;"/>
                            </g>
                            <g id="Tracé_1936" transform="matrix(1,0,0,1,-34.238,-61.031)">
                                <path d="M112.448,188.806C124.487,181.197 128.126,167.706 129.022,163.29L99.013,169.306C99.129,169.289 99.247,169.269 99.362,169.249C99.381,169.33 99.385,169.417 99.403,169.499C99.198,177.047 94.659,187.69 92.181,192.131C89.226,197.431 97.921,197.988 112.449,188.806" style="fill:rgb(204,175,93);fill-rule:nonzero;"/>
                            </g>
                            <g id="Tracé_1937" transform="matrix(1,0,0,1,-26.991,-47.928)">
                                <path d="M82.056,143.619C82.009,143.528 81.968,143.44 81.924,143.345L81.908,143.353C77.508,134.475 77.661,129.863 77.959,128.232C76.186,129.931 74.358,131.686 72.475,133.497C70.592,135.308 70.861,137.145 75.698,146.807C80.535,156.469 84.449,157.415 84.449,157.415C86.968,156.995 89.399,156.596 91.765,156.204L91.935,156.171L91.925,156.165L91.948,156.16C90.427,155.38 86.573,152.646 82.055,143.619" style="fill:rgb(41,41,73);fill-rule:nonzero;"/>
                            </g>
                            <g id="Tracé_1938" transform="matrix(1,0,0,1,-34.244,-61.024)">
                                <path d="M112.46,188.786C124.499,181.177 128.139,167.686 129.034,163.27L99.024,169.287L99.374,169.228C99.393,169.311 99.397,169.396 99.415,169.48C99.209,177.027 94.67,187.67 92.194,192.109C89.237,197.409 97.934,197.968 112.46,188.786" style="fill:rgb(41,41,73);fill-rule:nonzero;"/>
                            </g>
                            <g id="Tracé_1939" transform="matrix(1,0,0,1,-30.343,-24.732)">
                                <path d="M152.965,113.871C155.715,111.849 158.212,109.815 160.48,107.794C176.348,93.658 181,80.124 182.214,75.407C181.394,74.639 180.704,73.744 180.171,72.755L180.151,72.766C180.127,72.725 180.102,72.687 180.08,72.645C180.046,72.578 180.004,72.516 179.97,72.445C179.552,71.607 179.25,70.717 179.07,69.799C174.889,68.138 164.4,64.939 148.71,66.665C142.759,67.341 136.883,68.566 131.157,70.324C121.303,73.371 112.109,78.245 104.057,84.691L104.017,84.67L89.555,97.567L81.378,104.853C81.397,104.874 81.419,104.892 81.436,104.914C81.395,104.954 81.351,104.994 81.31,105.035C81.025,106.606 80.882,110.935 84.776,119.152C84.976,119.572 85.176,119.994 85.395,120.435C89.916,129.459 93.767,132.196 95.287,132.973L125.127,126.987C125.128,126.985 125.128,126.983 125.127,126.981L125.137,126.981C135.352,124.14 144.257,120.281 152.963,113.874" style="fill:rgb(93,102,211);fill-rule:nonzero;"/>
                            </g>
                            <g id="Tracé_1940" transform="matrix(1,0,0,1,-88.767,-24.956)">
                                <path d="M248.149,70.647C249.693,69.208 250.176,68.047 249.876,67.447C249.863,67.419 249.831,67.398 249.812,67.372C249.548,66.989 248.866,66.745 247.78,66.765C247.273,66.777 246.768,66.83 246.27,66.922C243.267,67.614 240.36,68.667 237.61,70.058L237.501,70.019C237.679,70.937 237.98,71.827 238.395,72.665C238.431,72.733 238.473,72.795 238.508,72.865C239.054,73.902 239.771,74.839 240.628,75.637C240.628,75.631 240.628,75.625 240.633,75.619C240.635,75.622 240.638,75.625 240.641,75.627C240.641,75.618 240.643,75.609 240.647,75.601C243.13,74.34 245.476,72.826 247.647,71.081C247.824,70.931 247.999,70.781 248.147,70.644" style="fill:rgb(41,41,73);fill-rule:nonzero;"/>
                            </g>
                            <g id="Tracé_1941" transform="matrix(1,0,0,1,-58.136,-31.768)">
                                <path d="M182.318,92.354C179.964,88.892 176.039,86.814 171.852,86.814C164.909,86.814 159.196,92.527 159.196,99.47C159.196,106.413 164.909,112.126 171.852,112.126C178.795,112.126 184.508,106.413 184.508,99.47C184.508,97.111 183.848,94.798 182.604,92.794C182.524,92.635 182.412,92.51 182.326,92.351L182.318,92.354Z" style="fill:rgb(214,112,134);fill-rule:nonzero;"/>
                            </g>
                            <g id="Tracé_1942" transform="matrix(1,0,0,1,-89.315,-28.531)">
                                <path d="M239.041,76.515L239.03,76.497L239.012,76.466C238.999,76.44 238.985,76.417 238.971,76.393L238.964,76.38L239.04,76.336C239.058,76.365 239.075,76.394 239.091,76.426C239.099,76.44 239.109,76.457 239.117,76.474L239.041,76.515Z" style="fill:rgb(162,164,167);fill-rule:nonzero;"/>
                            </g>
                            <g id="Tracé_1943" transform="matrix(1,0,0,1,-61.689,-77.977)">
                                <path d="M169.94,208.628C169.94,208.628 174.195,210.767 174.924,221.979C175.653,233.191 178.257,240.079 178.257,240.079C178.257,240.079 174.911,242.604 171.824,241.517C168.737,240.43 167.646,240.317 167.678,235.689C167.71,231.061 165.05,209.615 165.05,209.615L169.94,208.628Z" style="fill:rgb(41,41,73);fill-rule:nonzero;"/>
                            </g>
                            <g id="Tracé_1944" transform="matrix(1,0,0,1,-59.77,-76.747)">
                                <path d="M159.917,213.054C164.384,213.345 168.27,216.279 169.772,220.496C170.899,218.849 171.502,216.9 171.502,214.905C171.502,210.435 168.475,206.493 164.156,205.34C161.892,207.3 160.484,210.073 160.239,213.058L159.917,213.054Z" style="fill:rgb(41,41,73);fill-rule:nonzero;"/>
                            </g>
                            <g id="Tracé_1945" transform="matrix(1,0,0,1,-32.642,-81.475)">
                                <path d="M127.5,244.3L113.873,249.3L103.978,258.287L103.773,217.987L91.424,219.9L87.335,266.4L100.5,277.541L126.99,268.541L127.5,244.3Z" style="fill:rgb(214,112,134);fill-rule:nonzero;"/>
                            </g>
                            <g id="Tracé_1946" transform="matrix(1,0,0,1,-45.899,-215.966)">
                                <path d="M123.245,581.342L122.805,584.863L129.105,589.415L132.914,586.41L129.986,582.374L123.686,577.823L123.245,581.342Z" style="fill:rgb(41,41,73);fill-rule:nonzero;"/>
                            </g>
                            <g id="Tracé_1947" transform="matrix(1,0,0,1,-46.036,-153.338)">
                                <path d="M126.09,410.818L124.753,421.51L133.483,458.561L123.171,517.525L129.679,519.944L148.345,462.581L151.487,445.84L152.227,410.258L126.09,410.818Z" style="fill:rgb(59,51,135);fill-rule:nonzero;"/>
                            </g>
                            <g id="Tracé_1948" transform="matrix(1,0,0,1,-58.387,-155.673)">
                                <path d="M188.623,426.291L172.48,525.12L166.206,524.972L166.579,461.387L156.215,416.507L188.623,426.291Z" style="fill:rgb(59,51,135);fill-rule:nonzero;"/>
                            </g>
                            <g id="Tracé_1949" transform="matrix(1,0,0,1,-64.333,-219.941)">
                                <path d="M172.207,588.456L172.123,592.017L178.823,595.739L182.299,592.258L178.991,588.616L172.207,588.456Z" style="fill:rgb(41,41,73);fill-rule:nonzero;"/>
                            </g>
                            <g id="Tracé_1950" transform="matrix(1,0,0,1,-42.588,-96.14)">
                                <path d="M123.3,340.48C129.51,304.536 128.217,278.222 128.665,271.016C128.891,266.798 130.882,262.863 134.146,260.182C136.325,259.739 138.246,258.353 140.446,257.84C155.346,254.372 163.157,266.151 168.407,278.78C174.876,294.372 180.253,310.394 184.5,326.732C188.236,341.075 191.979,355.547 193.338,370.372C193.899,376.49 194.35,382.289 187.766,384.826C177.275,388.869 165.603,388.5 154.597,389.616C141.954,390.898 129.305,391.754 116.604,391.995C109.973,392.12 117.09,376.425 123.304,340.481" style="fill:rgb(214,112,134);fill-rule:nonzero;"/>
                            </g>
                            <g id="Tracé_1951" transform="matrix(1,0,0,1,-32.701,-73.374)">
                                <path d="M92.914,211.737L87.491,206.045L89.614,196.314L94.975,196.44L96.35,204.991L99.032,206.691L98.932,210.802L92.914,211.737Z" style="fill:rgb(221,200,172);fill-rule:nonzero;"/>
                            </g>
                            <g id="Tracé_1952" transform="matrix(1,0,0,1,-62.7,-96.167)">
                                <path d="M167.754,257.3L181.885,260.158L210.234,288.908L244,288.44L245.646,298.891L206.069,304.9L174.081,283.32L167.754,257.3Z" style="fill:rgb(214,112,134);fill-rule:nonzero;"/>
                            </g>
                            <g id="Tracé_1953" transform="matrix(1,0,0,1,-54.572,-95.739)">
                                <path d="M163.107,257.7L164.812,296.12L146.012,259.193L151.796,257.28L155.922,256.148L163.107,257.7Z" style="fill:white;fill-rule:nonzero;"/>
                            </g>
                            <g id="Tracé_1954" transform="matrix(1,0,0,1,-108.396,-114.094)">
                                <path d="M290.015,308.974L296.315,305.262L304.238,307.443L304.138,311.713L290.791,313.9L290.015,308.974Z" style="fill:rgb(221,200,172);fill-rule:nonzero;"/>
                            </g>
                            <g id="Tracé_1955" transform="matrix(1,0,0,1,-53.294,-79.941)">
                                <path d="M163.04,219.9C158.403,209.137 144.82,214.213 142.832,224.211C141.702,229.897 144.497,239.891 151.311,240.145C151.632,241.118 152.178,242.954 153.085,243.445C154.068,243.981 156.506,242.716 157.468,242.253C157.746,242.146 157.988,241.965 158.168,241.728C158.321,241.143 158.294,240.525 158.09,239.956C158.856,239.728 159.59,239.405 160.275,238.994C163.295,237.194 164.981,233.642 165.221,230.129C165.313,226.595 164.565,223.089 163.04,219.9" style="fill:rgb(221,200,172);fill-rule:nonzero;"/>
                            </g>
                            <g id="Tracé_1956" transform="matrix(1,0,0,1,-45.79,-74.579)">
                                <path d="M149.9,203.2C149.9,203.2 152.617,208.991 145.208,212.425C137.799,215.859 134.108,223.083 136.885,229.216C139.662,235.349 146.485,238.802 143.813,241.176C141.141,243.55 129.592,244.354 129.592,244.354C129.592,244.354 117.75,223.183 124.698,211.321C131.646,199.459 144.773,196.169 149.898,203.2" style="fill:rgb(41,41,73);fill-rule:nonzero;"/>
                            </g>
                            <g id="Tracé_1957" transform="matrix(1,0,0,1,-98.095,-214.061)">
                                <path d="M263.025,577.161L262.455,581.597L270.755,587.173L275.761,583.308L271.9,578.3L263.6,572.724L263.025,577.161Z" style="fill:rgb(41,41,73);fill-rule:nonzero;"/>
                            </g>
                            <g id="Tracé_1958" transform="matrix(1,0,0,1,-97.491,-135.441)">
                                <path d="M262.141,497.052L268.541,440.483L260.841,377.154L262.573,363.683L296.973,362.376L298.214,384.302L292.439,440.57L270.711,499.943L262.141,497.052Z" style="fill:rgb(181,183,184);fill-rule:nonzero;"/>
                            </g>
                            <g id="Tracé_1959" transform="matrix(1,0,0,1,-114.79,-98.626)">
                                <path d="M307.124,263.876L324.773,267.062L365.563,276.762L362.971,290.432L321.271,289.804L307.124,263.876Z" style="fill:rgb(41,41,73);fill-rule:nonzero;"/>
                            </g>
                            <g id="Tracé_1960" transform="matrix(1,0,0,1,-113.32,-135.949)">
                                <path d="M338.047,369.224L338.138,426.31L326.647,499.8L318.377,499.717L313.83,431.759L303.19,363.739L338.047,369.224Z" style="fill:rgb(181,183,184);fill-rule:nonzero;"/>
                            </g>
                            <g id="Tracé_1961" transform="matrix(1,0,0,1,-122.391,-216.518)">
                                <path d="M327.46,583.77L336.36,588.331L340.876,583.904L336.449,579.388L327.505,579.298L327.46,583.77Z" style="fill:rgb(41,41,73);fill-rule:nonzero;"/>
                            </g>
                            <g id="Tracé_1962" transform="matrix(1,0,0,1,-93.544,-98.535)">
                                <path d="M250.821,355.535C250.684,353.064 250.641,350.995 250.596,350.259C250.196,343.633 250.205,336.986 250.458,330.35C250.685,324.403 250.343,309.718 250.838,303.785C251.247,298.885 253.089,286.585 254.79,281.925C259.019,270.336 257.321,269.448 279.89,264.142C289.781,261.816 292.696,267.852 301.515,274.315C302.384,274.953 302.709,279.173 302.994,280.273C303.494,282.211 304.022,284.142 304.594,286.06C305.047,287.568 305.533,289.068 306.061,290.554C306.589,292.04 315.676,321.242 320.805,327.49C325.934,333.738 336.141,342.206 320.923,349.254C318.241,350.454 315.468,351.443 312.632,352.211C309.796,352.979 299.656,351.911 293.051,352.536C286.96,353.139 280.928,354.238 275.016,355.821C271.017,356.73 267.185,358.259 263.659,360.353C260.4,362.436 258.165,365.276 254.859,367.426C254.564,367.664 254.202,367.804 253.824,367.826C251.81,367.726 251.104,360.739 250.816,355.538" style="fill:rgb(41,41,73);fill-rule:nonzero;"/>
                            </g>
                            <g id="Tracé_1963" transform="matrix(1,0,0,1,-100.864,-84.776)">
                                <path d="M287.235,253.071C286.326,253.988 283.809,255.071 280.75,254.942C280.133,254.92 279.592,254.516 279.394,253.932C278.85,252.286 278.418,250.604 278.1,248.9C275.834,248.884 273.131,248.622 272.051,246.629C271.747,245.982 271.553,245.288 271.478,244.576C271.008,241.663 270.537,238.749 270.066,235.836C269.837,234.839 269.807,233.806 269.978,232.797C270.394,231.055 271.94,229.823 273.509,228.96C277.526,226.649 282.358,226.201 286.731,227.736C287.89,228.131 288.925,228.824 289.731,229.745C290.903,231.209 291.089,233.205 291.231,235.075C291.36,236.802 291.488,238.528 291.617,240.254C291.765,242.24 291.787,244.548 290.267,245.834C289.46,246.517 288.324,246.789 287.667,247.616C286.505,249.074 287.467,251.216 287.237,253.067" style="fill:rgb(225,207,181);fill-rule:nonzero;"/>
                            </g>
                            <g id="Tracé_1964" transform="matrix(1,0,0,1,-93.505,-71.153)">
                                <path d="M295.019,203.57C295.197,202.741 295.431,201.925 295.719,201.127C296.493,199.466 297.143,197.75 297.661,195.992C298.026,194.192 297.638,192.064 296.111,191.051C295.068,190.476 293.87,190.243 292.687,190.386C288.771,190.569 284.974,191.797 281.693,193.942C278.593,195.978 276.037,198.46 272.172,198.359C268.54,198.259 266.384,199.553 263.434,201.91C260.241,204.461 255.46,206.447 252.796,209.41C251.713,210.685 250.958,212.205 250.596,213.838C249.261,219.581 251.316,225.608 255.882,229.338C256.908,230.129 258.001,230.828 259.149,231.427C261.506,232.699 264.349,234.293 266.949,234.17C266.278,232.038 262.062,226.037 263.089,223.747C264.719,220.113 270.872,219.069 274.299,218.647C278.038,218.186 281.992,219.586 285.628,218.924C288.245,218.449 290.999,216.138 292.671,214.124C294.734,211.64 294.357,206.597 295.021,203.565" style="fill:rgb(41,41,73);fill-rule:nonzero;"/>
                            </g>
                            <g id="Tracé_1965" transform="matrix(1,0,0,1,-147.625,-156.514)">
                                <path d="M438.522,421.022L437.911,432.594C437.766,436.182 434.774,439.055 431.184,439.055C431.093,439.055 431.002,439.053 430.911,439.049L401.26,437.484C397.575,437.243 394.741,434.013 394.981,430.328L395.592,418.757L438.522,421.022Z" style="fill:rgb(102,102,102);fill-rule:nonzero;"/>
                            </g>
                            <g id="Tracé_1966" transform="matrix(1,0,0,1,-122.727,-20.409)">
                                <path d="M328.464,124.618C330.613,83.909 364.544,52.607 404.252,54.703C443.96,56.799 474.407,91.503 472.258,132.208C471.556,146.098 466.996,159.521 459.09,170.964C437.27,204.276 431.126,232.818 431.126,232.818L394.947,230.908L358.772,229C358.772,229 355.672,199.97 337.472,164.545C330.815,152.334 327.693,138.505 328.457,124.618" style="fill:rgb(140,171,239);fill-rule:nonzero;"/>
                            </g>
                            <g id="Tracé_1967" transform="matrix(1,0,0,1,-138.829,-124.467)">
                                <path d="M448.066,336.922L445.472,386.078C445.415,388.071 443.728,389.665 441.735,389.61L374.792,386.076C372.804,385.921 371.295,384.159 371.447,382.171L374.047,333.015L448.066,336.922Z" style="fill:rgb(176,176,176);fill-rule:nonzero;"/>
                            </g>
                            <g id="Groupe_356" transform="matrix(1,0,0,1,205.631,90.476)">
                                <g opacity="0.21">
                                    <g transform="matrix(1,0,0,1,-328.357,-144.475)">
                                        <g id="Groupe_355">
                                            <g id="Groupe_354">
                                                <path id="Tracé_1968" d="M330.47,144.475C346.799,182.042 379.28,240.46 431.17,266.212C431.143,266.329 431.126,266.412 431.126,266.412L394.947,264.502L358.768,262.593C358.768,262.593 355.668,233.563 337.468,198.138C330.811,185.927 327.689,172.098 328.453,158.211C328.701,153.582 329.373,148.985 330.459,144.478" style="fill:rgb(96,96,96);fill-rule:nonzero;"/>
                                            </g>
                                        </g>
                                    </g>
                                </g>
                            </g>
                            <g id="Groupe_359" transform="matrix(1,0,0,1,227.009,42.583)">
                                <g opacity="0.21">
                                    <g transform="matrix(1,0,0,1,-362.495,-67.998)">
                                        <g id="Groupe_358">
                                            <g id="Groupe_357">
                                                <path id="Tracé_1969" d="M472.948,142.657C474.824,107.117 448.243,76.822 413.577,74.992C393.967,74.007 375.005,82.359 362.495,97.492C374.352,78.773 395.353,66.858 418.627,68.087C453.293,69.917 479.874,100.211 477.998,135.752C477.289,149.894 471.993,163.427 462.914,174.293C468.923,164.788 472.379,153.891 472.948,142.66" style="fill:rgb(96,96,96);fill-rule:nonzero;"/>
                                            </g>
                                        </g>
                                    </g>
                                </g>
                            </g>
                            <g id="Tracé_1970" transform="matrix(1,0,0,1,-149.481,-61.065)">
                                <path d="M435.686,272.3L449.376,178.408L436.694,188.113L427.012,170.356L415.4,186.443L403.99,175.927L407.722,270.827L404.009,270.627L399.94,167.079L414.856,180.828L427.456,163.38L437.875,182.488L454.37,169.864L439.4,272.5L435.686,272.3Z" style="fill:rgb(71,78,187);fill-rule:nonzero;"/>
                            </g>
                            <g id="Tracé_1971" transform="matrix(1,0,0,1,-170.815,-119.171)">
                                <path d="M462.1,321.242L460.735,330.606L457.021,330.406L458.708,318.84C459.829,319.653 460.959,320.453 462.1,321.24" style="fill:rgb(65,75,170);fill-rule:nonzero;"/>
                            </g>
                            <g id="Tracé_1972" transform="matrix(1,0,0,1,-150.891,-99.128)">
                                <path d="M407.6,269.815L409.137,308.89L405.423,308.69L403.714,265.214C404.987,266.76 406.282,268.293 407.6,269.814" style="fill:rgb(65,75,170);fill-rule:nonzero;"/>
                            </g>
                            <g id="Rectangle_405" transform="matrix(0.053,-0.999,0.999,0.053,234.089,229.83)">
                                <rect x="0" y="0" width="9.09" height="74.128" style="fill:rgb(127,127,127);"/>
                            </g>
                            <g id="Rectangle_406" transform="matrix(0.0527194,-0.998609,0.998609,0.0527194,233.065,249.216)">
                                <rect x="0" y="0" width="9.09" height="74.128" style="fill:rgb(127,127,127);"/>
                            </g>
                            <g id="Tracé_1973" transform="matrix(1,0,0,1,-139.386,-137.169)">
                                <path d="M406.371,379.073L372.93,377.308L373.474,367L394.103,368.089C397.969,371.993 402.065,375.661 406.371,379.074" style="fill:rgb(142,142,142);fill-rule:nonzero;"/>
                            </g>
                            <g id="Tracé_1974" transform="matrix(1,0,0,1,-139.997,-124.467)">
                                <path d="M374.565,345.219L375.209,333.014L376.374,333.075C379.541,337.69 382.758,341.94 386.023,345.824L374.565,345.219Z" style="fill:rgb(142,142,142);fill-rule:nonzero;"/>
                            </g>
                            <g id="Tracé_1975" transform="matrix(1,0,0,1,-138.829,-148.739)">
                                <path d="M441.734,413.881L374.791,410.347C372.803,410.192 371.294,408.43 371.446,406.442L371.894,397.955L420.229,400.506C428.095,405.144 436.52,408.761 445.3,411.271C444.858,412.853 443.379,413.936 441.737,413.881" style="fill:rgb(142,142,142);fill-rule:nonzero;"/>
                            </g>
                            <g id="Tracé_1976" transform="matrix(1,0,0,1,-139.711,-131.752)">
                                <path d="M394.428,362.67L373.8,361.581L374.279,352.504L385.737,353.104C388.62,356.551 391.517,359.738 394.429,362.665" style="fill:rgb(102,102,102);fill-rule:nonzero;"/>
                            </g>
                            <g id="Tracé_1977" transform="matrix(1,0,0,1,-139.1,-143.321)">
                                <path d="M420.5,395.088L372.165,392.537L372.645,383.459L406.086,385.224C410.653,388.847 415.47,392.143 420.501,395.088" style="fill:rgb(102,102,102);fill-rule:nonzero;"/>
                            </g>
                            <g id="Tracé_1978" transform="matrix(1,0,0,1,-147.625,-160.708)">
                                <path d="M395.224,429.978C403.138,438.661 418.999,441.998 424.252,442.891L401.264,441.677C397.579,441.436 394.745,438.206 394.985,434.521L395.224,429.978Z" style="fill:rgb(78,78,78);fill-rule:nonzero;"/>
                            </g>
                            <g id="Tracé_1979" transform="matrix(1,0,0,1,-165.549,0)">
                                <path d="M446.7,23.416L444.78,23.362C443.735,23.331 442.9,22.445 442.93,21.4L443.482,1.851C443.512,0.806 444.396,-0.029 445.441,0L447.361,0.054C448.407,0.084 449.243,0.969 449.214,2.015L448.662,21.564C448.632,22.61 447.748,23.445 446.702,23.416" style="fill:rgb(71,78,187);fill-rule:nonzero;"/>
                            </g>
                            <g id="Tracé_1980" transform="matrix(1,0,0,1,-139.921,-3.906)">
                                <path d="M389.052,30.787L387.179,31.9C386.904,32.064 386.59,32.15 386.27,32.15C385.644,32.15 385.062,31.819 384.742,31.281L374.611,14.251C374.447,13.976 374.361,13.662 374.361,13.342C374.361,12.716 374.692,12.134 375.23,11.814L377.1,10.7C377.938,10.201 379.038,10.481 379.537,11.319L389.668,28.349C389.832,28.624 389.918,28.938 389.918,29.258C389.918,29.884 389.587,30.466 389.049,30.786" style="fill:rgb(71,78,187);fill-rule:nonzero;"/>
                            </g>
                            <g id="Tracé_1981" transform="matrix(1,0,0,1,-185.679,-5.391)">
                                <path d="M497.647,34.138L499.17,35.165C500.057,35.762 501.278,35.524 501.876,34.638L512.759,18.491C513.356,17.604 513.118,16.383 512.232,15.785L510.709,14.759C510.387,14.542 510.008,14.426 509.619,14.426C508.972,14.426 508.365,14.749 508.003,15.286L497.12,31.432C496.523,32.319 496.761,33.539 497.647,34.137" style="fill:rgb(71,78,187);fill-rule:nonzero;"/>
                            </g>
                            <g id="Tracé_1982" transform="matrix(1,0,0,1,-140.935,-115.691)">
                                <path d="M379.86,318.567L390.06,319.117L396.022,312.251L392.769,309.533L385.939,311.933L384.026,310.628L377.074,313.293C377.074,313.293 379.997,318.57 379.86,318.57" style="fill:rgb(225,207,181);fill-rule:nonzero;"/>
                            </g>
                            <g id="Tracé_1983" transform="matrix(1,0,0,1,-100.546,-104.057)">
                                <path d="M276.158,278.407L309.982,307.178L338.901,300.492L343.316,308.855L309.48,324.336L298.145,320.822L269.014,292.342L276.158,278.407Z" style="fill:rgb(41,41,73);fill-rule:nonzero;"/>
                            </g>
                            <g id="Tracé_1984" transform="matrix(1,0,0,1,-260.906,-13.76)">
                                <path d="M826.177,70.327C826.203,59.291 817.145,50.186 806.109,50.155C804.609,50.155 802.355,50.963 800.976,50.162C799.824,49.493 799.398,47.898 798.514,46.962C793.4,41.532 785.351,39.942 778.556,43.019C778.544,43.026 778.532,43.032 778.519,43.037L778.51,43.037C778.369,43.102 778.229,43.167 778.09,43.237L778.072,43.22C776.29,44.004 769.752,47.381 769.213,54.805C773.18,54.67 777.017,56.265 779.719,59.173C782.57,56.385 786.627,55.188 790.534,55.982C796.967,57.31 801.169,63.696 799.842,70.129C799.784,70.407 799.537,70.607 799.254,70.607C799.214,70.607 799.173,70.603 799.134,70.594C798.813,70.527 798.603,70.209 798.668,69.887C798.816,69.17 798.891,68.44 798.891,67.708C798.891,61.795 794.025,56.93 788.113,56.93C785.078,56.93 782.181,58.211 780.139,60.456C780.025,60.58 779.865,60.651 779.696,60.651C779.504,60.651 779.323,60.559 779.21,60.403C774.764,55.18 766.816,54.524 761.574,58.948C761.462,59.057 761.312,59.118 761.155,59.118C760.826,59.118 760.555,58.847 760.555,58.518C760.555,58.327 760.647,58.147 760.801,58.034C762.841,56.305 765.346,55.214 768.001,54.897C768.456,47.304 774.601,43.565 777.087,42.358C772.776,38.776 767.344,36.813 761.739,36.813C753.485,36.813 745.788,41.07 741.4,48.061C732.433,46.084 723.163,50.226 718.655,58.226C717.761,59.866 717.071,61.61 716.6,63.418C716.537,63.646 716.456,63.868 716.356,64.082C721.765,61.976 727.703,61.634 733.318,63.104C733.561,63.186 733.725,63.416 733.725,63.672C733.725,64.001 733.455,64.272 733.125,64.272C733.083,64.272 733.041,64.268 733,64.259C719.218,60.459 707.824,70.25 707.711,70.35C707.628,70.423 707.526,70.471 707.417,70.49C705.913,71.644 704.565,72.988 703.408,74.49C699.935,79.103 698.056,84.723 698.056,90.497C698.056,105.069 710.024,117.07 724.596,117.11C726.253,117.11 728.013,116.174 729.623,116.722C728.561,113.997 728.429,110.996 729.248,108.189C729.314,107.922 729.555,107.732 729.831,107.732C730.16,107.732 730.431,108.003 730.431,108.332C730.431,108.404 730.418,108.476 730.392,108.544C728.374,115.053 733.424,121.111 733.475,121.171C733.535,121.242 733.577,121.326 733.598,121.417C734.464,122.513 735.52,123.445 736.715,124.169C740.208,126.317 744.226,127.464 748.327,127.484C751.666,127.497 754.966,126.754 757.977,125.31C758.012,125.277 758.051,125.248 758.092,125.224C767.022,120.224 768.356,110.324 768.367,110.224C768.419,109.94 768.669,109.731 768.957,109.731C769.286,109.731 769.557,110.002 769.557,110.331C769.557,110.345 769.557,110.358 769.556,110.371C768.658,115.853 765.799,120.826 761.514,124.361C765.795,129.313 772.022,132.169 778.568,132.181C781.974,132.068 785.33,131.328 788.468,130C791.778,128.706 794.18,133.625 795.438,135.743C797.29,138.86 798.297,142.694 800.938,145.297C804.745,149.049 808.877,145.712 809.326,141.123C809.568,138.499 809.527,135.857 809.204,133.242C809.053,131.954 808.786,130.473 809.371,129.251C810.071,127.791 811.402,128.021 812.795,127.692C821.15,125.713 827.099,118.19 827.099,109.604C827.099,107.519 826.748,105.45 826.062,103.482C824.368,104.181 822.569,104.593 820.739,104.701C820.339,104.728 819.912,104.743 819.461,104.742C814.771,104.638 810.229,103.064 806.481,100.242C806.339,100.128 806.257,99.956 806.257,99.774C806.257,99.445 806.528,99.174 806.857,99.174C806.969,99.174 807.079,99.206 807.174,99.265C817.637,106.681 826.028,102.179 826.111,102.132C826.165,102.103 826.223,102.083 826.283,102.072C832.427,99.199 836.37,93.002 836.37,86.22C836.37,79.394 832.377,73.166 826.175,70.317M759.775,100.517C759.711,100.539 759.643,100.55 759.575,100.55C759.322,100.549 759.095,100.389 759.011,100.15C756.731,93.607 749.529,90.045 742.945,92.204C742.918,92.215 742.89,92.223 742.862,92.23C742.824,92.243 742.786,92.253 742.748,92.266C742.687,92.286 742.623,92.297 742.558,92.297C742.229,92.297 741.958,92.026 741.958,91.697C741.958,91.593 741.985,91.491 742.036,91.401C740.401,84.353 734.068,79.321 726.832,79.321C720.184,79.321 714.233,83.568 712.072,89.854C712,90.113 711.763,90.293 711.494,90.293C711.165,90.293 710.894,90.022 710.894,89.693C710.894,89.615 710.909,89.537 710.939,89.465C713.266,82.695 719.674,78.121 726.833,78.121C734.537,78.121 741.303,83.42 743.149,90.9C750.228,88.914 757.727,92.826 760.149,99.768C760.256,100.078 760.089,100.422 759.779,100.53M809.625,87.564C809.418,87.819 809.039,87.859 808.783,87.653C806.259,85.61 803.108,84.494 799.861,84.494C792.082,84.494 785.681,90.895 785.681,98.674C785.681,99.171 785.707,99.668 785.759,100.162C785.793,100.488 785.552,100.785 785.226,100.82L785.161,100.82C784.857,100.818 784.6,100.586 784.568,100.284C784.512,99.749 784.484,99.212 784.484,98.675C784.484,90.238 791.426,83.296 799.863,83.296C803.384,83.296 806.8,84.505 809.537,86.72C809.791,86.927 809.831,87.307 809.625,87.562" style="fill:rgb(214,112,134);fill-rule:nonzero;"/>
                            </g>
                            <g id="Tracé_1985" transform="matrix(1,0,0,1,-245.578,-98.439)">
                                <path d="M663.4,270.467L657.045,266.167L658.763,263.367L663.763,265.345L663.963,263.645L668.954,267.984L667.561,271.132L663.4,270.467Z" style="fill:rgb(163,147,114);fill-rule:nonzero;"/>
                            </g>
                            <g id="Tracé_1986" transform="matrix(1,0,0,1,-250.512,-97.109)">
                                <path d="M730.337,259.817L705.162,276.125L672.696,264.625L670.251,271.013L705.573,293.083L740.86,280.055L730.337,259.817Z" style="fill:rgb(59,51,135);fill-rule:nonzero;"/>
                            </g>
                            <g id="Tracé_1987" transform="matrix(1,0,0,1,-278.418,-216.32)">
                                <path d="M758.763,579.786L758.763,583.386L749.53,588L744.913,583.383L749.53,578.766L750.13,578.766L750.278,579.782L758.763,579.786Z" style="fill:rgb(41,41,73);fill-rule:nonzero;"/>
                            </g>
                            <g id="Tracé_1988" transform="matrix(1,0,0,1,-281.529,-216.32)">
                                <path d="M761.874,579.786L753.385,579.786L753.237,578.77L761.875,578.77L761.874,579.786Z" style="fill:rgb(41,41,73);fill-rule:nonzero;"/>
                            </g>
                            <g id="Tracé_1989" transform="matrix(1,0,0,1,-294.159,-95.595)">
                                <path d="M787.345,255.767C797.268,256.367 807.439,261.567 810.287,271.228C810.532,272.022 810.694,272.838 810.771,273.665C811.171,278.629 809.652,282.295 811.084,287.281C812.328,291.613 813.456,296.009 814.284,300.441C815.484,306.857 816.589,313.241 817.461,319.612C818.453,326.6 819.068,333.637 819.303,340.691C819.325,341.464 819.48,343.626 819.568,346.208C819.751,351.617 819.634,358.852 817.356,359.122C816.93,359.132 816.509,359.021 816.143,358.802C813.444,357.318 810.833,355.68 808.322,353.896C807.399,353.307 806.442,352.773 805.456,352.296C803.386,351.333 801.23,350.565 799.017,350.004C802.766,350.204 803.233,349.504 803.233,349.504C803.233,349.504 799.851,335.918 797.475,324.104C796.384,319.241 795.627,314.31 795.207,309.344C794.943,300.175 793.77,269.893 793.77,269.893L788.079,258.311L787.028,258.321L787.255,258.294C787.151,257.452 787.181,256.599 787.346,255.767" style="fill:rgb(59,51,135);fill-rule:nonzero;"/>
                            </g>
                            <g id="Tracé_1990" transform="matrix(1,0,0,1,-269.116,-95.833)">
                                <path d="M720.088,353.342C720.67,347.342 721.275,341.334 722.014,335.342C723.34,323.369 725.638,311.525 728.886,299.925C730.186,295.509 731.678,291.153 733.173,286.8C734.994,281.499 736.814,276.199 738.634,270.9C740.897,264.311 744.715,259.67 751.401,257.365C752.623,256.948 753.876,256.627 755.148,256.403C755.181,256.542 755.207,256.682 755.226,256.823C755.27,257.471 755.499,258.094 755.884,258.617L751.496,258.659C751.496,258.659 739.114,301.929 738.659,309.386C738.486,312.221 737.911,318.409 737.271,324.929C736.258,335.246 735.083,346.393 735.083,346.393C735.083,346.393 740.519,346.521 748.383,347.108C747.801,347.094 747.219,347.079 746.638,347.074C741.168,347.026 735.495,349.349 730.259,350.856C729.883,350.964 729.508,351.069 729.137,351.167C727.003,351.733 725.268,353.288 723.496,354.507C720.878,356.307 719.73,357.021 720.087,353.342" style="fill:rgb(59,51,135);fill-rule:nonzero;"/>
                            </g>
                            <g id="Tracé_1991" transform="matrix(1,0,0,1,-274.99,-149.038)">
                                <path d="M736.134,402.535C741.371,401.029 747.044,398.705 752.513,398.753C753.094,398.759 753.676,398.774 754.258,398.787C754.745,398.824 755.24,398.862 755.745,398.901C759.41,399.191 763.529,399.578 767.828,400.091L768.461,400.166C772.207,401.04 776.014,401.628 779.849,401.924C782.062,402.486 784.218,403.253 786.288,404.217C787.274,404.693 788.231,405.228 789.154,405.817L789.183,411.692L778.699,511.492L770.099,511.492L770.099,512.5L770.05,512.5L760.599,445.56L760.559,445.183L755.384,512.5L755.335,512.5L755.335,511.484L746.7,511.484L735.744,436.523L736.134,402.535Z" style="fill:rgb(59,51,135);fill-rule:nonzero;"/>
                            </g>
                            <g id="Tracé_1992" transform="matrix(1,0,0,1,-295.498,-216.32)">
                                <path d="M799.206,578.77L799.844,578.77L804.461,583.387L799.844,588L790.611,583.383L790.611,579.783L799.1,579.783L799.206,578.77Z" style="fill:rgb(41,41,73);fill-rule:nonzero;"/>
                            </g>
                            <g id="Tracé_1993" transform="matrix(1,0,0,1,-295.498,-216.32)">
                                <path d="M799.206,578.77L799.099,579.786L790.61,579.786L790.61,578.77L799.206,578.77Z" style="fill:rgb(41,41,73);fill-rule:nonzero;"/>
                            </g>
                            <g id="Tracé_1994" transform="matrix(1,0,0,1,-278.104,-97.113)">
                                <path d="M744.073,347.673C744.073,347.673 749.509,347.801 757.373,348.388C757.86,348.424 758.355,348.462 758.86,348.502C762.525,348.792 766.644,349.179 770.943,349.693L771.576,349.768C775.322,350.643 779.129,351.23 782.964,351.526C786.713,351.726 787.18,351.026 787.18,351.026C787.18,351.026 783.798,337.44 781.422,325.626C780.331,320.763 779.574,315.832 779.154,310.866C778.89,301.697 777.717,271.415 777.717,271.415L772.026,259.832L770.975,259.842L766.623,260.357C766.251,260.428 765.868,260.418 765.501,260.326C765.327,260.269 765.167,260.177 765.029,260.057C764.974,260.008 764.923,259.956 764.876,259.9L760.487,259.942C760.487,259.942 748.106,303.212 747.65,310.669C747.477,313.504 746.902,319.693 746.262,326.212C745.249,336.529 744.074,347.676 744.074,347.676" style="fill:white;fill-rule:nonzero;"/>
                            </g>
                            <g id="Tracé_1995" transform="matrix(1,0,0,1,-285.532,-82.707)">
                                <path d="M764.616,229.489C764.902,228.321 764.354,227.132 764.094,225.958C764.032,225.658 764.012,225.35 764.035,225.044C766.006,224.666 767.926,224.062 769.758,223.244C772.949,221.851 779.158,220.368 782.475,222.013C785.095,223.313 784.29,227.461 784.158,230.084C784.087,230.756 784.11,231.435 784.228,232.101C784.445,232.697 784.728,233.267 785.07,233.801C784.779,234.864 784.249,235.847 783.521,236.674C781.421,239.044 779.286,240.209 778.721,242.884C778.556,243.716 778.525,244.569 778.63,245.411L778.403,245.438L774.051,245.953C773.679,246.024 773.296,246.013 772.929,245.922C772.755,245.865 772.595,245.773 772.457,245.652C772.402,245.604 772.351,245.551 772.304,245.496C771.918,244.973 771.69,244.35 771.645,243.702C771.627,243.561 771.601,243.42 771.567,243.282C771,240.84 768.302,239.741 766.85,237.575C765.264,235.093 764.277,232.276 763.968,229.347L763.949,229.198C764.163,229.315 764.387,229.414 764.618,229.493" style="fill:rgb(225,207,181);fill-rule:nonzero;"/>
                            </g>
                            <g id="Tracé_1996" transform="matrix(1,0,0,1,-279.707,-71.203)">
                                <path d="M748.364,204.136C748.269,207.143 750.541,212.027 753.336,213.252C753.903,213.491 754.503,213.641 755.115,213.697C755.611,215.343 756.678,216.759 758.122,217.691C758.336,217.808 758.56,217.907 758.791,217.986C759.077,216.817 758.529,215.629 758.269,214.455C758.207,214.155 758.187,213.847 758.21,213.541C760.181,213.163 762.101,212.559 763.933,211.741C767.124,210.348 773.333,208.865 776.65,210.509C779.27,211.809 778.465,215.958 778.333,218.581C778.261,219.253 778.284,219.932 778.402,220.597C778.619,221.193 778.902,221.763 779.244,222.297C779.342,222.502 779.409,222.721 779.444,222.946C781.589,221.983 782.887,219.564 784.098,217.598C784.726,216.604 785.268,215.558 785.716,214.471C787.655,208.987 786.991,202.908 783.916,197.971C783.107,196.614 782.006,195.455 780.692,194.579C777.663,192.732 773.448,192.561 770.185,191.295C765.595,189.513 763.263,191.12 758.93,192.512C757.198,193.068 755.207,193.551 754.29,195.192C753.783,196.098 753.708,197.217 753.197,198.12C752.406,199.174 751.382,200.03 750.204,200.62C749.041,201.407 748.349,202.73 748.366,204.134" style="fill:rgb(41,41,73);fill-rule:nonzero;"/>
                            </g>
                            <g id="Tracé_1997" transform="matrix(1,0,0,1,-324.944,-72.966)">
                                <path d="M874.971,203.432L876.094,195.843L872.872,195.222L870.952,200.248L869.564,199.248L869.394,205.859L872.657,206.959L874.971,203.432Z" style="fill:rgb(225,207,181);fill-rule:nonzero;"/>
                            </g>
                            <g id="Tracé_1998" transform="matrix(1,0,0,1,-299.18,-77.966)">
                                <path d="M800.462,247.861L829.491,240.308L842.937,208.6L849.3,211.111L841.721,252.066L808.281,269.29L800.462,247.861Z" style="fill:rgb(59,51,135);fill-rule:nonzero;"/>
                            </g>
                            <g id="Tracé_1999" transform="matrix(1,0,0,1,-250.722,-215.245)">
                                <path d="M682.372,579.88L682.777,583.869L675.205,588.669L670.811,585.086L674.394,580.692L681.967,575.892L682.372,579.88Z" style="fill:rgb(41,41,73);fill-rule:nonzero;"/>
                            </g>
                            <g id="Tracé_2000" transform="matrix(1,0,0,1,-237.387,-143.813)">
                                <path d="M669.33,386.765L670.561,398.88L659.745,453.017L669.324,507.117L661.572,509.504L636.509,445.175L635.134,425.508L638.529,384.77L669.33,386.765Z" style="fill:rgb(41,41,73);fill-rule:nonzero;"/>
                            </g>
                            <g id="Tracé_2001" transform="matrix(1,0,0,1,-222.587,-144.587)">
                                <path d="M595.784,391.663L595.535,442.842L605.621,508.759L613.036,508.71L617.311,447.796L627.05,386.845L595.784,391.663Z" style="fill:rgb(41,41,73);fill-rule:nonzero;"/>
                            </g>
                            <g id="Tracé_2002" transform="matrix(1,0,0,1,-225.84,-216.793)">
                                <path d="M616.269,584.042L608.277,588.105L604.241,584.123L608.224,580.087L616.242,580.033L616.269,584.042Z" style="fill:rgb(41,41,73);fill-rule:nonzero;"/>
                            </g>
                            <g id="Tracé_2003" transform="matrix(1,0,0,1,-215.863,-96.357)">
                                <path d="M582.811,335.923C588.16,319.352 588.73,301.952 590.286,284.69C590.747,279.597 591.237,274.39 593.357,269.738C595.461,265.021 599.544,261.467 604.505,260.033C610.473,258.072 617.515,258.184 623.721,257.807C629.608,257.622 634.821,279.754 640.821,290.483C644.501,297.058 648.294,302.873 650.776,310.046C653.29,316.91 655.314,323.944 656.833,331.095C658.926,341.908 664.278,349.458 659.166,353.137C658.697,353.292 658.246,353.446 657.818,353.599C649.436,356.642 640.754,358.785 631.918,359.992C624.071,361.046 616.13,361.196 608.249,360.439C597.476,359.377 587.038,357.855 577.541,352.239L582.807,335.925" style="fill:rgb(221,218,232);fill-rule:nonzero;"/>
                            </g>
                            <g id="Rectangle_407" transform="matrix(0.894396,-0.447275,0.447275,0.894396,326.03,147.575)">
                                <rect x="0" y="0" width="37.086" height="137.02" style="fill:rgb(71,78,187);"/>
                            </g>
                            <g id="Tracé_2004" transform="matrix(1,0,0,1,-194.584,-65.449)">
                                <path d="M553.784,196.436L522.384,175.111L520.611,213.024L553.784,196.436Z" style="fill:rgb(225,207,181);fill-rule:nonzero;"/>
                            </g>
                            <g id="Tracé_2005" transform="matrix(1,0,0,1,-195.245,-65.449)">
                                <path d="M534.828,183.112L523.048,175.112L522.383,189.337L534.828,183.112Z" style="fill:rgb(41,41,73);fill-rule:nonzero;"/>
                            </g>
                            <g id="Tracé_2006" transform="matrix(1,0,0,1,-231.161,-151.319)">
                                <path d="M631.159,435.781L655.785,423.465C657.401,422.658 658.426,421 658.426,419.194C658.426,418.452 658.253,417.72 657.921,417.057L651.646,404.857L618.476,421.445L624.752,433.645C625.56,435.26 627.218,436.285 629.023,436.285C629.765,436.285 630.497,436.112 631.16,435.78" style="fill:rgb(181,183,184);fill-rule:nonzero;"/>
                            </g>
                            <g id="Tracé_2007" transform="matrix(1,0,0,1,-229.233,-147.617)">
                                <path d="M616.549,417.742L649.719,401.154L646.619,394.954L613.319,411.284L616.549,417.742Z" style="fill:white;fill-rule:nonzero;"/>
                            </g>
                            <g id="Tracé_2008" transform="matrix(1,0,0,1,-239.503,-132.709)">
                                <path d="M649.208,361.355L643.191,366.699L640.791,364.227L644.101,359.655L642.425,359.011L648.131,355.066L650.968,357.299L649.208,361.355Z" style="fill:rgb(163,147,114);fill-rule:nonzero;"/>
                            </g>
                            <g id="Tracé_2009" transform="matrix(1,0,0,1,-242.464,-96.779)">
                                <path d="M653.746,280.469L664.137,292.869L648.716,319.82L654.573,323.964L686.173,293.792L661.584,258.93L653.746,280.469Z" style="fill:rgb(221,218,232);fill-rule:nonzero;"/>
                            </g>
                            <g id="Tracé_2010" transform="matrix(1,0,0,1,-231.523,-80.99)">
                                <path d="M642.262,225.966C638.907,215.84 624.13,212.315 620.696,224.082C619.52,227.588 619.193,231.325 619.743,234.982C620.443,238.599 622.656,242.069 626.027,243.551L626.085,243.575C625.952,244.514 625.818,245.452 625.685,246.391C625.654,246.467 625.639,246.548 625.639,246.63C625.639,246.98 625.927,247.268 626.277,247.268C626.305,247.268 626.334,247.266 626.362,247.262L629.723,247.762C630.272,247.887 630.843,247.885 631.391,247.755C632.561,247.381 633.049,245.978 633.1,244.75C633.113,244.456 633.109,244.159 633.105,243.862C639.736,241.591 644.448,232.58 642.256,225.962" style="fill:rgb(163,147,114);fill-rule:nonzero;"/>
                            </g>
                            <g id="Tracé_2011" transform="matrix(1,0,0,1,-216.871,-76.182)">
                                <path d="M609.607,203.868C606.902,203.468 604.597,206.09 602.101,207.468C600.024,208.614 597.669,208.918 595.517,209.868C593.365,210.818 591.248,212.801 591.203,215.282C589.022,214.148 586.659,212.982 584.215,213.454C581.771,213.926 579.501,216.844 580.475,219.254C581.347,221.408 584.157,221.915 585.092,224.036C586.571,227.39 582.573,232.599 585.301,234.824C585.957,235.359 586.85,235.488 587.494,236.038C588.208,236.866 588.695,237.865 588.908,238.938C590.464,243.62 595.099,246.623 600.008,246.13C603.035,244.604 605.316,241.91 606.322,238.673C607.584,234.76 605.49,233.393 605.136,229.72C604.773,225.629 605.998,221.551 608.555,218.336C610.2,216.306 612.555,214.557 615.041,214.32C616.052,214.22 615.734,215.068 616.872,214.285C617.486,213.67 617.931,212.908 618.165,212.071C615.443,209.882 613.165,204.401 609.608,203.871" style="fill:rgb(41,41,73);fill-rule:nonzero;"/>
                            </g>
                            <g id="Tracé_2012" transform="matrix(1,0,0,1,-237.287,-76.934)">
                                <path d="M659.286,209.826C660.686,210.215 662.197,210.158 663.527,210.741C665.527,211.616 665.404,213.689 665.969,215.49C666.595,217.484 667.505,220.16 668.82,221.711C669.859,222.711 671.009,223.588 672.248,224.327C673.523,225.137 674.338,226.509 674.439,228.017C674.416,229.489 673.426,230.812 673.281,232.282C673.104,234.475 673.481,235.598 672.807,237.839C672.562,239.019 672.007,240.113 671.2,241.008C669.994,241.896 668.445,242.184 667,241.788C665.57,241.549 664.09,241.152 662.68,241.626C659.62,242.656 660.191,245.75 659.38,248.344C658.141,252.291 653.564,254.595 650.063,253.19C647.095,252 645.376,248.553 645.51,245.15C645.578,243.45 646.256,241.859 646.305,240.15C646.353,238.505 645.426,236.228 646.916,234.923C647.318,234.664 647.703,234.381 648.071,234.075C648.325,233.763 648.497,233.392 648.571,232.997C648.891,231.652 648.604,230.231 647.788,229.115C647.212,228.367 646.388,227.821 646.035,226.915C645.635,225.881 645.95,224.672 646.019,223.53C646.21,220.826 644.772,218.253 642.368,217C640.876,216.458 639.462,215.723 638.161,214.814C637.961,214.651 634.944,211.987 634.866,212.563C635.073,211.573 635.525,210.651 636.179,209.88C637.079,208.525 638.246,207.368 639.608,206.48C644.046,203.92 644.26,209.87 647.822,209.087C648.681,208.898 649.329,208.11 650.102,207.64C651.604,206.894 653.38,206.929 654.851,207.735C656.276,208.539 657.759,209.237 659.286,209.824" style="fill:rgb(41,41,73);fill-rule:nonzero;"/>
                            </g>
                            <g id="Tracé_2013" transform="matrix(1,0,0,1,-216.871,-134.111)">
                                <path d="M580.243,359.751L584.617,358.817L590.1,363.017L585.958,367.85L581.815,364.463L580.243,359.751Z" style="fill:rgb(163,147,114);fill-rule:nonzero;"/>
                            </g>
                            <g id="Tracé_2014" transform="matrix(1,0,0,1,-15.452,-33.242)">
                                <path d="M43.848,105.343C48.848,106.014 59.948,108.716 66.148,113.011C66.256,113.134 66.376,113.243 66.485,113.363L89.13,93.183C85.207,91.309 72.098,85.977 58.653,91.11C42.596,97.238 37.834,104.535 43.853,105.343" style="fill:rgb(41,41,73);fill-rule:nonzero;"/>
                            </g>
                        </g>
                    </g>
                </g>
            </g>
        </g>
    </g>
</svg>
