<?xml version="1.0" encoding="UTF-8" standalone="no"?>
<!DOCTYPE svg PUBLIC "-//W3C//DTD SVG 1.1//EN" "http://www.w3.org/Graphics/SVG/1.1/DTD/svg11.dtd">
<svg width="100%" height="100%" viewBox="0 0 481 481" version="1.1" xmlns="http://www.w3.org/2000/svg" xmlns:xlink="http://www.w3.org/1999/xlink" xml:space="preserve" xmlns:serif="http://www.serif.com/" style="fill-rule:evenodd;clip-rule:evenodd;stroke-linejoin:round;stroke-miterlimit:2;">
    <path d="M477.929,387.31L408.055,291.747C392.658,270.688 369.617,256.663 344.667,252.665C360.871,228.614 369.565,200.332 369.565,170.525C369.565,89.138 303.352,22.925 221.965,22.925C140.578,22.925 74.365,89.138 74.365,170.525C74.365,199.036 82.513,226.711 97.929,250.557C111.398,271.392 129.797,288.408 151.453,300.194C155.456,316.402 170.054,328.567 187.232,328.949L275.396,330.908C277.686,330.959 279.125,332.198 279.779,332.932C280.433,333.666 281.499,335.239 281.286,337.52C280.997,340.615 278.36,343.009 275.261,343.009C275.23,343.009 275.198,343.008 275.167,343.008L173.88,341.436C168.296,341.349 162.845,339.347 158.532,335.799L68.844,262.023C51.723,247.938 26.461,249.599 11.33,265.802C3.632,274.046 -0.382,284.793 0.027,296.065C0.436,307.337 5.22,317.765 13.498,325.428L127.516,430.99C141.62,444.047 159.965,451.591 179.174,452.232L348.511,457.885C348.682,457.891 348.851,457.894 349.021,457.894C357.073,457.894 363.732,451.503 364.003,443.395C364.279,435.115 357.792,428.179 349.512,427.903L180.176,422.25C168.174,421.849 156.71,417.135 147.898,408.977L33.881,303.416C31.502,301.214 30.127,298.217 30.009,294.977C29.891,291.738 31.045,288.649 33.258,286.28C37.606,281.624 44.867,281.147 49.787,285.193L139.475,358.97C149.014,366.816 161.068,371.242 173.415,371.434L274.702,373.006C274.889,373.009 275.073,373.011 275.26,373.011C293.724,373.009 309.439,358.746 311.158,340.304C312.082,330.379 308.81,320.419 302.179,312.977C295.548,305.535 286.029,301.139 276.063,300.917L187.899,298.958C183.919,298.869 180.613,295.687 180.375,291.713C180.203,288.849 181.583,286.908 182.42,286.006C183.257,285.104 185.09,283.583 187.958,283.541L328.793,281.494C329.513,281.484 330.23,281.486 330.942,281.495C351.489,281.804 371.264,292.256 383.839,309.455L453.713,405.018C458.602,411.705 467.988,413.164 474.675,408.273C481.362,403.382 482.819,393.998 477.929,387.31ZM187.521,253.545C177.275,253.693 167.401,258.087 160.431,265.597C159.43,266.676 158.506,267.814 157.645,268.995C143.9,260.008 132.132,248.208 123.123,234.273C110.851,215.29 104.365,193.247 104.365,170.527C104.365,105.682 157.12,52.927 221.965,52.927C286.81,52.927 339.565,105.682 339.565,170.527C339.565,201.194 328.022,229.839 306.943,251.81L231.962,252.9L231.962,247.452C251.444,242.91 266.005,225.413 266.005,204.568C266.005,183.722 251.444,166.225 231.962,161.683L231.962,114.625C240.24,118.428 246.005,126.792 246.005,136.481C246.005,142.003 250.482,146.481 256.005,146.481C261.528,146.481 266.005,142.003 266.005,136.481C266.005,115.636 251.444,98.139 231.962,93.597L231.962,86.665C231.962,81.143 227.485,76.665 221.962,76.665C216.439,76.665 211.962,81.143 211.962,86.665L211.962,93.597C192.48,98.139 177.919,115.636 177.919,136.481C177.919,157.326 192.48,174.822 211.962,179.365L211.962,226.424C203.684,222.622 197.919,214.258 197.919,204.568C197.919,199.046 193.442,194.568 187.919,194.568C182.396,194.568 177.919,199.046 177.919,204.568C177.919,225.413 192.48,242.909 211.962,247.452L211.962,253.19L187.521,253.545ZM211.962,158.336C203.684,154.534 197.919,146.17 197.919,136.48C197.919,126.791 203.684,118.427 211.962,114.624L211.962,158.336ZM231.962,182.71C240.24,186.513 246.005,194.877 246.005,204.567C246.005,214.257 240.24,222.621 231.962,226.423L231.962,182.71Z" style="fill:white;fill-rule:nonzero;"/>
</svg>
