<?xml version="1.0" encoding="UTF-8" standalone="no"?>
<!DOCTYPE svg PUBLIC "-//W3C//DTD SVG 1.1//EN" "http://www.w3.org/Graphics/SVG/1.1/DTD/svg11.dtd">
<svg width="100%" height="100%" viewBox="0 0 1429 1429" version="1.1" xmlns="http://www.w3.org/2000/svg" xmlns:xlink="http://www.w3.org/1999/xlink" xml:space="preserve" xmlns:serif="http://www.serif.com/" style="fill-rule:evenodd;clip-rule:evenodd;stroke-linejoin:round;stroke-miterlimit:2;">
    <g transform="matrix(1,0,0,1,-58525,-10655.9)">
        <g transform="matrix(1.21695,0,0,1.26131,-11252.6,-590.291)">
            <g transform="matrix(1.09092,0,0,1.09092,-4777.68,-121.36)">
                <g transform="matrix(1.22316,0,0,1.18014,-12848.6,-2541.04)">
                    <circle cx="57495" cy="9613" r="440" style="fill:rgb(64,17,119);"/>
                    <clipPath id="_clip1">
                        <circle cx="57495" cy="9613" r="440"/>
                    </clipPath>
                    <g clip-path="url(#_clip1)">
                        <g transform="matrix(0.662274,-0.112774,0.112774,0.662274,17572.1,9431.4)">
                            <path d="M59088.7,9787.32L58057.5,10818.5C58421.2,11505.9 58795.4,11681.3 59184,11168.8C59452.7,10526.6 59689,10028.3 59088.7,9787.32Z" style="fill:rgb(83,60,168);"/>
                        </g>
                    </g>
                </g>
                <g transform="matrix(0.821726,0,0,0.792829,57002.5,8297.25)">
                    <g>
                        <path d="M296.445,592.602C296.405,592.602 296.367,592.618 296.339,592.646C296.311,592.674 296.295,592.712 296.295,592.752L296.295,609.491C296.295,609.531 296.311,609.569 296.339,609.597C296.367,609.625 296.405,609.641 296.444,609.641L419.69,609.638C419.73,609.638 419.768,609.622 419.796,609.594C419.824,609.566 419.84,609.528 419.839,609.488L419.789,601.17L419.789,601.17L419.713,592.877C419.712,592.795 419.645,592.729 419.563,592.729L358.017,592.653L358.017,592.653L296.445,592.602Z" style="fill:white;fill-rule:nonzero;"/>
                    </g>
                    <g>
                        <path d="M1028.44,962.829L1024.32,963.767C1015.64,964.607 999.535,965.372 975.998,966.063C964.23,966.408 950.605,966.735 935.122,967.043C929.703,967.22 902.3,967.639 852.915,968.301C810.515,968.805 764.769,969.175 715.677,969.412C691.131,969.531 665.749,969.617 639.53,969.669C627.466,969.736 586.255,969.739 515.897,969.679C449.488,969.462 411.106,969.299 400.752,969.187C376.994,969.035 354.456,968.855 333.138,968.647C290.501,968.229 252.745,967.698 219.868,967.053C146.465,965.492 115.983,963.87 128.421,962.188C133.888,961.35 147.421,960.577 169.02,959.869C179.82,959.515 192.636,959.178 207.469,958.856C212.604,958.671 239.151,958.229 287.111,957.53C366.816,956.498 463.492,955.96 577.136,955.916C633.959,955.938 686.539,956.083 734.876,956.352C759.045,956.487 782.153,956.653 804.201,956.849C857.464,957.394 888.149,957.758 896.257,957.941C933.988,958.519 963.654,959.162 985.253,959.87C996.053,960.224 1004.84,960.594 1011.6,960.98C1024.99,961.975 1030.6,962.591 1028.44,962.829" style="fill-opacity:0.25;fill-rule:nonzero;"/>
                    </g>
                    <g>
                        <path d="M255.678,486.346C255.661,486.346 255.645,486.347 255.628,486.348L255.627,486.348C245.345,486.374 237.475,494.31 237.476,504.598L237.476,872.391C237.476,882.695 245.373,890.591 255.676,890.615L255.678,890.616L883.95,890.593L883.949,890.593C894.254,890.593 902.152,882.696 902.152,872.391L902.152,504.597C902.152,494.308 894.281,486.369 883.995,486.369L883.966,486.37C883.962,486.369 883.956,486.369 883.947,486.369L255.678,486.346Z" style="fill:rgb(83,60,168);fill-rule:nonzero;"/>
                    </g>
                    <g>
                        <path d="M255.678,463.69C233.224,463.69 214.817,482.143 214.817,504.597L214.817,872.391C214.817,894.843 233.225,913.251 255.678,913.251L883.949,913.274C906.403,913.251 924.81,894.844 924.81,872.391L924.81,504.598C924.81,482.145 906.403,463.691 883.95,463.691L255.678,463.714L255.678,463.69ZM255.678,487.089L883.95,487.112C893.844,487.089 901.409,494.7 901.409,504.597L901.409,872.391C901.409,882.285 893.844,889.849 883.949,889.849L255.678,889.872C245.784,889.849 238.219,882.284 238.219,872.391L238.219,504.598C238.219,494.701 245.784,487.091 255.678,487.091L255.678,487.089Z" style="fill:rgb(245,184,72);fill-rule:nonzero;"/>
                    </g>
                    <g>
                        <path d="M511.371,929.367L628.257,929.391C630.06,929.367 631.512,930.819 631.512,932.624C631.512,934.427 630.06,935.88 628.257,935.88L511.371,935.903C509.567,935.88 508.115,934.429 508.115,932.624C508.115,930.821 509.567,929.367 511.371,929.367Z" style="fill-rule:nonzero;"/>
                    </g>
                    <g>
                        <path d="M912.726,557.861C912.96,560.908 911.47,563.583 908.042,566.156C907.17,566.803 906.28,567.524 906.059,567.774C905.839,568.024 905.371,568.382 905.025,568.587C904.68,568.793 903.92,569.447 903.336,570.04C901.051,572.375 900.096,573.226 898.885,573.969C898.181,574.406 897.153,575.108 896.581,575.544C896.002,575.961 895.397,576.365 895.24,576.418C895.064,576.479 894.654,576.816 894.298,577.178C893.94,577.541 893.57,577.864 893.453,577.905C893.335,577.945 892.997,578.236 892.699,578.578C892.394,578.901 891.77,579.377 891.3,579.604C890.043,580.274 887.882,581.757 887.142,582.47C886.48,583.09 884.278,585.221 882.616,586.817C882.122,587.293 881.61,587.84 881.5,588.03C880.802,589.122 877.38,591.583 874.916,592.754C874.088,593.147 873.19,593.651 872.936,593.869C872.663,594.094 872.07,594.406 871.6,594.567C870.386,594.982 865.187,597.811 864.506,598.438C864.187,598.722 863.472,599.251 862.938,599.608C862.404,599.966 861.35,600.655 860.595,601.132C859.846,601.629 859.091,602.171 858.936,602.356C858.533,602.778 855.171,604.519 853.006,605.413C850.939,606.273 849.427,607.096 848.458,607.844C848.062,608.154 847.423,608.526 847.031,608.66C846.64,608.794 845.884,609.206 845.351,609.563C844.817,609.92 843.449,610.651 842.308,611.151C841.173,611.67 840.183,612.162 840.092,612.281C839.949,612.439 839.317,612.765 835.178,614.662C832.068,616.12 831.094,617.109 831.764,618.17C832.042,618.6 833.803,619.528 834.117,619.421C834.214,619.387 834.712,619.501 835.211,619.68C835.71,619.86 836.549,620.076 837.067,620.183C838.698,620.477 841.246,620.83 841.685,620.833C841.907,620.845 842.267,620.874 842.457,620.918C843.65,621.21 846.772,621.323 847.995,621.124C848.511,621.034 849.354,620.942 849.897,620.932C851.408,620.874 856.492,620.074 857.627,619.685C858.202,619.511 859.051,619.374 859.536,619.383C862.239,619.485 863.539,619.259 866.233,618.185C872.442,615.754 874.829,614.674 875.55,614.034C875.953,613.678 877.014,613.009 877.9,612.53C879.216,611.839 879.745,611.659 880.836,611.525C882.549,611.289 886.105,611.712 887.877,612.353C890.174,613.185 891.752,615.051 891.906,617.097C891.966,618.104 891.087,620.264 890.539,620.451C890.363,620.512 889.862,620.902 889.427,621.291C888.784,621.905 888.093,622.251 885.477,623.299C883.723,623.986 881.813,624.859 881.227,625.256C880.634,625.634 879.592,626.166 878.887,626.406C878.182,626.648 877.029,627.239 876.3,627.73C875.571,628.219 874.613,628.744 874.183,628.891C873.739,629.065 873.022,629.398 872.566,629.663C872.058,629.968 870.857,630.357 869.361,630.716C867.344,631.21 866.685,631.457 865.056,632.32C863.434,633.203 861.548,633.892 852.766,636.92C840.557,641.12 842.132,640.865 837.22,639.55C833.713,638.629 833.385,638.566 831.695,638.291C830.909,638.167 829.454,637.943 828.432,637.767C827.417,637.612 826.407,637.411 826.177,637.314C825.967,637.211 825.692,637.174 825.595,637.208C825.477,637.248 825.006,637.147 824.539,637C823.824,636.764 820.96,636.126 818.522,635.647C817.749,635.497 813.675,634.966 811.887,634.791C810.394,634.646 808.759,634.658 808.269,634.826C808.054,634.899 807.537,634.923 807.092,634.901C806.666,634.872 805.228,635.014 803.902,635.227C801.797,635.532 801.321,635.673 800.369,636.217C799.751,636.582 798.852,637.086 798.337,637.372C797.842,637.651 797.205,638.087 796.925,638.358C796.659,638.602 796.106,639.032 795.716,639.297C795.325,639.561 794.473,640.203 793.81,640.758C793.167,641.306 792.237,641.974 791.742,642.253C790.817,642.811 788.684,644.502 788.445,644.89C788.361,645.028 787.477,645.768 786.488,646.522C783.867,648.512 783.244,649.053 782.855,649.515C782.674,649.751 782.225,650.102 781.88,650.308C781.535,650.513 780.658,651.272 779.917,651.985C779.164,652.724 778.436,653.345 778.299,653.391C778.162,653.438 777.811,653.755 777.533,654.091C777.254,654.428 776.942,654.73 776.844,654.764C776.472,654.891 771.759,659.522 771.689,659.83C771.658,659.928 771.372,660.179 771.039,660.358C770.355,660.789 768.725,662.287 768.435,662.78C768.325,662.971 768.033,663.268 767.785,663.44C767.538,663.612 767.156,664.027 766.929,664.323C766.709,664.639 765.327,666.097 763.879,667.554C759.959,671.498 759.207,672.499 756.104,677.934C752.219,684.731 751.444,686.876 751.491,690.337C751.513,691.358 751.523,692.666 751.514,693.281C751.519,693.87 751.536,695.198 751.558,696.219C751.559,697.246 751.508,698.247 751.431,698.47C751.328,698.681 751.291,698.956 751.325,699.054C751.358,699.152 750.871,700.346 750.26,701.692C749.629,703.045 749.147,704.194 749.174,704.272C749.195,704.331 748.697,705.18 748.071,706.159C747.457,707.113 746.947,707.987 746.934,708.078C746.922,708.17 746.347,709.11 745.616,710.17C744.905,711.222 743.935,712.735 743.484,713.524C743.032,714.312 742.463,715.142 742.242,715.392C741.496,716.216 738.439,720.892 737.672,722.423C737.343,723.06 736.802,724.032 736.446,724.592C735.367,726.295 723.288,735.498 722.359,733.425C721.405,731.344 721.711,729.688 721.641,729.612C715.876,723.213 723.185,719.07 714.638,694.091C706.332,669.817 699.611,649.921 699.689,649.894C699.787,649.861 699.897,649.605 699.926,649.31C699.984,649.028 700.17,647.849 700.371,646.709C700.564,645.549 700.858,643.852 700.982,642.935C701.125,642.011 701.321,641.113 701.418,640.949C701.514,640.785 701.578,640.588 701.544,640.49C701.498,640.353 701.744,639.154 702.118,637.691C702.752,635.2 703.096,633.902 703.243,633.567C703.481,632.983 703.996,629.439 703.988,628.458C703.977,627.98 703.999,627.338 704.061,627.011C704.118,626.664 704.121,626.291 704.088,626.193C704.014,625.977 704.409,622.212 704.616,621.091C704.679,620.764 704.822,619.84 704.934,619.015C705.045,618.19 705.271,617.062 705.411,616.512C705.57,615.954 705.721,615.181 705.77,614.749C705.806,614.343 705.963,613.524 706.109,612.927C706.254,612.33 706.482,611.269 706.587,610.555C706.712,609.834 706.92,608.779 707.072,608.202C707.321,607.33 707.609,605.744 707.951,603.549C708.144,602.259 708.778,596.443 708.731,596.306C708.698,596.209 708.755,595.992 708.871,595.821C708.981,595.63 709.043,595.237 709.028,594.937C708.993,594.643 709.118,593.156 709.296,591.63C709.493,590.097 709.626,588.631 709.623,588.369C709.615,588.088 709.74,587.367 709.905,586.764C710.09,586.153 710.3,585.426 710.376,585.137C710.643,584.128 711.05,582.698 711.42,581.478C711.605,580.803 711.936,579.661 712.126,578.94C712.297,578.226 712.577,577.189 712.723,576.659C712.869,576.128 713.073,575.314 713.161,574.869C713.538,572.903 714.351,569.016 714.585,568.04C714.731,567.443 714.94,566.584 715.028,566.138C715.192,565.339 715.758,563.287 716.04,562.512C716.123,562.309 716.475,561.292 716.866,560.262C717.237,559.238 717.627,558.077 717.735,557.69C718.147,556.083 718.243,555.723 718.362,555.113C718.419,554.766 718.57,554.124 718.698,553.664C718.812,553.232 719.025,552.065 719.168,551.076C719.348,549.877 719.712,548.703 720.272,547.528C721.366,545.294 722.465,544.415 726.077,542.895C727.441,542.341 728.672,541.723 728.854,541.551C729.01,541.367 729.707,540.975 730.365,540.662C731.839,539.983 734.168,538.421 734.472,537.901C734.601,537.704 735.088,537.275 735.564,536.937C739.143,534.488 740.15,533.662 741.298,532.351C742.783,530.684 746.269,527.194 747.497,526.184C751.073,523.211 752.377,522.612 753.977,523.135C754.968,523.474 756.135,524.584 756.443,525.484C756.677,526.169 757.864,527.338 758.401,527.373C758.584,527.398 760.387,526.912 762.41,526.307C766.34,525.137 770.827,524.127 772.789,523.981C773.449,523.929 774.292,523.772 774.644,523.652C775.897,523.223 778.106,523.669 780.313,524.817C781.449,525.39 782.41,525.958 782.443,526.056C782.483,526.173 782.924,526.504 783.431,526.834C783.911,527.15 784.535,527.571 784.772,527.752C785.01,527.933 785.958,528.659 786.873,529.351C789.684,531.495 790.237,531.962 790.975,532.714C791.259,533.033 792.104,533.903 792.829,534.617C793.542,535.357 794.169,536.04 794.209,536.157C794.283,536.372 796.374,538.521 797.936,539.955C798.45,540.435 799.71,541.688 800.72,542.72C801.748,543.746 802.876,544.869 803.205,545.193C804.036,545.959 804.525,547.388 804.526,549.115C804.544,550.64 804.339,552.787 804.121,553.365C803.961,553.792 803.392,557.944 803.119,560.596C803.021,561.592 802.918,562.567 802.874,562.758C802.83,562.948 802.719,563.774 802.627,564.592C802.535,565.41 802.412,566.328 802.369,566.649C802.306,566.976 802.137,567.952 801.987,568.856C801.85,569.734 801.618,570.908 801.471,571.438C800.93,573.373 800.83,574.807 801.146,575.792C801.515,577 801.956,577.33 804.457,578.311C806.17,578.971 807.067,579.102 809.389,578.919C810.605,578.831 814.747,577.196 815.363,576.569C815.636,576.279 816.884,575.196 818.144,574.152C819.399,573.088 820.965,571.722 821.588,571.115C822.231,570.501 822.933,569.867 823.161,569.702C823.388,569.537 823.959,568.904 824.432,568.305C825.617,566.784 825.682,566.718 827.785,564.621C830.259,562.134 830.725,561.647 831.153,561.041C831.405,560.692 832.536,559.78 834.15,558.616C834.729,558.199 835.399,557.729 835.64,557.538C836.375,557.002 839.042,554.187 839.461,553.496C839.688,553.135 840.205,552.411 840.607,551.923C841.021,551.41 841.605,550.686 841.922,550.27C843.314,548.46 843.962,547.604 844.104,547.381C844.169,547.249 844.415,546.947 844.642,546.716C844.85,546.492 845.289,545.86 845.586,545.321C846.167,544.335 847.014,543.105 847.922,541.985C849.23,540.378 849.78,539.556 850.419,538.419C851.431,536.52 853.074,534.034 854.641,531.967C856.169,529.978 857.183,528.341 858.685,525.509C859.207,524.543 860.111,523.031 860.7,522.13C864.611,516.243 865.98,513.916 865.819,513.446C865.732,513.191 867.569,510.507 868.296,509.821C868.705,509.419 869.465,508.699 869.978,508.217C870.491,507.736 871.057,507.28 871.214,507.226C871.37,507.172 871.917,506.789 872.43,506.372C874.478,504.687 877.995,503.528 880.3,503.745C883.764,504.09 886.725,507.692 886.095,510.772C885.843,512.017 884.899,514.308 884.213,515.308C883.922,515.736 883.181,517.083 882.562,518.279C881.924,519.481 881.093,521.078 880.712,521.821C880.319,522.589 879.721,523.844 879.42,524.625C879.098,525.412 878.416,526.739 877.886,527.555C877.362,528.39 876.472,530.007 875.906,531.163C875.352,532.293 874.482,533.903 873.971,534.712C873.144,536.066 871.996,538.143 871.152,539.831C870.971,540.199 870.629,540.732 870.396,541.009C870.169,541.304 869.938,541.778 869.887,542.079C869.649,543.429 868.605,547.023 868.13,548.191C866.544,551.992 864.088,556.572 862.804,558.127C861.567,559.622 858.909,564.446 855.806,570.778C853.874,574.719 853.196,575.869 851.557,577.852C851.337,578.102 850.603,578.834 849.914,579.441C846.828,582.247 846.148,583.136 846.416,583.919C846.523,584.232 846.762,584.544 846.958,584.608C847.562,584.839 849.051,584.395 850.725,583.472C851.624,582.968 853.26,582.255 854.376,581.873C855.472,581.497 856.581,581.031 856.815,580.82C857.056,580.628 858.209,580.036 859.383,579.504C860.556,578.971 862.243,578.087 863.11,577.55C864.002,577.027 865.057,576.468 865.488,576.321C865.919,576.174 866.883,575.669 867.652,575.165C868.407,574.688 870.119,573.687 871.429,572.977C874.028,571.562 874.81,571.098 875.61,570.496C875.902,570.265 876.852,569.59 877.711,568.967C878.596,568.359 879.526,567.625 879.818,567.328C880.097,567.058 880.65,566.628 881.028,566.39C882.662,565.415 884.725,564.03 884.997,563.741C885.153,563.556 885.935,563.092 886.697,562.7C887.486,562.321 888.371,561.777 888.676,561.52C888.956,561.249 889.639,560.819 890.141,560.559C890.702,560.28 891.839,559.322 892.962,558.195C894.124,556.988 895.229,556.063 895.932,555.691C896.577,555.339 898.763,554.569 901.276,553.797C905.408,552.514 905.571,552.48 906.907,552.614C908.571,552.809 910.365,553.835 911.607,555.357C912.473,556.417 912.652,556.814 912.726,557.861L912.727,557.864L912.726,557.861ZM777.759,549.177C777.126,548.541 776.473,547.911 776.321,547.789C775.28,546.855 774.369,545.789 773.944,544.994C773.1,543.359 772.126,542.686 770.233,542.459C768.425,542.224 766.665,542.127 766.39,542.221C766.253,542.268 765.508,542.326 764.762,542.319C763.303,542.337 762.201,541.927 760.811,540.871C758.994,539.46 756.957,538.233 756.505,538.256C755.328,538.33 754.741,539.428 754.351,542.186C754.11,543.908 753.117,545.801 751.084,548.487C750.747,548.908 749.754,550.735 748.852,552.509C747.949,554.283 746.982,556.057 746.698,556.439C745.584,557.913 744.675,558.836 744.225,558.991C743.089,559.379 742.628,559.821 742.387,560.713C742.253,561.218 742.18,561.898 742.209,562.239C742.279,562.762 742.218,563.351 741.797,566.273C741.728,566.646 741.57,567.334 741.423,567.8C741.276,568.265 741.066,568.994 740.971,569.42C740.876,569.846 740.61,570.921 740.375,571.833C739.822,573.859 739.093,577.673 739.18,577.927C739.22,578.044 739.15,578.287 739.041,578.477C738.692,579.056 739.54,581.215 740.516,582.215C741.223,582.936 743.464,584.312 745.678,585.413C746.039,585.573 747.005,586.096 747.814,586.541C748.622,586.986 750.336,587.777 751.59,588.311C752.857,588.817 754.012,589.319 754.15,589.402C755.274,590.002 760.423,591.564 761.68,591.659C762.61,591.756 763.744,591.302 764.126,590.69C764.313,590.408 765.025,589.42 765.718,588.505C766.411,587.591 767.032,586.722 767.136,586.577C767.975,585.197 768.959,583.854 769.724,583.023C770.237,582.476 770.749,581.863 770.879,581.666C770.982,581.456 771.176,581.258 771.274,581.225C771.724,581.071 773.886,577.226 774.597,575.342C774.687,575.093 774.988,574.312 775.257,573.629C775.745,572.369 776.167,570.344 776.026,569.933C775.865,569.463 776.585,563.706 777.042,561.909C777.239,561.142 777.377,560.461 777.35,560.382C777.33,560.324 777.418,559.878 777.526,559.426C777.646,558.947 777.996,557.603 778.307,556.403C779.24,552.804 779.395,551.723 779.133,550.894C779.026,550.581 778.412,549.807 777.759,549.177L777.76,549.181L777.759,549.177Z" style="fill:rgb(255,183,159);fill-rule:nonzero;"/>
                    </g>
                    <g>
                        <path d="M659.581,668.74L731.475,728.178L768.942,682.859L771.356,679.939L699.461,620.5L659.581,668.74" style="fill:rgb(239,239,239);fill-rule:nonzero;"/>
                    </g>
                    <g>
                        <path d="M740.214,560.93L741.104,560.45C745.099,558.445 747.721,556.334 748.969,554.116C750.262,551.511 750.398,548.539 749.377,545.198C747.911,540.75 745.819,537.876 743.101,536.574C742.056,536.018 740.719,535.851 739.09,536.072C737.662,536.339 736.134,536.918 734.508,537.809C732.493,538.867 729.503,540.882 725.537,543.855L736.217,557.595L740.214,560.93" style="fill:rgb(255,183,159);fill-rule:nonzero;"/>
                    </g>
                    <g>
                        <path d="M661.947,633.153L768.031,723.406C718.256,781.39 668.482,839.374 618.707,897.357C571.511,896.55 524.315,895.744 477.119,894.937L661.947,633.153" style="fill:rgb(64,17,119);fill-rule:nonzero;"/>
                    </g>
                    <g>
                        <path d="M700.275,425.823L700.274,425.823L700.275,425.823Z" style="fill:rgb(227,237,242);fill-opacity:0.99;fill-rule:nonzero;"/>
                    </g>
                    <g>
                        <path d="M804.785,262.701L776.451,369.785L748.117,476.869C720.65,469.601 693.183,462.334 665.717,455.067C684.605,383.677 703.494,312.288 722.383,240.898C749.851,248.166 777.318,255.433 804.785,262.701Z" style="fill:rgb(245,184,72);fill-rule:nonzero;"/>
                    </g>
                    <g>
                        <path d="M856.917,197.72L809.657,376.333L762.396,554.945C745.524,550.481 728.653,546.017 711.781,541.553C743.287,422.478 774.793,303.402 806.299,184.327C823.172,188.791 840.045,193.256 856.917,197.72Z" style="fill:rgb(251,149,5);fill-rule:nonzero;"/>
                    </g>
                    <g>
                        <path d="M666.248,460.551L666.247,460.551C662.688,459.592 662.055,455.999 661.966,455.562L661.965,455.562C660.097,446.374 670.128,399.316 684.491,345.998L684.49,345.997C698.853,292.679 713.816,246.948 720.048,239.942L720.047,239.942C720.344,239.609 722.696,236.82 726.256,237.78L726.256,237.78C729.817,238.739 730.45,242.332 730.538,242.768L730.539,242.768C732.407,251.956 722.376,299.015 708.013,352.333L708.013,352.333C693.651,405.652 678.688,451.382 672.456,458.388L672.456,458.388C672.16,458.721 669.808,461.51 666.248,460.551L666.247,460.551M668.869,450.82L668.869,450.819C665.915,450.023 664.322,452.37 664.926,451.69L664.925,451.69C669.114,446.982 683.471,404.695 698.282,349.713L698.281,349.712C713.093,294.729 721.919,250.952 720.662,244.777C720.481,243.886 720.68,246.715 723.635,247.511L723.634,247.511C726.589,248.307 728.182,245.961 727.579,246.64L727.578,246.64C723.39,251.348 709.033,293.635 694.222,348.619L694.221,348.618C679.411,403.602 670.586,447.378 671.841,453.553L671.841,453.553C672.023,454.444 671.824,451.615 668.869,450.82Z" style="fill:rgb(245,184,72);fill-rule:nonzero;"/>
                    </g>
                    <g>
                        <path d="M845.78,940.988L845.78,940.989L845.78,940.99L845.78,940.988" style="fill:rgb(255,183,159);fill-rule:nonzero;"/>
                    </g>
                    <g>
                        <path d="M721.479,546.036L722.593,545.318C726.698,542.769 729.884,540.054 732.152,537.171C733.742,535.002 734.671,533.609 734.939,532.993L738.414,526.42C738.999,525.319 739.605,524.272 740.233,523.28C741.86,520.961 742.884,519.706 743.307,519.517C745.399,517.683 747.825,517.168 750.585,517.972C753.158,518.733 755.343,520.302 757.141,522.678C757.706,523.452 758.177,524.289 758.555,525.189L759.032,526.575C759.295,527.436 759.429,528.522 759.434,529.831C759.413,531.057 759.241,532.333 758.916,533.657C758.898,534.272 758.147,536.344 756.663,539.871C754.546,544.211 752.021,548.683 749.087,553.287L721.479,546.036" style="fill:rgb(255,183,159);fill-rule:nonzero;"/>
                    </g>
                    <g>
                        <g>
                            <path d="M484.692,757.765L484.914,757.81C484.911,757.821 484.909,757.83 484.905,757.838L484.905,757.839L484.691,757.766L484.684,757.767C484.684,757.766 484.684,757.765 484.685,757.765L484.692,757.765ZM455.187,729.998C457.57,729.998 461.63,730.525 462.834,731.046L462.838,731.048C462.966,731.101 463.101,731.157 463.294,731.237C463.54,731.339 463.87,731.477 464.174,731.602L464.174,731.602C464.431,731.708 464.756,731.84 464.996,731.936L464.996,731.937C466.188,732.434 467.415,733.158 469.641,734.701L469.641,734.702C472.178,736.468 475.927,741.998 476.776,745.22L476.776,745.221C476.931,745.865 477.235,746.903 477.465,747.57L477.465,747.57C477.73,748.44 477.808,749.547 477.732,752.305L477.732,752.306C477.656,755.412 477.531,756.173 476.932,757.969L476.932,757.97C475.347,762.673 472.912,766.259 469.299,769.119L469.299,769.12C468.332,769.893 467.494,770.479 467.311,770.542L467.304,770.542C467.292,770.543 467.281,770.545 467.271,770.547L467.27,770.547C467.051,770.589 466.406,770.933 465.803,771.281L465.8,771.283C465.134,771.678 463.932,772.204 463.113,772.452L463.113,772.452C462.271,772.682 461.371,773.014 461.098,773.151L461.096,773.152C460.434,773.491 458.23,773.731 456.024,773.731C455.059,773.731 454.109,773.685 453.321,773.585L453.313,773.584C451.979,773.439 450.851,773.23 450.639,773.143L450.634,773.143C450.453,773.008 449.778,772.773 449.169,772.603L449.169,772.603C447.955,772.263 444.66,770.689 444.298,770.339L444.294,770.34C444.278,770.309 444.26,770.285 444.245,770.267L444.245,770.268C444.108,770.107 443.612,769.804 443.158,769.554L443.148,769.549C442.159,769.067 438.16,764.998 437.571,763.892C437.367,763.511 436.966,762.733 436.686,762.173L436.684,762.17C434.776,758.53 434.251,756.261 434.251,751.629C434.276,748.441 434.605,746.146 435.247,744.616L435.248,744.614C436.03,742.682 436.699,741.226 436.844,741.017L436.838,741.018L436.845,741.014C436.851,741.009 436.851,741.008 436.858,741.001C436.964,740.886 437.177,740.504 437.368,740.147L437.37,740.144C438.336,738.26 442.46,734.137 444.344,733.17L444.347,733.168C444.702,732.979 445.082,732.766 445.199,732.659L445.199,732.66C445.203,732.656 445.205,732.654 445.206,732.653L445.206,732.654C445.366,732.527 446.76,731.9 448.805,731.027L448.803,731.027C449.213,730.882 450.391,730.605 451.422,730.454C452.063,730.361 452.602,730.278 453.142,730.196L453.142,730.197C453.466,730.147 453.727,730.108 453.892,730.084L453.892,730.084C453.951,730.075 453.902,730.082 453.957,730.074L453.964,730.073C454.256,730.022 454.674,729.998 455.187,729.998ZM452.403,716.779C452.298,716.779 452.215,716.826 452.157,716.876L452.156,716.877C451.997,717.015 451.916,717.274 451.916,717.519C451.916,717.667 451.882,717.769 451.86,717.811L451.854,717.811C451.778,717.84 451.734,717.898 451.727,717.906C451.554,718.115 451.223,719.01 450.913,719.984L450.911,719.99C450.595,721.085 450.273,721.95 450.181,722.076L450.175,722.076C450.168,722.081 450.162,722.087 450.157,722.092L450.157,722.093C449.977,722.27 449.779,722.812 449.643,723.288L449.642,723.29C449.453,723.987 449.306,724.074 449.235,724.074C449.104,724.074 448.842,723.912 448.338,723.37L448.337,723.369C447.484,722.467 444.009,719.318 443.586,719.097L443.586,719.098C443.577,719.093 443.52,719.061 443.451,719.061C443.258,719.061 443.202,719.272 443.207,719.272L443.21,719.272C443.143,719.549 443.03,720.919 442.939,722.501L442.939,722.501C442.836,724.329 442.632,726.015 442.482,726.316L442.475,726.332L442.294,726.775L440.623,725.861L440.622,725.861L440.617,725.858C438.145,724.525 436.055,723.46 435.716,723.383L435.716,723.384C435.711,723.382 435.705,723.38 435.7,723.379L435.696,723.38L435.643,723.373L435.637,723.374L435.501,723.417C435.406,723.485 435.394,723.602 435.395,723.602L435.395,723.603C435.351,723.872 435.487,725.211 435.714,726.733L435.714,726.734C435.819,727.443 435.91,728.051 435.993,728.607C436.044,728.943 436.104,729.344 436.133,729.541L436.133,729.542C436.147,729.639 436.159,729.721 436.168,729.787C435.634,729.756 434.41,729.455 434.16,729.278L434.159,729.279C434.149,729.27 434.136,729.261 434.128,729.256L434.127,729.255C433.773,729.036 430.745,728.209 430.232,728.192L430.225,728.193L430.214,728.19L430.173,728.193C429.99,728.22 429.942,728.391 429.932,728.44C429.908,728.548 429.92,728.689 429.94,728.82C430.009,729.276 430.249,730.028 430.526,730.452L430.525,730.453C430.676,730.736 431.067,731.617 431.364,732.434C431.667,733.267 432.031,734.079 432.15,734.258L432.169,734.283L432.169,734.284C432.334,734.508 432.971,736.364 433.12,736.98L433.113,736.98C432.773,737.023 431.982,737.066 431.025,737.066C429.702,737.066 427.591,737.142 426.32,737.218L426.316,737.219L424.033,737.396C423.946,737.403 423.87,737.458 423.836,737.539C423.803,737.62 423.817,737.713 423.874,737.78L425.802,740.037L425.803,740.039C426.871,741.255 427.653,742.375 427.7,742.592L427.697,742.593C427.68,742.691 427.507,742.846 426.358,743.107L426.358,743.107C423.178,743.829 422.17,744.058 421.915,744.332L421.915,744.333C421.876,744.374 421.846,744.421 421.827,744.478L421.822,744.494C421.797,744.596 421.84,744.683 421.853,744.706L421.853,744.707C422.069,745.133 424.168,746.874 424.794,747.149L424.798,747.15C425.192,747.316 427.308,749.035 427.769,749.522L427.762,749.523C427.646,749.617 427.422,749.765 427.147,749.895L427.142,749.897C426.758,750.089 425.953,750.524 425.119,750.974L425.119,750.975L424.524,751.295L424.524,751.295C424.521,751.296 424.513,751.301 424.506,751.305L424.506,751.306C423.547,751.86 422.291,752.537 421.749,752.784L421.741,752.788L420.727,753.295C420.645,753.336 420.595,753.42 420.598,753.511C420.601,753.602 420.657,753.683 420.741,753.718L422.009,754.251L422.007,754.251L422.042,754.265L422.042,754.266C422.5,754.461 422.277,754.366 422.794,754.587C422.945,754.652 423.613,754.937 423.773,755.006C424.106,755.148 424.401,755.275 424.669,755.391L424.669,755.392C425.429,755.72 426.427,756.13 426.894,756.286L426.894,756.286C427.91,756.668 427.974,756.838 427.895,757.048C427.789,757.331 427.401,757.755 426.63,758.481C423.798,761.138 422.978,761.887 422.93,762.307C422.921,762.391 422.936,762.468 422.965,762.535L422.966,762.535C422.993,762.597 423.031,762.645 423.061,762.681L423.063,762.684C423.079,762.701 423.097,762.718 423.111,762.731C423.387,762.961 424.434,763.151 425.45,763.245L425.454,763.246L425.458,763.246L425.458,763.246C428.011,763.457 428.745,763.633 428.841,763.784L428.835,763.785C428.781,763.974 428.392,764.65 427.868,765.389C427.356,766.088 426.895,766.81 426.827,767.023L426.827,767.023C426.822,767.04 426.811,767.076 426.811,767.117L426.804,767.117C426.752,767.241 426.532,767.598 426.226,767.993C425.909,768.4 425.622,768.825 425.563,768.992L425.563,768.992C425.556,769.01 425.543,769.051 425.543,769.099C425.543,769.296 425.742,769.351 425.745,769.351L425.746,769.352C425.899,769.401 426.268,769.413 426.703,769.413C428.581,769.413 432.84,769.149 433.32,768.949L433.32,768.949C433.338,768.941 433.373,768.925 433.405,768.899L433.422,768.884C433.485,768.826 433.823,768.724 434.22,768.724C434.523,768.724 434.608,768.736 434.636,768.754L434.63,768.754C434.633,768.766 434.637,768.792 434.637,768.84C434.638,768.973 434.606,769.179 434.548,769.517L434.548,769.517C434.295,771.013 433.716,773.265 433.429,773.838L433.427,773.843C433.179,774.363 432.446,777.086 432.457,777.489L432.457,777.49C432.456,777.501 432.457,777.63 432.56,777.706L432.559,777.706C432.623,777.754 432.696,777.759 432.719,777.759C432.724,777.759 432.727,777.759 432.726,777.759C432.734,777.759 432.742,777.758 432.748,777.758L432.748,777.759C433.137,777.739 435.715,776.826 436.038,776.584L436.038,776.585C436.052,776.574 436.072,776.558 436.092,776.535L436.091,776.535C436.224,776.417 437.141,776.065 438.438,775.69L438.438,775.691L438.712,775.619L438.552,778.469L438.552,778.468L438.552,778.474C438.485,780.028 438.471,781.42 438.562,781.709L438.561,781.709C438.565,781.728 438.62,781.902 438.8,781.91L438.81,781.91L438.81,781.911C438.847,781.91 438.878,781.903 438.898,781.898L438.898,781.898C439.103,781.843 439.725,781.48 440.31,781.059L440.309,781.06L440.372,781.018L440.584,780.875L440.584,780.876C440.584,780.875 440.754,780.761 440.776,780.747C442.168,779.814 442.629,779.515 442.837,779.419L442.843,779.42C442.98,780.758 443.068,788.635 443.091,803.918L443.091,803.918L443.167,828.694C443.168,828.792 443.229,828.879 443.322,828.913C443.347,828.922 443.374,828.926 443.4,828.926C443.468,828.926 443.535,828.897 443.58,828.842L445.152,826.94L445.152,826.94C446.012,825.903 447.128,824.61 447.63,824.057L447.634,824.053C447.785,823.879 448.076,823.539 448.403,823.157L448.403,823.157C448.945,822.524 449.737,821.601 450.459,820.765C450.651,820.543 450.715,820.468 450.905,820.249L450.908,820.246C452.204,818.696 453.819,816.803 454.506,816.015C455.172,815.25 455.836,814.694 456.014,814.649L456.004,814.65L456.02,814.648L456.027,814.649C456.133,814.66 456.476,814.936 456.77,815.403C457.073,815.882 457.561,816.473 457.911,816.632L457.908,816.632C458.12,816.764 458.244,816.914 458.257,816.964L458.256,816.964C458.26,817.028 458.288,817.079 458.291,817.083L458.291,817.083C458.585,817.655 465.137,825.276 466.791,827.003L466.794,827.007C467.157,827.369 467.369,827.702 467.386,827.792L467.385,827.793C467.386,827.815 467.389,827.837 467.393,827.856L467.393,827.857C467.433,828.071 467.65,828.342 467.845,828.514L467.845,828.515L467.85,828.518C467.881,828.544 467.947,828.589 468.038,828.589C468.198,828.589 468.276,828.462 468.301,828.412C468.58,827.861 468.618,823.457 468.663,803.842L468.663,803.842C468.729,784.412 468.785,780.075 468.99,779.316L468.997,779.317C469.316,779.465 470.113,779.947 470.953,780.571L470.957,780.573C471.878,781.235 472.828,781.841 473.121,781.902L473.121,781.902C473.144,781.907 473.167,781.91 473.197,781.91C473.349,781.91 473.434,781.801 473.47,781.74C473.589,781.536 473.62,781.069 473.62,780.529C473.62,779.55 473.507,778.067 473.302,776.499L473.301,776.495C473.237,776.063 473.232,775.749 473.249,775.591L473.256,775.591C473.839,775.715 475.756,776.38 475.976,776.541L475.976,776.541C476.407,776.869 479.029,777.758 479.447,777.759L479.448,777.76C479.449,777.759 479.452,777.759 479.456,777.759C479.483,777.759 479.563,777.756 479.632,777.7L479.486,777.519L479.652,777.683C479.738,777.596 479.731,777.482 479.73,777.458C479.723,777.273 479.582,776.91 479.416,776.578L479.411,776.568C479.199,776.191 478.85,775.154 478.622,774.267C478.393,773.351 478.038,772.13 477.803,771.529L477.803,771.53C477.387,770.403 477.482,770.232 477.685,770.157L477.684,770.158C477.793,770.117 477.963,770.093 478.218,770.093C478.444,770.093 478.722,770.112 479.059,770.143L479.058,770.144C479.93,770.243 480.67,770.384 480.797,770.456L480.796,770.456L480.797,770.456C480.81,770.465 480.821,770.472 480.831,770.478L480.831,770.478C481.219,770.7 483.401,770.888 484.465,770.888C484.746,770.888 485.011,770.876 485.148,770.828L485.148,770.828C485.156,770.825 485.349,770.766 485.349,770.57C485.349,770.53 485.34,770.496 485.335,770.478L485.335,770.478C485.275,770.274 484.863,769.59 484.425,768.898L484.423,768.896C483.992,768.238 483.653,767.666 483.581,767.493L483.574,767.494C483.573,767.458 483.565,767.428 483.56,767.412L483.56,767.413C483.499,767.198 483.04,766.4 482.524,765.602L482.522,765.599C482.023,764.828 481.637,764.146 481.556,763.938L481.549,763.939C481.702,763.815 482.435,763.689 485.269,763.372L485.27,763.371C486.779,763.196 488.317,762.914 488.688,762.743L488.695,762.74L488.695,762.74C488.802,762.686 488.941,762.616 489.026,762.505C489.094,762.418 489.127,762.312 489.111,762.193L489.111,762.194C489.103,762.127 489.08,762.062 489.05,762.004C488.879,761.661 488.263,761.09 487.024,759.951L487.024,759.95C485.971,758.984 485.162,758.126 484.956,757.817L484.949,757.817C485.093,757.717 485.449,757.54 485.884,757.407L485.883,757.408C486.499,757.253 487.142,756.991 487.356,756.838L487.356,756.838C487.495,756.738 488.291,756.419 489.16,756.163L489.16,756.163C489.978,755.934 490.555,755.708 490.715,755.41C490.762,755.323 490.78,755.219 490.751,755.114C490.747,755.098 490.742,755.083 490.736,755.07L490.736,755.07C490.651,754.843 490.457,754.632 490.242,754.577L490.242,754.578C490.215,754.571 490.187,754.566 490.156,754.564L490.149,754.565C490.017,754.538 489.496,754.242 488.878,753.846L488.877,753.846C488.259,753.408 487.262,752.819 486.693,752.535L486.693,752.536C485.559,751.957 483.679,750.628 483.347,750.245L483.34,750.245C483.523,749.948 484.536,749.035 485.364,748.529L485.364,748.53C486.687,747.726 489.729,745.106 489.968,744.558L489.76,744.467L489.753,744.468C489.754,744.467 489.754,744.466 489.754,744.465L489.754,744.465L489.968,744.558C489.98,744.532 490.035,744.409 489.962,744.286C489.951,744.267 489.937,744.25 489.922,744.235L489.922,744.235C489.896,744.209 489.868,744.192 489.854,744.183C489.609,744.04 488.295,743.697 486.865,743.411L486.865,743.412C485.561,743.124 484.488,742.85 484.195,742.722L484.188,742.722C484.23,742.449 484.743,741.57 485.491,740.753L485.496,740.747C485.796,740.397 486.511,739.58 487.066,738.949L487.067,738.948L488.081,737.782C488.14,737.715 488.155,737.62 488.12,737.538C488.086,737.456 488.008,737.401 487.919,737.396L485.207,737.244L485.208,737.245C483.734,737.142 481.904,737.066 481.135,737.066C480.688,737.066 480.319,737.046 480.104,737.022L480.097,737.022C480.25,736.652 480.607,735.845 481.041,734.94L481.042,734.938C481.626,733.694 482.353,732.139 482.663,731.441L482.663,731.442C482.952,730.843 483.13,730.271 483.081,730C483.071,729.944 483.038,729.826 482.92,729.765L482.92,729.766C482.908,729.759 482.897,729.755 482.895,729.754L482.879,729.748C482.855,729.74 482.836,729.737 482.821,729.735L482.82,729.736C482.786,729.73 482.747,729.729 482.714,729.729C481.979,729.729 477.988,730.466 477.527,730.751L477.525,730.752C477.514,730.759 477.503,730.767 477.492,730.775L477.492,730.776C477.241,730.94 476.27,731.114 475.669,731.114C475.584,731.114 475.518,731.111 475.471,731.105L475.464,731.106C475.518,730.168 476.047,726.995 476.202,726.612L476.202,726.613C476.463,725.994 476.762,724.012 476.633,723.591C476.624,723.559 476.587,723.445 476.47,723.395L476.467,723.394C476.453,723.388 476.437,723.382 476.418,723.378L476.417,723.379L476.349,723.373C476.333,723.374 476.315,723.376 476.301,723.379L476.3,723.379C475.828,723.471 471.988,725.45 471.287,725.951L471.284,725.953C471.059,726.119 470.863,726.214 470.746,726.251C470.694,725.861 470.641,724.698 470.641,723.326C470.641,721.716 470.562,720.422 470.391,720.109L470.391,720.11C470.373,720.078 470.34,720.026 470.284,719.988L470.283,719.987C470.227,719.95 470.166,719.934 470.112,719.927L470.111,719.928C470.095,719.925 470.072,719.924 470.056,719.924C469.758,719.924 469.299,720.185 468.921,720.479L468.916,720.483C467.669,721.502 464.125,724.463 463.461,725.025L463.451,725.034C463.225,725.249 463.126,725.329 463.078,725.353C463.053,725.329 463.006,725.274 462.915,725.145C462.762,724.927 462.34,723.897 462.009,722.802L462.009,722.801C461.693,721.782 461.337,720.771 461.201,720.569L461.201,720.569C461.198,720.566 461.196,720.563 461.194,720.559L461.194,720.56C461.114,720.44 460.821,719.694 460.538,718.846L460.538,718.847C460.319,718.124 459.997,717.41 459.727,717.225L459.726,717.225C459.683,717.194 459.614,717.159 459.529,717.159C459.478,717.159 459.429,717.171 459.392,717.185L459.392,717.185C459.106,717.295 458.731,717.802 458.462,718.295L458.462,718.296C458.159,718.85 457.879,719.313 457.815,719.385L457.814,719.386C457.808,719.392 457.802,719.399 457.799,719.402L457.799,719.402C457.687,719.531 457.229,720.247 456.769,720.998L456.767,721.001C456.257,721.861 456.085,722.102 455.997,722.14C455.976,722.132 455.925,722.099 455.808,721.99L455.805,721.986C455.578,721.782 455.437,721.525 455.426,721.449L455.426,721.45C455.426,721.141 455.151,720.877 454.916,720.759L454.894,720.749C454.753,720.696 454.665,720.564 454.665,720.486C454.665,720.465 454.663,720.446 454.661,720.431C454.622,720.153 454.188,719.398 453.735,718.754C453.284,718.114 452.941,717.507 452.893,717.341L452.89,717.342C452.89,717.167 452.822,716.977 452.667,716.864L452.667,716.865C452.593,716.81 452.503,716.779 452.403,716.779Z" style="fill:rgb(239,239,239);fill-rule:nonzero;"/>
                        </g>
                        <g>
                            <path d="M456.132,731.501C453.635,731.501 450.956,731.818 449.859,732.402L449.859,732.402C449.442,732.61 449.041,732.755 448.929,732.755L448.92,732.756C448.517,732.763 446.682,733.566 446.409,733.834C446.332,733.898 445.874,734.153 445.325,734.428C443.961,735.11 439.309,739.762 438.627,741.125C438.351,741.678 438.096,742.136 438.033,742.21L438.033,742.211C438.021,742.222 438.012,742.234 438.006,742.242L438.006,742.242C437.89,742.393 437.562,743.085 437.252,743.8C437.211,743.896 437.087,744.181 437.044,744.281C436.907,744.594 436.975,744.437 436.843,744.741L436.843,744.742C436.658,745.169 436.499,745.54 436.436,745.715L436.435,745.715C435.703,747.418 435.433,753.733 435.971,756.116C436.306,757.66 437.38,760.373 438.106,761.516L438.107,761.516C438.406,761.99 438.807,762.717 439.005,763.138L439.007,763.141C439.694,764.541 443.896,768.478 445.625,769.382L445.626,769.382C446.452,769.82 447.375,770.227 447.66,770.245L447.686,770.245C447.843,770.245 447.917,770.325 447.921,770.34L447.921,770.34C447.944,770.408 447.99,770.455 448.017,770.48L448.017,770.48C448.461,770.884 451.981,771.767 453.062,771.767C453.48,771.767 453.797,771.856 453.856,771.912L453.854,771.913C453.889,771.967 453.935,772 453.966,772.019C454.218,772.176 455.035,772.274 455.826,772.274C456.618,772.274 457.435,772.176 457.686,772.02C457.716,772.001 457.761,771.969 457.795,771.917L457.792,771.918C457.862,771.857 458.227,771.767 458.717,771.767C460.186,771.767 463.316,770.865 465.063,769.94L465.063,769.941C468.93,767.943 472.958,763.796 474.276,760.462L474.276,760.463C474.537,759.81 474.793,759.243 474.884,759.146L474.884,759.146L474.901,759.127C475.469,758.417 475.992,754.72 476.017,752.009L476.017,752.007C476.017,748.597 475.662,746.276 474.779,744.355L474.78,744.356C474.464,743.651 474.221,743.05 474.193,742.903L474.191,742.904C474.191,742.87 474.185,742.839 474.18,742.819C474.123,742.588 473.706,741.903 473.265,741.253L473.265,741.253L473.262,741.248C472.837,740.622 472.5,740.097 472.421,739.936L472.415,739.937C472.407,739.872 472.373,739.82 472.367,739.812L472.367,739.813C472.253,739.643 471.41,738.758 470.446,737.794L470.445,737.793C468.124,735.497 465.484,733.672 463.309,732.92C462.425,732.609 461.655,732.316 461.535,732.236L461.405,732.43L461.524,732.23C461.521,732.228 461.514,732.223 461.504,732.218L461.504,732.219C461.313,732.119 460.477,731.916 459.698,731.77L459.698,731.77C458.689,731.586 457.424,731.501 456.132,731.501Z" style="fill:rgb(239,239,239);fill-rule:nonzero;stroke:rgb(64,17,119);stroke-width:0.92px;"/>
                        </g>
                        <g>
                            <path d="M296.444,615.342C296.316,615.342 296.211,615.447 296.211,615.575L296.211,623.944L296.211,632.313C296.211,632.374 296.236,632.434 296.28,632.477C296.323,632.521 296.383,632.545 296.444,632.545L375.438,632.545L454.432,632.545C454.494,632.545 454.553,632.521 454.597,632.477C454.64,632.434 454.665,632.374 454.665,632.312L454.665,615.575C454.665,615.447 454.561,615.342 454.432,615.342L296.444,615.342Z" style="fill:rgb(239,239,239);fill-rule:nonzero;"/>
                        </g>
                        <g>
                            <path d="M296.444,661.242C296.316,661.242 296.211,661.347 296.211,661.475L296.211,669.844L296.211,678.214C296.211,678.276 296.236,678.335 296.28,678.379C296.323,678.423 296.383,678.447 296.444,678.447L484.609,678.445C484.738,678.445 484.842,678.341 484.842,678.212L484.842,669.844L484.842,661.475C484.842,661.347 484.738,661.242 484.609,661.242L296.444,661.242Z" style="fill:rgb(239,239,239);fill-rule:nonzero;"/>
                        </g>
                        <g>
                            <path d="M296.445,546.956C296.362,546.956 296.295,547.023 296.295,547.106L296.295,563.97C296.295,564.009 296.311,564.048 296.339,564.076C296.367,564.103 296.405,564.119 296.445,564.119L377.467,564.043L377.467,564.044L458.489,563.992C458.572,563.992 458.639,563.925 458.639,563.843L458.639,555.474L458.639,547.106C458.639,547.023 458.572,546.956 458.489,546.956L296.445,546.956Z" style="fill:rgb(239,239,239);fill-rule:nonzero;"/>
                        </g>
                        <g>
                            <path d="M296.445,569.779C296.405,569.779 296.367,569.795 296.339,569.823C296.311,569.851 296.295,569.889 296.295,569.929L296.295,578.297L296.295,586.668C296.295,586.708 296.311,586.745 296.339,586.773C296.367,586.802 296.405,586.817 296.444,586.817L469.647,586.816C469.687,586.816 469.725,586.8 469.753,586.771C469.781,586.743 469.797,586.705 469.797,586.665L469.746,578.347L469.746,578.347L469.67,570.054C469.669,569.972 469.603,569.906 469.521,569.906L382.995,569.83L382.995,569.83L296.445,569.779Z" style="fill:rgb(239,239,239);fill-rule:nonzero;"/>
                        </g>
                        <g>
                            <path d="M296.444,638.249C296.362,638.249 296.295,638.316 296.295,638.399L296.295,655.391C296.295,655.431 296.311,655.469 296.339,655.497C296.367,655.525 296.405,655.541 296.444,655.541L463.814,655.539C463.897,655.539 463.964,655.472 463.964,655.389L463.964,638.398C463.964,638.316 463.897,638.249 463.815,638.249L296.444,638.249Z" style="fill:rgb(239,239,239);fill-rule:nonzero;"/>
                        </g>
                        <g>
                            <path d="M387.23,684.148L296.444,684.149C296.362,684.149 296.295,684.216 296.295,684.299L296.295,692.667L296.295,701.036C296.295,701.075 296.311,701.114 296.339,701.142C296.367,701.17 296.405,701.185 296.445,701.185L387.179,701.134L477.889,701.058C477.971,701.058 478.038,700.992 478.038,700.91L478.115,692.592L478.115,692.592L478.165,684.299C478.166,684.259 478.15,684.221 478.122,684.193C478.094,684.165 478.055,684.149 478.016,684.149L387.23,684.148Z" style="fill:rgb(239,239,239);fill-rule:nonzero;"/>
                        </g>
                        <g>
                            <path d="M393.621,517.793C325.491,517.793 269.55,517.867 268.718,517.969L268.717,517.97C268.722,517.969 268.724,517.968 268.725,517.968L268.72,517.969C268.702,517.97 268.64,517.984 268.605,518.033L268.587,518.068C268.58,518.085 268.578,518.098 268.576,518.111C268.475,518.978 268.4,583.227 268.4,661.526L268.4,804.756C268.4,804.796 268.416,804.834 268.444,804.862C268.472,804.89 268.51,804.906 268.549,804.906L348.507,804.904C392.181,804.904 428.028,804.854 428.597,804.803L428.599,804.803C428.61,804.802 428.621,804.8 428.636,804.795L428.695,804.76C428.731,804.725 428.741,804.676 428.742,804.668L428.742,804.668C428.794,804.4 428.815,800.858 428.766,796.663L428.689,788.777C428.689,788.695 428.622,788.629 428.54,788.628L355.582,788.578L355.582,788.578L282.772,788.502L282.621,776.857L282.621,776.858C282.545,770.366 282.444,713.21 282.418,649.785C282.394,563.029 282.467,536.036 282.673,534.349L282.668,534.349C284.249,534.145 309.666,534.07 390.919,534.07L393.621,534.071L504.239,534.069L504.239,661.348L504.239,788.629L493.814,788.679L493.813,788.68L483.213,788.755C483.131,788.756 483.064,788.822 483.064,788.905L483.064,804.627C483.064,804.667 483.08,804.705 483.108,804.733C483.136,804.761 483.174,804.777 483.214,804.777L500.712,804.777L518.21,804.777C518.292,804.777 518.359,804.71 518.359,804.628L518.436,661.273L518.486,517.943C518.486,517.903 518.471,517.865 518.443,517.837C518.415,517.809 518.376,517.793 518.337,517.793L393.621,517.793Z" style="fill:rgb(239,239,239);fill-rule:nonzero;"/>
                        </g>
                        <g>
                            <path d="M312.498,752.933L358.826,752.933L405.155,752.933L405.155,756.393C374.269,756.393 343.383,756.394 312.497,756.394C312.497,755.24 312.497,754.086 312.498,752.933" style="fill:rgb(239,239,239);fill-rule:nonzero;"/>
                        </g>
                        <g>
                            <path d="M296.445,591.581C296.405,591.581 296.367,591.596 296.339,591.624C296.311,591.652 296.295,591.69 296.295,591.73L296.295,600.098L296.295,608.469C296.295,608.509 296.311,608.546 296.339,608.574C296.367,608.603 296.405,608.618 296.444,608.618L469.647,608.617C469.687,608.617 469.725,608.601 469.753,608.572C469.781,608.544 469.797,608.506 469.797,608.466L469.746,600.148L469.746,600.148L469.67,591.855C469.669,591.773 469.603,591.707 469.521,591.707L382.995,591.631L382.995,591.632L296.445,591.581Z" style="fill:rgb(239,239,239);fill-rule:nonzero;"/>
                        </g>
                    </g>
                    <g>
                        <path d="M177.39,920.006C177.39,944.707 194.447,964.6 215.627,964.6L924.001,964.624C945.18,964.601 962.238,944.71 962.238,920.006L177.39,920.029L177.39,920.006Z" style="fill:rgb(245,184,72);fill-rule:nonzero;"/>
                    </g>
                </g>
            </g>
        </g>
    </g>
</svg>
