<?xml version="1.0" encoding="UTF-8" standalone="no"?>
<!DOCTYPE svg PUBLIC "-//W3C//DTD SVG 1.1//EN" "http://www.w3.org/Graphics/SVG/1.1/DTD/svg11.dtd">
<svg width="100%" height="100%" viewBox="0 0 1429 1429" version="1.1" xmlns="http://www.w3.org/2000/svg" xmlns:xlink="http://www.w3.org/1999/xlink" xml:space="preserve" xmlns:serif="http://www.serif.com/" style="fill-rule:evenodd;clip-rule:evenodd;stroke-linejoin:round;stroke-miterlimit:2;">
    <g transform="matrix(1,0,0,1,-58525,-8503)">
        <g transform="matrix(1.21695,0,0,1.26131,-11252.6,-590.291)">
            <g transform="matrix(0.850646,0,0,0.850646,8977.48,1910.34)">
                <g transform="matrix(1.56866,0,0,1.51349,-32648.1,-7653.78)">
                    <circle cx="57495" cy="9613" r="440" style="fill:rgb(64,17,119);"/>
                    <clipPath id="_clip1">
                        <circle cx="57495" cy="9613" r="440"/>
                    </clipPath>
                    <g clip-path="url(#_clip1)">
                        <g transform="matrix(0.523841,0,0,0.523841,26663.7,4792.12)">
                            <path d="M58311,8427L59616.1,9732.13C59172,10176.2 58746.6,10155.3 58195,9855C57866.1,9391.54 57957.3,8871.79 58311,8427Z" style="fill:rgb(83,60,168);"/>
                        </g>
                    </g>
                </g>
                <g transform="matrix(4.1918,0,0,4.04439,56676.6,6245.8)">
                    <g>
                        <path d="M295.411,262.956L294.599,263.182C290.748,263.637 279.481,264 260.797,264.273C241.984,264.546 219.83,264.656 194.336,264.605C170.005,264.533 150.546,264.322 135.958,263.973C131.284,263.86 127.434,263.737 124.408,263.603L120.593,263.398C118.498,263.257 117.438,263.109 117.414,262.956C118.051,262.484 126.74,262.092 143.481,261.779C160.223,261.466 181.2,261.303 206.413,261.292C231.625,261.303 252.602,261.466 269.344,261.779C286.086,262.092 294.775,262.484 295.411,262.956" style="fill:rgb(83,60,168);fill-opacity:0.28;fill-rule:nonzero;"/>
                    </g>
                    <g transform="matrix(1,0,0,1,0.269735,0)">
                        <path d="M221.316,250.613L202.714,250.626L184.111,250.638C184.113,255.022 184.116,259.407 184.119,263.792C196.521,263.784 208.923,263.776 221.325,263.768C221.322,259.383 221.32,254.998 221.316,250.613" style="fill:rgb(64,17,119);fill-rule:nonzero;"/>
                    </g>
                    <g>
                        <path d="M226.438,226.863L202.978,226.879L179.518,226.894C179.525,236.886 179.532,246.878 179.538,256.87C195.178,256.86 210.817,256.85 226.457,256.84C226.451,246.848 226.444,236.855 226.438,226.863" style="fill:rgb(64,17,119);fill-rule:nonzero;"/>
                    </g>
                    <g>
                        <path d="M203.034,124.788C226.065,124.774 244.877,143.512 244.892,166.642C244.893,167.479 244.795,168.512 244.697,169.546C244.062,175.255 242.294,180.817 239.541,185.839C236.592,191.304 232.168,199.525 228.531,206.024C226.859,209.027 224.057,212.917 224.557,225.22L203.1,225.234L181.594,225.248C182.078,212.895 179.27,209.058 177.595,206.057C173.949,199.563 169.514,191.397 166.558,185.936C163.799,180.869 162.023,175.308 161.38,169.6C161.281,168.567 161.181,167.533 161.181,166.697C161.166,143.566 180.002,124.804 203.034,124.788Z" style="fill:rgb(245,184,72);fill-rule:nonzero;"/>
                    </g>
                    <g>
                        <path d="M216.043,225.274L224.557,225.269C224.057,212.917 226.859,209.076 228.531,206.073C232.168,199.574 236.592,191.402 239.541,185.938C242.294,180.867 244.062,175.304 244.698,169.595C244.796,168.562 244.894,167.528 244.893,166.691C244.882,150.5 235.67,136.48 222.279,129.501C231.635,137.664 237.598,149.668 237.606,163.054C237.607,163.94 237.509,165.023 237.363,166.155C236.727,172.208 234.812,178.116 231.911,183.482C228.766,189.291 224.047,198.005 220.213,204.897C218.493,208.048 215.493,212.233 216.043,225.274Z" style="fill:rgb(251,149,5);fill-rule:nonzero;"/>
                    </g>
                    <g>
                        <path d="M178.299,228.842C178.299,229.482 178.792,229.974 179.431,229.974L226.479,229.943C227.119,229.943 227.611,229.45 227.611,228.81L227.609,226.399C227.609,225.759 227.116,225.267 226.477,225.268L179.478,225.299C178.838,225.299 178.346,225.791 178.346,226.431L178.348,228.842L178.299,228.842Z" style="fill:rgb(83,60,168);fill-rule:nonzero;"/>
                    </g>
                    <g>
                        <path d="M178.471,240.889C178.472,241.529 178.964,242.021 179.604,242.02L226.652,241.99C227.291,241.989 227.783,241.497 227.783,240.857L227.781,238.446C227.781,237.805 227.288,237.314 226.648,237.314L179.65,237.345C179.01,237.345 178.518,237.838 178.519,238.477L178.52,240.889L178.471,240.889Z" style="fill:rgb(83,60,168);fill-rule:nonzero;"/>
                    </g>
                    <g>
                        <path d="M178.476,248.123C178.476,248.763 178.969,249.255 179.608,249.255L226.656,249.225C227.296,249.224 227.788,248.731 227.787,248.092L227.786,245.68C227.785,245.04 227.293,244.548 226.653,244.549L179.655,244.58C179.015,244.58 178.523,245.072 178.523,245.712L178.525,248.123L178.476,248.123Z" style="fill:rgb(83,60,168);fill-rule:nonzero;"/>
                    </g>
                    <g>
                        <path d="M237.268,163.909C236.595,165.893 236.262,167.876 236.267,169.858C236.296,171.711 236.662,172.799 237.366,173.122C237.66,173.279 238.052,173.367 238.541,173.386C242.033,173.253 244.714,173.311 246.585,173.56C247.241,173.647 247.768,173.755 248.165,173.885C248.348,173.925 248.896,174.157 249.81,174.583L250.424,174.79C250.827,174.904 251.32,174.986 251.903,175.038C253.625,175.164 255.434,175.099 257.33,174.843C260.903,174.395 261.938,173.144 260.436,171.092C260.02,170.557 259.554,170.203 259.038,170.031C258.836,169.959 258.585,169.902 258.283,169.862C256.809,169.789 255.888,169.69 255.52,169.565C254.797,169.383 254.117,169.077 253.481,168.648C252.273,167.903 250.295,165.832 247.546,162.435L237.315,163.902" style="fill:rgb(64,17,119);fill-rule:nonzero;"/>
                    </g>
                    <g>
                        <path d="M207.651,167.063L197.982,169.191C197.746,172.245 197.753,174.538 198.002,176.068C198.482,179.252 199.724,181.114 201.729,181.655C202.864,182.063 204.962,182.182 208.024,182.013C210.378,181.773 211.885,181.342 212.546,180.72C212.996,180.325 213.09,179.784 212.829,179.097C212.7,178.739 212.479,178.314 212.166,177.821C210.756,175.805 210.01,174.703 209.929,174.514C209.59,173.95 209.297,173.384 209.052,172.815C208.488,171.569 208.021,169.653 207.651,167.066" style="fill:rgb(64,17,119);fill-rule:nonzero;"/>
                    </g>
                    <g>
                        <path d="M197.572,113.031C187.332,112.782 182.122,116.299 181.943,123.584C182.009,126.099 182.846,127.94 184.453,129.106C184.749,129.325 185.177,129.518 185.737,129.686C188.082,130.042 190.962,130.747 194.376,131.801C194.216,135.017 194.264,137.775 194.519,140.074C196.339,151.129 197.158,156.9 196.977,157.388C197.17,160.114 196.961,163.832 196.35,168.541L198.28,172.079L209.644,171.072C209.992,169.588 210.116,167.401 210.019,164.513C208.527,151.231 207.741,140.741 207.661,133.043C224.697,132.333 234.015,131.85 235.615,131.595C235.203,136.68 235.07,140.169 235.215,142.063C235.183,143.099 235.673,146.993 236.686,153.745L237.279,164.573L239.884,166.895L249.706,164.541C249.95,162.937 250.047,159.948 249.998,155.573C250.014,151.345 249.692,146.781 249.032,141.88L249.617,130.688C249.669,128.836 249.621,127.145 249.47,125.615C249.11,121.793 247.984,119.143 246.092,117.667C244.474,116.383 242.131,115.608 239.065,115.341C238.169,115.255 237.094,115.204 235.839,115.189C229.841,115.332 226.113,115.332 224.653,115.19C221.886,115.048 218.561,114.641 214.68,113.972L211.059,113.674C205.307,113.199 200.83,112.985 197.628,113.03" style="fill:rgb(83,60,168);fill-rule:nonzero;"/>
                    </g>
                    <g>
                        <path d="M248.371,108.615L236.758,106.864L234.412,99.883L224.404,101.919C224.817,103.797 225.611,106.192 226.787,109.103C228.102,112.31 229.155,114.474 229.948,115.595C230.818,116.953 232.246,117.724 234.234,117.907C236.515,118.186 238.476,117.719 240.114,116.508C240.425,117.027 240.984,117.337 241.791,117.439C243.272,117.608 244.461,117.567 245.358,117.316C245.537,117.25 245.689,117.162 245.813,117.053L246.428,116.412C247.179,115.796 247.624,115.401 247.766,115.229C248.133,114.853 248.407,114.397 248.588,113.861C248.669,113.63 248.744,113.349 248.814,113.018L249.319,110.415C249.332,110.093 249.02,109.499 248.383,108.633" style="fill:rgb(255,183,146);fill-rule:nonzero;"/>
                    </g>
                    <g>
                        <path d="M212.596,72.107C210.911,72.043 209.238,73.361 207.575,76.059C204.346,76.127 200.91,77.156 197.268,79.146C194.963,80.517 193.181,82.276 191.92,84.42C191.19,85.664 190.533,87.23 189.949,89.119C189.655,90.069 189.375,91.088 189.108,92.174C187.703,98.468 186.854,102.006 186.562,102.788C186.219,104.141 184.971,107.708 182.818,113.489C182.488,114.456 182.235,115.299 182.058,116.018C181.368,118.613 181.365,121.402 182.047,124.385L182.779,120.55C183.279,119.693 183.715,119.036 184.085,118.58C184.515,118.037 185.015,117.561 185.585,117.151C186.143,116.73 187.109,116.165 188.485,115.458C189.459,114.597 190.097,114.118 190.398,114.021C190.525,113.925 190.935,113.88 191.629,113.887C194.764,113.994 202.935,114.117 216.14,114.255L223.763,100.406L224.356,102.198C224.761,102.498 225.21,102.654 225.703,102.665C226.777,102.795 229.947,102.32 235.213,101.24C234.505,98.727 234.074,96.905 233.921,95.774C233.802,95.437 233.741,93.891 233.739,91.135L233.438,89.239C232.907,87.186 232.129,85.483 231.103,84.128C230.695,83.592 230.174,83.084 229.539,82.606C228.958,82.162 228.02,81.63 226.723,81.011C222.687,77.661 219.797,75.434 218.051,74.33C215.795,72.84 214.002,72.099 212.671,72.107M182.05,124.416C182.024,124.539 182.025,124.549 182.053,124.447" style="fill:rgb(239,239,239);fill-rule:nonzero;"/>
                    </g>
                    <g>
                        <path d="M221.703,56.63C219.347,56.64 217.501,57.44 216.168,59.029C214.759,60.769 213.678,63.45 212.925,67.072C212.491,69.326 212.393,71.283 212.631,72.942L218.326,73.948C225.728,71.713 230.294,70.349 232.025,69.855C234.053,69.27 235.052,69.033 235.019,69.144C234.348,68.305 233.865,67.572 233.57,66.946L232.168,63.331C231.926,62.748 231.673,62.22 231.409,61.747C230.876,60.789 230.256,59.976 229.547,59.309C227.656,57.575 225.055,56.682 221.745,56.63" style="fill:rgb(251,149,5);fill-rule:nonzero;"/>
                    </g>
                    <g>
                        <path d="M192.394,99.829L191.722,99.916C191.661,101.983 191.812,103.777 192.175,105.3C192.33,105.953 192.562,106.663 192.871,107.43C194.339,110.507 195.368,112.938 195.957,114.721C196.444,116.122 198.229,116.886 201.313,117.014C204.572,117.148 206.441,117.174 206.918,117.092C208.034,117 209.102,116.748 210.122,116.333C212.035,115.668 215.925,113.202 221.792,108.934L225.001,109.499C225.727,109.602 226.416,109.664 227.07,109.686C229.542,109.765 231.2,109.653 232.043,109.351C232.659,109.164 233.28,108.766 233.905,108.156C234.367,108.521 234.79,108.44 235.174,107.912C234.991,107.169 234.439,106.079 233.52,104.641C234.061,104.72 234.864,104.772 235.929,104.797C235.963,104.891 236.103,104.999 236.35,105.122L238.153,105.941L239.773,104.563C237.809,103.158 236.44,102.304 235.665,102.001C235.392,101.882 235.077,101.772 234.721,101.671C233.501,101.421 232.65,101.204 232.169,101.019C231.876,100.953 231.613,100.928 231.383,100.945C231.118,100.954 230.777,101.013 230.36,101.122L227.217,102.083L223.288,103.049L215.751,105.4C214.386,105.804 213.226,106.108 212.274,106.311C209.996,106.827 207.553,106.932 204.945,106.626C205.215,105.048 205.283,103.962 205.147,103.366L204.841,101.804C204.664,101.624 204.463,101.473 204.24,101.352C203.893,101.078 202.336,100.723 199.571,100.286L192.481,99.834" style="fill:rgb(255,183,146);fill-rule:nonzero;"/>
                    </g>
                    <g>
                        <path d="M222.971,67.384L221.505,70.603L219.322,70.803L217.932,72.693L217.027,71.987C216.979,70.282 216.734,69.21 216.292,68.77C215.631,68.113 214.96,67.988 214.28,68.396C213.755,68.73 213.479,69.957 213.452,72.077L212.683,72.165C212.328,73.849 211.71,75.278 210.827,76.452C211.744,78.597 212.483,80.079 213.043,80.897C213.549,81.707 214.419,82.675 215.653,83.803L215.714,91.877L219.536,84.475C220.87,85.088 221.965,85.502 222.822,85.717C223.479,85.852 223.94,85.746 224.205,85.399C224.504,85.084 224.761,84.303 224.977,83.056C225.308,82.875 225.494,82.696 225.535,82.52C225.577,82.462 225.629,82.154 225.691,81.596C226.472,81.464 226.886,81.065 226.933,80.398C227.72,80.454 228.175,80.411 228.298,80.267C228.394,80.24 228.509,79.972 228.643,79.461C229.002,79.23 229.199,79.06 229.235,78.95C229.456,78.716 229.591,77.557 229.64,75.474C230.606,75.117 231.144,74.66 231.253,74.104C231.46,72.559 231.824,70.87 232.344,69.039C231.401,69.174 230.377,69.138 229.272,68.931C228.272,68.77 226.18,68.257 222.996,67.391" style="fill:rgb(255,183,146);fill-rule:nonzero;"/>
                    </g>
                    <g>
                        <path d="M216.34,82.801L215.632,91.964L219.515,84.461L216.343,82.803" style="fill:rgb(255,71,0);fill-opacity:0.11;fill-rule:nonzero;"/>
                    </g>
                    <g>
                        <path d="M213.885,82.986C213.408,82.991 212.447,84.192 211.004,86.587L214.496,86.675C214.508,85.395 214.478,84.506 214.408,84.01C214.334,83.442 214.203,83.113 214.015,83.021L214.014,83.02C213.975,82.997 213.933,82.985 213.885,82.986L213.885,82.986L213.885,82.986ZM220.776,85.952C220.636,85.953 220.452,86.083 220.221,86.342C219.952,86.636 219.526,87.237 218.945,88.146L221.34,88.253C221.293,87.467 221.237,86.923 221.173,86.619C221.103,86.267 221.007,86.055 220.887,85.984L220.884,85.982C220.852,85.961 220.816,85.951 220.776,85.952ZM227.234,93.783L225.673,97.323L223.76,100.354C224.643,99.322 225.32,98.362 225.79,97.473C226.218,96.69 226.698,95.463 227.23,93.793L227.234,93.783L227.234,93.783L227.234,93.783ZM200.776,84.085C201.488,85.281 202.011,86.289 202.344,87.108C202.72,88.008 203.048,89.051 203.327,90.238C203.603,91.397 203.853,92.792 204.079,94.422C204.29,95.898 204.568,98.293 204.913,101.608C204.829,98.8 204.691,96.607 204.501,95.028C204.331,93.472 203.952,91.161 203.364,88.094L200.779,84.089L200.776,84.085L200.776,84.085L200.776,84.085ZM208.765,126.534C208.882,127.741 208.536,129.906 207.727,133.03L216.88,132.499L236.19,131.58L208.799,126.54L208.765,126.534L208.765,126.534L208.765,126.534Z" style="fill-opacity:0.16;fill-rule:nonzero;"/>
                    </g>
                    <g>
                        <path d="M258.825,85.774L259.339,98.418L242.701,113.297C242.615,113.387 242.586,113.4 242.613,113.338L244.01,100.26L258.811,85.789" style="fill:rgb(83,60,168);fill-rule:nonzero;"/>
                    </g>
                    <g>
                        <path d="M258.223,86.854L258.697,98.53L243.334,112.27C243.255,112.352 243.228,112.364 243.253,112.307L244.542,100.23L258.209,86.868" style="fill:rgb(239,239,239);fill-rule:nonzero;"/>
                    </g>
                    <g>
                        <path d="M255.923,101.161L243.291,100.404L228.092,116.751C228.002,116.834 227.988,116.863 228.051,116.837L241.154,115.694L255.908,101.176" style="fill:rgb(83,60,168);fill-rule:nonzero;"/>
                    </g>
                    <g>
                        <path d="M249.12,107.687L247.621,109.144C248.068,109.047 248.386,108.963 248.575,108.893C248.796,108.813 248.956,108.725 249.054,108.627C249.258,108.433 249.28,108.12 249.121,107.689" style="fill:rgb(255,183,146);fill-rule:nonzero;"/>
                    </g>
                    <g>
                        <path d="M246.377,111.157C243.604,110.652 242.147,110.415 242.006,110.447C241.35,110.437 240.901,110.585 240.657,110.892C240.508,111.098 240.451,111.34 240.487,111.618C240.53,111.873 240.651,112.06 240.852,112.18C240.959,112.245 241.11,112.298 241.307,112.341C241.384,112.357 241.479,112.374 241.591,112.39C242.121,112.458 242.425,112.5 242.503,112.518C242.696,112.552 242.887,112.597 243.075,112.652C243.463,112.762 244.013,112.983 244.725,113.316L246.375,111.16" style="fill:rgb(255,183,146);fill-rule:nonzero;"/>
                    </g>
                    <g>
                        <path d="M244.557,113.319C242.286,112.463 240.911,111.994 240.434,111.91C239.887,111.766 239.433,111.846 239.072,112.15C238.625,112.489 238.606,112.983 239.017,113.632C239.196,113.931 239.421,114.211 239.694,114.473C239.971,114.747 240.533,115.24 241.38,115.951L244.55,113.325" style="fill:rgb(255,183,146);fill-rule:nonzero;"/>
                    </g>
                    <g>
                        <path d="M248.347,108.822C247.286,108.595 246.467,108.5 245.889,108.538C245.239,108.583 244.757,108.759 244.445,109.064C244.273,109.243 244.184,109.438 244.179,109.649C244.178,109.857 244.263,110.036 244.433,110.188C244.571,110.311 244.795,110.418 245.104,110.508C245.36,110.587 245.797,110.674 246.415,110.77L248.343,108.826" style="fill:rgb(255,183,146);fill-rule:nonzero;"/>
                    </g>
                </g>
            </g>
        </g>
    </g>
</svg>
