<?xml version="1.0" encoding="UTF-8" standalone="no"?>
<!DOCTYPE svg PUBLIC "-//W3C//DTD SVG 1.1//EN" "http://www.w3.org/Graphics/SVG/1.1/DTD/svg11.dtd">
<svg width="100%" height="100%" viewBox="0 0 1429 1429" version="1.1" xmlns="http://www.w3.org/2000/svg" xmlns:xlink="http://www.w3.org/1999/xlink" xml:space="preserve" xmlns:serif="http://www.serif.com/" style="fill-rule:evenodd;clip-rule:evenodd;stroke-linejoin:round;stroke-miterlimit:2;">
    <g transform="matrix(1,0,0,1,-55273,-10529)">
        <g transform="matrix(1,0,0,1,56132,9595)">
            <g transform="matrix(1.34178,0,0,1.34178,-1402.42,923.266)">
                <g transform="matrix(0,-1,-1,0,937.5,8)">
                    <path d="M-532.5,-532.5C-826.592,-532.5 -1065,-294.092 -1065,0C-1065,294.092 -826.592,532.5 -532.5,532.5C-238.408,532.5 0,294.092 0,0C0,-294.092 -238.408,-532.5 -532.5,-532.5" style="fill:rgb(64,17,119);fill-rule:nonzero;"/>
                    <clipPath id="_clip1">
                        <path d="M-532.5,-532.5C-826.592,-532.5 -1065,-294.092 -1065,0C-1065,294.092 -826.592,532.5 -532.5,532.5C-238.408,532.5 0,294.092 0,0C0,-294.092 -238.408,-532.5 -532.5,-532.5" clip-rule="nonzero"/>
                    </clipPath>
                    <g clip-path="url(#_clip1)">
                        <g transform="matrix(0,-1,-1,0,10141,57066.5)">
                            <path d="M57465,10493L56727.2,11247.8L56352,10843.2L56687.9,10484.2L57465,10493Z" style="fill:rgb(83,60,168);"/>
                        </g>
                    </g>
                </g>
                <g transform="matrix(1,0,0,1,1346.81,382.876)">
                    <path d="M0,327.863C0,347.676 -16.062,363.739 -35.876,363.739L-301.102,363.739C-335.053,363.739 -369.004,185.277 -402.955,185.277C-436.368,185.277 -469.781,363.739 -503.193,363.739L-769.653,363.739C-789.467,363.739 -805.529,347.676 -805.529,327.863L-805.529,-0C-805.529,-19.814 -789.467,-35.876 -769.653,-35.876L-35.876,-35.876C-16.062,-35.876 0,-19.814 0,-0L0,327.863Z" style="fill:rgb(251,149,5);fill-rule:nonzero;"/>
                </g>
                <g transform="matrix(0,-1,-1,0,690.703,438.786)">
                    <path d="M-101.129,-101.129C-156.981,-101.129 -202.256,-55.852 -202.256,-0.001C-202.256,55.852 -156.981,101.129 -101.129,101.129C-45.277,101.129 -0.001,55.852 -0.001,-0.001C-0.001,-55.852 -45.277,-101.129 -101.129,-101.129" style="fill:rgb(83,60,168);fill-rule:nonzero;"/>
                </g>
                <g transform="matrix(0,-1,-1,0,1196.7,443.786)">
                    <path d="M-101.129,-101.128C-156.981,-101.128 -202.257,-55.852 -202.257,-0C-202.257,55.851 -156.981,101.129 -101.129,101.129C-45.277,101.129 -0,55.851 -0,-0C-0,-55.852 -45.277,-101.128 -101.129,-101.128" style="fill:rgb(64,17,119);fill-rule:nonzero;"/>
                    <clipPath id="_clip2">
                        <path d="M-101.129,-101.128C-156.981,-101.128 -202.257,-55.852 -202.257,-0C-202.257,55.851 -156.981,101.129 -101.129,101.129C-45.277,101.129 -0,55.851 -0,-0C-0,-55.852 -45.277,-101.128 -101.129,-101.128" clip-rule="nonzero"/>
                    </clipPath>
                    <g clip-path="url(#_clip2)">
                        <g transform="matrix(0,-1,-1,0,10576.8,57325.7)">
                            <path d="M57465,10493L57224.6,10739L57084,10587.4L57465,10493Z" style="fill:rgb(83,60,168);"/>
                        </g>
                    </g>
                </g>
                <g transform="matrix(1,0,0,1,501.5,478.171)">
                    <path d="M0,149.069L40.489,149.069L40.489,0L0,0C-6.6,0 -12,5.401 -12,12L-12,137.069C-12,143.669 -6.6,149.069 0,149.069" style="fill:rgb(245,184,72);fill-rule:nonzero;"/>
                </g>
                <g transform="matrix(1,0,0,1,1344.01,483.572)">
                    <path d="M0,149.068L40.489,149.068C47.089,149.068 52.489,143.668 52.489,137.068L52.489,12C52.489,5.4 47.089,0 40.489,0L0,0L0,149.068Z" style="fill:rgb(245,184,72);fill-rule:nonzero;"/>
                </g>
                <g transform="matrix(1,0,0,1,754.304,357)">
                    <path d="M0,23L-117.608,23C-123.934,23 -129.108,17.825 -129.108,11.5C-129.108,5.175 -123.934,0 -117.608,0L0,0C6.325,0 11.5,5.175 11.5,11.5C11.5,17.825 6.325,23 0,23" style="fill:rgb(239,239,239);fill-rule:nonzero;"/>
                </g>
                <g transform="matrix(1,0,0,1,595.5,357)">
                    <path d="M0,23L-29,23C-35.325,23 -40.5,17.825 -40.5,11.5C-40.5,5.175 -35.325,0 -29,0L0,0C6.325,0 11.5,5.175 11.5,11.5C11.5,17.825 6.325,23 0,23" style="fill:rgb(239,239,239);fill-rule:nonzero;"/>
                </g>
            </g>
        </g>
    </g>
</svg>
