<?xml version="1.0" encoding="UTF-8" standalone="no"?>
<!DOCTYPE svg PUBLIC "-//W3C//DTD SVG 1.1//EN" "http://www.w3.org/Graphics/SVG/1.1/DTD/svg11.dtd">
<svg width="100%" height="100%" viewBox="0 0 349 349" version="1.1" xmlns="http://www.w3.org/2000/svg" xmlns:xlink="http://www.w3.org/1999/xlink" xml:space="preserve" xmlns:serif="http://www.serif.com/" style="fill-rule:evenodd;clip-rule:evenodd;stroke-linejoin:round;stroke-miterlimit:2;">
    <g transform="matrix(1,0,0,1,-33137.2,-1200.98)">
        <g transform="matrix(1,0,0,1,33137.2,1200.97)">
            <path id="Tracé_1913" d="M176.8,348.212L171.36,348.212C167.798,347.789 165.245,345.756 162.788,343.281C147.139,327.52 131.443,311.805 115.698,296.138C114.538,294.895 113.287,293.74 111.955,292.682C107.697,289.528 104.591,290.341 102.787,295.334C101.246,299.597 98.947,303.545 96,306.989C79.525,326.477 48.13,324.653 34.164,303.312C22.38,285.505 27.227,261.173 44.935,249.241C47.424,247.662 50.092,246.384 52.882,245.433C57.851,243.557 58.682,240.51 55.529,236.251C54.472,234.92 53.317,233.668 52.074,232.508C36.371,216.801 20.656,201.105 4.931,185.42C2.456,182.962 0.423,180.41 0,176.848L0,171.408C0.445,168 2.283,165.462 4.688,163.074C21.009,146.864 37.285,130.608 53.515,114.306C53.835,113.985 54.154,113.663 54.478,113.347C60.326,107.662 65.378,108.663 68.056,116.372C72.594,129.459 88.281,139.364 101.89,139.494C117.69,139.644 133.698,128.594 138.079,112.407C143.137,93.713 133.366,74.587 116.371,68.168C115.302,67.789 114.271,67.31 113.293,66.736C109.513,64.418 108.703,60.936 111.06,57.156C111.902,55.946 112.88,54.837 113.975,53.849C130.4,37.418 147.034,21.193 163.141,4.46C168.829,-1.449 179.271,-1.552 185.122,4.549C200.649,20.739 216.737,36.39 232.605,52.249C233.756,53.501 235.015,54.65 236.367,55.682C240.567,58.621 243.608,57.79 245.36,52.982C246.896,48.717 249.188,44.763 252.127,41.311C268.627,21.854 299.442,23.445 313.767,44.576C318.154,51.057 320.5,58.706 320.5,66.532C320.5,79.622 313.937,91.876 303.042,99.132C300.638,100.634 298.071,101.855 295.389,102.772C290.264,104.683 289.433,107.811 292.773,112.184C293.776,113.414 294.86,114.575 296.017,115.66C311.88,131.528 327.539,147.608 343.717,163.145C349.681,169.207 349.671,179.077 343.694,185.126C326.954,201.226 310.742,217.874 294.302,234.288C287.665,240.914 282.991,239.923 279.824,231.195C275.403,219.01 260.344,209.01 246.555,208.765C230.294,208.477 214.166,219.871 210.12,235.92C206.547,250.092 209.858,262.594 220.473,272.929C223.894,276.247 227.983,278.799 232.467,280.413C239.342,282.962 240.453,288.05 235.318,293.224C218.158,310.519 200.877,327.692 183.685,344.955C181.716,346.933 179.314,347.589 176.803,348.209" style="fill:white;fill-rule:nonzero;"/>
        </g>
    </g>
</svg>
