<?xml version="1.0" encoding="UTF-8" standalone="no"?>
<!DOCTYPE svg PUBLIC "-//W3C//DTD SVG 1.1//EN" "http://www.w3.org/Graphics/SVG/1.1/DTD/svg11.dtd">
<svg width="100%" height="100%" viewBox="0 0 261 261" version="1.1" xmlns="http://www.w3.org/2000/svg" xmlns:xlink="http://www.w3.org/1999/xlink" xml:space="preserve" xmlns:serif="http://www.serif.com/" style="fill-rule:evenodd;clip-rule:evenodd;stroke-linejoin:round;stroke-miterlimit:2;">
    <g transform="matrix(1,0,0,1,-31886.4,-2902.3)">
        <g transform="matrix(0.052336,-0.99863,0.99863,0.052336,31879.6,3155.52)">
            <path id="Tracé_1913-2" d="M132.217,260.4L128.149,260.4C125.486,260.084 123.576,258.564 121.739,256.712C110.036,244.925 98.298,233.174 86.525,221.458C85.657,220.528 84.721,219.664 83.725,218.873C80.541,216.515 78.218,217.122 76.869,220.856C75.716,224.044 73.995,226.997 71.79,229.572C59.47,244.145 35.99,242.781 25.548,226.822C16.734,213.506 20.358,195.31 33.6,186.386C35.461,185.205 37.456,184.249 39.543,183.538C43.259,182.138 43.881,179.856 41.523,176.672C40.732,175.676 39.868,174.74 38.939,173.872C27.198,162.127 15.447,150.389 3.688,138.66C1.836,136.822 0.316,134.913 0,132.249L0,128.181C0.414,125.762 1.653,123.559 3.506,121.949C15.711,109.827 27.882,97.671 40.019,85.48C40.258,85.24 40.497,84.999 40.739,84.763C45.112,80.512 48.894,81.263 50.893,87.025C54.286,96.812 66.017,104.219 76.193,104.316C88.006,104.428 99.979,96.168 103.256,84.06C107.039,70.08 99.731,55.778 87.022,50.977C86.223,50.693 85.453,50.335 84.722,49.906C81.895,48.172 81.289,45.567 83.052,42.742C83.682,41.837 84.413,41.008 85.232,40.269C97.515,27.982 109.954,15.848 122,3.335C126.548,-1.108 133.926,-1.078 138.437,3.402C150.048,15.509 162.079,27.213 173.945,39.076C174.806,40.012 175.747,40.871 176.758,41.643C179.899,43.843 182.173,43.22 183.483,39.625C184.631,36.435 186.346,33.479 188.543,30.897C194.069,24.427 202.163,20.695 210.671,20.695C226.635,20.695 239.771,33.832 239.771,49.795C239.771,59.598 234.818,68.765 226.618,74.137C224.821,75.26 222.9,76.173 220.895,76.859C217.063,78.288 216.441,80.628 218.938,83.897C219.688,84.817 220.498,85.685 221.364,86.497C233.227,98.363 244.937,110.388 257.036,122.007C261.496,126.54 261.488,133.92 257.019,138.444C244.501,150.484 232.377,162.934 220.083,175.208C215.12,180.163 211.624,179.422 209.256,172.895C205.95,163.783 194.689,156.305 184.377,156.122C172.217,155.907 160.156,164.427 157.131,176.429C154.459,187.029 156.931,196.376 164.873,204.105C167.431,206.588 170.489,208.497 173.842,209.705C178.983,211.611 179.814,215.416 175.974,219.285C163.141,232.218 150.218,245.061 137.362,257.97C135.915,259.258 134.128,260.102 132.215,260.403" style="fill:rgb(64,17,119);fill-rule:nonzero;"/>
        </g>
    </g>
</svg>
