<?xml version="1.0" encoding="UTF-8" standalone="no"?>
<!DOCTYPE svg PUBLIC "-//W3C//DTD SVG 1.1//EN" "http://www.w3.org/Graphics/SVG/1.1/DTD/svg11.dtd">
<svg width="100%" height="100%" viewBox="0 0 1110 2249" version="1.1" xmlns="http://www.w3.org/2000/svg" xmlns:xlink="http://www.w3.org/1999/xlink" xml:space="preserve" xmlns:serif="http://www.serif.com/" style="fill-rule:evenodd;clip-rule:evenodd;stroke-linejoin:round;stroke-miterlimit:2;">
    <g transform="matrix(1,0,0,1,-15506.5,-929.671)">
        <g transform="matrix(3.6263,0,0,4.15287,-34761.8,-283.758)">
            <g transform="matrix(0.735368,0,0,0.642126,13750.6,292.188)">
                <g id="Groupe_65">
                    <g id="Groupe_64">
                        <g id="Tracé_214" transform="matrix(1,0,0,1,0,0.004)">
                            <path d="M361.916,376.1L362.126,415.992L357.326,415.992L357.536,376.1L361.916,376.1ZM340.154,375.032C341.537,375.146 342.928,375.251 344.205,375.461C343.671,381.647 343.032,387.834 342.505,394.02C341.005,393.81 339.512,393.705 338.13,393.486C338.769,387.3 339.513,381.218 340.151,375.032M379.404,374.927C380.043,381.113 380.795,387.3 381.539,393.486C380.039,393.705 378.555,393.81 377.059,393.915C376.525,387.729 375.886,381.542 375.353,375.356C376.631,375.251 378.022,375.146 379.404,374.927M322.869,372.048C324.155,372.372 325.538,372.582 326.815,372.906C325.537,378.987 324.365,385.06 323.087,391.141C321.696,390.817 320.313,390.607 318.817,390.292C320.2,384.211 321.486,378.129 322.868,372.048M396.684,372.048C398.075,378.129 399.353,384.106 400.735,390.187C399.352,390.502 397.856,390.817 396.474,391.141C395.188,385.06 394.015,378.987 392.738,372.906C394.016,372.582 395.407,372.372 396.684,372.048M273.705,352.527C274.983,353.28 276.26,354.027 277.538,354.662L274.659,359.676C272.533,363.412 270.503,367.14 268.368,370.876L268.268,370.876L257.815,389.33L253.701,386.88L273.705,352.527ZM445.646,352.527L465.806,386.88C464.415,387.729 463.032,388.472 461.65,389.33L441.813,354.662C443.082,353.918 444.368,353.279 445.646,352.527M305.915,367.358C307.193,367.787 308.479,368.207 309.756,368.531C307.945,374.507 306.028,380.37 304.208,386.346C302.817,385.917 301.434,385.488 300.052,384.955C301.968,379.092 303.99,373.221 305.915,367.355M413.647,367.25C415.572,373.113 417.593,378.984 419.51,384.95C418.127,385.379 416.742,385.805 415.354,386.228C413.543,380.365 411.626,374.389 409.701,368.528C411.084,368.099 412.37,367.67 413.647,367.25M289.6,360.848C290.773,361.382 292.059,361.916 293.328,362.448C290.773,368.206 288.323,373.858 285.864,379.625C284.482,378.986 283.204,378.339 281.813,377.805C284.482,372.152 287.037,366.5 289.601,360.847M429.971,360.747C432.535,366.4 435.09,372.052 437.759,377.705C436.376,378.344 435.09,378.878 433.708,379.525C431.258,373.759 428.799,368.106 426.244,362.348C427.522,361.919 428.694,361.28 429.972,360.748M259.407,342.928C260.475,343.681 261.542,344.528 262.607,345.282C259.081,350.287 255.458,355.415 251.836,360.534C250.655,359.676 249.482,358.714 248.31,357.865C251.941,352.956 255.678,347.942 259.41,342.928M460.156,342.718C463.892,347.732 467.515,352.746 471.256,357.76C470.083,358.609 468.911,359.466 467.73,360.315C464.107,355.301 460.485,350.182 456.854,345.168C458.001,344.413 459.105,343.595 460.162,342.718M245.87,331.618C246.833,332.581 247.9,333.429 248.854,334.392C244.698,338.977 240.646,343.676 236.49,348.366C235.422,347.403 234.355,346.45 233.279,345.373C237.444,340.788 241.609,336.308 245.87,331.618M473.707,331.518C477.872,336.103 482.133,340.688 486.298,345.282C485.23,346.236 484.163,347.198 482.99,348.266C478.939,343.566 474.774,338.877 470.617,334.292C471.685,333.33 472.638,332.481 473.706,331.518M233.489,319.04C234.443,320.108 235.3,321.175 236.263,322.129C231.678,326.294 227.084,330.555 222.508,334.712C221.537,333.653 220.583,332.586 219.515,331.412C224.205,327.352 228.904,323.196 233.489,319.039M485.966,318.925C490.551,323.09 495.25,327.141 499.94,331.306C498.977,332.365 498.024,333.432 496.956,334.614C492.362,330.344 487.777,326.179 483.192,321.914C484.17,320.968 485.096,319.968 485.966,318.921M222.6,305.276C223.36,306.422 224.181,307.526 225.059,308.584C219.94,312.32 215.031,315.943 210.017,319.684C209.168,318.511 208.311,317.339 207.462,316.158C212.476,312.535 217.595,308.913 222.6,305.282M496.839,305.177C501.958,308.8 506.98,312.326 511.986,315.948C511.137,317.121 510.286,318.293 509.431,319.466C504.417,315.843 499.508,312.107 494.494,308.485C495.247,307.312 496.094,306.245 496.839,305.177M213.005,290.129C213.758,291.52 214.505,292.693 215.245,293.97C209.811,297.17 204.482,300.261 199.145,303.464L199.145,303.359L180.8,314.131C179.942,312.748 179.2,311.357 178.35,309.975L213.005,290.129ZM506.337,290.129L541.005,309.861L538.66,314.026L504.2,293.866C504.977,292.659 505.689,291.412 506.335,290.13M205.331,274.668C205.836,275.939 206.405,277.183 207.037,278.396C201.384,280.96 195.732,283.515 190.079,286.184C189.536,284.801 188.906,283.515 188.268,282.133C194.026,279.674 199.678,277.224 205.331,274.669M514.124,274.555C519.777,277.014 525.429,279.467 531.082,281.914C530.557,283.305 529.91,284.583 529.382,285.974C523.721,283.41 518.068,280.741 512.415,278.291C513.054,277.013 513.596,275.736 514.121,274.555M199.141,258.236C199.57,259.522 199.99,260.8 200.419,262.077C194.556,264.002 188.685,266.023 182.927,267.948C182.393,266.557 181.964,265.174 181.536,263.783C187.407,261.972 193.27,260.047 199.141,258.235M520.202,258.025C526.073,259.941 532.041,261.761 537.912,263.573C537.483,264.956 537.055,266.347 536.521,267.729C530.658,265.813 524.787,263.888 518.921,261.866C519.35,260.58 519.77,259.302 520.199,258.025M194.875,241.172C195.085,242.555 195.409,243.841 195.733,245.118C189.652,246.501 183.57,247.787 177.603,249.169C177.279,247.786 176.955,246.29 176.632,244.899C182.722,243.621 188.795,242.449 194.876,241.171M524.582,240.961C530.558,242.239 536.631,243.411 542.712,244.689C542.397,246.08 542.178,247.568 541.863,248.959C535.782,247.568 529.7,246.29 523.724,245.013C524.048,243.622 524.267,242.344 524.581,240.962M192.32,223.786C192.42,225.064 192.53,226.455 192.74,227.837C186.554,228.476 180.481,229.228 174.295,229.867C174.076,228.476 173.971,226.988 173.866,225.492C179.939,224.958 186.134,224.319 192.32,223.786M527.031,223.567C533.217,224.101 539.404,224.748 545.599,225.282C545.38,226.77 545.275,228.266 545.056,229.648C538.983,229.009 532.797,228.265 526.602,227.627C526.821,226.236 526.926,224.958 527.031,223.567M191.576,205.867L191.576,210.242C185.376,210.342 179.195,210.342 173.008,210.452L173.008,210.347L151.675,210.452L151.675,205.652L191.576,205.867ZM527.776,205.767L567.676,205.548L567.676,210.348L527.776,210.129L527.776,205.76L527.776,205.767ZM192.206,192.635C186.133,192.101 179.938,191.462 173.752,190.929C173.971,189.441 174.076,187.945 174.294,186.554C180.367,187.202 186.553,187.945 192.634,188.584C192.534,189.975 192.424,191.253 192.205,192.635M526.605,188.374C532.805,187.735 538.986,186.983 545.059,186.344C545.278,187.735 545.383,189.223 545.488,190.719C539.407,191.253 533.22,191.892 527.034,192.425C526.934,191.147 526.824,189.756 526.605,188.374M194.77,175.248C188.689,173.97 182.721,172.798 176.631,171.625C176.955,170.125 177.173,168.746 177.489,167.25C183.57,168.641 189.538,169.919 195.628,171.196C195.304,172.579 194.98,173.865 194.77,175.247M523.724,171.091C529.7,169.7 535.782,168.422 541.749,167.04C542.073,168.423 542.397,169.919 542.712,171.301C536.631,172.579 530.558,173.76 524.582,175.037C524.267,173.646 524.048,172.368 523.725,171.091M199.031,158.186C193.168,156.261 187.297,154.45 181.431,152.638C181.86,151.247 182.288,149.864 182.822,148.482C188.685,150.398 194.442,152.315 200.314,154.345C199.885,155.623 199.457,156.909 199.028,158.186M518.928,154.135C524.791,152.21 530.662,150.189 536.42,148.264C536.954,149.655 537.382,151.038 537.811,152.429C531.94,154.24 526.077,156.157 520.206,157.977C519.777,156.691 519.357,155.413 518.928,154.136M205.228,141.65C199.575,139.2 193.923,136.747 188.27,134.291C188.795,133.013 189.434,131.631 189.97,130.24C195.631,132.804 201.179,135.359 206.823,137.923C206.298,139.201 205.755,140.373 205.23,141.651M512.419,137.7C518.072,135.25 523.619,132.686 529.272,130.131C529.806,131.409 530.444,132.8 531.083,134.077C525.439,136.527 519.786,138.98 514.125,141.436C513.6,140.263 513.057,138.986 512.419,137.7M215.149,122.135C214.396,123.308 213.649,124.585 213.005,125.863C207.571,122.879 202.242,119.782 196.905,116.798L196.905,116.693L178.346,106.132C178.446,105.922 180.691,101.976 180.691,101.976L215.149,122.135ZM504.202,122.021L538.555,101.869C539.404,103.252 540.155,104.643 541.005,106.025L506.337,125.862C505.593,124.584 504.849,123.307 504.202,122.021M222.394,111.04C217.38,107.409 212.366,103.891 207.361,100.269C208.21,99.096 209.061,97.915 209.916,96.743C214.825,100.374 219.839,104.111 224.748,107.733C223.995,108.801 223.148,109.868 222.394,111.041M494.494,107.523C499.403,103.892 504.417,100.155 509.317,96.533C510.174,97.706 511.029,98.878 511.881,100.051C506.867,103.682 501.862,107.2 496.839,110.822C496.095,109.763 495.246,108.582 494.494,107.522M233.271,97.171C228.694,93.119 224,88.963 219.41,84.9C220.373,83.832 221.326,82.765 222.394,81.7C226.874,85.865 231.459,90.021 236.053,94.186C235.09,95.14 234.128,96.207 233.27,97.17M483.192,93.97C487.777,89.814 492.266,85.657 496.842,81.492C497.804,82.56 498.767,83.627 499.835,84.8C495.145,88.851 490.551,92.9 485.966,97.068C485.003,96 484.155,95.038 483.192,93.968M245.537,84.588C241.381,80.003 237.224,75.523 233.059,70.929C234.127,69.975 235.194,69.013 236.367,68.05C240.418,72.635 244.478,77.229 248.635,81.814C247.567,82.768 246.605,83.625 245.535,84.588M470.61,81.7C474.661,77.115 478.818,72.53 482.869,67.84C483.937,68.794 485.004,69.756 486.177,70.824C481.916,75.304 477.751,79.889 473.594,84.474C472.631,83.52 471.573,82.558 470.61,81.7M259.084,73.283C255.461,68.374 251.725,63.36 248.103,58.451C249.276,57.594 250.448,56.742 251.621,55.896C255.252,60.901 258.77,65.915 262.392,70.929C261.22,71.682 260.152,72.529 259.084,73.283M456.847,70.824C460.364,65.81 464,60.8 467.513,55.782C468.694,56.64 469.858,57.488 471.031,58.346C467.408,63.255 463.777,68.26 460.049,73.169C458.981,72.425 457.914,71.569 456.849,70.824M277.538,61.33C276.26,62.083 274.983,62.83 273.705,63.465L271.141,59.195C268.901,55.249 266.661,51.416 264.316,47.68L264.416,47.58L253.536,29.121C254.927,28.263 256.319,27.521 257.701,26.662L277.538,61.33ZM441.814,61.33L461.591,26.662L465.7,29.015L445.646,63.465C444.368,62.721 443.082,61.965 441.813,61.33M289.272,55.249C286.717,49.701 284.267,44.149 281.598,38.51C282.981,37.862 284.372,37.329 285.649,36.795C288.099,42.343 290.558,47.995 293.008,53.657C291.731,54.191 290.558,54.716 289.272,55.25M426.125,53.544C428.584,47.891 431.034,42.344 433.484,36.691C434.875,37.225 436.153,37.864 437.544,38.397C434.98,44.05 432.416,49.597 429.861,55.25C428.646,54.617 427.399,54.047 426.125,53.544M305.705,48.744C303.675,42.986 301.75,37.115 299.834,31.252C301.225,30.823 302.611,30.395 303.99,29.966C305.81,35.837 307.621,41.7 309.538,47.458C308.269,47.887 306.983,48.316 305.705,48.744M409.6,47.461C411.516,41.598 413.328,35.736 415.148,29.861C416.531,30.29 417.922,30.824 419.304,31.252C417.388,37.01 415.463,42.872 413.546,48.744C412.268,48.315 410.982,47.886 409.6,47.458M322.562,43.94C321.276,37.972 319.998,31.996 318.616,26.02C319.999,25.705 321.495,25.381 322.877,25.066C324.163,31.139 325.327,37.115 326.613,43.091C325.23,43.406 323.944,43.73 322.562,43.94M392.537,43.091C393.815,37.115 394.987,31.033 396.265,25.066C397.656,25.381 399.039,25.705 400.535,25.915C399.152,31.996 397.866,37.973 396.589,43.94C395.198,43.625 393.92,43.406 392.538,43.091M339.949,41.061C339.302,34.875 338.558,28.793 337.814,22.712C339.302,22.502 340.798,22.397 342.294,22.292C342.828,28.365 343.467,34.446 344,40.632C342.609,40.746 341.331,40.851 339.949,41.061M375.149,40.527C375.779,34.446 376.322,28.364 376.849,22.292C378.349,22.397 379.842,22.502 381.224,22.712C380.585,28.793 379.841,34.875 379.203,40.956C377.821,40.851 376.534,40.746 375.152,40.527M357.442,39.888L357.226,0L362.026,0L361.816,39.892L357.441,39.892L357.442,39.888Z" style="fill:rgb(64,17,119);"/>
                        </g>
                        <g transform="matrix(1,0,0,1,-101.495,0)">
                            <g transform="matrix(2.29621e-17,-0.375,0.375,2.29621e-17,-466.967,6480.26)">
                                <rect x="16055.4" y="1932.6" width="12.24" height="106.379" style="fill:rgb(64,17,119);"/>
                            </g>
                            <g transform="matrix(0.375,0,1.38778e-17,4.27221,-5767.62,-7867.64)">
                                <rect x="16055.4" y="1889.77" width="12.24" height="149.214" style="fill:rgb(64,17,119);"/>
                            </g>
                            <g transform="matrix(2.29621e-17,-0.375,0.375,2.29621e-17,-466.967,6557.95)">
                                <rect x="16055.4" y="1932.6" width="12.24" height="106.379" style="fill:rgb(64,17,119);"/>
                            </g>
                            <g transform="matrix(2.29621e-17,-0.375,0.375,2.29621e-17,-466.967,6635.63)">
                                <rect x="16055.4" y="1932.6" width="12.24" height="106.379" style="fill:rgb(64,17,119);"/>
                            </g>
                            <g transform="matrix(2.29621e-17,-0.375,0.375,2.29621e-17,-466.967,6713.32)">
                                <rect x="16055.4" y="1932.6" width="12.24" height="106.379" style="fill:rgb(64,17,119);"/>
                            </g>
                            <g transform="matrix(2.29621e-17,-0.375,0.375,2.29621e-17,-466.967,6791.01)">
                                <rect x="16055.4" y="1932.6" width="12.24" height="106.379" style="fill:rgb(64,17,119);"/>
                            </g>
                            <g transform="matrix(2.29621e-17,-0.375,0.375,2.29621e-17,-466.967,6864.11)">
                                <rect x="16055.4" y="1932.6" width="12.24" height="106.379" style="fill:rgb(64,17,119);"/>
                            </g>
                        </g>
                        <g id="Tracé_215" transform="matrix(1,0,0,1,217.028,81.938)">
                            <path d="M28,125.252C28.001,62.341 79.769,10.573 142.68,10.572L142.68,11.692C142.678,11.692 142.677,11.692 142.675,11.692C80.381,11.692 29.12,62.953 29.12,125.247C29.12,125.249 29.12,125.25 29.12,125.252L28,125.252Z" style="fill:rgb(251,149,5);"/>
                        </g>
                        <g id="Tracé_216" transform="matrix(1,0,0,1,368.892,95.54)">
                            <path d="M48.158,12.327C102.638,43.785 121.585,114.498 90.133,168.981L89.162,168.421C99.129,151.159 104.378,131.573 104.378,111.64C104.378,71.121 82.691,33.559 47.6,13.3L48.158,12.327Z" style="fill:rgb(251,149,5);"/>
                        </g>
                        <g id="Tracé_217" transform="matrix(1,0,0,1,230.637,233.795)">
                            <path d="M186.413,72.7C131.93,104.153 61.217,85.206 29.759,30.726L30.73,30.166C50.989,65.257 88.553,86.944 129.072,86.944C149.005,86.944 168.591,81.696 185.853,71.729L186.413,72.7Z" style="fill:rgb(251,149,5);"/>
                        </g>
                        <g id="Tracé_218" transform="matrix(1,0,0,1,187.79,52.629)">
                            <path d="M288.245,63.323C279.296,51.908 268.716,41.872 256.845,33.537C190.129,-13.276 97.938,2.956 51.063,69.754C4.206,136.544 20.3,228.78 87.009,275.585C153.718,322.39 245.93,306.149 292.787,239.359C301.13,227.468 307.675,214.412 312.212,200.613L290.328,193.42C286.491,205.065 280.962,216.083 273.921,226.12C234.37,282.5 156.555,296.191 100.265,256.693C43.975,217.195 30.378,139.362 69.928,82.993C109.478,26.624 187.294,12.922 243.584,52.42C253.613,59.445 262.544,67.92 270.084,77.568L288.245,63.323Z" style="fill:rgb(64,17,119);"/>
                        </g>
                        <g id="Tracé_219" transform="matrix(1,0,0,1,176.177,40.506)">
                            <path d="M171.319,5.7C189.469,4.304 207.725,6 225.308,10.714C311.278,33.742 362.335,122.32 339.269,208.4C316.203,294.48 227.7,345.66 141.734,322.62C75.749,304.918 27.857,247.112 22.734,178.986L29.017,178.513C33.944,243.974 79.96,299.52 143.362,316.539C225.972,338.677 311.024,289.492 333.188,206.768C355.352,124.044 306.281,38.931 223.68,16.793C206.784,12.266 189.241,10.636 171.8,11.972L171.319,5.7Z" style="fill:rgb(251,149,5);"/>
                        </g>
                    </g>
                </g>
            </g>
        </g>
    </g>
</svg>
