<?xml version="1.0" encoding="UTF-8" standalone="no"?>
<!DOCTYPE svg PUBLIC "-//W3C//DTD SVG 1.1//EN" "http://www.w3.org/Graphics/SVG/1.1/DTD/svg11.dtd">
<svg width="100%" height="100%" viewBox="0 0 5120 3318" version="1.1" xmlns="http://www.w3.org/2000/svg" xmlns:xlink="http://www.w3.org/1999/xlink" xml:space="preserve" xmlns:serif="http://www.serif.com/" style="fill-rule:evenodd;clip-rule:evenodd;stroke-linejoin:round;stroke-miterlimit:2;">
    <g transform="matrix(1,0,0,1,913.931,-11432.6)">
        <g transform="matrix(2.66667,0,0,2.66667,-6649,171)">
            <g id="Rectangle_50" transform="matrix(1,0,0,1,2150.65,4223.11)">
                <rect x="0" y="0" width="1920" height="1244" style="fill:none;"/>
                <clipPath id="_clip1">
                    <rect x="0" y="0" width="1920" height="1244"/>
                </clipPath>
                <g clip-path="url(#_clip1)">
                    <g id="Groupe_181" transform="matrix(1,-4.16334e-17,0,1,71,830.002)">
                        <g id="Groupe_180">
                            <g id="Tracé_1382" transform="matrix(1,0,0,1,32.463,0)">
                                <path d="M388.046,45.488C417.205,74.572 433.587,114.121 433.534,155.305L433.505,155.305C433.505,155.313 433.505,155.321 433.505,155.329C433.505,240.524 363.4,310.629 278.205,310.629C193.01,310.629 122.905,240.524 122.905,155.329C122.905,70.134 193.01,0.029 278.205,0.029C278.213,0.029 278.221,0.029 278.229,0.029L278.229,0C319.413,-0.053 358.962,16.329 388.046,45.488M280.921,29.153L278.228,29.153C278.219,29.153 278.209,29.153 278.2,29.153C208.98,29.153 152.02,86.113 152.02,155.333C152.02,224.553 208.98,281.513 278.2,281.513C347.42,281.513 404.38,224.553 404.38,155.333C404.38,155.322 404.38,155.311 404.38,155.3L404.38,152.607C402.942,85.435 348.093,30.588 280.921,29.153" style="fill:rgb(64,17,119);fill-rule:nonzero;"/>
                            </g>
                            <g id="Tracé_1383" transform="matrix(1,0,0,1,0,56.849)">
                                <path d="M128.883,220.433L188.742,280.293L188.779,280.332L193.89,285.443L174.713,304.62L84.667,394.664C75.377,403.867 62.817,409.036 49.74,409.036C22.516,409.036 0.114,386.634 0.114,359.41C0.114,346.333 5.283,333.773 14.486,324.483L104.531,234.436L118.561,220.408L118.6,220.37L123.709,215.259L128.883,220.433Z" style="fill:rgb(64,17,119);fill-rule:nonzero;"/>
                            </g>
                            <g id="Tracé_1384" transform="matrix(1,0,0,1,27.608,49.624)">
                                <path d="M104.537,239.5L149.265,284.228L200.865,232.628C192.924,225.933 185.155,218.793 177.558,211.208C169.977,203.627 162.837,195.858 156.137,187.901L104.537,239.5Z" style="fill:rgb(64,17,119);"/>
                            </g>
                            <g id="Tracé_1385" transform="matrix(1,0,0,1,43.947,9.064)">
                                <path d="M197.879,77.377C215.967,59.28 240.476,49.017 266.063,48.826C270.031,48.811 273.288,45.541 273.288,41.573C273.288,37.594 270.014,34.32 266.035,34.32C266.026,34.32 266.016,34.32 266.007,34.32C224.418,34.633 186.288,58.061 167.215,95.02C166.685,96.049 166.408,97.19 166.408,98.348C166.408,102.332 169.687,105.611 173.672,105.611C176.387,105.611 178.884,104.089 180.128,101.675C184.722,92.687 190.714,84.485 197.878,77.375" style="fill:rgb(64,17,119);"/>
                            </g>
                        </g>
                    </g>
                </g>
            </g>
        </g>
    </g>
</svg>
