<?xml version="1.0" encoding="UTF-8" standalone="no"?>
<!DOCTYPE svg PUBLIC "-//W3C//DTD SVG 1.1//EN" "http://www.w3.org/Graphics/SVG/1.1/DTD/svg11.dtd">
<svg width="100%" height="100%" viewBox="0 0 52 52" version="1.1" xmlns="http://www.w3.org/2000/svg" xmlns:xlink="http://www.w3.org/1999/xlink" xml:space="preserve" xmlns:serif="http://www.serif.com/" style="fill-rule:evenodd;clip-rule:evenodd;stroke-linejoin:round;stroke-miterlimit:2;">
    <g transform="matrix(1,0,0,1,-1050.73,-824.084)">
        <g transform="matrix(1,0,0,1,-6649,171)">
            <g transform="matrix(1.04898,0,0,1.04898,6503.89,-138.896)">
                <rect x="1140" y="755" width="49" height="49" style="fill:none;"/>
                <clipPath id="_clip1">
                    <rect x="1140" y="755" width="49" height="49"/>
                </clipPath>
                <g clip-path="url(#_clip1)">
                    <g transform="matrix(1.13987,0,0,1.13987,357.328,578.175)">
                        <path d="M729.445,163.172C728.079,163.79 726.57,164.164 725.097,164.411C725.796,164.294 726.823,163.028 727.235,162.516C727.863,161.736 728.384,160.846 728.677,159.885C728.715,159.81 728.744,159.716 728.668,159.659C728.574,159.622 728.513,159.641 728.438,159.678C726.793,160.559 725.093,161.198 723.283,161.651C723.133,161.688 723.021,161.651 722.927,161.556C722.778,161.387 722.636,161.227 722.477,161.096C721.716,160.449 720.9,159.941 719.98,159.566C718.772,159.074 717.452,158.865 716.151,158.949C714.884,159.032 713.641,159.388 712.518,159.975C711.392,160.563 710.387,161.382 709.586,162.369C708.759,163.391 708.149,164.596 707.836,165.875C707.536,167.109 707.56,168.329 707.744,169.576C707.772,169.783 707.753,169.811 707.566,169.783C700.487,168.729 694.619,166.197 689.855,160.768C689.648,160.532 689.536,160.532 689.367,160.786C687.282,163.911 688.293,168.93 690.897,171.397C691.245,171.727 691.601,172.055 691.986,172.355C691.845,172.384 690.113,172.197 688.568,171.397C688.362,171.266 688.257,171.342 688.239,171.576C688.22,171.914 688.249,172.225 688.295,172.591C688.695,175.758 690.889,178.687 693.893,179.831C694.249,179.981 694.644,180.112 695.028,180.178C694.344,180.328 693.639,180.435 691.676,180.281C691.432,180.235 691.339,180.357 691.432,180.592C692.908,184.611 696.09,185.808 698.475,186.489C698.794,186.545 699.114,186.545 699.434,186.62C699.414,186.649 699.395,186.649 699.376,186.677C698.586,187.882 695.844,188.779 694.567,189.225C692.245,190.037 689.716,190.402 687.262,190.16C686.87,190.102 686.787,190.107 686.681,190.16C686.573,190.227 686.666,190.321 686.793,190.423C687.291,190.752 687.798,191.043 688.315,191.325C689.873,192.151 691.498,192.809 693.198,193.278C701.973,195.701 711.857,193.92 718.446,187.374C723.62,182.233 725.434,175.143 725.434,168.045C725.434,167.767 725.762,167.614 725.956,167.467C727.303,166.456 728.389,165.245 729.393,163.894C729.619,163.59 729.621,163.32 729.621,163.209L729.621,163.172C729.621,163.058 729.619,163.093 729.445,163.172Z" style="fill:white;fill-rule:nonzero;"/>
                    </g>
                </g>
            </g>
        </g>
    </g>
</svg>
